<svg id="Layer_1" data-name="Layer 1" xmlns="http://www.w3.org/2000/svg" viewBox="0 0 400 400"><defs><style>.cls-1,.cls-7{fill:#fff;}.cls-2{fill:red;}.cls-3,.cls-4,.cls-5,.cls-6{fill:none;}.cls-3,.cls-4,.cls-5,.cls-6,.cls-7{stroke:#000;stroke-width:1.88px;}.cls-3,.cls-4,.cls-7{stroke-linecap:round;}.cls-3,.cls-6{stroke-linejoin:round;}.cls-4,.cls-5,.cls-7{stroke-miterlimit:10;}</style></defs><title>Desk_Dudes24</title><path class="cls-1" d="M68.13,175.62l-.2.76h0a53,53,0,0,1,5.4,1.77l-2.8,18.09,0,.29c-.92-.41-1.84-.78-2.74-1.1s-1.89-.44-2.81-.59q-.32,4.17-.31,8.46A111.76,111.76,0,0,0,66,220.93a7.51,7.51,0,0,1,1.57-.07c3-.19,6,1.54,6.74,5.59l.43.07a94.7,94.7,0,0,1-2.81-23.22c0-32.64,15.66-59.11,35-59.11a23.82,23.82,0,0,1,15,5.69c6.31,5.07,11.58,13.23,15.12,23.33a7.8,7.8,0,0,1,2.3,3.22,8.48,8.48,0,0,0,3.79,4.5h0l3.95.52C141.48,153.9,125.62,134,106.92,134,89.56,134,74.65,151.14,68.13,175.62Z"/><path d="M301.37,334.61s-61.74-1.32-60.47,5.05c1.39,6.94,66.42,4.64,66.42,4.64Z"/><polygon class="cls-1" points="323.65 339.84 323.65 344.03 298.32 344.03 273.94 344.03 273.94 339.84 275.14 339.84 297.12 339.84 298.32 339.84 322.46 339.84 323.65 339.84"/><path class="cls-1" d="M293.55,329.16l.14-.18c.27-1.2.87-1.57,1.37-1.68a3.68,3.68,0,0,1,.6-.05l24.18-.07h.69s2.74,6.47,1.93,12.4v.26H275.14a10.21,10.21,0,0,1,3.11-12.61l.07-.05c3-2.18,7.31-2.78,12.29,0h0A21.35,21.35,0,0,1,293.55,329.16Z"/><path class="cls-1" d="M315.84,240.07l5.89,22.23a90.22,90.22,0,0,0-6.31,41.16h-.13l-19.65.63C297.12,275.39,308.57,251.28,315.84,240.07Z"/><polygon class="cls-1" points="320.53 327.18 320.53 327.18 319.84 327.18 320.53 327.18"/><polygon class="cls-1" points="320.53 327.18 319.84 327.18 296.75 327.18 296.75 327.18 320.53 327.18"/><path class="cls-1" d="M320.53,327.18H296.74a114.54,114.54,0,0,1-1.1-23.07l19.95-.64h.12A88.85,88.85,0,0,0,320.53,327.18Z"/><path class="cls-2" d="M315.75,239.75l.09.32c-7.27,11.21-18.72,35.32-20.2,64h-.3C296.83,275.12,308.49,250.82,315.75,239.75Z"/><polyline class="cls-3" points="296.75 327.18 296.75 327.18 319.84 327.18 320.53 327.18 320.53 327.18"/><path class="cls-3" d="M295.13,330.52c-.53-.5-1.06-.95-1.58-1.36h0a21.35,21.35,0,0,0-2.91-2h0c-5-2.78-9.31-2.18-12.29,0l-.07.05a10.21,10.21,0,0,0-3.11,12.61"/><polygon class="cls-3" points="322.46 339.84 323.65 339.84 323.65 344.03 298.32 344.03 273.94 344.03 273.94 339.84 275.14 339.84 297.12 339.84 298.32 339.84 322.46 339.84"/><path class="cls-3" d="M293.69,329c.27-1.2.87-1.57,1.37-1.68a3.68,3.68,0,0,1,.6-.05l24.18-.07h.69"/><path class="cls-3" d="M316.05,239.75l-.21.32c-7.27,11.21-18.72,35.32-20.2,64h0a114.54,114.54,0,0,0,1.1,23.07h23.79s2.74,6.47,1.93,12.4"/><path class="cls-3" d="M320.53,327.18a88.85,88.85,0,0,1-4.82-23.72A90.36,90.36,0,0,1,322,262.3"/><path class="cls-4" d="M284.26,329.32a5.31,5.31,0,0,0-4.72,3.26"/><line class="cls-4" x1="295.64" y1="304.11" x2="315.59" y2="303.47"/><path d="M78.66,334s-66.46-1.42-65.09,5.44c1.5,7.46,71.49,5,71.49,5Z"/><path d="M154.62,334s-66.46-1.42-65.08,5.44c.61,3.07,11.74,5.43,25.88,5.58,20.69.21,45.61-.59,45.61-.59Z"/><path class="cls-1" d="M75.16,226.73c-.44-.11-.9-.2-1.39-.28l0-.12A6.23,6.23,0,0,0,68,220.86a7.52,7.52,0,0,0-1.55.27,7.9,7.9,0,0,0-5,4.2h0v0l-.89.12A6.66,6.66,0,0,0,56,227.92a2.35,2.35,0,0,0,.08-1h0a4.71,4.71,0,0,0-1,1c.55-1.84-1.09-3.16-2.83-3.37h0a3.19,3.19,0,0,0-2.51.68c-.38.33-.22-.27-.38.33-4.29-4.86-7-8.85-7.54-13.48-1.46-12.1,8.54-21.44,23.52-17.52.92.24,1.85.53,2.8.87s2.67.48,3.62.8l2.69-17.85c-1.84-.71-4.37-1.53-6.13-2h0c-8.94-2.41-16.77-1.83-23.25.74l-.06,0c-24.73,11.07-29,51.74-.07,63.57h0l.79.32h0a4.82,4.82,0,0,0,.85,3.24,4.8,4.8,0,0,0,3,1.39,3.8,3.8,0,0,0,3.11-2.3l.26.06a4.59,4.59,0,0,0,.11.84h0c1,4.89,8.59,6.33,13.69,6.51v-.05l.92.05V251h0c-1.1.85-1.55,3.29,2.19,4.49a4.09,4.09,0,0,0,.86.17,8.59,8.59,0,0,0,6.2-4.17,6.1,6.1,0,0,0,.8-4.31,5,5,0,0,0-.47-1.3l.33-.17.37-.2a4.91,4.91,0,0,0,2.78-3.77h0a6.28,6.28,0,0,0-1-4.1,5.6,5.6,0,0,0-.55-.64,4.39,4.39,0,0,0,.67-.23C83.93,235,82.57,228.6,75.16,226.73Zm3.43,9.07a10.24,10.24,0,0,1,.91.66A10.24,10.24,0,0,0,78.59,235.8Z"/><path class="cls-1" d="M75.86,226.73c-.44-.11-.91-.2-1.4-.28a.5.5,0,0,0,0-.12,6.23,6.23,0,0,0-5.8-5.47,7.54,7.54,0,0,0-1.54.27,7.88,7.88,0,0,0-5,4.2h0v0c-.29,0-.6.07-.9.12a6.64,6.64,0,0,0-4.52,2.42,2.35,2.35,0,0,0,.08-1h0a4.49,4.49,0,0,0-1,1c.54-1.84-1.09-3.16-2.83-3.37h0a3.36,3.36,0,0,0-2.08.38c-4,4.12-4.42,11.22-4.38,16.61a.92.92,0,0,1,0,.29,4,4,0,0,0,.82,2.44,4.77,4.77,0,0,0,3,1.39,3.8,3.8,0,0,0,3.12-2.3l.25.06a5.67,5.67,0,0,0,.11.84h0c1,4.89,8.6,6.33,13.7,6.51v-.05l.92.05V251h0c-1.11.85-1.55,3.29,2.19,4.49a4,4,0,0,0,.86.17,8.59,8.59,0,0,0,6.2-4.17,6,6,0,0,0,.79-4.31,4.39,4.39,0,0,0-.47-1.3l.33-.17a3.22,3.22,0,0,0,.37-.2,4.9,4.9,0,0,0,2.79-3.77h0a6.34,6.34,0,0,0-1-4.1,5.8,5.8,0,0,0-.56-.64,4.52,4.52,0,0,0,.68-.23C84.62,235,83.27,228.6,75.86,226.73Zm3.43,9.07a10,10,0,0,1,.9.66A10,10,0,0,0,79.29,235.8Z"/><path class="cls-1" d="M44.61,177.14c-25.85,10.3-30.46,52.31-.19,63.89h0l.13-.31h0C15.57,228.88,19.88,188.21,44.61,177.14Z"/><path class="cls-1" d="M44.42,241a4.76,4.76,0,0,0,.85,3.24,4.84,4.84,0,0,0,3.88,1.39,4.83,4.83,0,0,1-3-1.39,4.82,4.82,0,0,1-.84-3.24h0l-.78-.32-.13.31Z"/><path class="cls-1" d="M55.7,226.88a2.35,2.35,0,0,1-.08,1,6.61,6.61,0,0,1,4.52-2.42l0-.12A8.82,8.82,0,0,0,55.7,226.88Z"/><path class="cls-1" d="M60.12,225.33v0l0,.12q.45-.08.9-.12v0h0a7.85,7.85,0,0,1,5-4.2l0-.19A7.84,7.84,0,0,0,60.12,225.33Z"/><path class="cls-1" d="M66,220.93h0l0,.19a7.42,7.42,0,0,1,1.54-.27A7.51,7.51,0,0,0,66,220.93Z"/><path class="cls-1" d="M66.32,251c-1.1.85-1.54,3.29,2.2,4.49a4.55,4.55,0,0,0,1.78.17,4,4,0,0,1-.86-.17c-3.75-1.2-3.3-3.64-2.2-4.49h0v-.18l-.92-.05v.05h0Z"/><path class="cls-1" d="M67.74,195.43c.9.32,1.82.69,2.74,1.1l0-.29C69.58,195.92,68.65,195.66,67.74,195.43Z"/><path class="cls-1" d="M71.93,203.3a94.7,94.7,0,0,0,2.81,23.22c8.65,1.6,10.06,9.08,4.92,10.43a5.8,5.8,0,0,1,.56.64,6,6,0,0,1,.7,5.28c6.4,12,15.68,19.55,26,19.55a23.88,23.88,0,0,0,15-5.67l-.18-.22C110,247,102,226.73,102,203.32s8.07-43.69,19.77-53.25l.15-.19a23.82,23.82,0,0,0-15-5.69C87.59,144.19,71.93,170.66,71.93,203.3Z"/><path class="cls-1" d="M76.94,252.17c5.75,9.47,13.17,16.23,21.47,19h0l12,1.16c21.71-2.94,38.77-32.72,38.77-69,0-1.81-.05-3.61-.13-5.39a27.35,27.35,0,0,1-7.39-.85c.13,2.05.2,4.14.2,6.24,0,23.6-8.18,44-20,53.45a23.88,23.88,0,0,1-15,5.67c-10.32,0-19.6-7.55-26-19.55a5.47,5.47,0,0,1-2.85,2.79l-.33.17a5,5,0,0,1,.47,1.3A6.32,6.32,0,0,1,76.94,252.17Z"/><path class="cls-1" d="M89.93,101.66c-1,24,17.27,32.24,17.55,32.37h36.63l1.22,0v0s-18.56-8.2-17.55-32.38c0,0-3.3,1.72-4.89,1.53s-3.11-1.17-4.77-1.33c-1.85-.18-3.38.8-5.13,1.17a8.83,8.83,0,0,1-4.92-.62,8.59,8.59,0,0,0-5.68-.45c-1.85.49-3.71,1.47-5.67,1.42C94.27,103.32,89.93,101.66,89.93,101.66Z"/><path class="cls-1" d="M110.45,272.34l-12-1.16a26.68,26.68,0,0,0,8.51,1.4h.75A25.62,25.62,0,0,0,110.45,272.34Z"/><path class="cls-1" d="M107.48,134h-.56c18.7,0,34.56,19.87,40.15,47.42l3.07.41h0a31.87,31.87,0,0,0,12.42-4.4,7.87,7.87,0,1,1,7.82,13.67,62.06,62.06,0,0,1-8.44,4.06,38.12,38.12,0,0,1-12.86,2.72c.08,1.78.13,3.58.13,5.39,0,36.32-17.06,66.1-38.77,69l2.39.23h20.71L153.16,271c18.12-6.46,31.91-32,33.16-63.07l-.56-16.77c-3.44-31.83-20.15-56.15-40.43-57.1l-1.22,0Z"/><path class="cls-1" d="M107.67,272.57h5.17l-2.39-.23A25.62,25.62,0,0,1,107.67,272.57Z"/><path class="cls-1" d="M133.55,272.58h10.56a26.86,26.86,0,0,0,9-1.59Z"/><polygon class="cls-1" points="51.24 338.1 47.21 338.08 47.83 344.25 115.23 344.61 115.56 338.16 113.09 338.08 51.24 338.1"/><polygon class="cls-1" points="201.11 338.1 139.26 338.08 136.79 338.16 137.12 344.61 204.52 344.25 205.14 338.08 201.11 338.1"/><path class="cls-1" d="M147.07,181.45l-3.95-.52a7.1,7.1,0,0,0,1.85.68,14.81,14.81,0,0,0,2.19.31Z"/><path class="cls-1" d="M112.84,272.57h-5.92a26.68,26.68,0,0,1-8.51-1.4h0l-1.35-.13S76.68,286.64,78,319.9A39.21,39.21,0,0,1,83.37,323l28.52.08s-7.94-18.93,7-49.89Z"/><path class="cls-1" d="M155.46,270.81l-2.3.18a26.86,26.86,0,0,1-9,1.59h-10.6c14.9,31,7.12,50.21,7.12,50.21l28.71-.07a38.67,38.67,0,0,1,5.14-2.89C175.9,286.45,155.46,270.81,155.46,270.81Z"/><path class="cls-1" d="M150.14,181.86l-3.07-.41.09.47A17.67,17.67,0,0,0,150.14,181.86Z"/><path class="cls-1" d="M173.38,180.76a7.87,7.87,0,0,0-10.7-3.09,31.89,31.89,0,0,1-12.49,4.21h0a18.56,18.56,0,0,1-3,0,14.81,14.81,0,0,1-2.18-.35,7,7,0,0,1-1.84-.71h0a8.52,8.52,0,0,1-3.72-4.56,7.77,7.77,0,0,0-2.25-3.25,7.89,7.89,0,0,0-12.57,8.67l.07.18h0a25.71,25.71,0,0,0,14.63,14.37c.72.27,1.44.5,2.18.7a27.14,27.14,0,0,0,7.37,1,37.93,37.93,0,0,0,12.9-2.51,61.89,61.89,0,0,0,8.51-3.93A7.87,7.87,0,0,0,173.38,180.76Z"/><path class="cls-1" d="M83.37,323.53A38.19,38.19,0,0,0,78,320.47C63,313.38,44,316.25,51.24,338l61.85,0c.72-6.26.67-9.75-1.2-14.33Z"/><path class="cls-1" d="M174.48,320.4a36.56,36.56,0,0,0-5.14,2.89l-.6.41-.11-.17-28.17.07c-1.87,4.58-1.92,8.07-1.2,14.33l61.85,0C208.29,316.33,189.53,313.4,174.48,320.4Z"/><path class="cls-1" d="M185.76,191.15l.56,16.77q.09-2.29.09-4.62A112.34,112.34,0,0,0,185.76,191.15Z"/><path class="cls-1" d="M186.32,207.92l.09,2.8s36.07,19.51,47.39-27.23c-9.05,2.73-16.34.34-18.72-1.21a6.2,6.2,0,0,1-.84-.69c-4.84,24.9-28.48,9.56-28.48,9.56a112.34,112.34,0,0,1,.65,12.15Q186.41,205.63,186.32,207.92Z"/><path class="cls-1" d="M243.8,168.65l-.42-.1h0a2.2,2.2,0,0,0,.2-.23,5.35,5.35,0,0,0,.07-7l-.36-.09h0a6.31,6.31,0,0,0-.14-5c-1.7-4.38-7.08-5.72-19.13-2.24h0l-.55-.12c1.8-6.13,1.37-15.31-3.68-15.63-5.6-.36-3.66,10.49-4,13.87-1.45,15-6.75,18.3-1.09,24.09h0s-3,2.88-.47,5.45a6.2,6.2,0,0,0,.84.69c2.38,1.55,9.67,3.94,18.72,1.21l.29-.08c3.6-1.13,2.6-5.42.28-5.84a8.61,8.61,0,0,0,.92.07h0a14.82,14.82,0,0,0,2.3-.13C240.86,177.07,247.77,174.39,243.8,168.65Z"/><path class="cls-3" d="M169.34,323.29l-28.71.07s7.78-19.25-7.12-50.21"/><path class="cls-3" d="M155.46,271.37s20.44,15.65,19,49"/><path class="cls-3" d="M111.89,323.6s-7.94-18.92,7-49.88"/><path class="cls-3" d="M97.06,271.62s-20.38,15.59-19,48.85"/><path class="cls-4" d="M83.72,323.53l28.17.07c1.87,4.58,1.92,8.07,1.2,14.33l-61.85,0C44,316.25,63,313.38,78,320.47a38.19,38.19,0,0,1,5.34,3.06A33.06,33.06,0,0,1,88,327.32"/><polyline class="cls-4" points="51.24 337.96 47.21 337.94 47.83 344.11 115.23 344.46 115.56 338.02 113.09 337.94"/><path class="cls-4" d="M168.63,323.53l-28.17.07c-1.87,4.58-1.92,8.07-1.2,14.33l61.85,0c7.18-21.63-11.58-24.56-26.63-17.56a36.56,36.56,0,0,0-5.14,2.89l-.6.41a32.29,32.29,0,0,0-4.34,3.62"/><polyline class="cls-4" points="201.11 337.96 205.14 337.94 204.52 344.11 137.12 344.46 136.79 338.02 139.26 337.94"/><path class="cls-3" d="M214.24,182.15c-4.84,24.91-28.48,9.57-28.48,9.57"/><path class="cls-3" d="M186.41,211.29s36.07,19.51,47.39-27.23"/><line class="cls-5" x1="185.76" y1="191.72" x2="186.32" y2="208.48"/><path class="cls-3" d="M234.32,178.13h0"/><path class="cls-3" d="M214.71,176.71s-3,2.88-.47,5.44a5.56,5.56,0,0,0,.84.7c2.38,1.55,9.67,3.93,18.72,1.21l.29-.09c3.6-1.12,2.6-5.41.28-5.84"/><path class="cls-3" d="M222.88,156.36c.18-.63.38-1.29.58-2,1.8-6.13,1.37-15.32-3.68-15.64-5.6-.35-3.66,10.5-4,13.88-1.45,15-6.75,18.3-1.09,24.08"/><path class="cls-3" d="M224,154.5c12.05-3.49,17.43-2.15,19.13,2.24a6.31,6.31,0,0,1,.14,5,6.57,6.57,0,0,1-2.62,2.77,11.48,11.48,0,0,1-9,1.09,6,6,0,0,1-2.49-1.58c-1.27-1.37-1.21-2.63,0-4.21s5.32-1.89,8-2"/><path class="cls-3" d="M243.64,161.86a5.34,5.34,0,0,1-.07,7l-.2.24a8.71,8.71,0,0,1-4.72,2.55,18.29,18.29,0,0,1-4.08.48c-6.66-.07-6.22-5.41-3-6.48"/><path class="cls-3" d="M243.8,169.22c4,5.74-2.94,8.42-6.2,8.85a13.77,13.77,0,0,1-2.3.14h0a8.52,8.52,0,0,1-.92-.08h-.05c-5-.7-3.49-5.44.25-5.95h0"/><path class="cls-3" d="M226.37,179.32c-7.88.58-11.66-2.61-11.66-2.61h0"/><path class="cls-5" d="M67.93,176.94l.2-.75c6.52-24.48,21.43-41.6,38.79-41.6,18.7,0,34.56,19.88,40.15,47.43"/><path class="cls-5" d="M66,221.5a111.85,111.85,0,0,1-1.38-17.63c0-2.86.1-5.69.31-8.46a2.64,2.64,0,0,1,0-.28"/><path class="cls-5" d="M149.09,198.47c.08,1.78.13,3.58.13,5.4,0,36.31-17.06,66.1-38.77,69a25.62,25.62,0,0,1-2.78.22l-.75,0a26.68,26.68,0,0,1-8.51-1.4h0c-8.3-2.78-15.72-9.54-21.47-19"/><path class="cls-5" d="M74.79,227.3a1.6,1.6,0,0,1-.05-.21,94.76,94.76,0,0,1-2.81-23.22c0-32.65,15.66-59.11,35-59.11a23.82,23.82,0,0,1,15,5.69c6.31,5.06,11.58,13.22,15.12,23.32"/><path class="cls-5" d="M141.7,197.63q.2,3.08.2,6.24c0,23.6-8.18,44-20,53.44a23.82,23.82,0,0,1-15,5.67c-10.32,0-19.6-7.54-26-19.55"/><path class="cls-5" d="M121.72,257.1h0C110,247.52,102,227.29,102,203.89s8.07-43.69,19.77-53.25"/><path class="cls-5" d="M106.92,134.59h37.19c.41,0,.81,0,1.22,0,20.28.94,37,25.27,40.43,57.1a112.07,112.07,0,0,1,.65,12.15c0,1.55,0,3.09-.09,4.61-1.25,31.11-15,56.61-33.16,63.08a26.86,26.86,0,0,1-9,1.59H107.67"/><path class="cls-6" d="M145.33,134.59s-18.56-8.2-17.55-32.37c0,0-3.3,1.72-4.89,1.52s-3.11-1.16-4.77-1.32c-1.85-.19-3.38.8-5.13,1.17a8.83,8.83,0,0,1-4.92-.63,8.65,8.65,0,0,0-5.68-.44c-1.85.48-3.71,1.46-5.67,1.42-2.45-.06-6.79-1.72-6.79-1.72-1,24,17.27,32.25,17.55,32.37h0"/><path class="cls-3" d="M71,226.79a18.42,18.42,0,0,1,2.4.11c.32,0,.64.07.94.12l.43.07c8.65,1.6,10.06,9.07,4.92,10.43"/><path class="cls-3" d="M70.77,234.08a15.23,15.23,0,0,1,6.75,1.86,10.39,10.39,0,0,1,1.9,1.35l.24.23a5,5,0,0,1,.56.64,5.94,5.94,0,0,1,.7,5.27,5.45,5.45,0,0,1-2.85,2.8"/><path class="cls-3" d="M71.08,251.19a22,22,0,0,1-3.83.14l-.92,0c-5.34-.33-12.62-2-12.89-7.31"/><path class="cls-3" d="M61,225.9h0a7.9,7.9,0,0,1,5-4.21,7.4,7.4,0,0,1,1.54-.26c3-.2,6,1.53,6.74,5.59h0"/><path class="cls-3" d="M71.72,242.3c2,.63,4.55,1.78,5.8,3.73.08.12.15.24.22.37a5,5,0,0,1,.47,1.3,6.33,6.33,0,0,1-1.27,5c-1.63,2.2-4.39,3.65-6.64,3.44a4,4,0,0,1-.86-.18c-3.75-1.2-3.3-3.63-2.2-4.48"/><path class="cls-3" d="M68.71,241.59a20.08,20.08,0,0,1,3,.71"/><path class="cls-3" d="M55.62,228.49a4.38,4.38,0,0,0-.66,1.59"/><path class="cls-3" d="M65.37,226A19.44,19.44,0,0,0,61,226h0l-.9.12a6.61,6.61,0,0,0-4.52,2.42"/><path class="cls-3" d="M51.85,225.12a2.72,2.72,0,0,0-2.42,2.06"/><path class="cls-3" d="M55.7,227.45c-.25-1.57-2.16-2.54-3.83-2.33"/><path class="cls-3" d="M55.62,228.49h0a2.35,2.35,0,0,0,.08-1"/><path class="cls-3" d="M52.63,244.83a4.92,4.92,0,0,0,.56-.9c.08-.18.16-.37.23-.57"/><path class="cls-3" d="M48.45,229.29s-3.06,7.49-3.11,12.3a4.83,4.83,0,0,0,.84,3.25,4.82,4.82,0,0,0,3,1.38,3.79,3.79,0,0,0,3.48-1.39"/><path class="cls-3" d="M71.4,197.1l-.87-.3c-1-.31-1.88-.58-2.79-.8s-1.89-.44-2.81-.59c-15.16-2.5-24.44,6.76-23.23,17.2.52,4.45,2.95,9.12,7.65,13.18l.08.08"/><path class="cls-3" d="M44.67,177.68c6.49-2.89,14.39-3.74,23.46-1.49a52.26,52.26,0,0,1,6.3,2"/><path class="cls-3" d="M45.34,241.59h0l-.78-.31h0c-29-11.83-24.67-52.5.06-63.57"/><path class="cls-4" d="M132,180a17.84,17.84,0,0,0,8.78,8.92,18.64,18.64,0,0,0,7.66,1.59c4.83,0,10.92-1.52,18.54-5.85"/><path class="cls-5" d="M150.15,182.43A31.74,31.74,0,0,0,162.57,178a7.88,7.88,0,1,1,7.82,13.68,62,62,0,0,1-8.44,4.05,37.64,37.64,0,0,1-12.86,2.72,27.35,27.35,0,0,1-7.39-.84c-.73-.19-1.46-.41-2.18-.67a25.71,25.71,0,0,1-14.86-14.14h0s0-.11-.07-.17A7.89,7.89,0,1,1,139.33,177a8.48,8.48,0,0,0,3.79,4.5"/><path class="cls-5" d="M143.12,181.49a7.1,7.1,0,0,0,1.85.69,14.81,14.81,0,0,0,2.19.31,18.79,18.79,0,0,0,3-.06"/><line class="cls-4" x1="131.99" y1="180.01" x2="129.72" y2="180.88"/><line class="cls-4" x1="134.31" y1="179.12" x2="131.99" y2="180.01"/><path class="cls-3" d="M144.76,276.56a72.62,72.62,0,0,1,13.42,38"/><line class="cls-3" x1="144.76" y1="276.56" x2="144.76" y2="276.56"/><line class="cls-3" x1="146.2" y1="315.63" x2="168.07" y2="314.56"/><path class="cls-3" d="M106.92,275.1S95,289.93,93.5,313.1"/><line class="cls-3" x1="105.48" y1="314.17" x2="83.61" y2="313.1"/><path class="cls-1" d="M307.41,166.78l1.35,17s-37.31,22.11-49.59-22.84l16.8-3.25C279.36,184.28,307.41,166.78,307.41,166.78Z"/><path class="cls-3" d="M308,184s-36.59,21.85-48.87-23.1l16.8-3.25c3.39,26.61,31.44,9.11,31.44,9.11"/><polygon class="cls-1" points="347.3 287.13 339.85 302.52 330.4 303.47 330.22 303.61 319.77 289.83 347.3 287.13"/><rect class="cls-1" x="319.38" y="283.03" width="27.71" height="5.33" transform="translate(-26.23 33.79) rotate(-5.59)"/><path class="cls-1" d="M341.77,230.72l5,50.62L319.15,284l-4.87-49.66.22,0C332.31,238.75,340.67,231.75,341.77,230.72Z"/><path class="cls-1" d="M339.47,207.23l2.3,23.49c-1.1,1-9.46,8-27.27,3.64l-.22,0-1.55-15.82.13,0c20.58-.09,26.59-11.31,26.59-11.31Z"/><path class="cls-1" d="M339.85,302.52l-3,6.18a1.52,1.52,0,0,1-2.58.25l-4.06-5.34.18-.14Z"/><path class="cls-1" d="M339.21,204.57l.26,2.66h0s-6,11.22-26.59,11.31l-.13,0-1.19-12.17,10.77-.71,1.38,2.11,1.39-2.29Z"/><path class="cls-1" d="M339.21,204.57l-7-10.75-7.11,11.68-2.77.18-5-7.65-5.79,8.36-2.46-25.14h.17c17.71,5,26.29-1.71,27.41-2.67Z"/><polygon class="cls-1" points="332.19 193.82 339.21 204.57 325.08 205.5 332.19 193.82"/><path class="cls-1" d="M337.32,134.1a3.88,3.88,0,0,1-3.48,4.24l-.6,0a3.05,3.05,0,0,1-.52,0l-5.68-58-.33-3.28v0l0-.31h0a13.59,13.59,0,0,0-1-3.68,4.11,4.11,0,0,1,1.11-.28l.6-.06a3.89,3.89,0,0,1,4.24,3.49Z"/><path class="cls-1" d="M334.15,153l2.51,25.55c-1.12,1-9.7,7.64-27.41,2.67h-.17l-1.83-18.65h.13c20.36,0,26.7-9.56,26.7-9.56Z"/><path class="cls-1" d="M333.53,146.7l.62,6.32h-.07s-6.34,9.56-26.7,9.56h-.13l-1.42-14.47h0C318.46,153.14,333.53,146.7,333.53,146.7Z"/><path class="cls-1" d="M332.72,138.41l.81,8.29s-15.07,6.44-27.7,1.43h0l-5.18-52.78-.64-6-.55-6.2,24.23-2.38L329,134.91A3.87,3.87,0,0,0,332.72,138.41Z"/><path class="cls-1" d="M327,80.43l5.68,58a3.87,3.87,0,0,1-3.72-3.5l-5.31-54.15Z"/><rect class="cls-1" x="323.52" y="77.31" width="3.36" height="3.3" transform="translate(-6.17 32.23) rotate(-5.62)"/><path class="cls-1" d="M326.71,77.13v0l-3.34.33,0-.34,3.34-.32Z"/><path class="cls-2" d="M326.68,76.82l0,.31,0-.31Z"/><path class="cls-1" d="M326.68,76.82l-3.34.32v0a3.89,3.89,0,0,1,2.37-4A13.59,13.59,0,0,1,326.68,76.82Z"/><polygon class="cls-2" points="325.08 205.5 323.69 207.79 322.31 205.68 325.08 205.5"/><rect class="cls-1" x="299.24" y="78.66" width="24.35" height="3.3" transform="translate(-6.34 30.69) rotate(-5.58)"/><path class="cls-2" d="M323.34,77.14l0,.34-24.24,2.37,0-.33Z"/><path class="cls-1" d="M323.33,77.1v0L299.1,79.52a13.86,13.86,0,0,1,26.6-6.38A3.89,3.89,0,0,0,323.33,77.1Z"/><polygon class="cls-1" points="317.33 198.03 322.31 205.68 311.54 206.38 317.33 198.03"/><path class="cls-2" d="M299.1,79.52l0,.33,0-.33Z"/><path class="cls-4" d="M319.77,289.83l10.45,13.78,4.06,5.34a1.52,1.52,0,0,0,2.58-.25l3-6.18,7.45-15.39"/><polyline class="cls-4" points="339.9 302.52 339.85 302.52 330.4 303.47"/><line class="cls-4" x1="299.46" y1="83.14" x2="300.01" y2="89.34"/><polyline class="cls-4" points="300.65 95.35 305.83 148.13 307.25 162.6 309.07 181.25 311.54 206.38 312.73 218.56 314.29 234.38 319.15 284.04 346.73 281.34 341.77 230.72 339.47 207.23 339.21 204.57 336.66 178.57 334.15 153.02 333.53 146.7 332.72 138.41"/><path class="cls-4" d="M325.7,73.14a13.86,13.86,0,0,0-26.6,6.38"/><polyline class="cls-4" points="323.34 77.14 299.11 79.52 299.1 79.52 299.13 79.85 299.46 83.14 323.69 80.76"/><rect class="cls-3" x="319.38" y="283.03" width="27.71" height="5.33" transform="matrix(1, -0.1, 0.1, 1, -26.29, 33.89)"/><path class="cls-4" d="M332.72,138.41a3.05,3.05,0,0,0,.52,0l.6,0a3.88,3.88,0,0,0,3.48-4.24l-5.67-57.81a3.89,3.89,0,0,0-4.24-3.49l-.6.06a4.11,4.11,0,0,0-1.11.28,3.89,3.89,0,0,0-2.37,4v0l0,.34.32,3.28L329,134.91A3.87,3.87,0,0,0,332.72,138.41Z"/><polyline class="cls-4" points="339.21 204.57 332.19 193.82 325.08 205.5 323.69 207.79 322.31 205.68 317.33 198.03 311.54 206.38"/><path class="cls-4" d="M307.38,162.59c20.36,0,26.7-9.56,26.7-9.56"/><path class="cls-4" d="M309.25,181.24c17.71,5,26.29-1.71,27.41-2.67l.12-.11"/><path class="cls-4" d="M312.86,218.54c20.58-.09,26.59-11.31,26.59-11.31"/><path class="cls-4" d="M314.5,234.36c17.81,4.39,26.17-2.61,27.27-3.64l.13-.12"/><path class="cls-3" d="M333.53,146.7s-15.07,6.44-27.7,1.43"/><path class="cls-3" d="M306.2,90.09c1.57-1.72,6.93-1.93,8.56,2.24"/><path class="cls-1" d="M249.06,138.52c1.13-4.13,5.89-5.85,17.14-3.79l.48-.17c-2.2-5.39-4.84-12.59-.52-14.22,3.43-1.29,4.79,2,5.78,4.93,3.49,10.3,8,26.16,4.35,29.05,0,0,4,3.05.86,5.35a28.74,28.74,0,0,1-18.08,2.68c-3.15-.57-2.81-4.47-.92-5.08a13.73,13.73,0,0,1-2.11.09c-3-.1-9.5-1.89-6.44-7.46l.18-.32a4.88,4.88,0,0,1-.7-6.37l.31-.12A5.74,5.74,0,0,1,249.06,138.52Z"/><path class="cls-3" d="M267.4,136.31l-.72-1.74c-2.2-5.4-4.84-12.6-.52-14.23,3.43-1.29,4.79,2,5.78,4.93,3.49,10.3,8,26.16,4.35,29.05,0,0,4,3.05.86,5.35a28.74,28.74,0,0,1-18.08,2.68c-3.15-.57-2.81-4.47-.92-5.08"/><path class="cls-3" d="M266.2,134.73c-11.25-2-16-.34-17.14,3.79a5.78,5.78,0,0,0,.33,4.57,6.06,6.06,0,0,0,2.64,2.28,10.43,10.43,0,0,0,8.3.15,5.44,5.44,0,0,0,2.12-1.66c1-1.36.85-2.5-.42-3.82s-5.48-.81-7.3-.51"/><path class="cls-3" d="M249.08,143.21a4.86,4.86,0,0,0,.7,6.36,7.83,7.83,0,0,0,4.72,2.08,17.09,17.09,0,0,0,3.75.06c6-.68,5.14-5.49,2.1-6.16"/><path class="cls-3" d="M249.61,149.9c-3.07,5.57,3.45,7.36,6.43,7.46a13.73,13.73,0,0,0,2.11-.09h0c5.54-.74,3.74-5.41.09-5.53"/><path class="cls-3" d="M266.35,157.45c7.73-.48,9.94-3.13,9.94-3.13"/><path class="cls-3" d="M295.23,90.39c1.58-1.73,6.93-1.94,8.56,2.23"/><ellipse class="cls-7" cx="171.49" cy="145.92" rx="10.6" ry="14.82" transform="translate(-10.33 13.09) rotate(-4.24)"/><ellipse class="cls-7" cx="157.64" cy="146.56" rx="10.6" ry="14.82" transform="translate(-10.42 12.07) rotate(-4.24)"/><ellipse cx="160.81" cy="143.15" rx="2.85" ry="4.78" transform="translate(-3.55 4.1) rotate(-1.44)"/><ellipse class="cls-1" cx="158.93" cy="139.74" rx="1.15" ry="2.06" transform="translate(-3.47 4.05) rotate(-1.44)"/><ellipse cx="175.21" cy="142.07" rx="2.85" ry="4.78" transform="translate(-1.2 1.49) rotate(-0.49)"/><ellipse class="cls-1" cx="173.39" cy="138.63" rx="1.15" ry="2.06" transform="translate(-1.17 1.48) rotate(-0.49)"/><polygon points="64.61 195.14 64.61 200.43 71.4 202.37 71.4 197.03 64.61 195.14"/><path d="M116.58,277.19,89,280.09a19,19,0,0,1,8.45-8.61l21.07,1.46C118.44,273.3,116.58,277.19,116.58,277.19Z"/><path d="M133.51,273.05l3.23,7.12s21.92-5.53,21.44-6.07-3.21-3.62-3.21-3.62-7.48,2.86-12.6,2.75Z"/><polygon points="148.76 202.8 141.9 201.78 141.71 197.06 148.76 198.63 148.76 202.8"/><path class="cls-1" d="M363.15,218.64l-.23.06c-.27,5.24-7.93,6.74-13,6.92v.17c1,.8,1.46,3.09-2.06,4.22s-9.22-3.13-8.26-7.82A4.68,4.68,0,0,1,340,221l-.31-.16c-4.46-2.17-2.89-6.38-2-7.59a5.15,5.15,0,0,1,.52-.61c-4.91-1.29-3.46-8.54,5-9.88,1.26-7.07,9.82-6.64,12.5-1.06v.05c1.92.2,4,.8,5.11,2.4-.93-3.15,4.9-4.7,5.82-1.24,15.82-17.92-10.1-37.63-30.05-24.47l-1.7-17.33c47.47-18.58,72.66,41.2,35.61,55.37h0a4.5,4.5,0,0,1-.79,3.05C368.43,221,364.69,221.87,363.15,218.64Z"/><path class="cls-1" d="M366.86,202.68l3.67,14.41a3.91,3.91,0,0,1-.78,2.41c-1.32,1.47-5.06,2.36-6.6-.86l-.23.06c-.27,5.24-7.93,6.74-13,6.92v.17c1,.8,1.46,3.09-2.06,4.22s-9.22-3.13-8.26-7.82a4.36,4.36,0,0,1,.45-1.22l-.32-.16c-4.46-2.17-2.89-6.38-2-7.59a5.15,5.15,0,0,1,.52-.61c-4.91-1.29-3.46-8.54,5-9.88,1.26-7.07,9.82-6.64,12.5-1.06v.05c1.93.2,4,.8,5.11,2.4-.93-3.15,4.9-4.7,5.82-1.24Z"/><path class="cls-3" d="M346.42,202.51a19.31,19.31,0,0,0-3.15.22c-8.5,1.34-9.95,8.59-5,9.88"/><path class="cls-3" d="M346.6,209.38a12.94,12.94,0,0,0-8.37,3.23,5.15,5.15,0,0,0-.52.61c-.87,1.21-2.44,5.42,2,7.59"/><path class="cls-3" d="M346.32,225.48a21.26,21.26,0,0,0,3.6.14c5.07-.18,12.73-1.68,13-6.92"/><path class="cls-3" d="M355.77,201.67c-2.68-5.58-11.24-6-12.5,1.06h0"/><path class="cls-3" d="M348.55,216.45S342,217.32,340,221a4.68,4.68,0,0,0-.44,1.22c-1,4.69,4.73,8.95,8.26,7.82s3.1-3.42,2.06-4.22"/><path class="cls-3" d="M351.69,201.8a18.54,18.54,0,0,1,4.07-.08c1.92.2,4,.8,5.11,2.4a4.18,4.18,0,0,1,.62,1.49"/><path class="cls-3" d="M360.87,204.12c-.93-3.15,4.9-4.7,5.82-1.24"/><path class="cls-3" d="M367.62,204.87s2.88,7,2.92,11.58a4.5,4.5,0,0,1-.79,3.05c-1.32,1.47-5.06,2.37-6.6-.86a5.29,5.29,0,0,1-.22-.53"/><path class="cls-3" d="M370.55,216.45c37.05-14.17,11.86-73.95-35.61-55.37l1.7,17.33c19.95-13.16,45.87,6.55,30.05,24.47"/><polygon class="cls-1" points="340.55 339.84 340.55 344.03 315.21 344.03 290.84 344.03 290.84 339.84 292.04 339.84 314.02 339.84 315.21 339.84 339.36 339.84 340.55 339.84"/><path class="cls-1" d="M310.45,329.16l.13-.18c.27-1.2.88-1.57,1.37-1.68a3.84,3.84,0,0,1,.61-.05l24.17-.07h.7s2.73,6.47,1.93,12.4v.26H292a10.2,10.2,0,0,1,3.11-12.61l.06-.05c3-2.18,7.31-2.78,12.3,0h0A22,22,0,0,1,310.45,329.16Z"/><path class="cls-1" d="M332.73,240.07l5.89,22.23a90.36,90.36,0,0,0-6.31,41.16h-.12l-19.66.63C314,275.39,325.46,251.28,332.73,240.07Z"/><polygon class="cls-1" points="337.43 327.18 337.43 327.18 336.74 327.18 337.43 327.18"/><polygon class="cls-1" points="337.43 327.18 336.74 327.18 313.64 327.18 313.64 327.18 337.43 327.18"/><path class="cls-1" d="M337.42,327.18H313.64a114.57,114.57,0,0,1-1.11-23.07l20-.64h.13A89.1,89.1,0,0,0,337.42,327.18Z"/><path class="cls-2" d="M332.65,239.75l.08.32c-7.27,11.21-18.72,35.32-20.2,64h-.29C313.72,275.12,325.39,250.82,332.65,239.75Z"/><polyline class="cls-3" points="313.64 327.18 313.64 327.18 336.74 327.18 337.43 327.18 337.43 327.18"/><path class="cls-3" d="M312,330.52c-.53-.5-1.06-.95-1.58-1.36h0a22,22,0,0,0-2.92-2h0c-5-2.78-9.32-2.18-12.3,0l-.06.05A10.2,10.2,0,0,0,292,339.84"/><polygon class="cls-3" points="339.36 339.84 340.55 339.84 340.55 344.03 315.21 344.03 290.84 344.03 290.84 339.84 292.04 339.84 314.02 339.84 315.21 339.84 339.36 339.84"/><path class="cls-3" d="M310.58,329c.27-1.2.88-1.57,1.37-1.68a3.84,3.84,0,0,1,.61-.05l24.17-.07h.69"/><path class="cls-3" d="M332.94,239.75l-.21.32c-7.27,11.21-18.72,35.32-20.2,64h0a114.57,114.57,0,0,0,1.11,23.07h23.79s2.73,6.47,1.93,12.4"/><path class="cls-3" d="M337.42,327.18a89.1,89.1,0,0,1-4.81-23.72,90.22,90.22,0,0,1,6.31-41.16"/><path class="cls-4" d="M301.15,329.32a5.31,5.31,0,0,0-4.72,3.26"/><line class="cls-4" x1="312.53" y1="304.11" x2="332.48" y2="303.47"/><ellipse class="cls-7" cx="298.62" cy="105.89" rx="7.91" ry="11.06" transform="translate(-0.84 2.39) rotate(-0.46)"/><ellipse class="cls-7" cx="308.96" cy="105.51" rx="7.91" ry="11.06" transform="translate(-0.83 2.48) rotate(-0.46)"/><ellipse cx="307.04" cy="108.09" rx="2.12" ry="3.57" transform="translate(-15.57 64.75) rotate(-11.74)"/><ellipse class="cls-1" cx="307.82" cy="105.3" rx="0.86" ry="1.53" transform="translate(-14.99 64.85) rotate(-11.74)"/><ellipse cx="296.15" cy="108.81" rx="2.12" ry="3.57" transform="translate(-15.95 62.55) rotate(-11.74)"/><ellipse class="cls-1" cx="296.93" cy="106.02" rx="0.86" ry="1.53" transform="translate(-15.36 62.65) rotate(-11.74)"/><path class="cls-4" d="M322.35,115.83s1.5,8.14-8.5,7.8"/><line class="cls-7" x1="324.32" y1="115.57" x2="320.59" y2="115.94"/></svg>