<svg id="Layer_1" data-name="Layer 1" xmlns="http://www.w3.org/2000/svg" viewBox="0 0 400 400"><defs><style>.cls-1,.cls-5{fill:#fff;}.cls-2,.cls-3,.cls-4{fill:none;}.cls-2,.cls-3,.cls-4,.cls-5{stroke:#000;stroke-width:1.88px;}.cls-2,.cls-3,.cls-5{stroke-linecap:round;}.cls-2,.cls-4,.cls-5{stroke-miterlimit:10;}.cls-3{stroke-linejoin:round;}</style></defs><title>Desk_Dudes5</title><path d="M83.33,345.48s-77.93,1.93-75.43-5,85-9.19,85-9.19Z"/><path class="cls-1" d="M353,5.29l7.38,2v0a3.79,3.79,0,0,0-2.13.08L326.77,18a3.73,3.73,0,0,0-2.4,4.58l16.78,58a3.75,3.75,0,0,0,2.47,2.53L336.31,81a3.59,3.59,0,0,1-2.49-2.46L316.88,20.49a3.59,3.59,0,0,1,2.29-4.4L350.85,5.36A3.58,3.58,0,0,1,353,5.29Z"/><path class="cls-1" d="M241.84,147.29c10.37-5.3,18.43,9.42,1,15.51-7,2.44-18.74,2.31-24.91-1.92-5-3.47-8.88-11.34-3.32-16.37,3.92-3.55,9-.9,13.76,1.44C233.53,148.52,238.61,148.94,241.84,147.29Z"/><path class="cls-1" d="M257.65,150.45c1,5.78-2,14-13.57,18a37.12,37.12,0,0,1-11.82,1.82c-3.88,0-25.88-1.3-25.24-18.46.16-4.44,1.38-8.54,4.72-11.56a12.49,12.49,0,0,1,8.53-3.21c4.53,0,9.49,3.86,13.14,4.74,6.87,1.65,8.63-1,11.54-1.35C251.22,139.58,256.6,144.27,257.65,150.45ZM242.84,162.8c17.43-6.09,9.37-20.81-1-15.51-3.23,1.65-8.31,1.23-13.47-1.34-4.72-2.34-9.84-5-13.76-1.44-5.56,5-1.72,12.9,3.32,16.37C224.1,165.11,235.85,165.24,242.84,162.8Z"/><path class="cls-1" d="M314.52,108.64a8.33,8.33,0,0,1,9.2,8.28V217.24a8.34,8.34,0,0,1-7.54,8.29l-32.13,3.06L255,231.36l-10.73,1h0l-15.73,1.5-10.48,1-56.14,5.34a8.32,8.32,0,0,1-9.11-8.28V133.23a8.31,8.31,0,0,1,7.45-8.27Zm-70.36,59.83c11.58-4.06,14.55-12.24,13.57-18-1.05-6.18-6.43-10.87-12.7-10-2.92.4-4.67,3-11.54,1.35-3.65-.88-8.61-4.74-13.14-4.74a12.49,12.49,0,0,0-8.53,3.21c-3.34,3-4.56,7.12-4.72,11.56-.64,17.16,21.36,18.47,25.24,18.46A37.12,37.12,0,0,0,244.16,168.47Z"/><path class="cls-1" d="M204.61,312l.09-.33-.2-1.29.14-.41a6.09,6.09,0,0,1-.75-.28c-7.42-3.51-22-15.27-26.11-21.58l-17,15.05,21.6,32.08,31.82,0v-.33S219.45,316.17,204.61,312Z"/><path class="cls-1" d="M185.34,279.69l25.53,20.52h0q6.93-2.85,13.07-6l-3.14-31.19A165.37,165.37,0,0,1,185.34,279.69Z"/><path class="cls-1" d="M254.91,231.36a87.34,87.34,0,0,1-8.4,10.75l7.67,32C272.65,257.87,281,240.66,284,228.59Z"/><path class="cls-1" d="M210.87,300.22h0l-25.53-20.52a6.29,6.29,0,0,0-8.65,5.75,5.44,5.44,0,0,0,1.09,2.71h0c4.09,6.31,18.69,18.07,26.11,21.58a6.09,6.09,0,0,0,.75.28c3.72,1,9.45-1.92,6.72-8.83A7.3,7.3,0,0,0,210.87,300.22Z"/><path class="cls-1" d="M261.5,295.24a10.53,10.53,0,0,0-2.42-.72c-7.58-1.47-25.44-.38-34.72,3l-.09,0a6.94,6.94,0,0,0-2.54,11.12,6,6,0,0,0,2.91,1.35c8,2,28.67.47,37.29-2.3a5.17,5.17,0,0,0,1.28-.61C266.7,304.88,268.58,298.59,261.5,295.24Z"/><path class="cls-1" d="M392.55,65.64h0c3.06-15-4.42-42.82-25.52-40.76l2.39,8.8,0,.22c-9.47,1.42-23.31,0-23.89,6.35-.35,3.89,1.68,6,4.61,7.08l0,.11c-4,.73-4.8,6.62-3.38,9.26a9.23,9.23,0,0,0,4.13,4h0c-3.16-.31-2.86,5.43-.83,8.59,2.41,3.76,9.15,3.79,14.86,2.57l0,.14s-1.16,2.33-.36,4.23a3.19,3.19,0,0,0,1,1.29,5.34,5.34,0,0,0,2.41,1c5.32,1,21-3.43,25.13-5.7a4.19,4.19,0,0,0,.73-.48C395.58,70.87,396.4,66.45,392.55,65.64Z"/><path class="cls-1" d="M263.21,307.13a5.17,5.17,0,0,1-1.28.61c-8.62,2.77-29.25,4.3-37.29,2.3l-.49,26.23,65.61-.85C303.78,323.15,293.9,295.81,263.21,307.13Z"/><path class="cls-1" d="M393.12,72.79c-4.16,2.27-19.81,6.65-25.13,5.7a5.34,5.34,0,0,1-2.41-1c13.94,51.54-23.87,55.53-41.94,54.65a70.55,70.55,0,0,1-9-1L314.28,154a80.46,80.46,0,0,0,9.36.77C346.47,155.43,402.53,149.51,393.12,72.79Z"/><polygon class="cls-1" points="182.4 335.28 160.8 303.2 153.02 308.36 161.35 322.15 167.81 321.53 165.52 327.36 176.46 344.5 214.04 344.49 216.41 335.23 214.22 335.23 182.4 335.28"/><polygon class="cls-1" points="289.76 335.42 224.15 336.27 221.65 336.38 219.99 344.92 235.67 344.9 239.36 339.71 242.42 344.54 293.38 344.92 294.87 335.46 289.76 335.42"/><path class="cls-1" d="M254.18,274.1l-7.67-32-2.33-9.73-15.73,1.5-10.48,1,2.83,28.19,3.14,31.19.33,3.31.09,0c9.28-3.4,27.14-4.49,34.72-3Z"/><path class="cls-1" d="M350.88,60.7c-3.16-.31-2.86,5.43-.83,8.59,2.41,3.76,9.15,3.79,14.86,2.57l0,.14s-1.16,2.33-.36,4.23L346,83.09a3.74,3.74,0,0,1-4.89-2.47l-16.78-58a3.73,3.73,0,0,1,2.4-4.58L358.19,7.42a3.79,3.79,0,0,1,2.13-.08A3.74,3.74,0,0,1,363,10l4,14.89,2.39,8.8,0,.22c-9.47,1.42-23.31,0-23.89,6.35-.35,3.89,1.68,6,4.61,7.08l0,.11c-4,.73-4.8,6.62-3.38,9.26a9.23,9.23,0,0,0,4.13,4Z"/><polyline class="cls-2" points="224.27 297.57 223.94 294.25 220.8 263.07 217.97 234.88"/><polygon points="239.37 340.5 242.21 344.83 235.9 345.57 239.37 340.5"/><polygon class="cls-1" points="244.18 232.38 244.18 232.38 228.45 233.88 244.18 232.38"/><path class="cls-3" d="M185.34,279.69a6.29,6.29,0,0,0-8.65,5.75,5.44,5.44,0,0,0,1.09,2.71"/><path class="cls-3" d="M177.78,288.15c4.09,6.31,18.69,18.07,26.11,21.58a6.09,6.09,0,0,0,.75.28c3.72,1,9.45-1.92,6.72-8.83a7.3,7.3,0,0,0-.49-1"/><polygon class="cls-2" points="160.8 303.2 153.02 308.36 161.35 322.15 167.81 321.53 165.52 327.36 176.46 344.5 214.04 344.49 216.41 335.23 214.22 335.23 182.4 335.28 160.8 303.2"/><path class="cls-3" d="M214.22,334.9s5.23-18.73-9.61-22.86c-4.25-1.18-10.13-1.17-18.25.82"/><polyline class="cls-3" points="160.8 303.2 177.78 288.15 177.78 288.15 177.78 288.15"/><path class="cls-2" d="M246.51,242.11a87.34,87.34,0,0,0,8.4-10.75"/><path class="cls-2" d="M223.94,294.26q-6.15,3.11-13.07,6h0l-25.53-20.52a165.37,165.37,0,0,0,35.46-16.62"/><path class="cls-2" d="M284,228.59c-2.93,12.07-11.32,29.28-29.79,45.51"/><polyline class="cls-2" points="244.18 232.38 244.18 232.38 246.51 242.11 254.18 274.1 259.08 294.52"/><path class="cls-3" d="M263.21,307.13c30.69-11.32,40.57,16,26.55,28.29l5.11.05-1.49,9.45-51-.38-3.06-4.83-3.69,5.19-15.68,0,1.66-8.54,2.5-.11.49-26.23"/><path class="cls-3" d="M224.64,310c8,2,28.67.47,37.29-2.3a5.17,5.17,0,0,0,1.28-.61c3.49-2.25,5.37-8.54-1.71-11.89a10.53,10.53,0,0,0-2.42-.72c-7.58-1.47-25.44-.38-34.72,3l-.09,0a6.94,6.94,0,0,0-2.54,11.12A6,6,0,0,0,224.64,310Z"/><line class="cls-3" x1="289.76" y1="335.42" x2="224.15" y2="336.27"/><path class="cls-3" d="M274,308.92s12.8-1.17,16.75,8.22"/><path class="cls-3" d="M198.82,316.32s7.53-1.36,10.43,5"/><path class="cls-2" d="M323.64,132.17V116.92a8.33,8.33,0,0,0-9.2-8.28L160.17,125a8.31,8.31,0,0,0-7.45,8.27v98.71a8.32,8.32,0,0,0,9.11,8.28L218,234.88l10.48-1,15.73-1.5,10.73-1L284,228.59l32.13-3.06a8.33,8.33,0,0,0,7.54-8.29V154.72"/><path class="cls-2" d="M163.05,134.28l76.79,61.51c4.67,3.55,13.41,2.67,17.48-2.47l57.31-75.92"/><path class="cls-2" d="M365.58,77.52c13.94,51.54-23.87,55.53-41.94,54.65a70.55,70.55,0,0,1-9-1"/><path class="cls-2" d="M314.28,154a80.46,80.46,0,0,0,9.36.77c22.83.71,78.89-5.21,69.48-81.93"/><path class="cls-2" d="M372.46,33.29a29.6,29.6,0,0,1-3,.61c-9.47,1.42-23.31,0-23.89,6.35-.35,3.89,1.68,6,4.61,7.08,5.2,1.94,13.26.67,16,.43"/><path class="cls-2" d="M392.55,65.64c3.06-15-4.42-42.82-25.52-40.76"/><path class="cls-2" d="M350.13,47.44c-4,.73-4.8,6.62-3.38,9.26a9.23,9.23,0,0,0,4.13,4c5.31,2.65,13,.86,17.09-.26"/><path class="cls-2" d="M350.88,60.7c-3.16-.31-2.86,5.43-.83,8.59,2.41,3.76,9.15,3.79,14.86,2.57,1.11-.24,2.18-.52,3.17-.84"/><path class="cls-3" d="M369.42,33.68,367,24.88,363,10a3.74,3.74,0,0,0-2.68-2.65,3.79,3.79,0,0,0-2.13.08L326.77,18a3.73,3.73,0,0,0-2.4,4.58l16.78,58A3.74,3.74,0,0,0,346,83.09l18.54-6.86"/><path class="cls-2" d="M360.39,7.34l-.06,0-7.38-2a3.58,3.58,0,0,0-2.1.07L319.17,16.09a3.59,3.59,0,0,0-2.29,4.4l16.94,58.07A3.59,3.59,0,0,0,336.31,81l7.31,2.13h0"/><path class="cls-2" d="M364.94,72s-1.16,2.33-.36,4.23a3.19,3.19,0,0,0,1,1.29,5.34,5.34,0,0,0,2.41,1c5.32,1,21-3.43,25.13-5.7a4.19,4.19,0,0,0,.73-.48c1.73-1.44,2.55-5.86-1.3-6.67a11.91,11.91,0,0,0-6,.79c-11,3.71-13,3.72-13,3.72"/><path class="cls-4" d="M241.84,147.29c-3.23,1.65-8.31,1.23-13.47-1.34-4.72-2.34-9.84-5-13.76-1.44-5.56,5-1.72,12.9,3.32,16.37,6.17,4.23,17.92,4.36,24.91,1.92C260.27,156.71,252.21,142,241.84,147.29Z"/><path class="cls-4" d="M232.26,170.29c-3.88,0-25.88-1.3-25.24-18.46.16-4.44,1.38-8.54,4.72-11.56a12.49,12.49,0,0,1,8.53-3.21c4.53,0,9.49,3.86,13.14,4.74,6.87,1.65,8.63-1,11.54-1.35,6.27-.87,11.65,3.82,12.7,10,1,5.78-2,14-13.57,18A37.12,37.12,0,0,1,232.26,170.29Z"/><path class="cls-2" d="M217,149.67a12.51,12.51,0,0,0,3.47,2.88,21.66,21.66,0,0,0,7.5,2.71,32.76,32.76,0,0,0,8.15.35,46.55,46.55,0,0,0,7.33-1.16c1.21-.28,2.46-.61,3.77-1"/><polyline class="cls-2" points="243.27 150.71 243.43 154.46 243.61 158.49"/><polyline class="cls-2" points="236.09 151.09 236.1 155.61 236.11 160.18"/><polyline class="cls-2" points="228.13 151.09 227.95 155.26 227.75 160.18"/><polyline class="cls-2" points="221.09 148.22 220.45 152.55 219.76 157.22"/><path class="cls-1" d="M270.15,102.61c1.07,11.12-5.63,20.86-15,21.76-6.44.61-12.45-3.14-15.91-9.18a24.46,24.46,0,0,0-1.83-19.07c2.25-6.58,7.43-11.41,13.87-12C260.65,83.19,269.08,91.48,270.15,102.61Zm-14.62,6.51c2.59-.25,4.31-4.31,3.85-9.06s-2.92-8.41-5.5-8.16c-1.64.16-2.94,1.85-3.54,4.29a2.6,2.6,0,0,0-2.25,2.88,2.64,2.64,0,0,0,2,2.35C250.65,106,253,109.36,255.53,109.12Z"/><path class="cls-1" d="M253.16,98.59a2.61,2.61,0,0,1-2.29,2.88,2.31,2.31,0,0,1-.79,0c0-.15,0-.31-.05-.46a14.13,14.13,0,0,1,.31-4.77h0A2.61,2.61,0,0,1,253.16,98.59Z"/><path d="M253.16,98.59a2.61,2.61,0,0,0-2.79-2.41h0c.6-2.44,1.9-4.13,3.54-4.29,2.58-.25,5.05,3.4,5.5,8.16s-1.26,8.81-3.85,9.06-4.88-3.17-5.45-7.7a2.31,2.31,0,0,0,.79,0A2.61,2.61,0,0,0,253.16,98.59Z"/><path class="cls-1" d="M250,101c0,.15,0,.31.05.46a2.64,2.64,0,0,1-2-2.35,2.6,2.6,0,0,1,2.25-2.88A14.13,14.13,0,0,0,250,101Z"/><path class="cls-1" d="M240.3,105.47a23.92,23.92,0,0,1-1,9.72,23.67,23.67,0,0,1-1.83-19.07A24,24,0,0,1,240.3,105.47Z"/><path class="cls-1" d="M236.34,105.85a23.14,23.14,0,0,0,2.93,9.34c-2.16,6.58-7.18,11.39-13.42,12-9,.87-17.25-7.44-18.32-18.57S212.93,87.77,222,86.9c6.25-.6,12.09,3.17,15.46,9.22A23.3,23.3,0,0,0,236.34,105.85Zm-7.79,5.86c2.58-.25,4.31-4.31,3.85-9.06s-2.92-8.41-5.5-8.16c-1.64.15-2.94,1.85-3.55,4.29a2.59,2.59,0,0,0-2.24,2.88,2.65,2.65,0,0,0,2,2.35C223.67,108.54,226.05,112,228.55,111.71Z"/><path class="cls-1" d="M226.17,101.17a2.6,2.6,0,0,1-2.28,2.89,2.31,2.31,0,0,1-.79,0c0-.16,0-.31,0-.46a14.41,14.41,0,0,1,.3-4.77h0A2.61,2.61,0,0,1,226.17,101.17Z"/><path d="M223.35,98.78c.61-2.44,1.91-4.14,3.55-4.29,2.58-.25,5,3.4,5.5,8.16s-1.27,8.81-3.85,9.06-4.88-3.17-5.45-7.7a2.31,2.31,0,0,0,.79,0,2.66,2.66,0,0,0-.51-5.29Z"/><path class="cls-1" d="M223.05,103.55c0,.15,0,.3,0,.46a2.65,2.65,0,0,1-2-2.35,2.59,2.59,0,0,1,2.24-2.88A14.41,14.41,0,0,0,223.05,103.55Z"/><path class="cls-4" d="M237.44,96.12c2.25-6.58,7.43-11.41,13.87-12,9.34-.9,17.77,7.39,18.84,18.52s-5.63,20.86-15,21.76c-6.44.61-12.45-3.14-15.91-9.18"/><path class="cls-4" d="M237.44,96.12a24.46,24.46,0,0,1,1.83,19.07c-2.16,6.58-7.18,11.39-13.42,12-9,.87-17.25-7.44-18.32-18.57S212.93,87.77,222,86.9C228.23,86.3,234.07,90.07,237.44,96.12Z"/><path class="cls-3" d="M216.41,79.58s12-4.37,20.44,5c0,0,6.65-7.11,11.23-12.07"/><path class="cls-2" d="M312.61,7.56c-1.72-.38-8.54-.77-9.3.41-.87,1.33,1.61,4.52,3.48,7-1.32.72-8.39,2.31-9,3.78-.7,1.76,5.16,5.16,6.92,6.48-.42.9-4.88,5.72-4.3,6.88s5.33,1.88,8.14,1.74"/><line class="cls-3" x1="204.5" y1="310.42" x2="204.7" y2="311.71"/><polygon points="243.49 233.07 246.17 242.28 220.15 251 218.53 235.38 243.49 233.07"/><polygon points="254.59 231.08 249.4 238.69 282.17 233.69 283.19 228.41 254.59 231.08"/><path class="cls-1" d="M186,339l-47,.58-15.43.2-46.89.59-.35,4.2H184.07A44,44,0,0,0,186,339Z"/><path class="cls-1" d="M125.38,317.85c-.92.06-1.88.16-2.9.31l-9.62,1.41-12.71,2.05c1.16-.25,4.43-.81,12.71-2.05l.15,0v-14h-.59l-33.2,4.22-2.58,30.56,46.89-.59,15.43-.2C141.23,331.5,143.1,316.69,125.38,317.85Z"/><path class="cls-1" d="M169.32,318.16c20.33-2.94,19,12.21,16.64,20.79h0l-47,.58c2.27-8,4.14-22.84-13.58-21.68l.68-8.09,33.2-4.22h.59v14l-.14,0c-8.29,1.24-11.56,1.8-12.72,2.05l12.72-2.05Z"/><path class="cls-1" d="M170.77,101.63a2.27,2.27,0,0,0,1.47-1.13c1-2.09-2.52-5.76-7.79-8.21s-10.33-2.74-11.3-.65a2.43,2.43,0,0,0,.21,2.13,25.84,25.84,0,0,0-24.51,14.68l-5.72,12,2,.66,3.25-.28h.16c15.48-1.29,30.21,4.74,41.9,15.7l1.52.52,3.57-6.32A25.86,25.86,0,0,0,170.77,101.63Z"/><path class="cls-1" d="M185.94,195.84l-.06-.08c0-1.68,0-3-.19-4.68-2.91-33.5-26.86-58.79-53.49-56.48s-45.87,31.34-43,64.85a82.78,82.78,0,0,0,1.9,11.65,39.05,39.05,0,0,1,12.2,4.41c.45-3.46,3.93-2.84,5.26-1.23a16,16,0,0,1,2.94,6.91h0s18.46,12.16,53.11,6.64a45.86,45.86,0,0,0,5.63-5,7.27,7.27,0,0,1-1.62-2.42c-1-3,.75-5.25,3.22-4,0,0-2.17-25.07,8.93-26.46,4.86-.62,3.38,7.29,3.35,7.47C184.75,196.87,185.35,196.34,185.94,195.84Z"/><path class="cls-1" d="M165.79,252.29v0c-22.63,13.79-44.56,12-60.2,7.31a57.9,57.9,0,0,0,24.24,10.13,48.85,48.85,0,0,0,9.82.55c.68,0,1.36-.08,2-.14A50.19,50.19,0,0,0,157,266.19a58.25,58.25,0,0,0,23.63-19.41l-.1-.22A116,116,0,0,1,165.79,252.29Z"/><path class="cls-1" d="M195.14,190a93.6,93.6,0,0,0-2-12.64c-3.89-16.63-12.16-30.91-23-41-11.74-10.9-26.51-16.85-42-15.48l-.15,0c-1,.09-2,.21-3,.37-30.4,4.57-52.51,35.12-51.09,72.92h0c3.64,12.23,13,16.57,13.16,16.65h0a40,40,0,0,1,4,.48l.19,0a82.42,82.42,0,0,1-2-11.64c-3.08-33.49,16-62.62,42.63-65.07s50.71,22.72,53.78,56.21c.16,1.7.18,3,.22,4.68l.07.08.18-.16a30.69,30.69,0,0,1,9.06-5.33Z"/><path class="cls-1" d="M159.26,305.54h.59V265.93l-3.23.37a49.64,49.64,0,0,1-15.33,3.85c-.68.06-1.36.11-2,.13v.05l-9.94.86-3.25,38.57Z"/><path class="cls-1" d="M191.71,228.12c2.36,2,.12,5.26-2.38,4.93a4.87,4.87,0,0,1-.86-.21c-3.44-1-13.94-5.58-18.19-10.05a45.86,45.86,0,0,1-5.63,5c-34.65,5.52-53.11-6.64-53.11-6.64h0c1.12,5.43.86,12.57-.58,19.93v.24c-4.15-.18-8.54-.54-13.2-1.13h-.13c-1.09-.12-8.9-.88-14.74,2.23a9.93,9.93,0,0,1-6,1.17,5.31,5.31,0,0,1-4.21-3.56c-.09-.26-.18-.51-.24-.76a5.14,5.14,0,0,1,.37-3.79,7.49,7.49,0,0,1,.88-1.38c-8-.39-7.42-5.85-3.75-10.16-7.61-2.51-3.12-9.49,3.54-11.93a34.52,34.52,0,0,1,13.49-1.47c-.17-.08-9.5-4.46-13.07-16.71h0c-1.23-37.81,21-68.24,51.46-72.66l-.21-.08-28.35,2.46h0c-2.43,3.84-10.06,9.36-19.83,14-12.88,6.15-24.59,8.47-26.16,5.18h0l0-.08h0l-.32-.67c-13.86,14.88-21.73,37.7-19.58,62.49,3,34.78,24.78,62.34,51.52,68.38l-3.11,36.87,33.2-4.22H113V272.6l16.3-1.41.13-1.51a57.8,57.8,0,0,1-24.19-10.25c15.61,4.8,37.53,6.68,60.24-7v0a115.38,115.38,0,0,0,14.75-5.65c27.12-12.74,27.4-28.7,27.4-28.93C202.59,219.44,194.75,223.24,191.71,228.12Z"/><path class="cls-1" d="M195.22,190.4a21.77,21.77,0,0,1,7-1.33v-.13s-.74-6.68-9.05-11.32a93.59,93.59,0,0,1,2,12.64Z"/><path class="cls-1" d="M215.31,208.16a5.48,5.48,0,0,0-3.79-1.84c2.28-.63,2.9-5.78,0-8a8.54,8.54,0,0,0-2.44-1.26l.09-.26c1.33-1.41,1.3-7.41-6.09-7.73-.26,0-.54,0-.82,0a21.77,21.77,0,0,0-7,1.33,30.6,30.6,0,0,0-9.09,5.29l-.19.15c-.59.5-1.19,1-1.78,1.59,0-.18,1.51-8.09-3.35-7.47-11.1,1.39-8.93,26.46-8.93,26.46-2.47-1.3-4.25,1-3.22,4a7.27,7.27,0,0,0,1.62,2.42c4.25,4.47,14.75,9,18.19,10.05a4.87,4.87,0,0,0,.86.21c2.5.33,4.74-2.88,2.38-4.93,3-4.88,10.88-8.68,15.94-10.25h0a18.63,18.63,0,0,1,3.17-.73C214.25,216.75,217.46,211.19,215.31,208.16Z"/><path class="cls-1" d="M108.59,214.28c-1.33-1.61-4.81-2.23-5.26,1.23a39.05,39.05,0,0,0-12.2-4.41l-.19,0a40.37,40.37,0,0,0-4-.51h0A34.52,34.52,0,0,0,73.42,212c-6.66,2.44-11.15,9.42-3.54,11.93-3.67,4.31-4.24,9.77,3.75,10.16a7.49,7.49,0,0,0-.88,1.38,5.14,5.14,0,0,0-.37,3.79c.06.25.15.5.24.76a5.31,5.31,0,0,0,4.21,3.56,9.93,9.93,0,0,0,6-1.17c5.84-3.11,13.65-2.35,14.74-2.23h.13c4.66.59,9.05,1,13.2,1.13v-.24c1.44-7.36,1.7-14.5.58-19.93A16,16,0,0,0,108.59,214.28Z"/><path class="cls-1" d="M97.39,120.51h0l0-.08h0L93.81,113l-2.19-4.59A25.86,25.86,0,0,0,65.2,93.9a1.25,1.25,0,0,0-.09-.25c-.92-2.11-6-1.92-11.31.42s-8.88,5.94-7.95,8.05a2.76,2.76,0,0,0,2.22,1.36A25.82,25.82,0,0,0,45,130.69l2.76,5.77L50.39,142l.32.67h0l0,.08h0c1.57,3.29,13.28,1,26.16-5.18,9.77-4.66,17.4-10.18,19.83-14h0a4.39,4.39,0,0,0,.82-2.21A1.85,1.85,0,0,0,97.39,120.51Z"/><path class="cls-1" d="M159.71,319.57,147,321.62C148.15,321.37,151.42,320.81,159.71,319.57Z"/><path class="cls-1" d="M139.25,270.28v.05l-9.94.86.13-1.51A48.05,48.05,0,0,0,139.25,270.28Z"/><path class="cls-1" d="M125.09,121.11l3.25-.28c-1,.09-2,.21-3,.36Z"/><path class="cls-1" d="M112.86,319.57l-12.71,2.05C101.31,321.37,104.58,320.81,112.86,319.57Z"/><polyline class="cls-2" points="156.62 266.3 159.85 265.93 159.85 305.54 159.85 319.55"/><polyline class="cls-2" points="125.38 317.85 126.06 309.76 129.31 271.19"/><path class="cls-2" d="M147,321.62c1.16-.25,4.43-.81,12.72-2.05l9.61-1.41c20.33-2.94,19,12.21,16.64,20.79a44,44,0,0,1-1.89,5.57H137.23"/><line class="cls-2" x1="126.06" y1="309.76" x2="159.26" y2="305.54"/><polyline class="cls-2" points="113.01 272.61 113.01 305.54 113.01 319.55"/><path class="cls-2" d="M100.15,321.62c1.16-.25,4.43-.81,12.71-2.05l9.62-1.41c1-.15,2-.25,2.9-.31,17.72-1.16,15.85,13.65,13.58,21.68a43.71,43.71,0,0,1-1.73,5H76.29l.35-4.2,2.58-30.56,3.11-36.87"/><line class="cls-2" x1="79.22" y1="309.76" x2="112.42" y2="305.54"/><path class="cls-2" d="M153.36,93.77a2.43,2.43,0,0,1-.21-2.13c1-2.09,6-1.8,11.3.65s8.76,6.12,7.79,8.21a2.27,2.27,0,0,1-1.47,1.13"/><path class="cls-2" d="M171.92,137l3.57-6.32a25.84,25.84,0,1,0-46.64-22.27l-5.72,12"/><path class="cls-2" d="M157.86,117.15s12.22,5.34,17.22,13.93"/><path class="cls-2" d="M91.13,211.1h0a82.78,82.78,0,0,1-1.9-11.65c-2.9-33.51,16.33-62.54,43-64.85s50.58,23,53.49,56.48c.15,1.71.15,3,.19,4.68"/><path class="cls-2" d="M180.36,247a58.2,58.2,0,0,1-23.74,19.29,49.64,49.64,0,0,1-15.33,3.85c-.68.06-1.36.11-2,.13a48.05,48.05,0,0,1-9.81-.6,57.9,57.9,0,0,1-24.2-10.25"/><path class="cls-2" d="M193.19,177.62a93.59,93.59,0,0,1,2,12.64"/><path class="cls-2" d="M128.5,120.82c15.48-1.29,30.21,4.74,41.9,15.7,10.79,10.12,19,24.45,22.79,41.1"/><path class="cls-2" d="M73.84,193.85c-1.23-37.81,21-68.24,51.46-72.66,1-.15,2-.27,3-.36"/><polyline class="cls-2" points="96.74 123.57 125.09 121.11 128.34 120.83 128.5 120.82"/><path class="cls-2" d="M139.25,270.33l-9.94.86L113,272.6l-15.37,1.34a49.85,49.85,0,0,1-15.31-1.05c-26.74-6-48.5-33.6-51.52-68.38C28.66,179.72,36.53,156.9,50.39,142"/><path class="cls-2" d="M86.91,210.56A34.52,34.52,0,0,0,73.42,212c-6.66,2.44-11.15,9.42-3.54,11.93"/><path class="cls-2" d="M103.33,215.51a39.05,39.05,0,0,0-12.2-4.41l-.19,0a40.37,40.37,0,0,0-4-.51"/><path class="cls-2" d="M88.19,217.92c-5.14-1.39-12.24.9-15.83,3.68A17.42,17.42,0,0,0,69.88,224c-3.67,4.31-4.24,9.77,3.75,10.16h.05"/><path class="cls-2" d="M111,241.12c1.44-7.36,1.7-14.5.58-19.93a16,16,0,0,0-2.94-6.91c-1.33-1.61-4.81-2.23-5.26,1.23a2.73,2.73,0,0,0,0,.53,68.67,68.67,0,0,1,2,14"/><path class="cls-2" d="M97.64,240.22h0c-1.09-.12-8.9-.88-14.74,2.23a9.93,9.93,0,0,1-6,1.17,5.31,5.31,0,0,1-4.21-3.56c-.09-.26-.18-.51-.24-.76a5.14,5.14,0,0,1,.37-3.79,7.49,7.49,0,0,1,.88-1.38c3.53-4.49,12-6.39,17-5.7"/><path class="cls-2" d="M170.28,222.79a45.86,45.86,0,0,1-5.63,5c-9.37,7.16-26,14.69-53.71,13.53-4.15-.18-8.54-.54-13.2-1.13h-.13"/><path class="cls-2" d="M111.54,221.19s18.46,12.16,53.11,6.64"/><path class="cls-2" d="M76.82,243.7c1.74,1.63,3.61,3.25,5.61,4.84a82.29,82.29,0,0,0,22.81,10.89h0c15.62,4.8,37.54,6.68,60.25-7a99.15,99.15,0,0,0,23-19.59l.06-.06"/><path class="cls-2" d="M54.24,211.3a86.21,86.21,0,0,0,18.14,28"/><path class="cls-2" d="M207.65,217.87c0,.23-.28,16.19-27.4,28.93a115.38,115.38,0,0,1-14.75,5.65"/><path class="cls-2" d="M184.16,197.43c.59-.56,1.19-1.09,1.78-1.59l.19-.15a30.6,30.6,0,0,1,9.09-5.29,21.77,21.77,0,0,1,7-1.33c.28,0,.56,0,.82,0,7.39.32,7.42,6.32,6.09,7.73l-.08.08"/><path class="cls-2" d="M181.22,200.52a41.7,41.7,0,0,1,2.94-3.09"/><path class="cls-2" d="M191.7,202.05c6.81-5.18,13.1-6.38,17.33-5l0,0a8.54,8.54,0,0,1,2.44,1.26c2.91,2.2,2.29,7.35,0,8"/><path class="cls-2" d="M195.76,209.85c7.31-3.34,12.51-4,15.76-3.53a5.48,5.48,0,0,1,3.79,1.84c2.15,3-1.06,8.59-4.49,9a18.63,18.63,0,0,0-3.17.73h0c-5.06,1.57-12.9,5.37-15.94,10.25"/><path class="cls-2" d="M190.23,227.25a5,5,0,0,1,1.48.87c2.36,2,.12,5.26-2.38,4.93a4.87,4.87,0,0,1-.86-.21c-3.44-1-13.94-5.58-18.19-10.05a7.27,7.27,0,0,1-1.62-2.42c-1-3,.75-5.25,3.22-4,0,0,5.79,4.73,10.14,6.07"/><path class="cls-2" d="M171.88,216.42s-2.17-25.07,8.93-26.46c4.86-.62,3.38,7.29,3.35,7.47h0"/><path class="cls-2" d="M202.24,188.94s-.74-6.68-9.05-11.32"/><path class="cls-2" d="M63,174.72s8.43.11,9.58,12.66a33.51,33.51,0,0,0,1.22,6.47c3.57,12.25,12.9,16.63,13.07,16.71h0"/><path class="cls-2" d="M104.2,183.28s-4.86,14.83,19,15.7"/><line class="cls-2" x1="100.94" y1="182.2" x2="107.76" y2="183.71"/><path class="cls-2" d="M65.2,93.9a25.86,25.86,0,0,1,26.42,14.53L93.81,113l3.54,7.4"/><path class="cls-2" d="M50.71,142.69l-.32-.67-2.65-5.56L45,130.69a25.82,25.82,0,0,1,3.09-27.21"/><path class="cls-2" d="M97.39,120.51h0a1.85,1.85,0,0,1,.17.85,4.39,4.39,0,0,1-.82,2.21h0c-2.43,3.84-10.06,9.36-19.83,14-12.88,6.15-24.59,8.47-26.16,5.18h0"/><path class="cls-2" d="M93.58,113.13s-1.58,3.89-7,8.23h0a40,40,0,0,1-5.48,3.7,51.23,51.23,0,0,1-8.71,3.84"/><path class="cls-2" d="M48.07,103.48a2.76,2.76,0,0,1-2.22-1.36c-.93-2.11,2.63-5.71,7.95-8.05s10.39-2.53,11.31-.42a1.25,1.25,0,0,1,.09.25c.56,2.14-2.93,5.55-8,7.8-3.51,1.54-6.91,2.15-9.09,1.78"/><polyline class="cls-2" points="76.64 340.32 123.53 339.73 138.96 339.54 185.96 338.95"/><path class="cls-5" d="M143.79,157.06c0,14.25,9,25.81,20.18,25.81s20.19-11.56,20.19-25.81a33.89,33.89,0,0,0-.3-4.44H144.09A32.25,32.25,0,0,0,143.79,157.06Z"/><path class="cls-5" d="M110.87,157.06c0,14.25,9,25.81,20.18,25.81s20.18-11.56,20.18-25.81a33.91,33.91,0,0,0-.29-4.44H111.17A32.25,32.25,0,0,0,110.87,157.06Z"/><path d="M176.36,158c0,5.85-2.58,10.6-5.76,10.6s-5.76-4.75-5.76-10.6a17.52,17.52,0,0,1,.86-5.58l9.79,0A17.64,17.64,0,0,1,176.36,158Z"/><ellipse class="cls-1" cx="164.84" cy="158.29" rx="3.12" ry="3.26"/><path d="M142,158c0,5.85-2.58,10.6-5.76,10.6s-5.76-4.75-5.76-10.6a17.81,17.81,0,0,1,.86-5.58l9.8,0A17.65,17.65,0,0,1,142,158Z"/><ellipse class="cls-1" cx="130.47" cy="158.29" rx="3.12" ry="3.26"/><polygon points="159.15 272.39 129.07 282.55 129.15 271.8 159.74 265.93 159.15 272.39"/><polygon points="112.37 278.85 80.85 289.01 82.21 272.89 112.97 272.39 112.37 278.85"/><path class="cls-1" d="M40.94,202.58c3.85.91,6.48,6.41,5,9.51a4.35,4.35,0,0,1-3.23,2.22c1.76.62,2.75,3.84,2.15,5.42-1.64,4.3-10.74,5.34-18.1.81-8.44-5.2-12.53-14.94-11.26-25,1-7.76,7.09-17.63,16.75-17.63a106.45,106.45,0,0,0-1.59,10.82h0c7.93,2.91,13.32,1.57,15.46,4.57a6.29,6.29,0,0,1-.12,7.6C45,202.1,43.22,202.59,40.94,202.58Z"/><path class="cls-2" d="M30.67,188.71c7.93,2.91,13.32,1.57,15.46,4.57a6.29,6.29,0,0,1-.12,7.6c-1,1.22-2.79,1.71-5.07,1.7-3.77,0-8.78-1.41-13.3-3.23"/><path class="cls-2" d="M29.16,188.12c.52.21,1,.41,1.51.59"/><path class="cls-2" d="M40.94,202.58c3.85.91,6.48,6.41,5,9.51a4.35,4.35,0,0,1-3.23,2.22c-3.47.77-9.11-.25-15.53-2.33"/><path class="cls-2" d="M42.72,214.31c1.76.62,2.75,3.84,2.15,5.42-1.64,4.3-10.74,5.34-18.1.81-8.44-5.2-12.53-14.94-11.26-25,1-7.76,7.09-17.63,16.75-17.63a106.45,106.45,0,0,0-1.59,10.82h0"/><path class="cls-1" d="M147.94,172.78l16.26,0c3.45,0,6.25,3.16,6.25,7.06s-2.8,7.05-6.25,7.05H142.26"/><path class="cls-2" d="M147.52,172.76H164.2c3.45,0,6.25,3.16,6.25,7.06s-2.8,7.05-6.25,7.05H142.26"/></svg>