<svg id="Layer_1" data-name="Layer 1" xmlns="http://www.w3.org/2000/svg" viewBox="0 0 400 400"><defs><style>.cls-1,.cls-6{fill:#fff;}.cls-2{fill:#fbdceb;}.cls-3,.cls-4,.cls-5,.cls-7{fill:none;}.cls-3,.cls-4,.cls-6,.cls-7{stroke:#000;}.cls-3,.cls-4,.cls-5,.cls-6,.cls-7{stroke-linecap:round;}.cls-3,.cls-5,.cls-6{stroke-miterlimit:10;}.cls-3,.cls-4,.cls-5,.cls-6{stroke-width:1.88px;}.cls-4,.cls-7{stroke-linejoin:round;}.cls-5{stroke:#fff;}.cls-7{stroke-width:2.08px;}</style></defs><title>Desk_Dudes10</title><path d="M98,338.82c.85,6.82,22,6.09,22,6.09H286.79s-51.72-10.49-90.5-11.74S97.15,332.16,98,338.82Z"/><path d="M264.35,159.27l-.05-.15s1.37-3.3,3.55-8.84l.34.13c2.13-.11,4.16,1.29,6,2,1.4.57,2.56,1.52,4,1.92a15.48,15.48,0,0,0,4.3.34c2.05,0,5.65-1.33,7.48,0,1.39,1,1,2.87-.52,4l0,0C276,166.5,244.14,172,206.93,172c-19.84,0-36.67-1.29-51.51-3.91l-.26.27a91.63,91.63,0,0,1-14.36-18.4l.17-.1c3.87.12,17.87-3.83,21.7-4.35,7.33-1,14.62-.25,21.81,1.18,10.68,2.13,22.17,1.62,32.78-.47,8-1.58,17.24-.94,25.32-.22,4.07.36,8.11,1.58,12.2,1.63h0q-1,4.91-1.87,10.1l-.57.21c.9.32,1.79.68,2.65.93,2,.6,4.31,1.44,6.46,1.14A21.93,21.93,0,0,0,264.35,159.27Z"/><path class="cls-1" d="M299,105.94c16.59,11.33,49.11,61.93-3.67,96.27a69.12,69.12,0,0,0,.54-8.67l.37-25.48c13.53-32.52-19.36-40.17-19.36-40.17l-.38-.14c.34-.91,1.06-2.93,1.4-3.87a8.72,8.72,0,0,0,3.14.74c3,.21,10.7-2.33,11.92-8.22.18-.88.24-3.32-.8-4.25l-.05-.13a15.28,15.28,0,0,0,4.13-2.66,11.24,11.24,0,0,0,2.45-3.54Z"/><path class="cls-1" d="M262.11,110.84q1.36-5.34,2.69-10.3l.05-.32c2.75.25,6-1.58,8.1-3.5,3.67-3.38,6.74-7.66,6.44-12.86A12.82,12.82,0,0,0,277.63,78a10.55,10.55,0,0,0-5-3.62q1.15-4.12,2.32-7.78c11.88-37.35,24.3-39.08,29.92-32,3.41,4.29-4.32,20.28-11.33,41.49-1.15,3.49-2.49,7.93-3.55,11.67-4.83.71-10.11,3.89-11.12,7.94-.43,1.73-.57,5.16,3.82,5.72l0,.21c-3.36.93-7.17,5.55-5.43,9.33a5.22,5.22,0,0,0,4.33,2.86c-2.65.74-8.31,4.42-6.9,8.25a3.81,3.81,0,0,0,2.1,2.07c-.34.94-1.06,3-1.4,3.87-1.07,2.9-2.11,5.69-3.11,8.31-2.1,5.56-4,10.41-5.49,14.21-2.19,5.54-3.55,8.85-3.55,8.85l.05.14a22,22,0,0,1-2.88.71c-2.15.3-4.44-.54-6.46-1.14-.86-.25-1.75-.61-2.65-.93l1.05-.26c.61-3.46.75-6.78,1.39-10.06,1-5.15,2-10.09,3.08-14.83q1.79-8.07,3.59-15.38C261,115.31,261.55,113.05,262.11,110.84Z"/><path class="cls-1" d="M296.44,150.17v.68c-.21,2.8-2.65,5.46-6.89,7.9l0,0c1.48-1.13,1.91-3,.52-4-1.83-1.33-5.43,0-7.48,0a15.48,15.48,0,0,1-4.3-.34c-1.46-.4-2.62-1.35-4-1.92-1.88-.75-3.91-2.15-6-2l-.34-.13c1.5-3.8,3.39-8.66,5.49-14.21C287.78,139.82,296.17,144.68,296.44,150.17Z"/><path class="cls-1" d="M187.78,199.05a21.24,21.24,0,0,1-4.07-8.17l-.32,0c-4.06.95-7.87,2.45-10.24,6.22-1.21,1.94-2.48,5-1.46,7.21s3.3,4.32,5.8,3.47c2.8-1,4.41-4.45,6.36-6.16a17.81,17.81,0,0,1,3.52-2.31Zm-70.32-26,.07-.12,0-14.47C105.16,137.27,103.72,119,103.72,119a113.7,113.7,0,0,0,14.22-1.62c6-.94,13.23-2.92,13.23-2.92S130,124.06,135,137.68a76.5,76.5,0,0,0,5.8,12.23,91.63,91.63,0,0,0,14.36,18.4h0l.26-.27c14.84,2.62,31.67,3.91,51.51,3.91,37.22,0,69.1-5.45,82.61-13.2,4.24-2.44,6.68-5.1,6.89-7.9l-.24,17.21-.37,25.48a69.12,69.12,0,0,1-.54,8.67,71.24,71.24,0,0,1-8,25h0c-10.86,8.88-38.83,21.3-83.42,19.66-28.73-1.05-50.47-3.25-71-12.89l-.16-.19c-.46.39-1,.82-1.6,1.28a28.57,28.57,0,0,1-19.93,5.72c-14.63-1.4-49.52-49-28.11-67.65C94.65,163.05,107.84,167.18,117.46,173.06Zm.08,15.82c-7.64-3.49-17.81-6.11-21.18,2.54-5.62,14.47,15.47,33.63,15.47,33.63,2.16,2.74,7.88.83,12.53-1.41l-.07-.14a69,69,0,0,1-6.7-30l0-4.65Z"/><path class="cls-1" d="M295,75.94l-.33-.1c-1.15,3.49-2.49,7.92-3.55,11.67-4.83.7-10.11,3.89-11.12,7.93-.43,1.73-.57,5.16,3.82,5.72l0,.21c-3.35.93-7.17,5.55-5.43,9.34a5.22,5.22,0,0,0,4.33,2.85c-2.65.74-8.31,4.43-6.9,8.25a3.81,3.81,0,0,0,2.1,2.07,8.72,8.72,0,0,0,3.14.74c3,.21,10.7-2.33,11.92-8.22.18-.88.24-3.32-.8-4.25l-.05-.13a15.28,15.28,0,0,0,4.13-2.66,11.24,11.24,0,0,0,2.45-3.54c1-2.35,1.31-5.08-.59-6.77l-.51-.35a8.83,8.83,0,0,0,4.84-5C305.27,84.81,298.15,77.47,295,75.94Z"/><path class="cls-1" d="M280.44,83.6a12.86,12.86,0,0,0-1.76-5.85,10.63,10.63,0,0,0-5-3.62c.77-2.75,1.55-5.34,2.32-7.78l-.29-.09c-12.86-.58-28,22.75-21.77,40.45-1.66,1.39-3,3.35-1.44,5.52.7,1,2.34,1,4.12.68a31.09,31.09,0,0,0,6.5-2.32q1.36-5.36,2.69-10.3l0-.33c2.76.25,6-1.58,8.1-3.5C277.67,93.08,280.74,88.8,280.44,83.6Z"/><path class="cls-1" d="M185.24,269.88l-.09.45a187.93,187.93,0,0,0-5.29,18.41s-1.25-.81-3.43-1.95c-5.55-2.9-17.13-8-29.43-7.15-1.22.08-2.45.21-3.67.41,0,0,1.38-10.79,9.11-23.9l.07-.11-.27-.18a82.7,82.7,0,0,1-21.15-20.71l0-.05c.6-.46,1.14-.89,1.6-1.28l.16.19c20.54,9.64,42.28,11.84,71,12.89,44.59,1.64,72.56-10.78,83.42-19.66a82.53,82.53,0,0,1-29.43,30.7A71.41,71.41,0,0,1,265,278.4a35.9,35.9,0,0,0-4.1-.44c-12.35-.67-23.93,4.49-29.3,7.33-2,1.06-3.13,1.79-3.13,1.79s-1.87-8.26-4.6-16.4a102.58,102.58,0,0,1-38.66-.8Z"/><path class="cls-2" d="M263.16,110.59q-.84,3.3-1.69,6.78l-.41-.1a26.16,26.16,0,0,1-4.3-3.87l-.1-.49A31.09,31.09,0,0,0,263.16,110.59Z"/><path class="cls-1" d="M257.59,132.69l.29.07q-1.56,7.1-3.08,14.83h0c-4.09-.05-8.13-1.27-12.2-1.63-8.08-.72-17.33-1.36-25.32.22-10.61,2.09-22.1,2.6-32.77.47-7.2-1.43-14.49-2.18-21.82-1.18-3.83.52-17.83,4.47-21.7,4.35l-.17.1a76.5,76.5,0,0,1-5.8-12.23h0c3.06-1,6.09-1.82,9.81-2.68,16.1-3.73,38-6,62.12-6A327,327,0,0,1,257.59,132.69Z"/><path class="cls-1" d="M226.31,83.47c-8.49-3.48-14.57-6-22.49-8.69v0c-2.64,2.21-19.87,15.63-19.87,15.63v25.15A147.54,147.54,0,0,0,206.3,125.8c7-4.36,13.93-9.24,22.36-14.75Z"/><path class="cls-1" d="M187.78,199.05l-.41.28a17.81,17.81,0,0,0-3.52,2.31c-1.95,1.71-3.56,5.2-6.36,6.16-2.5.85-4.84-1.42-5.8-3.47s.25-5.27,1.46-7.21c2.37-3.77,6.18-5.27,10.24-6.22l.32,0A21.24,21.24,0,0,0,187.78,199.05Z"/><rect class="cls-1" x="228.85" y="339.37" width="57.94" height="4.28"/><rect class="cls-1" x="121.62" y="339.37" width="57.94" height="4.28"/><path class="cls-1" d="M283.69,322.83c-2.79-2.19-8.9-4.08-20.55,2.89h0l-1.64,1c-7.21,4.63-25.37,3.6-30-.24a18.16,18.16,0,0,0-1.38,12.85l55.82-.22C290.76,330.43,287.69,326,283.69,322.83Z"/><path class="cls-1" d="M146.91,326.73c-.56-.35-1.1-.69-1.64-1h0c-11.64-7-17.75-5.08-20.54-2.89-4,3.15-7.08,7.6-2.25,16.29l55.82.22a18.14,18.14,0,0,0-1.39-12.85C172.28,330.33,154.13,331.36,146.91,326.73Z"/><path class="cls-1" d="M260.92,278.29V278c-12.35-.67-23.93,4.49-29.3,7.33a96,96,0,0,1,2.84,20h0c12,7.52,30.33-.4,30.33-.4H265A104.33,104.33,0,0,0,260.92,278.29Z"/><path class="cls-1" d="M147,279.64l0,.37a103.92,103.92,0,0,0-3.61,24.67c.26.11,18.86,8.06,30.57.59a96.72,96.72,0,0,1,2.39-18.19l.06-.29C170.88,283.89,159.3,278.84,147,279.64Z"/><path class="cls-1" d="M265,304.87h-.18s-18.35,7.92-30.33.4h0a67.58,67.58,0,0,1-.76,12.35,50,50,0,0,1-2.21,8.87c4.63,3.84,22.79,4.87,30,.24l1.64-1h0q.87-4.29,1.32-8.44A95.61,95.61,0,0,0,265,304.87Z"/><path class="cls-1" d="M174,305.27c-11.71,7.47-30.31-.48-30.57-.59a95.08,95.08,0,0,0,.55,12.6q.45,4.16,1.31,8.44h0c.54.32,1.08.66,1.64,1,7.22,4.63,25.37,3.6,30-.24a50.92,50.92,0,0,1-2.21-8.87A67.12,67.12,0,0,1,174,305.27Z"/><path class="cls-1" d="M100.5,110v-.2C94.3,95.51,93.9,85.45,98.83,72c1.78-4.83,6.37-12.37,11.19-11.91,6.9.66,6,4.57,3.71,9.9,3-6.15,7.47-12.38,13.61-9.46,4.1,3.1,3.79,6.2,2,9.72C132,65.32,140,66.73,140,72.1c-.06,6.67-8.1,10.72-8.87,19l.27.55c4.17-1.78,13.53-5.13,14.5.22C147,98.17,132,105.44,132,105.44c4.77.1,5.15,6.19.93,8.1-3.48,1.56-23.25,6.4-32.34,4.61-3.4-.67-5.31-3.87-4-6.31A3.65,3.65,0,0,1,99.88,110Z"/><path class="cls-3" d="M135,137.68c3.06-1,6.09-1.82,9.81-2.68,16.1-3.73,38-6,62.12-6a327,327,0,0,1,50.66,3.7"/><path class="cls-3" d="M273.3,136.05l0,0c14.44,3.75,22.83,8.61,23.1,14.1,0,.1,0,.2,0,.3s0,.26,0,.38c-.21,2.8-2.65,5.46-6.89,7.9C276,166.5,244.15,172,206.93,172c-19.84,0-36.67-1.29-51.51-3.91"/><path class="cls-3" d="M287.24,227.24c-10.86,8.88-38.83,21.3-83.42,19.66-28.73-1.05-50.47-3.25-71-12.89"/><line class="cls-3" x1="117.53" y1="172.94" x2="117.49" y2="158.47"/><path class="cls-3" d="M124.29,223.5a69,69,0,0,1-6.7-30l0-4.65"/><path class="cls-3" d="M159.06,260.08q-3.39-1.89-6.55-4l-.27-.18a82.7,82.7,0,0,1-21.15-20.71"/><path class="cls-3" d="M230.77,269.24c-2,.5-4.08.94-6.17,1.31l-.7.13a102.58,102.58,0,0,1-38.66-.8l-.14,0a98.11,98.11,0,0,1-12.25-3.51"/><path class="cls-3" d="M296.45,149.81v1l-.24,17.21-.37,25.48a69.12,69.12,0,0,1-.54,8.67,71.24,71.24,0,0,1-8,25h0a82.53,82.53,0,0,1-29.43,30.7l-.5.31c-1.45.88-2.92,1.72-4.43,2.53"/><path class="cls-3" d="M134.62,231.91a21,21,0,0,1-2,1.91c-.46.39-1,.82-1.6,1.28a28.57,28.57,0,0,1-19.93,5.72c-14.63-1.4-49.52-49-28.11-67.65,11.64-10.12,24.83-6,34.45-.11a67.94,67.94,0,0,1,13.63,11.1"/><path class="cls-3" d="M126.68,194a67,67,0,0,0-9.14-5.12c-7.64-3.49-17.81-6.11-21.18,2.54-5.62,14.47,15.47,33.63,15.47,33.63,2.16,2.74,7.88.83,12.53-1.41a64.14,64.14,0,0,0,6.73-3.77"/><path class="cls-3" d="M265.85,100.29q-1.32,5-2.69,10.3-.84,3.3-1.69,6.78-1.8,7.32-3.59,15.39-1.56,7.1-3.08,14.83-1,4.91-1.87,10.1"/><path class="cls-3" d="M291.08,87.51c1.06-3.75,2.4-8.18,3.55-11.67,7-21.22,14.74-37.2,11.33-41.49-5.62-7.07-18-5.35-29.92,32-.77,2.44-1.55,5-2.32,7.78"/><path class="cls-3" d="M264.3,159.12s1.37-3.3,3.55-8.84c1.5-3.8,3.39-8.66,5.49-14.21,1-2.63,2-5.41,3.11-8.32.34-.91,1.06-2.93,1.4-3.87"/><path class="cls-4" d="M204.73,100.29c-3.37,2.17-20,15.53-20.79,15.29V90.43S201.17,77,203.81,74.8c0,9.45.92,13.3.92,25.49"/><path class="cls-3" d="M203.81,74.78h0c7.92,2.7,14,5.21,22.49,8.69l2.35,27.58c-8.43,5.51-15.32,10.39-22.36,14.75a147.54,147.54,0,0,1-22.36-10.22"/><line class="cls-3" x1="204.73" y1="100.29" x2="228.66" y2="111.05"/><path class="cls-3" d="M146.68,191.57a113.74,113.74,0,0,1-29.19-33.1C105.16,137.27,103.72,119,103.72,119a113.7,113.7,0,0,0,14.22-1.62c6-.94,13.23-2.92,13.23-2.92S130,124.06,135,137.68a76.5,76.5,0,0,0,5.8,12.23,91.63,91.63,0,0,0,14.36,18.4h0c1.74,1.74,3.6,3.49,5.59,5.23"/><path class="cls-3" d="M265.59,85.09c-2.84,2.65-5.42,7.79-3.76,11.66A4.8,4.8,0,0,0,265.9,100c2.76.25,6-1.58,8.1-3.5,3.67-3.38,6.74-7.66,6.44-12.86a12.86,12.86,0,0,0-1.76-5.85,10.63,10.63,0,0,0-5-3.62,8.34,8.34,0,0,0-4.38-.61"/><path class="cls-3" d="M295,75.94c3.19,1.53,10.31,8.87,7.42,17.72a8.83,8.83,0,0,1-4.84,5c-3.52,1.73-8.11,2.27-11.43,2.51a11.68,11.68,0,0,1-2.33,0c-4.39-.56-4.25-4-3.82-5.72,1-4,6.29-7.23,11.12-7.93a11,11,0,0,1,4.54.19"/><path class="cls-3" d="M298.05,99.05c1.9,1.69,1.63,4.42.59,6.77a11.24,11.24,0,0,1-2.45,3.54,15.28,15.28,0,0,1-4.13,2.66,18.38,18.38,0,0,1-8.55,1.64,8.08,8.08,0,0,1-.86-.1,5.22,5.22,0,0,1-4.33-2.85c-1.74-3.79,2.08-8.41,5.43-9.34"/><path class="cls-3" d="M292.11,112.15c1,.93,1,3.37.8,4.25-1.22,5.89-8.93,8.43-11.92,8.22a8.72,8.72,0,0,1-3.14-.74,3.81,3.81,0,0,1-2.1-2.07c-1.41-3.82,4.25-7.51,6.9-8.25"/><path class="cls-3" d="M256.76,113.4a26.16,26.16,0,0,0,4.3,3.87"/><path class="cls-3" d="M275.75,66.26c-12.86-.58-28,22.75-21.77,40.45h0"/><path class="cls-3" d="M299,105.94c16.59,11.33,49.11,61.93-3.67,96.27"/><path class="cls-3" d="M276.83,127.89s32.89,7.65,19.36,40.17"/><path class="cls-3" d="M257.53,104.54a16.22,16.22,0,0,0-3.55,2.17c-1.66,1.39-3,3.35-1.44,5.52.7,1,2.34,1,4.12.68a31.09,31.09,0,0,0,6.5-2.32l.08,0"/><path class="cls-4" d="M254.78,147.58c-4.09-.05-8.13-1.27-12.2-1.63-8.08-.72-17.33-1.36-25.32.22-10.61,2.09-22.1,2.6-32.77.47-7.2-1.43-14.49-2.18-21.82-1.18-3.83.52-17.83,4.47-21.7,4.35"/><path class="cls-3" d="M289.51,158.71c1.48-1.13,1.91-3,.52-4-1.83-1.33-5.43,0-7.48,0a15.48,15.48,0,0,1-4.3-.34c-1.46-.4-2.62-1.35-4-1.92-1.88-.75-3.91-2.15-6-2"/><path class="cls-5" d="M246.59,158.25c1.76-1.5,3.78-1,5.77-.35.9.32,1.79.68,2.65.93,2,.61,4.31,1.44,6.46,1.14a20.44,20.44,0,0,0,2.88-.7l.33-.1a14.56,14.56,0,0,1,7.53,0"/><path class="cls-3" d="M155.12,78.93s12.11-6,21.78,2.6"/><path class="cls-3" d="M100.5,109.8C94.3,95.51,93.9,85.45,98.83,72c1.78-4.83,6.37-12.37,11.19-11.91,6.9.66,6,4.57,3.71,9.9-2,4.84-5.21,10.84-4.64,16.64"/><path class="cls-3" d="M129.2,70.49c-2.47,4.65-7.44,10.05-8.32,17.15"/><path class="cls-3" d="M112.37,73c.41-1,.87-2,1.36-3,3-6.15,7.47-12.38,13.61-9.46,4.1,3.1,3.79,6.2,2,9.72"/><path class="cls-3" d="M131.11,91.07c.77-8.25,8.81-12.3,8.87-19,0-5.37-8-6.78-10.66-1.84a2.53,2.53,0,0,0-.12.23"/><path class="cls-3" d="M132,105.44c4.77.1,5.15,6.19.93,8.1-3.48,1.56-23.25,6.4-32.34,4.61-3.4-.67-5.31-3.87-4-6.31A3.65,3.65,0,0,1,99.88,110h.62c3.26,0,10.12-.1,14.43-1.46"/><path class="cls-3" d="M129.39,92.52s.78-.38,2-.9c4.17-1.78,13.53-5.13,14.5.22C147,98.17,132,105.44,132,105.44l-4.34.79"/><path class="cls-4" d="M145.27,325.72c.54.32,1.08.66,1.64,1,7.22,4.63,25.37,3.6,30-.24a18.14,18.14,0,0,1,1.39,12.85l-55.82-.22c-4.83-8.69-1.76-13.14,2.25-16.29,2.79-2.19,8.9-4.08,20.54,2.89"/><rect class="cls-4" x="121.62" y="339.37" width="57.94" height="4.28"/><path class="cls-3" d="M143.41,304.68h0c.26.11,18.86,8.06,30.57.59h0"/><path class="cls-3" d="M162.59,313.61a21.24,21.24,0,0,0,11-2.81"/><path class="cls-3" d="M147,280a103.92,103.92,0,0,0-3.61,24.67,95.08,95.08,0,0,0,.55,12.6q.45,4.16,1.31,8.44h0"/><path class="cls-3" d="M176.91,326.49a50.92,50.92,0,0,1-2.21-8.87,67.12,67.12,0,0,1-.72-12.35,96.72,96.72,0,0,1,2.39-18.19"/><path class="cls-4" d="M263.14,325.72l-1.64,1c-7.21,4.63-25.37,3.6-30-.24a18.16,18.16,0,0,0-1.38,12.85l55.82-.22c4.82-8.69,1.75-13.14-2.25-16.29-2.79-2.19-8.9-4.08-20.55,2.89"/><rect class="cls-4" x="228.85" y="339.37" width="57.94" height="4.28"/><path class="cls-3" d="M264.83,304.87s-18.35,7.92-30.33.4"/><path class="cls-3" d="M245.5,313.61a21.28,21.28,0,0,1-11-2.81"/><path class="cls-3" d="M260.92,278.29A104.33,104.33,0,0,1,265,304.87a95.61,95.61,0,0,1-.55,12.41q-.45,4.16-1.32,8.44h0"/><path class="cls-3" d="M231.5,326.49a50,50,0,0,0,2.21-8.87,67.58,67.58,0,0,0,.76-12.35,96,96,0,0,0-2.84-20"/><path class="cls-4" d="M152.44,256.15c-7.73,13.11-9.11,23.9-9.11,23.9,1.22-.2,2.45-.33,3.67-.41,12.3-.8,23.88,4.25,29.43,7.15,2.18,1.14,3.43,1.95,3.43,1.95a187.93,187.93,0,0,1,5.29-18.41"/><path class="cls-4" d="M257.81,257.94A71.41,71.41,0,0,1,265,278.4a35.9,35.9,0,0,0-4.1-.44c-12.35-.67-23.93,4.49-29.3,7.33-2,1.06-3.13,1.79-3.13,1.79s-1.87-8.26-4.6-16.4"/><path class="cls-4" d="M183.15,187.36a18.26,18.26,0,0,0,.56,3.52,21.24,21.24,0,0,0,4.07,8.17c3.38,4.12,9.21,7.83,19.28,8.13"/><path class="cls-4" d="M180,187.36s2.81-1.47,5.31-.61"/><path class="cls-4" d="M183.39,190.9c-4.06.95-7.87,2.45-10.24,6.22-1.21,1.94-2.48,5-1.46,7.21s3.3,4.32,5.8,3.47c2.8-1,4.41-4.45,6.36-6.16a17.81,17.81,0,0,1,3.52-2.31"/><path class="cls-4" d="M178.11,199.91a10.54,10.54,0,0,1,6.45-4.1"/><ellipse class="cls-6" cx="231.46" cy="170.75" rx="14.38" ry="18.82"/><path class="cls-1" d="M220.65,181.57s16.74,2.11,13.52,9c-3.84,8.22-16.89,1.28-16.89,1.28Z"/><path class="cls-7" d="M220.65,181.57s16.74,2.11,13.52,9c-3.84,8.22-16.89,1.28-16.89,1.28"/><ellipse class="cls-6" cx="207.98" cy="170.75" rx="15.03" ry="18.82"/><ellipse cx="232.32" cy="165.74" rx="3.62" ry="5.47"/><ellipse class="cls-1" cx="234.96" cy="163.43" rx="1.5" ry="2.31"/><ellipse cx="212.45" cy="165.74" rx="3.62" ry="5.47"/><ellipse class="cls-1" cx="215.09" cy="163.43" rx="1.5" ry="2.31"/><path d="M257.11,257.5s-19,10.38-33,12.22l3,11.66s32.23-16.87,33-18.23Z"/><path d="M153.06,255.82s18.76,11.05,32.66,13.26l-3.35,11.41s-31.77-17.72-32.54-19.1Z"/></svg>