<svg id="Layer_1" data-name="Layer 1" xmlns="http://www.w3.org/2000/svg" viewBox="0 0 400 400"><defs><style>.cls-1,.cls-2{fill:#fff;}.cls-1,.cls-3,.cls-4{stroke:#000;stroke-linecap:round;stroke-linejoin:round;}.cls-1,.cls-4{stroke-width:1.88px;}.cls-3,.cls-4{fill:none;}.cls-3{stroke-width:1.67px;}</style></defs><title>Desk_Dudes15</title><path class="cls-1" d="M183.47,166.58l4.76,7.88a6.74,6.74,0,0,1-3.7,2,8.39,8.39,0,0,1-6.48-1.39A17.9,17.9,0,0,1,183.47,166.58Z"/><path class="cls-1" d="M190.1,163.35l2.29,7.14a51.42,51.42,0,0,0-4,4l-4.76-7.88A15,15,0,0,1,190.1,163.35Z"/><path class="cls-1" d="M196.93,169h-.52a7,7,0,0,0-4,1.52l-2.29-7.14a20.05,20.05,0,0,1,6.74-.32Z"/><path class="cls-1" d="M203.17,158.54l-.06.07-.67,5.67a31.66,31.66,0,0,0-5.78-1.25l-.11-7.55A16,16,0,0,1,203.17,158.54Z"/><path class="cls-2" d="M187,261.39c-.47-5-4.17-9.44-16.29-10.24a19,19,0,0,0-9.45,1.43l-16.92-29,30.14,11.88c5.81,4.1,9.51,6.41,9.51,6.41l.73.17a6.37,6.37,0,0,0-.18,2c.21,2.61,1.1,4.77,3.05,4.95a4.85,4.85,0,0,0,3.31-1c.6,5.42,3.74,13.67,8.54,18.87-8.86,14.77-9,27.4-8.06,34.46a24.61,24.61,0,0,0,1.09,4.69l-13.09-22.42a92.17,92.17,0,0,0,6.28-13.89,21.35,21.35,0,0,0,1.35-8.26Z"/><path class="cls-1" d="M204.33,159.53a9.36,9.36,0,0,1,2.91,6.46H207a42.57,42.57,0,0,0-4.54-1.7l.67-5.67.06-.07A13.23,13.23,0,0,1,204.33,159.53Z"/><path class="cls-1" d="M202.44,164.28l-.71,5.94,0,.23c-1.66-.3-3.19-1.35-4.94-1.47l-.09-5.95A31.66,31.66,0,0,1,202.44,164.28Z"/><path class="cls-1" d="M179.84,160.58l3.63,6a17.9,17.9,0,0,0-5.42,8.5c-3.32-2.53-3.72-7.7-1.74-10.89a18.27,18.27,0,0,1,3-3.66Z"/><path class="cls-1" d="M187.71,155.9l2.39,7.45a15,15,0,0,0-6.45,3.23l-3.63-6-.5-.05A20.4,20.4,0,0,1,187.71,155.9Z"/><path class="cls-1" d="M207,166h.26a4.35,4.35,0,0,1-3.92,4.46,4.46,4.46,0,0,1-1.63,0l0-.23.71-5.94A42.57,42.57,0,0,1,207,166Z"/><path class="cls-1" d="M196.73,155.48l.11,7.55a20.05,20.05,0,0,0-6.74.32l-2.39-7.45A18.51,18.51,0,0,1,196.73,155.48Z"/><polygon class="cls-2" points="107.15 116.8 171.81 103.78 171.81 103.78 181.63 107.18 117.3 120.72 107.15 116.8"/><path class="cls-2" d="M302,198.66a15.27,15.27,0,0,0-5.12,3.85c-2.6,2.87-5.16,9-4.9,13l-.19.41c-8.62-4-17.77-8.56-26.11-13.45l-.94-35.85C273.57,187.81,296.82,198.1,302,198.66Z"/><path class="cls-2" d="M196.23,169h.52c1.75.12,3.28,1.17,4.94,1.47a4.46,4.46,0,0,0,1.63,0,4.35,4.35,0,0,0,3.92-4.46,9.36,9.36,0,0,0-2.91-6.46,13.23,13.23,0,0,0-1.16-1,16,16,0,0,0-6.62-3.06,18.51,18.51,0,0,0-9,.42,20.4,20.4,0,0,0-8.19,4.63,18.27,18.27,0,0,0-3,3.66c-2,3.19-1.58,8.36,1.74,10.89a8.39,8.39,0,0,0,6.48,1.39,6.74,6.74,0,0,0,3.7-2,51.42,51.42,0,0,1,4-4A7,7,0,0,1,196.23,169Zm-24.42-65.19h0l0-.3a76.7,76.7,0,0,0-.35-7.72l92.19,30.67,1,40.22.94,35.85A137.44,137.44,0,0,1,249,191.26l-46.59,9.21-17.06,3.38-.22,0-2.5.5c-4.09-3.37-8.38-7-12.66-10.92-13.62-12.32-27.09-26.69-33.39-39.8L110,168.21c13.76,28.81,47.11,55,63.93,66.91l-.08,0-29.53-11.53-29.13-11.36L75.5,196.77l-10.94-4.28-.35-14-.27-10.86-.28-10.86-.27-10.85-1-41.4,33.38-6.72a64.15,64.15,0,0,1,10.81,17.79c.25.64.36,1,.36,1l0,.13.29.11,10.15,3.92,64.33-13.54Z"/><path class="cls-2" d="M239.34,260.36a10.57,10.57,0,0,1-4.1,2.78,11.87,11.87,0,0,1-5.52.71l0,.65c-3.09,5.13-8.57,5.81-13,3.7l-.17.34a13.11,13.11,0,0,1-6.69,3.1c-5.49,8.59-9.82,20.05-12.78,33.82-2.18,10.12,5,8.78,7,8.21l.25-.07c2.58-.82,5.6-2.68,9.11-6,9.47-8.85,20.79-28.13,24.49-39.28A21.63,21.63,0,0,0,239.34,260.36Z"/><path class="cls-2" d="M187,261.39c-.28-2.18-2.06-8.94-13.36-3.62a30.93,30.93,0,0,0-6.79,4.39c-10,8.35-17.59,23.87-22.06,44.67-2.18,10.12,5,8.78,7,8.21l.16,0,.06,0h0l.26-.09c2.52-.86,5.46-2.71,8.85-5.87,6.16-5.76,13.09-15.92,18.21-25.39a92.17,92.17,0,0,0,6.28-13.89,21.35,21.35,0,0,0,1.35-8.26Z"/><path class="cls-2" d="M197.1,305.46c3-13.77,7.29-25.23,12.78-33.82-4,.46-7.53-1.57-10.47-4.75-8.86,14.77-9,27.4-8.06,34.46a24.61,24.61,0,0,0,1.09,4.69h0c1.73,5,5.3,9.38,11.47,7.68C201.65,314.31,195,315.26,197.1,305.46Z"/><path class="cls-2" d="M203.92,313.73l.2-.06Z"/><path class="cls-2" d="M151.58,315.09l.2,0Z"/><path class="cls-2" d="M170.68,251.15a19,19,0,0,0-9.45,1.43c-3.21,1.48-5.91,4.06-8.84,7.88-1,1.32-2.06,2.78-3.15,4.4-11,16.22-11.23,30.26-10.23,37.85a24.18,24.18,0,0,0,1.1,4.7h0c1.73,5,5.31,9.38,11.47,7.68-2.27.59-8.93,1.54-6.82-8.26,4.47-20.8,12.08-36.32,22.06-44.67a30.93,30.93,0,0,1,6.79-4.39c11.3-5.32,13.08,1.44,13.36,3.62C186.5,256.41,182.8,252,170.68,251.15Z"/><path class="cls-2" d="M149.24,264.86c-11,16.22-11.23,30.26-10.23,37.85a24.18,24.18,0,0,0,1.1,4.7l-9.67-16.56h0L75.5,196.77l39.68,15.48,37.14,48.16.07,0C151.37,261.78,150.33,263.24,149.24,264.86Z"/><path class="cls-2" d="M230.9,251.11l3.79,3.44-.32-.06-4.11-3.57Z"/><path class="cls-2" d="M239.08,258.6a10.31,10.31,0,0,1,.23,1.46,8.77,8.77,0,0,0-.34-1.54Z"/><path class="cls-2" d="M239,258.46l-4.58-4,.32.06,4.24,3.85S238.94,258.44,239,258.46Z"/><path class="cls-2" d="M238.93,258.4l-4.24-3.85A5.5,5.5,0,0,1,238.93,258.4Z"/><path class="cls-2" d="M239.34,260.35h0l0-.25C239.33,260.2,239.33,260.28,239.34,260.35Z"/><path class="cls-2" d="M239.07,258.57l-.12-.11s0,0,0-.06l.13.11A.13.13,0,0,0,239.07,258.57Z"/><path class="cls-2" d="M223.71,245.24l6.55,5.68-1-.25q-3-2.58-5.9-5.27Z"/><path class="cls-2" d="M239.07,258.57l.22.19-.21-.16Z"/><path class="cls-2" d="M230.26,250.92l4.11,3.57a6.12,6.12,0,0,0-.63-.06q-2.25-1.85-4.47-3.76Z"/><path class="cls-2" d="M239.06,258.51l.42.39-.19-.14-.22-.19A.13.13,0,0,1,239.06,258.51Z"/><path class="cls-2" d="M239,258.46l0,.06c-1.75-1.31-3.49-2.68-5.23-4.09a6.12,6.12,0,0,1,.63.06Z"/><path class="cls-2" d="M239.07,258.57v0l-.11-.08,0-.06Z"/><path class="cls-2" d="M239.29,258.76l.79.68a11.26,11.26,0,0,1-.74.91c0-.07,0-.15,0-.24v-.05a10.31,10.31,0,0,0-.23-1.46Z"/><path class="cls-2" d="M312.46,224.9a22.6,22.6,0,0,1-2.15,2.79c-2.26,2.55-5.89,5.21-9.47,3.15s-2.57-8-1.46-11c0-.12.09-.25.14-.38-2.51-1.1-5.11-2.27-7.76-3.49-8.62-4-17.77-8.56-26.11-13.45h0A137.44,137.44,0,0,1,249,191.26l-46.59,9.21-17.06,3.38-.22,0,0,0c.25.31,2.4,3,5.94,7.25,10.2,8,17.63,13.06,17.63,13.06l.07.45a13.41,13.41,0,0,1,2.41-.52,8.6,8.6,0,0,1,5.87,1.51c2.64,1.9,3.6,5.23.71,8,6.5-3.85,23.38-2.89,23.83,5.4.21,4-3.73,5.66-7.71,4.84-2.93-.61-7.4.17-10.18,1.36l6.55,5.68.64.19,3.79,3.44a5.5,5.5,0,0,1,4.24,3.85l.13.11.42.39c2,1.45,3.89,2.82,5.82,4.09L267,250.93l18.78-4.4,9.59-4.28,5.29-2.36,4.91-2.19.51-.17,21.15-6.94S321.27,228.47,312.46,224.9Z"/><path class="cls-2" d="M332.39,209a19.73,19.73,0,0,0-11.7-8c-3.45-.74-8.11-1.55-11.4.21l-.07-.25c.92-2.94-3-3.34-4.88-3a10.08,10.08,0,0,0-2.36.72h0a15.27,15.27,0,0,0-5.12,3.85c-2.6,2.87-5.16,9-4.9,13l-.19.41c2.65,1.22,5.25,2.39,7.76,3.49,0,.13-.1.26-.14.38-1.11,3.07-2.17,8.95,1.46,11s7.21-.6,9.47-3.15a22.6,22.6,0,0,0,2.15-2.79c8.81,3.57,14.72,5.69,14.72,5.69L306,237.53l-.51.17-4.91,2.19-5.29,2.36.15.34c.6,4.71,5.84,8.26,10.31,5l.08-.36c3.59,1.1,9.06.29,9.64-2.54l.05-.34a13,13,0,0,0,2.16.12c11-.27,18.34-12.2,19-21.54A20.9,20.9,0,0,0,332.39,209Z"/><path d="M185.14,203.92l4.05,5.77c-2.1-1.66-4.3-3.43-6.57-5.3l2.5-.5Z"/><path class="cls-2" d="M171.47,95.75C170.28,82,165,53,142.31,37L71.7,51.53s2.17,1.66,5.43,4.7l-.18.19-9.08,4a72.23,72.23,0,0,1,6.45,3.93l-.33.48L64.9,69a65.88,65.88,0,0,1,6.63,3.27L63.27,75.9A72.11,72.11,0,0,1,95.74,97.79a64.15,64.15,0,0,1,10.81,17.79c.25.64.36,1,.36,1l0,.13.29.11,64.66-13h0l0-.3A76.7,76.7,0,0,0,171.47,95.75Z"/><line class="cls-3" x1="179.35" y1="283.62" x2="192.44" y2="306.04"/><polyline class="cls-3" points="174.45 235.5 144.31 223.61 161.23 252.58"/><path class="cls-3" d="M204.12,313.67c-6.29,1.86-9.93-2.55-11.67-7.62h0a24.61,24.61,0,0,1-1.09-4.69c-.94-7.06-.8-19.69,8.06-34.46"/><path class="cls-3" d="M239.34,260.36a21.63,21.63,0,0,1-1.37,8c-3.7,11.15-15,30.43-24.49,39.28-3.51,3.28-6.53,5.14-9.11,6"/><path class="cls-3" d="M209.88,271.64c-5.49,8.59-9.82,20.05-12.78,33.82-2.18,10.12,5,8.78,7,8.21l.25-.07.28-.09"/><path class="cls-3" d="M239.36,260.67s0-.12,0-.32"/><path class="cls-3" d="M211.91,292.38s7.63-2.57,12.23,2.23"/><polyline class="cls-3" points="75.5 196.76 64.56 192.49 64.2 178.48 63.94 167.62 63.66 156.76 63.39 145.91 62.36 104.51 95.74 97.79"/><polyline class="cls-3" points="173.92 235.12 173.84 235.14 144.31 223.61 115.18 212.25"/><polyline class="cls-3" points="171.47 95.75 263.66 126.42 264.71 166.64 265.65 202.49"/><polyline class="cls-3" points="68.62 108.82 168.77 147.87 259.72 129.55"/><path class="cls-3" d="M171.82,103.47a76.7,76.7,0,0,0-.35-7.72C170.28,82,165,53,142.31,37L71.7,51.53s2.17,1.66,5.43,4.7C87.28,65.68,108,88.46,106.89,116"/><path class="cls-3" d="M106.89,116s0-.15-.06-.42c-.62-3.84-6.14-33.2-32.51-51.22a72.23,72.23,0,0,0-6.45-3.93l9.08-4"/><path class="cls-3" d="M106.74,115.57l0,0c-.44-1.38-9.53-28.82-35.19-43.27A65.88,65.88,0,0,0,64.9,69L74,64.82"/><path class="cls-3" d="M106.91,116.56s-.11-.34-.36-1A64.15,64.15,0,0,0,95.74,97.79,72.11,72.11,0,0,0,63.27,75.9l8.26-3.65h0"/><polyline class="cls-3" points="171.81 103.78 107.15 116.8 107.05 116.82"/><line class="cls-3" x1="171.86" y1="103.77" x2="171.81" y2="103.78"/><line class="cls-3" x1="185.34" y1="203.85" x2="258.55" y2="189.1"/><path class="cls-3" d="M299.52,219.43c-2.51-1.1-5.11-2.27-7.76-3.49-8.62-4-17.77-8.56-26.11-13.45A137.44,137.44,0,0,1,249,191.26l-46.59,9.21-17.06,3.38-.22,0"/><path class="cls-3" d="M239.29,258.76l.19.14c2,1.45,3.89,2.82,5.82,4.09L267,250.93l18.78-4.4,9.59-4.28,5.29-2.36,4.91-2.19.51-.17,21.15-6.94s-5.91-2.12-14.72-5.69"/><path class="cls-3" d="M185.14,203.92c.25.31,2.4,3,5.94,7.25"/><line class="cls-3" x1="168.93" y1="154" x2="169.96" y2="193.47"/><path class="cls-3" d="M306.57,209.83a20.22,20.22,0,0,0-7.05,9.6c0,.13-.1.26-.14.38-1.11,3.07-2.17,8.95,1.46,11s7.21-.6,9.47-3.15a22.6,22.6,0,0,0,2.15-2.79,27.83,27.83,0,0,0,3-7.14"/><path class="cls-3" d="M300.78,240.28c-.2,2.88,1.84,5,3.1,5.95a6.11,6.11,0,0,0,2,1c3.59,1.1,9.06.29,9.64-2.54"/><path class="cls-3" d="M295.47,242.59c.6,4.71,5.84,8.26,10.31,5"/><path class="cls-3" d="M306.15,237.92a12.67,12.67,0,0,0,9.4,6.41,13,13,0,0,0,2.16.12c11-.27,18.34-12.2,19-21.54A20.9,20.9,0,0,0,332.39,209a19.73,19.73,0,0,0-11.7-8c-3.45-.74-8.11-1.55-11.4.21a6.81,6.81,0,0,0-1.9,1.51"/><path class="cls-3" d="M302,198.66a15.27,15.27,0,0,0-5.12,3.85c-2.6,2.87-5.16,9-4.9,13"/><path class="cls-3" d="M309.22,200.94c.92-2.94-3-3.34-4.88-3a10.08,10.08,0,0,0-2.36.72"/><path class="cls-3" d="M302,198.66h0c-5.15-.56-28.4-10.85-37.26-32"/><path class="cls-3" d="M239.6,193.67s7.78,10.82,15.25,14.11"/><path class="cls-3" d="M241.68,215.11c-.41-.25-13.34-8.41-21.43-17.91"/><line class="cls-3" x1="241.69" y1="215.12" x2="241.68" y2="215.11"/><path class="cls-3" d="M220.12,222.27c-.23-.18-14.57-11.59-17.72-21.8"/><line class="cls-3" x1="266.9" y1="250.42" x2="247.14" y2="230.95"/><line class="cls-3" x1="285.73" y1="246.53" x2="267.8" y2="232.51"/><line class="cls-3" x1="305.51" y1="237.27" x2="282.31" y2="226.21"/><polyline class="cls-3" points="63.34 145.88 63.39 145.91 80.7 152.69"/><polyline class="cls-3" points="63.62 156.75 63.66 156.76 80.98 163.56"/><polyline class="cls-3" points="63.91 167.61 63.94 167.62 81.26 174.42"/><polyline class="cls-3" points="64.19 178.47 64.2 178.48 81.55 185.28"/><path class="cls-3" d="M216.68,234.42a6.74,6.74,0,0,1,1.08-.77"/><path class="cls-3" d="M203.17,158.54a13.23,13.23,0,0,1,1.16,1,9.36,9.36,0,0,1,2.91,6.46,4.35,4.35,0,0,1-3.92,4.46,4.46,4.46,0,0,1-1.63,0c-1.66-.3-3.19-1.35-4.94-1.47h-.52a7,7,0,0,0-4,1.52,51.42,51.42,0,0,0-4,4,6.74,6.74,0,0,1-3.7,2,8.39,8.39,0,0,1-6.48-1.39c-3.32-2.53-3.72-7.7-1.74-10.89a18.27,18.27,0,0,1,3-3.66,20.4,20.4,0,0,1,8.19-4.63,18.51,18.51,0,0,1,9-.42A16,16,0,0,1,203.17,158.54Z"/><path class="cls-3" d="M178.05,175.08a17.9,17.9,0,0,1,5.42-8.5,15,15,0,0,1,6.45-3.23,20.05,20.05,0,0,1,6.74-.32,31.66,31.66,0,0,1,5.78,1.25A42.57,42.57,0,0,1,207,166"/><polyline class="cls-3" points="203.11 158.61 202.44 164.28 201.73 170.22"/><polyline class="cls-3" points="196.55 155.48 196.66 163.03 196.75 168.98"/><polyline class="cls-3" points="187.53 155.9 189.92 163.35 192.21 170.49"/><polyline class="cls-3" points="179.84 160.58 183.47 166.58 188.23 174.46"/><path class="cls-3" d="M185.37,293.86s-1.78-6.28.23-11.95"/><path class="cls-3" d="M187,261.47a21.35,21.35,0,0,1-1.35,8.26,92.17,92.17,0,0,1-6.28,13.89c-5.12,9.47-12,19.63-18.21,25.39-3.39,3.16-6.33,5-8.85,5.87L152,315"/><path class="cls-3" d="M140.11,307.41a24.18,24.18,0,0,1-1.1-4.7c-1-7.59-.77-21.63,10.23-37.85,1.09-1.62,2.13-3.08,3.15-4.4,2.93-3.82,5.63-6.4,8.84-7.88a19,19,0,0,1,9.45-1.43c12.12.8,15.82,5.26,16.29,10.24"/><path class="cls-3" d="M151.78,315c-6.29,1.86-9.92-2.55-11.67-7.63"/><path class="cls-3" d="M152,315l-.06,0"/><path class="cls-3" d="M187,262a5.56,5.56,0,0,0,0-.57v-.08c-.28-2.18-2.06-8.94-13.36-3.62a30.93,30.93,0,0,0-6.79,4.39c-10,8.35-17.59,23.87-22.06,44.67-2.18,10.12,5,8.78,7,8.21l.16,0,.06,0h0l.26-.09h0"/><path class="cls-3" d="M158.22,293.79s8.1-2.73,13,2.36"/><polyline class="cls-3" points="130.44 290.85 140.11 307.41 140.11 307.41"/><polyline class="cls-3" points="152.32 260.41 115.18 212.25 75.5 196.76 130.44 290.85"/><path class="cls-3" d="M130.44,290.85h0c-.18-.39-6.6-14.57,9.25-31"/><path class="cls-3" d="M134.15,296.52s-1.67-5.91.22-11.25"/><polyline class="cls-3" points="99.44 113.83 106.86 116.69 107.15 116.8 117.3 120.72 181.63 107.18 171.81 103.78 171.81 103.78 171.78 103.77"/><polygon points="145.5 224.48 153.53 240.1 196.89 257.08 183.76 238.31 145.5 224.48"/><polygon points="257.08 189.4 257.28 197.02 249.5 190.92 257.08 189.4"/><polygon points="106.79 117.74 68.99 103.18 95.76 98.5 104.11 109.02 106.79 117.74"/><g id="_Group_" data-name="&lt;Group&gt;"><path class="cls-2" d="M246.62,122.54c.85,11.68-5.66,21.68-14.53,22.32-5,.37-9.76-2.36-13.05-6.93a26.55,26.55,0,0,0,2.22-13c0-.27,0-.54-.07-.8L245,114.9A27,27,0,0,1,246.62,122.54Z"/><path class="cls-2" d="M221.26,124.93a26.55,26.55,0,0,1-2.22,13,25.55,25.55,0,0,1-4.54-13.06c-.05-.61-.07-1.21-.08-1.81l5.92,1.56,0-.18.8-.31C221.22,124.39,221.24,124.66,221.26,124.93Z"/><path class="cls-2" d="M214.5,124.87A25.55,25.55,0,0,0,219,137.93c-2.6,5.63-7.2,9.51-12.68,9.91-9.1.66-17.18-8.52-18.05-20.52a27.06,27.06,0,0,1,1.34-10.81l.16,0,24.61,6.5C214.43,123.66,214.45,124.26,214.5,124.87Z"/><path class="cls-2" d="M229,102.54c-5.23.38-9.63,4-12.2,9.32-3.38-4.89-8.33-7.83-13.61-7.44-6.16.44-11.21,5.29-13.56,12.09l.16,0,24.61,6.5,5.92,1.56,0-.18.8-.31L245,114.9C242,107.2,235.82,102.05,229,102.54Z"/><path class="cls-4" d="M216.82,111.86c2.57-5.31,7-8.94,12.2-9.32,6.8-.49,13,4.66,15.93,12.36a27,27,0,0,1,1.67,7.64c.85,11.68-5.66,21.68-14.53,22.32-5,.37-9.76-2.36-13.05-6.93"/><path class="cls-4" d="M221.19,124.13c0,.26.05.53.07.8a26.55,26.55,0,0,1-2.22,13c-2.6,5.63-7.2,9.51-12.68,9.91-9.1.66-17.18-8.52-18.05-20.52a27.06,27.06,0,0,1,1.34-10.81c2.35-6.8,7.4-11.65,13.56-12.09,5.28-.39,10.23,2.55,13.61,7.44A26.05,26.05,0,0,1,221.19,124.13Z"/><polyline class="cls-4" points="220.84 124.75 220.34 124.62 214.42 123.06 189.81 116.56"/><polyline class="cls-4" points="220.39 124.44 221.19 124.13 244.96 114.9 244.96 114.9"/></g><ellipse cx="232.33" cy="133.48" rx="5.43" ry="4.1" transform="translate(92.94 362.31) rotate(-88.53)"/><circle class="cls-2" cx="235.25" cy="130.39" r="2.01"/><ellipse cx="211.88" cy="133.48" rx="5.43" ry="4.1" transform="matrix(0.03, -1, 1, 0.03, 73.02, 341.87)"/><circle class="cls-2" cx="214.8" cy="130.39" r="2.01"/><polygon points="77.11 197.63 85.13 213.25 128.49 230.23 115.36 211.46 77.11 197.63"/><polyline class="cls-4" points="234.31 89.14 216.54 103.77 198.68 90.68"/><ellipse cx="168.94" cy="337.77" rx="63.17" ry="6.54"/><path class="cls-2" d="M208.71,224.23s-7.43-5.08-17.63-13.06l-1.89-1.48c-2.1-1.66-4.3-3.43-6.57-5.3-4.09-3.37-8.38-7-12.66-10.92-13.62-12.32-27.09-26.69-33.39-39.8L110,168.21c13.76,28.81,47.11,55,63.93,66.91l.53.37c5.81,4.1,9.51,6.41,9.51,6.41l.73.17a8.64,8.64,0,0,1,.91-2.18c2-3.52,6.43-7,11.15-9.77a64.05,64.05,0,0,1,7.62-3.84,41,41,0,0,1,4.41-1.6Z"/><path class="cls-2" d="M233.89,243.88c4,.82,7.92-.83,7.71-4.84-.45-8.29-17.33-9.25-23.83-5.4,2.89-2.74,1.93-6.07-.71-8a8.6,8.6,0,0,0-5.87-1.51,13.41,13.41,0,0,0-2.41.52,41,41,0,0,0-4.41,1.6,64.05,64.05,0,0,0-7.62,3.84c-4.72,2.78-9.16,6.25-11.15,9.77a8.64,8.64,0,0,0-.91,2.18,6.37,6.37,0,0,0-.18,2c.21,2.61,1.1,4.77,3.05,4.95a4.85,4.85,0,0,0,3.31-1c.6,5.42,3.74,13.67,8.54,18.87,2.94,3.18,6.5,5.21,10.47,4.75a13.11,13.11,0,0,0,6.69-3.1l.17-.34c4.39,2.11,9.87,1.43,13-3.7l0-.65a11.87,11.87,0,0,0,5.52-.71,10.57,10.57,0,0,0,4.1-2.78l0-.25v-.05a8.77,8.77,0,0,0-.34-1.54c-1.75-1.31-3.49-2.68-5.23-4.09q-2.25-1.85-4.47-3.76-3-2.58-5.9-5.27l.34-.16C226.49,244.05,231,243.27,233.89,243.88ZM213.8,266.23c-.34.41-.68.83-1,1.26.33-.43.67-.85,1-1.26Z"/><path class="cls-3" d="M220.54,257.08a13,13,0,0,0,1.06,1.84,11.34,11.34,0,0,0,8.12,4.93,11.87,11.87,0,0,0,5.52-.71,10.57,10.57,0,0,0,4.1-2.78h0a11.26,11.26,0,0,0,.74-.91l-.6-.54-.42-.39-.13-.11-4.24-3.85-3.79-3.44-6.46-5.86"/><path class="cls-3" d="M229.7,264.5c-3.09,5.13-8.57,5.81-13,3.7a12.21,12.21,0,0,1-2.94-2,11.8,11.8,0,0,1-2.46-3.14"/><path class="cls-3" d="M136.57,153.67c6.3,13.11,19.77,27.48,33.39,39.8,4.28,3.88,8.57,7.55,12.66,10.92,2.27,1.87,4.47,3.64,6.57,5.3l1.89,1.48c10.2,8,17.63,13.06,17.63,13.06"/><path class="cls-3" d="M184,241.9s-3.7-2.31-9.51-6.41l-.53-.37C157.1,223.2,123.75,197,110,168.21"/><path class="cls-3" d="M217.76,233.65h0c2.89-2.74,1.93-6.07-.71-8a8.6,8.6,0,0,0-5.87-1.51,13.41,13.41,0,0,0-2.41.52,41,41,0,0,0-4.41,1.6,65.6,65.6,0,0,0-7.62,3.84c-4.72,2.78-9.16,6.25-11.15,9.77a8.64,8.64,0,0,0-.91,2.18,6.37,6.37,0,0,0-.18,2c.21,2.61,1.1,4.77,3.05,4.95a4.85,4.85,0,0,0,3.31-1,16.33,16.33,0,0,0,1.82-1.5,31,31,0,0,1,9.16-6.43"/><path class="cls-3" d="M216.57,268.54a13.11,13.11,0,0,1-6.69,3.1c-4,.46-7.53-1.57-10.47-4.75-4.8-5.2-7.94-13.45-8.54-18.87h0"/><path class="cls-3" d="M217.77,233.64c6.5-3.85,23.38-2.89,23.83,5.4.21,4-3.73,5.66-7.71,4.84-2.93-.61-7.4.17-10.18,1.36l-.34.16c-.27.12-.53.26-.76.39"/></svg>