<svg id="Layer_1" data-name="Layer 1" xmlns="http://www.w3.org/2000/svg" viewBox="0 0 400 400"><defs><style>.cls-1,.cls-3{fill:none;stroke:#000;stroke-linecap:round;stroke-width:1.88px;}.cls-1{stroke-linejoin:round;}.cls-2{fill:#fff;}.cls-3{stroke-miterlimit:10;}</style></defs><title>Desk_Dudes11</title><path class="cls-1" d="M115.29,38.85c3.41,1.7,8.83,5.7,12.83,5.89,1.57-4.11-.87-11.76-1.44-15.94-.41-3-3-8.23-2.2-11,5.53,2.06,11,5.11,16.22,7.7,3.27,1.63,12.93,8.25,17.55,7.71,4.31-.5,17.86-26.18,19.58-28.29,3.63,8.3,11.43,19.37,20.86,24.85,2.18-.58,13.6-15.72,15.73-19.14-.34,3.25,10.6,23.7,12.25,24.61,2.48,1.37,21.37-5.83,27.5-7.21a16,16,0,0,1-1.67,2.66c-3.13,5.15-4.93,10.09-4.3,15.89L265.68,44"/><ellipse cx="184.99" cy="337.13" rx="56.62" ry="7.22"/><path class="cls-2" d="M261.83,78.34c5.56-6,12-9.92,19.28-9.06,24.8,2.94,13.71,25.82,13.71,25.82C278.64,125,276.7,172.65,276.7,172.65l0,.13c10.4-5.4,36.89-17.55,42.07-3.93,10,26.3-42.31,51.28-51.34,52.83v0a5.77,5.77,0,0,1,.95-.1c3.49.14,9.22,3.87,5.06,13-1.23,2.72-6.72,4.85-14.5,6.48a216.4,216.4,0,0,1-27.9,3.4c-7.82.53-15.83.8-23.17.88-12.76.13-23.51-.38-27.78-1.32-.49-.11-1-.23-1.42-.38-11-3.54-12.29-17.8-5.86-18.82h0C153.48,158.22,196.2,79,196.2,79c.92-1.37,1.53-2.22,2.44-3.5,14.46-20.35,32.87-8.78,31.13,1.65l.59-.84c14.49-20.38,32.95-8.73,31.12,1.71Z"/><path class="cls-2" d="M277.44,253.29,273,249.22l-1.54-1.41c-.48-.44-1.62.06-3.16,1.17-5.31,3.83-15.34,15-18.9,19.77a11.54,11.54,0,0,0-1.23,1.92c-.72,1.82,7.89,4,7.89,4l.12.07.36-.32,21-21Z"/><path class="cls-2" d="M221.19,254.9c-.43-.48-1.6-.07-3.22.9-5.6,3.38-16.52,13.66-20.46,18.18a10.9,10.9,0,0,0-1.38,1.81c-.88,1.76,7.53,4.65,7.53,4.65l.08.11.41-.31L226.85,261l-.12-.13S223.42,257.31,221.19,254.9Z"/><path class="cls-2" d="M268.26,248.78c-4.05-1.39-7.19-3.48-9.27-7.67a216.4,216.4,0,0,1-27.9,3.4l0,.46c3.1,9.59,8.1,17.67,18.26,23.78,3.56-4.82,13.59-15.94,18.9-19.77Z"/><path class="cls-2" d="M207.92,246v-.58c-12.76.13-23.51-.38-27.78-1.32-.49-.11-1-.23-1.42-.38,3.92,18.26,13.44,26.45,18.79,30.29,3.94-4.52,14.86-14.8,20.46-18.18l0-.19C214.73,254.2,209.9,251.07,207.92,246Z"/><path class="cls-2" d="M226.85,261l-22.7,19.26-.41.31c-2.35,1.85-13.7,11.82-1.91,23.3l33-39.26L227,260.87Z"/><path class="cls-2" d="M285.84,256.35l-8.16-3.06-.12.12-21,21-.36.32c-2.13,2-12.8,12.9,0,23.45l.09-.12,30.6-41.21A4.51,4.51,0,0,0,285.84,256.35Z"/><path class="cls-2" d="M234.85,264.59l-33,39.26.56.53a4.3,4.3,0,0,0,6.21-.38l27.7-32.73A4.31,4.31,0,0,0,234.85,264.59Z"/><path class="cls-2" d="M286.86,256.89l-30.6,41.21-.09.12.56.44a4.3,4.3,0,0,0,6.15-.89l24.95-34.88A4.31,4.31,0,0,0,286.86,256.89Z"/><path class="cls-3" d="M276.7,172.65S278.64,125,294.82,95.1c0,0,11.09-22.88-13.71-25.82-7.24-.86-13.72,3.07-19.28,9.06-13.49,14.54-21.51,41.24-21.51,41.24"/><path class="cls-3" d="M261.48,78c1.83-10.44-16.63-22.09-31.12-1.71l-.59.84c-5.07,7.18-12.81,19.08-16.35,33.33"/><path class="cls-3" d="M229.76,77.21a.13.13,0,0,1,0-.06c1.75-10.43-16.67-22-31.13-1.65-.91,1.28-1.52,2.13-2.44,3.5,0,0-42.72,79.22-23.34,145.86"/><path class="cls-3" d="M267.47,221.67c9-1.54,61.34-26.53,51.34-52.82-5.18-13.61-31.64-1.49-42.05,3.92h0c-2.6,1.36-4.19,2.29-4.19,2.29"/><path class="cls-3" d="M249.38,268.75h0c-10.16-6.11-15.16-14.19-18.26-23.78"/><polyline class="cls-3" points="277.69 253.29 277.56 253.41 256.52 274.45"/><path class="cls-3" d="M259,241.1c2.08,4.2,5.22,6.29,9.27,7.67"/><path class="cls-3" d="M256.52,274.45l-.35.32c-2.14,2-12.81,12.9,0,23.44l.56.45a4.3,4.3,0,0,0,6.15-.89l24.95-34.88a4.31,4.31,0,0,0-1-6,4.51,4.51,0,0,0-1-.54l-8.15-3.06"/><path class="cls-3" d="M256,274.7s-8.61-2.21-7.89-4a11.54,11.54,0,0,1,1.23-1.92c3.56-4.82,13.59-15.94,18.9-19.77,1.54-1.11,2.68-1.61,3.16-1.17l1.54,1.41,4.46,4.07"/><path class="cls-3" d="M197.51,274c-5.35-3.83-14.87-12-18.79-30.28h0"/><polyline class="cls-3" points="226.97 260.87 226.85 260.98 204.15 280.24"/><path class="cls-3" d="M207.92,246c2,5.1,6.81,8.23,10,9.64"/><path class="cls-3" d="M204.15,280.24s-.15.1-.41.31c-2.35,1.85-13.7,11.82-1.91,23.3l.56.53a4.31,4.31,0,0,0,6.21-.38l27.7-32.73a4.31,4.31,0,0,0-1.45-6.68L227,260.87"/><path class="cls-3" d="M203.66,280.44s-8.41-2.89-7.53-4.65a11.29,11.29,0,0,1,1.38-1.82c3.94-4.51,14.86-14.79,20.46-18.17,1.62-1,2.79-1.38,3.22-.9,2.23,2.41,5.55,6,5.55,6"/><path class="cls-3" d="M232.77,131.38c3.48-4.45,14.9-3,14.9,5.28"/><path class="cls-3" d="M204.64,126.1c2.32-5.15,13.75-6.47,15.72,1.6"/><path class="cls-3" d="M223.07,257.51s-4.9,2.39-6.51,5"/><path class="cls-3" d="M273,249.22s-6.92,7-7.4,8.29"/><line class="cls-3" x1="234.85" y1="264.59" x2="201.83" y2="303.85"/><polyline class="cls-3" points="286.88 256.86 286.86 256.89 256.26 298.1"/><path class="cls-3" d="M219.31,226.32s-29.38.73-44.9-1.46a5.34,5.34,0,0,0-1.55,0c-6.43,1-5.16,15.28,5.86,18.82.46.14.93.27,1.42.38,4.27.94,15,1.45,27.78,1.32,7.34-.08,15.35-.36,23.17-.88A214.52,214.52,0,0,0,259,241.1c7.78-1.62,13.27-3.75,14.51-6.47,4.15-9.15-1.58-12.88-5.07-13a5.77,5.77,0,0,0-.95.1,163.34,163.34,0,0,1-19.06,3.73"/><path d="M229.19,149s2.25,19.75-17.42,14.14c-12.25-4.69-4.54-19.16-4.54-19.16h0C210.6,147.22,217.27,151,229.19,149Z"/><path class="cls-3" d="M207.23,144s-7.71,14.47,4.54,19.16c19.67,5.61,17.42-14.14,17.42-14.14-11.92,2-18.59-1.82-22-5a14,14,0,0,1-2.91-3.75"/><path class="cls-3" d="M235.31,147a30.75,30.75,0,0,1-6.12,2"/><path class="cls-2" d="M131.62,253.77l-.09.26c-4.13,7-10.89,15.34-19.84,20h0c-.11-.09-3.84-6.05-7.39-11.74l.52-.1c13.56-5.07,12.75-13.83,12.75-13.83A118.91,118.91,0,0,0,131.62,253.77Z"/><path class="cls-2" d="M105.35,216.52l.09-.19c11.93-48.49-10.33-98.72-19.38-115,0,0-12.1-19.71.68-27.33,8.71-5.2,17.87-4.23,25,3.57-.44-5.08.81-10.21,6.12-13.38,9.25-5.51,19-4.47,26.49,3.87a12.2,12.2,0,0,1,6.11-9.73c13.09-7.81,26.73.11,36.28,15.6s24.54,38,20.44,103.78l.32.33c8.82-5.78,36.74-22.06,42-.33,5.79,23.89-29.2,48.58-47.25,54.16,10.84-3.14,13,16.09,2.29,20.19a108,108,0,0,1-21.72,5.82,106.84,106.84,0,0,1-17,1.29,110.35,110.35,0,0,1-13.93-.92,120.88,120.88,0,0,1-34.33-9.86c-3.48-1.58-6.65-3.23-9.47-4.86-7.29-4.21-12.26-8.27-14.22-10.76-3.82-4.86-.36-15.22,5.55-17.25C101.21,214.91,103.42,215.57,105.35,216.52Z"/><path class="cls-2" d="M151.58,286.92l-12.15-22.66-.44.07-7.16,1.7v0s12.89,22.73,8.63,26.21,6.9,21.75,6.9,21.75l.1.17C155.61,308.9,158.19,299.68,151.58,286.92Z"/><path class="cls-2" d="M103.64,276.69h0L90,254l-6.38,1.22.07.38s12.89,22.73,8.63,26.21,6.55,21.31,6.55,21.31v.32c7.91-5,10.61-14,4.72-26.7Z"/><path class="cls-2" d="M108.1,243.53c-3.53,4.17-6.11,6.81-10.15,8.59l6.35,10.2.52-.1c13.56-5.07,12.75-13.83,12.75-13.83C114.09,246.81,110.92,245.16,108.1,243.53Z"/><path class="cls-2" d="M165.83,259.17a110.35,110.35,0,0,1-13.93-.92h0a18.9,18.9,0,0,1-5.21,4L153.53,274l5.77,9.92a49.93,49.93,0,0,0,23.49-26.05A106.84,106.84,0,0,1,165.83,259.17Z"/><path class="cls-2" d="M153.53,274l-6.84-11.79a33.32,33.32,0,0,1-7.63,2.47l12.14,22.66a56,56,0,0,0,8.1-3.42Z"/><path class="cls-2" d="M98,252.12a32.63,32.63,0,0,1-7.83,2.18h-.05l-.4.08,13.56,22.73h0a32.91,32.91,0,0,0,8.43-3.06c-.11-.09-3.84-6.05-7.39-11.74Z"/><path class="cls-2" d="M147,314.45s-11.16-18.27-6.9-21.75-8.63-26.21-8.63-26.21v0l-3.56.85,11.24,50.79a28.69,28.69,0,0,0,8-3.48Z"/><path class="cls-2" d="M92,282.19c4.26-3.48-8.63-26.21-8.63-26.21l-.07-.37-2.41.46,9,51.24a28.22,28.22,0,0,0,8.69-3.48v-.33S87.73,285.68,92,282.19Z"/><path class="cls-3" d="M163.7,133.84s-.38-22.14-14-46.59c0,0-6.31-10.28-5.4-19.19a12.2,12.2,0,0,1,6.11-9.73c13.09-7.81,26.73.11,36.28,15.6s24.54,38,20.44,103.78"/><path class="cls-3" d="M130.87,136.3a114,114,0,0,0-13.76-43.19s-4.73-7.7-5.4-15.54c-.44-5.08.81-10.21,6.12-13.38,9.25-5.51,19-4.47,26.49,3.87"/><path class="cls-3" d="M105.44,216.33c11.93-48.49-10.33-98.72-19.38-115,0,0-12.1-19.71.68-27.33,8.71-5.2,17.87-4.23,25,3.57l.07.08"/><path class="cls-3" d="M202.22,231.87c18.05-5.58,53-30.27,47.25-54.16-5.26-21.73-33.18-5.45-42,.33-1.68,1.11-2.67,1.83-2.67,1.83"/><path class="cls-3" d="M201.83,232l.11,0"/><path class="cls-1" d="M118.1,140c3.21-1.16,32.29-8.76,59.85-3.14"/><path class="cls-3" d="M186.3,236.29a76.94,76.94,0,0,0,14.71-4c.32-.13.63-.24.93-.34l.28-.08c10.84-3.14,13,16.09,2.29,20.19a108,108,0,0,1-21.72,5.82,106.84,106.84,0,0,1-17,1.29,110.35,110.35,0,0,1-13.93-.92,120.88,120.88,0,0,1-34.33-9.86c-3.48-1.58-6.65-3.23-9.47-4.86-7.29-4.21-12.26-8.27-14.22-10.76-3.82-4.86-.36-15.22,5.55-17.25,1.78-.61,4,0,5.92,1a25.16,25.16,0,0,1,4.53,2.92s22.6,15.6,48,17.79"/><path class="cls-1" d="M90.07,254.31l-.4.07h0l13.56,22.73h0a32.91,32.91,0,0,0,8.43-3.06h0c9-4.69,15.71-13,19.84-20"/><path class="cls-1" d="M108.1,243.53c-3.53,4.17-6.11,6.81-10.15,8.59a32.63,32.63,0,0,1-7.83,2.18"/><path class="cls-1" d="M151.9,258.25a18.9,18.9,0,0,1-5.21,4,33.32,33.32,0,0,1-7.63,2.47l12.14,22.66a56,56,0,0,0,8.1-3.42,49.93,49.93,0,0,0,23.49-26.05"/><path class="cls-3" d="M151.2,287.35c6.61,12.75,4,22-4.1,27.26a28.69,28.69,0,0,1-8,3.48L127.9,267.3l3.56-.85,7.16-1.7"/><path class="cls-3" d="M103.26,277.13c5.9,12.73,3.19,21.7-4.72,26.7a28.22,28.22,0,0,1-8.69,3.48l-9-51.24,2.4-.46,6.39-1.22.4-.08h.05l1.57-.3"/><path class="cls-3" d="M98,252.12l6.35,10.2c3.55,5.69,7.28,11.65,7.39,11.74h0"/><polyline class="cls-3" points="146.69 262.22 153.53 274.01 159.3 283.93 159.3 283.94"/><path class="cls-3" d="M165.83,259.17s-.59,10.31-11.94,14.63"/><path class="cls-3" d="M117.57,248.39s.81,8.76-12.75,13.83"/><path class="cls-3" d="M131.47,266.49s12.88,22.72,8.63,26.21,6.9,21.75,6.9,21.75"/><path class="cls-3" d="M83.36,256S96.25,278.71,92,282.19s6.55,21.31,6.55,21.31"/></svg>