<svg id="Layer_1" data-name="Layer 1" xmlns="http://www.w3.org/2000/svg" viewBox="0 0 400 400"><defs><style>.cls-1,.cls-4,.cls-5{fill:#fff;}.cls-2,.cls-3,.cls-6{fill:none;}.cls-2,.cls-3,.cls-4,.cls-5,.cls-6{stroke:#000;}.cls-2,.cls-3,.cls-5,.cls-6{stroke-linecap:round;}.cls-2,.cls-3,.cls-4{stroke-miterlimit:10;}.cls-2,.cls-6{stroke-width:1.88px;}.cls-3,.cls-4,.cls-5{stroke-width:2.08px;}.cls-5,.cls-6{stroke-linejoin:round;}</style></defs><title>Desk_Dudes13</title><path class="cls-1" d="M226.32,343.9l0,.19-50.93-.32a19,19,0,0,1-.16-7.63l.41.08s20,5.86,22.26.89c.77-1.65,4.05-2,8.09-1.79-.06.23-.11.46-.16.69a18.91,18.91,0,0,0,.13,7.76Z"/><path class="cls-1" d="M256.29,338.72l-.26,0S230.66,332,228.37,337l-.13.24a3.83,3.83,0,0,1-2.52,1.48l-.25.06C219.28,340,206,336.05,206,336.05l-.14,0a18.91,18.91,0,0,0,.13,7.76l20.34.13,30.59.19Z"/><path class="cls-1" d="M253.79,317,249,274.86a17.12,17.12,0,0,1-2.16-.42c-1.74-.44-6-2.65-3.24-6.24-1.07.58-2.19,1.13-3.38,1.65h0a52.51,52.51,0,0,1-11.8,3.48l2.38,43.59.3,5.45v.27a115.35,115.35,0,0,1,23.56,1.76Z"/><path class="cls-1" d="M223.53,317l-4.37-42.6q-4.09.22-8.75.08a142.37,142.37,0,0,1-14.4-1.24l4.48,49.15v.27a113.81,113.81,0,0,1,20.43,1.24c1.07-.24,2.16-.44,3.26-.61l-.06-.42Z"/><path class="cls-1" d="M220.93,323.88c-7.2,1.62-13.18,5-14.92,11.44-4-.24-7.32.14-8.09,1.79-2.29,5-22.26-.89-22.26-.89l-.41-.08c2.05-10,13.8-13,25.25-13.5A113.81,113.81,0,0,1,220.93,323.88Z"/><path class="cls-1" d="M254.7,325l-.07-.58a115.35,115.35,0,0,0-23.56-1.76,67.89,67.89,0,0,0-6.88.63c-1.1.17-2.19.37-3.26.61-7.2,1.62-13.18,5-14.92,11.44-.06.23-.11.46-.16.69l.14,0s13.29,4,19.48,2.74l.25-.06a3.83,3.83,0,0,0,2.52-1.48l.13-.24c2.29-5,27.66,1.74,27.66,1.74l.26,0Z"/><polyline class="cls-2" points="219.16 274.38 223.53 316.98 224.13 322.85"/><line class="cls-2" x1="200.49" y1="322.37" x2="196.01" y2="273.22"/><path class="cls-2" d="M226.32,343.9l0,.19-50.93-.32a19,19,0,0,1-.16-7.63c2.05-10,13.8-13,25.25-13.5a113.81,113.81,0,0,1,20.43,1.24"/><polyline class="cls-2" points="200.62 316.9 214.35 316.97 223.23 317.01"/><path class="cls-2" d="M206,335.32c-4-.24-7.32.14-8.09,1.79-2.29,5-22.26-.89-22.26-.89"/><line class="cls-2" x1="214.35" y1="316.55" x2="210.41" y2="274.46"/><polyline class="cls-2" points="248.96 274.86 253.79 317.01 254.63 324.4"/><polyline class="cls-2" points="231.06 322.37 230.76 316.92 228.38 273.33"/><path class="cls-2" d="M254.63,324.4l.07.58,1.59,13.74.62,5.37-30.59-.19L206,343.77a18.91,18.91,0,0,1-.13-7.76c.05-.23.1-.46.16-.69,1.74-6.46,7.72-9.82,14.92-11.44,1.07-.24,2.16-.44,3.26-.61a67.89,67.89,0,0,1,6.88-.63A115.35,115.35,0,0,1,254.63,324.4Z"/><polyline class="cls-2" points="231.19 316.9 244.92 316.97 253.79 317.01 253.8 317.01"/><path class="cls-2" d="M256,338.75S230.66,332,228.37,337l-.13.24a3.83,3.83,0,0,1-2.52,1.48l-.25.06C219.28,340,206,336.05,206,336.05"/><line class="cls-2" x1="244.92" y1="316.55" x2="240.18" y2="269.85"/><path d="M249.56,281.67l-20.4-1.41-.15-7.83s16-3.09,18.31-4.08Z"/><path d="M220.29,283H197.63l-.92-10.26,1.61-1.18s19.12,3.89,21.45,2.89Z"/><path d="M175.66,335.84s-40.21-1.25-38.68,4.58,38.21,4.3,38.21,4.3Z"/><path class="cls-1" d="M281.81,160.52c-7.08-5-10.35,3.34-10.43,3.55-2.2-22.45-4.92-46.76-3.59-71.73.53-9.81-6.4-15.76-17.9-15C217,79.33,219,142,219,142c-16.44-1.28-67.53-16.59-81.16,4.09-7.2,10.93-8.29,20-6,27.5-8,8.64-11.16,14.69-12,27a26.6,26.6,0,0,0,6.36,19.59c-6.22-1.54-22,23.4,6.59,45,9.89,7.46,26.94,10.52,45,8.54,3-.34,5.21-1,7-2.35q5.94,1.14,11.27,1.86a142.37,142.37,0,0,0,14.4,1.24q4.65.15,8.75-.08a74.85,74.85,0,0,0,9.22-1.05,52.51,52.51,0,0,0,11.8-3.48h0c1.19-.52,2.31-1.07,3.38-1.65-2.73,3.59,1.5,5.8,3.24,6.24a17.12,17.12,0,0,0,2.16.42C285.12,279.64,292.45,168,281.81,160.52ZM178.18,240.66a6.82,6.82,0,0,1,1.91,0C179.46,240.64,178.82,240.65,178.18,240.66Zm2.31-35.37q1.51.17,3,.27Q182,205.46,180.49,205.29Zm11.11.32a8.62,8.62,0,0,1,3.4-.28C193.87,205.46,192.74,205.55,191.6,205.61Zm59.46-72.86a4.44,4.44,0,0,0,.63,0A4.44,4.44,0,0,1,251.06,132.75Z"/><path class="cls-2" d="M191.6,205.61h0"/><path class="cls-2" d="M178.18,240.66c.64,0,1.28,0,1.91,0,12.12-.46,23.85-4.24,27.28-14.58,2.36-7.12-4.13-19.73-12.37-20.7a8.62,8.62,0,0,0-3.4.28"/><path class="cls-2" d="M126.22,220.19c6.85,8.2,18.15,13.46,28.87,17.08a74.62,74.62,0,0,0,23.09,3.39"/><path class="cls-2" d="M131.89,173.57c-8,8.64-11.16,14.69-12,27a26.6,26.6,0,0,0,6.36,19.59"/><path class="cls-2" d="M126.22,220.19h0c-6.22-1.54-22,23.4,6.59,45,9.89,7.46,26.94,10.52,45,8.54,3-.34,5.21-1,7-2.35a15.12,15.12,0,0,0,4.07-5.79c4.75-10.33-1-24.07-8.72-25a6.82,6.82,0,0,0-1.91,0h0"/><path class="cls-2" d="M272,170.52c-.19-2.13-.4-4.28-.61-6.45-2.2-22.45-4.92-46.76-3.59-71.73.53-9.81-6.4-15.76-17.9-15C217,79.33,219,142,219,142c-16.44-1.28-67.53-16.59-81.16,4.09-7.2,10.93-8.29,20-6,27.5,4,13,18.31,21.26,28.55,26.1a65.45,65.45,0,0,0,31.16,5.94h0c1.14-.06,2.27-.15,3.4-.28a58.23,58.23,0,0,0,7.37-1.3c8.78-2.15,18.14-8.71,17.93-20.06C220,164.59,187,162.38,180.85,162.4"/><path class="cls-2" d="M243.57,268.19a37.55,37.55,0,0,0,4.31-2.71,39.7,39.7,0,0,0,4.93-4.19"/><path class="cls-2" d="M184.74,271.36q5.94,1.14,11.27,1.86a142.37,142.37,0,0,0,14.4,1.24q4.65.15,8.75-.08a74.85,74.85,0,0,0,9.22-1.05,52.51,52.51,0,0,0,11.8-3.48h0c1.19-.52,2.31-1.07,3.38-1.65"/><path class="cls-2" d="M271.38,164.07h0c.08-.21,3.35-8.52,10.43-3.55C292.45,168,285.12,279.64,249,274.86a17.12,17.12,0,0,1-2.16-.42c-1.74-.44-6-2.65-3.24-6.24h0"/><path class="cls-3" d="M245.48,129c2.07,4.8,10.63,5.68,13.14-1"/><line class="cls-3" x1="256.61" y1="125.95" x2="261.7" y2="127.96"/><ellipse class="cls-4" cx="224.53" cy="105.36" rx="12.06" ry="10.77" transform="translate(91.3 314.56) rotate(-82.65)"/><ellipse class="cls-4" cx="240.91" cy="106.93" rx="12.94" ry="11.55" transform="translate(104.03 332.18) rotate(-82.65)"/><ellipse cx="242.68" cy="105.89" rx="4.82" ry="3.87" transform="translate(112.94 336.7) rotate(-84.23)"/><ellipse class="cls-1" cx="245.98" cy="104.95" rx="1.48" ry="2.1" transform="translate(128.75 345.32) rotate(-87.11)"/><path class="cls-5" d="M228.91,105s-4.38-4.89-11.46-1.81"/><path class="cls-6" d="M243.82,87.59s12.78-2.21,14.28,9.85"/></svg>