<svg id="Layer_1" data-name="Layer 1" xmlns="http://www.w3.org/2000/svg" viewBox="0 0 400 400"><defs><style>.cls-1,.cls-4{fill:#fff;}.cls-2,.cls-3{fill:none;}.cls-2,.cls-3,.cls-4{stroke:#000;stroke-width:1.88px;}.cls-2,.cls-4{stroke-linecap:round;stroke-linejoin:round;}.cls-3{stroke-miterlimit:10;}</style></defs><title>Desk_Dudes22</title><path d="M203.75,336.72s-99.27-.5-112.34,6c-1.83.91-1.41,2.27,1.45,2.26H204.65Z"/><path class="cls-1" d="M264.13,95c57.41-21.8,105.3,78.87,20.69,107.26l-.27,0a235.41,235.41,0,0,0-.21-26.21l.48,0c41.37-13.82,21.35-67.48-8-61.7h-.14a3.25,3.25,0,0,0,.1-.85c0-12.74-8.2-16.93-12.62-18.27Z"/><path class="cls-1" d="M148.73,177.54a162,162,0,0,1-5.23,23.2l-.28-.09c-60.64,9.93-57.46-39.06-57.46-39.06,9.93,3.1,17.95.48,20.55-1.22a6.17,6.17,0,0,0,.85-.68S106.14,187.9,148.73,177.54Z"/><path class="cls-1" d="M251.62,130.48c3.86-.41,7.77-.88,11.74-1.44q6.34-.9,12.86-2.08s.1.57.28,1.65h0c2.05,12.61,13.23,94.64-31,155.87h0c-68.71,4.42-115-8.48-132-14.4-4.84-1.68-7.34-2.8-7.34-2.8,19.83-23,31.14-46,37.36-66.53a162,162,0,0,0,5.23-23.2c4.6-30.74-1.32-51.88-1.32-51.88s41.77,10.25,97.77,5.43Q248.38,130.82,251.62,130.48Z"/><path class="cls-1" d="M245.51,284.48c44.22-61.23,33-143.26,31-155.87.13.47.29,1.09.49,1.86h0c3.49,17.22,15.69,94.53-29.73,161.59l-.13.09c-69.74,4.46-116-9-131.71-14.62-3.93-1.4-6-2.3-6-2.3,1.44-1.76,2.65-3.29,4-5.05l0-.12c17.07,5.92,63.32,18.82,132,14.4Z"/><path class="cls-1" d="M278.48,137c5.3,25.38,14.91,97.79-29.25,162.12l-.11.09c-71.14,4.48-117.84-9.44-132.6-14.7-3.31-1.18-5-1.93-5-1.93,1.42-1.75,2.61-3.28,3.91-5h0c15.72,5.58,62,19.08,131.71,14.62l.13-.09C292.68,225,280.48,147.7,277,130.48,277.39,132.05,277.91,134.24,278.48,137Z"/><path class="cls-1" d="M249.23,299.1c44.16-64.33,34.55-136.74,29.25-162.12a214.52,214.52,0,0,1,5.86,39,235.41,235.41,0,0,1,.21,26.21c-1.49,31-9.59,68.61-33.81,103.79l-.1.09q-11.47.72-22.1.84c-8.89.12-17.32-.05-25.27-.43-8.88-.43-17.17-1.13-24.83-2-9.09-1-17.31-2.31-24.61-3.69-26.76-5-41.2-11.35-41.2-11.35,1.42-1.75,2.44-3,3.74-4.79l.15-.18c14.76,5.26,61.46,19.18,132.6,14.7Z"/><path class="cls-1" d="M228.54,316.22h-26.2l-.46,4.7c.87.26,1.42,1,.68,2.54a7.5,7.5,0,0,0-1.13,2.69c-.22,2.18,2.07,4.34,15.82,1.18a22.11,22.11,0,0,0,9.71-5.24,6.34,6.34,0,0,1,1.58-1.09Z"/><path class="cls-1" d="M152.62,316.22l-.29,0-.46,4.72c.87.26,1.42,1,.68,2.54a7.52,7.52,0,0,0-1.13,2.72c-.2,2.16,2.12,4.3,15.82,1.15a22.11,22.11,0,0,0,9.71-5.24,6.34,6.34,0,0,1,1.58-1.09v-4.77H152.62Z"/><path class="cls-1" d="M228.54,306.93c-8.89.12-17.32-.05-25.27-.43l-.93,9.71h26.2v-9.29Z"/><path class="cls-1" d="M178.44,304.5c-9.09-1-17.31-2.31-24.61-3.69l0,.17-1.47,15.21.29,0h25.91v-11.3Z"/><path class="cls-1" d="M230.5,331.69s-5.72-.73-28.47,5.84c-9.85,2.85-16.72,2.88-21.34,2-5-1-7.34-3-8-3.63h0a18.25,18.25,0,0,1,.38-3.48,200.19,200.19,0,0,0-21,5.1c-20.45,5.92-28-.31-29.36-1.62a20.47,20.47,0,0,0,.38,4.47,4.6,4.6,0,0,0,4.51,3.73h50l-.4,0,.4,0h53.28Zm-56.16,11.1a4.66,4.66,0,0,0,1.27.88A4.66,4.66,0,0,1,174.34,342.79Zm1.63,1a5.16,5.16,0,0,0,.77.21A5.16,5.16,0,0,1,176,343.82Z"/><path class="cls-1" d="M244.44,265.34c-2.41,8.46-11.89,13.19-21.16,10.55s-14.84-11.65-12.43-20.12a14.81,14.81,0,0,1,4.8-7.35c4.38,10.79,7.89,22.72,7.89,22.72l14.86-5.48-2.31-6.33L227,265.49,222.71,245a18.52,18.52,0,0,1,9.3.27C241.28,247.86,246.85,256.86,244.44,265.34Z"/><path d="M220,254.2l5.65,9.45,12.57-16.8,5.24-7,8.36,5.85a97.93,97.93,0,0,0-8.68,7.3c-8.54,7.91-16.78,17.23-16.78,17.23L215.26,259Z"/><path class="cls-1" d="M230.27,323.1c0-2.16-.74-2.54-1.73-2.11a6.34,6.34,0,0,0-1.58,1.09,22.11,22.11,0,0,1-9.71,5.24c-13.75,3.16-16,1-15.82-1.18a7.5,7.5,0,0,1,1.13-2.69c.74-1.5.19-2.28-.68-2.54A3.09,3.09,0,0,0,200,321c-3.62,1.49-.74,5.15-6.2,3.51-6-1.79-10.34-1.82-13.48-.8a11.65,11.65,0,0,0-1.75.74,10.58,10.58,0,0,0-5.11,6.48c-.15.49-.27,1-.37,1.47a18.25,18.25,0,0,0-.38,3.48h0c.68.68,3.05,2.68,8,3.63,4.62.87,11.49.84,21.34-2,22.75-6.57,28.47-5.84,28.47-5.84Z"/><path class="cls-1" d="M180.26,323.1c0-2.16-.74-2.54-1.73-2.11a6.34,6.34,0,0,0-1.58,1.09,22.11,22.11,0,0,1-9.71,5.24c-13.7,3.15-16,1-15.82-1.15h0l.5-5.25A3.09,3.09,0,0,0,150,321c-3.62,1.49-.74,5.15-6.2,3.51-17.12-5.14-21,4.18-21.09,11.37,1.32,1.31,8.91,7.54,29.36,1.62a200.19,200.19,0,0,1,21-5.1c.1-.49.22-1,.37-1.47a10.58,10.58,0,0,1,5.11-6.48,11.65,11.65,0,0,1,1.75-.74Z"/><path class="cls-1" d="M151.87,320.91c.87.26,1.42,1,.68,2.54a7.52,7.52,0,0,0-1.13,2.72h0Z"/><path class="cls-1" d="M259.18,91.85a3.73,3.73,0,0,1,1.84,2.8,11.17,11.17,0,0,1-.41,4.83,17.06,17.06,0,0,1-3.55,6.62l0,0-.36.38c-1.94,2-4.32,3-6.7,1.83-2-1-3-5.62,1.61-11l2.77-3.14-.1-.36c-.26-.46-.57-1-.93-1.58h0A5,5,0,0,1,259.18,91.85Z"/><path class="cls-1" d="M264.2,95.16a15.33,15.33,0,0,0-2.75-.59l-.43.08a11.17,11.17,0,0,1-.41,4.83,17.06,17.06,0,0,1-3.55,6.62l0,0a4.27,4.27,0,0,1-.36.38c-4.5,4.93-3.18,9.58-1.24,10.5,2.27,1.08,4.68,0,6.6-2l.42-.46a6,6,0,0,1-.42.46c-3.74,4.34-2.55,8.45-.85,9.26a4.69,4.69,0,0,0,1.53.44c3.72.35,6.39-4.77,6.27-9.58h.48s2.19.6,2.72-1.41c.67,3,3.92,2.92,4.54.53a3.25,3.25,0,0,0,.1-.85C276.82,100.69,268.62,96.5,264.2,95.16Z"/><path class="cls-1" d="M107.88,128.24c-.35-3.65-.77-16-7.15-15.56-4.85.35-3.49,9.8-1.72,16.46-13-3.76-21.19-1.72-23,3a6.83,6.83,0,0,0-.16,5.43h0l-.38.09h0a5.77,5.77,0,0,0,.07,7.6l.21.25-.46.1h0c-4.29,6.2,3.18,9.1,6.7,9.57a14.93,14.93,0,0,0,2.49.14h0a8.56,8.56,0,0,0,1-.09c-2.55.4-3.68,5.1.24,6.32,9.93,3.1,17.95.48,20.55-1.22a6.17,6.17,0,0,0,.85-.68c2.85-2.79-.46-5.95-.46-5.95C112.83,147.48,109.44,144.44,107.88,128.24Z"/><path class="cls-1" d="M234.18,98.48l-1.35-2.36-.35.19c-4.81,5.57-1.87,12.11,3,15,2.24,1.33,4,.89,5-.3a4.72,4.72,0,0,0,1-3.65C241.11,104.5,236.19,100.09,234.18,98.48Z"/><polyline class="cls-2" points="151.87 320.91 152.33 316.19 153.8 300.98"/><polyline class="cls-2" points="178.53 304.92 178.53 316.22 178.53 320.99"/><path class="cls-3" d="M177.54,344.11h-50a4.6,4.6,0,0,1-4.51-3.73,20.47,20.47,0,0,1-.38-4.47c.14-7.19,4-16.51,21.09-11.37,5.46,1.64,2.58-2,6.2-3.51a3.09,3.09,0,0,1,1.92-.12c.87.26,1.42,1,.68,2.54a7.52,7.52,0,0,0-1.13,2.72c-.2,2.16,2.12,4.3,15.82,1.15a22.11,22.11,0,0,0,9.71-5.24,6.34,6.34,0,0,1,1.58-1.09c1-.43,1.75-.05,1.73,2.11"/><line class="cls-3" x1="180.26" y1="323.1" x2="180.28" y2="323.74"/><path class="cls-2" d="M147.41,125.66s41.77,10.25,97.77,5.43q3.19-.27,6.44-.61c3.86-.41,7.77-.88,11.74-1.44q6.34-.9,12.86-2.08"/><path class="cls-2" d="M106.14,267.27s2.5,1.12,7.34,2.8c17.07,5.92,63.32,18.82,132,14.4"/><path class="cls-2" d="M276.5,128.61c2.05,12.61,13.23,94.64-31,155.87h0"/><path class="cls-2" d="M276.22,127s.1.57.28,1.65"/><path class="cls-2" d="M277,130.48c3.49,17.22,15.69,94.53-29.73,161.59"/><path class="cls-2" d="M276.22,127s.31,1.22.77,3.51"/><path class="cls-2" d="M147.41,125.66s5.92,21.14,1.32,51.88a162,162,0,0,1-5.23,23.2c-6.22,20.56-17.53,43.55-37.36,66.53"/><path class="cls-2" d="M109.47,275.24s2,.9,6,2.3c15.72,5.58,62,19.08,131.71,14.62"/><path class="cls-2" d="M113.43,270.19c-1.31,1.76-2.52,3.29-4,5.05"/><path class="cls-2" d="M276.22,127.6s.1.35.28,1h0c.13.47.29,1.09.49,1.86h0c.4,1.57.92,3.76,1.49,6.5,5.3,25.38,14.91,97.79-29.25,162.12"/><path class="cls-2" d="M111.51,282.56s1.7.75,5,1.93c14.76,5.26,61.46,19.18,132.6,14.7"/><path class="cls-2" d="M115.42,277.54c-1.3,1.74-2.49,3.27-3.91,5"/><path class="cls-2" d="M277.81,134.5s.26.86.67,2.48a214.52,214.52,0,0,1,5.86,39,235.41,235.41,0,0,1,.21,26.21c-1.49,31-9.59,68.61-33.81,103.79"/><path class="cls-2" d="M112.63,289.46s14.44,6.31,41.2,11.35c7.3,1.38,15.52,2.66,24.61,3.69,7.66.87,15.95,1.57,24.83,2,7.95.38,16.38.55,25.27.43q10.62-.14,22.1-.84"/><path class="cls-2" d="M116.37,284.67c-1.3,1.75-2.32,3-3.74,4.79"/><path class="cls-2" d="M232.48,96.31c-4.81,5.57-1.87,12.11,3,15,2.24,1.33,4,.89,5-.3a4.72,4.72,0,0,0,1-3.65c-.39-2.88-5.31-7.29-7.32-8.9"/><path class="cls-2" d="M257.06,106.1a17.06,17.06,0,0,0,3.55-6.62,11.17,11.17,0,0,0,.41-4.83,3.73,3.73,0,0,0-1.84-2.8,5,5,0,0,0-5.86.39"/><path class="cls-2" d="M254.35,94.18l-2.77,3.14c-4.58,5.4-3.6,10.07-1.61,11,2.38,1.13,4.76.14,6.7-1.83a4.27,4.27,0,0,0,.36-.38"/><path class="cls-2" d="M262.45,114.59a6,6,0,0,1-.42.46c-1.92,2-4.33,3-6.6,2-1.94-.92-3.26-5.57,1.24-10.5l.36-.38,0,0"/><path class="cls-2" d="M260.64,99.48c4.81.89,5.85,5,4.88,9.08a15,15,0,0,1-3,6"/><path class="cls-2" d="M266,108.49a8.26,8.26,0,0,1,3,6.68c.12,4.81-2.55,9.93-6.27,9.58a4.69,4.69,0,0,1-1.53-.44c-1.7-.81-2.89-4.92.85-9.26l.42-.46,0,0,.16-.17"/><path class="cls-2" d="M240.52,111s3.41,6.1,4.66,20.06"/><path class="cls-2" d="M262.71,124.75c.31,1.92.4,2.51.64,4.27"/><path class="cls-2" d="M254.25,93.82c-.26-.46-.57-1-.93-1.58-2.4-3.92-6.64-9.91-6.64-9.91-3.2-4.17-9-4.72-13.36-1.77s-4.93,7.68-2.2,12.57l1.71,3,1.35,2.36"/><path class="cls-2" d="M250.9,97.26c-3.48-7-6.11-10.06-6.12-10.06-1.91-2.56-3.88-3.66-6.3-2.29-2.68,1.52-3,3.43-1.23,6.83a84,84,0,0,1,14.37,38.74,79.94,79.94,0,0,1,.07,17v0"/><path class="cls-2" d="M262.15,148.45a5.26,5.26,0,0,1-10.46-.93c0-.16,0-.33,0-.49"/><path class="cls-2" d="M261.45,94.57a15.33,15.33,0,0,1,2.75.59c4.42,1.34,12.62,5.53,12.62,18.27a3.25,3.25,0,0,1-.1.85c-.62,2.39-3.87,2.42-4.54-.53"/><path class="cls-2" d="M264.11,95h0c57.41-21.8,105.3,78.87,20.69,107.26"/><path class="cls-2" d="M276.86,114.27c29.31-5.78,49.33,47.88,8,61.7"/><path class="cls-2" d="M269.46,115.16s2.19.6,2.72-1.41a5.66,5.66,0,0,0,0-2.43,15.63,15.63,0,0,0-3-6.7"/><path class="cls-2" d="M99.45,130.7c-.15-.5-.29-1-.44-1.56-1.77-6.66-3.13-16.11,1.72-16.46,6.38-.48,6.8,11.91,7.15,15.56,1.56,16.2,5,19.24-1.18,25.5,0,0,3.31,3.16.46,5.95a6.17,6.17,0,0,1-.85.68c-2.6,1.7-10.62,4.32-20.55,1.22-3.92-1.22-2.79-5.92-.24-6.32"/><path class="cls-2" d="M99,129.14c-13-3.76-21.19-1.72-23,3a6.83,6.83,0,0,0-.16,5.43h0a7.26,7.26,0,0,0,2.84,3,12.4,12.4,0,0,0,9.78,1.18,6.56,6.56,0,0,0,2.69-1.71c1.36-1.48,1.31-2.85,0-4.55s-5.74-2-8.6-2.16"/><path class="cls-2" d="M75.45,137.69a5.77,5.77,0,0,0,.07,7.6l.21.25a9.41,9.41,0,0,0,5.1,2.76,19.84,19.84,0,0,0,4.42.52h0c7.2-.08,6.72-5.86,3.21-7"/><path class="cls-2" d="M75.27,145.65c-4.29,6.2,3.18,9.1,6.7,9.57a14.93,14.93,0,0,0,2.49.14h0a8.56,8.56,0,0,0,1-.09h0c5.33-.78,3.7-5.88-.32-6.43"/><path class="cls-2" d="M94.11,156.56c8.52.63,12.59-2.82,12.59-2.82"/><path class="cls-2" d="M107.16,159.69s-1,28.21,41.57,17.85l.15,0"/><path class="cls-2" d="M85.76,161.59s-3.18,49,57.46,39.06"/><path class="cls-3" d="M173.05,332.43a200.19,200.19,0,0,0-21,5.1c-20.45,5.92-28-.31-29.36-1.62l-.22-.23"/><polyline class="cls-2" points="201.88 320.91 202.34 316.21 203.27 306.5"/><polyline class="cls-2" points="228.54 306.97 228.54 316.22 228.54 320.99"/><path class="cls-3" d="M172.67,335.91a18.25,18.25,0,0,1,.38-3.48c.1-.49.22-1,.37-1.47a10.58,10.58,0,0,1,5.11-6.48,11.65,11.65,0,0,1,1.75-.74c3.14-1,7.5-1,13.48.8,5.46,1.64,2.58-2,6.2-3.51a3.09,3.09,0,0,1,1.92-.12c.87.26,1.42,1,.68,2.54a7.5,7.5,0,0,0-1.13,2.69c-.22,2.18,2.07,4.34,15.82,1.18a22.11,22.11,0,0,0,9.71-5.24,6.34,6.34,0,0,1,1.58-1.09c1-.43,1.75-.05,1.73,2.11"/><path class="cls-3" d="M230.27,323.1l.23,8.59.32,12.42H177.54a4.62,4.62,0,0,1-4.5-3.73,21.16,21.16,0,0,1-.37-4.47"/><path class="cls-3" d="M230.5,331.69s-5.72-.73-28.47,5.84c-9.85,2.85-16.72,2.88-21.34,2-5-1-7.34-3-8-3.63h0l-.22-.23"/><line class="cls-2" x1="152.62" y1="316.22" x2="178.3" y2="316.22"/><line class="cls-2" x1="158.5" y1="316.68" x2="158.5" y2="320.53"/><line class="cls-2" x1="164.99" y1="316.68" x2="164.99" y2="320.52"/><line class="cls-2" x1="171.49" y1="316.68" x2="171.49" y2="320.53"/><line class="cls-2" x1="202.46" y1="316.22" x2="228.14" y2="316.22"/><line class="cls-2" x1="208.34" y1="316.68" x2="208.34" y2="320.52"/><line class="cls-2" x1="214.83" y1="316.68" x2="214.83" y2="320.52"/><line class="cls-2" x1="221.33" y1="316.68" x2="221.33" y2="320.53"/><path class="cls-2" d="M230,145.58s1.37,11.12-12,11.71"/><path class="cls-2" d="M225.41,144.44c0-5,9.79-6.73,9.79.46"/><path class="cls-2" d="M162.46,169.5c1.45,1.79,6.9.05,9.47.75,1.89.52,3.4,1.71,5.26,2.26,2.37.7,5,.7,7.47,1.36,5.67,1.53,11.31,1,17,2.36,5.4,1.27,8.72.18,14.1-.24a81.91,81.91,0,0,1,9.2-.54c2.34.11,4.31,1.68,6.58,1.9,3,.31,4-1.48,6.54-2.27,2.29-.71,4.73.16,7.09.28a56,56,0,0,0,9.7-.58c3.35-.43,9.68.19,12.27-1.19"/><path class="cls-2" d="M157.45,195.49c1.45,1.79,6.9.06,9.47.76,1.89.51,3.4,1.7,5.26,2.25,2.37.7,5,.7,7.47,1.36,5.67,1.54,11.32,1,17,2.36,5.4,1.27,8.72.19,14.1-.24a82,82,0,0,1,9.21-.54c2.33.11,4.3,1.68,6.57,1.91,3,.3,4-1.49,6.54-2.28,2.29-.7,4.73.16,7.1.28a55,55,0,0,0,9.69-.58c3.36-.43,9.68.2,12.27-1.19"/><path class="cls-2" d="M161.58,183c5.21-1.23,12.68,1.29,17.82,2.44s10.31,3.09,15.87,2.53c2.42-.24,4-1.43,6.46-.69,2.19.66,3.5,2.75,5.87,3s4.87-1.28,7.17-1.66c2.74-.44,4.25.22,6.89.65,7.6,1.22,15.42-.28,23,.45,6.84.65,13.33-2.84,20.07-2"/><path class="cls-2" d="M155.15,209.86c5.29-1.22,12.88,1.29,18.09,2.45,5.38,1.18,10.47,3.09,16.12,2.52,2.46-.24,4.08-1.42,6.56-.68,2.23.66,3.56,2.75,6,3s4.94-1.29,7.28-1.66c2.78-.45,4.32.22,7,.64,7.71,1.22,15.66-.27,23.38.45,7,.65,13.54-2.83,20.39-2"/><path class="cls-2" d="M147.48,219.61c1.34,1.87,6.89.48,9.41,1.33,1.85.63,3.28,1.91,5.11,2.58,2.32.84,5,1,7.37,1.81,5.57,1.88,11.23,1.74,16.78,3.4,5.31,1.6,8.69.73,14.09.63a81,81,0,0,1,9.22,0c2.32.25,4.19,1.94,6.44,2.3,3,.49,4.06-1.24,6.68-1.87,2.32-.56,4.7.46,7.06.72a56.23,56.23,0,0,0,9.71,0c3.38-.22,9.65.79,12.32-.43"/><path class="cls-2" d="M139.67,244.47c1.34,1.87,6.89.48,9.41,1.34,1.85.63,3.29,1.91,5.11,2.57,2.32.84,5,1,7.37,1.82,5.57,1.88,11.23,1.73,16.78,3.4,5.31,1.59,8.7.72,14.09.62a83.34,83.34,0,0,1,9.22,0"/><path class="cls-2" d="M144.57,232.48c5.27-.9,12.57,2.07,17.63,3.53,5.21,1.51,10.1,3.72,15.68,3.5,2.43-.09,4.1-1.17,6.5-.28,2.14.79,3.32,3,5.67,3.35s4.94-1,7.26-1.21c2.75-.28,4.22.48,6.83,1.06"/><path class="cls-2" d="M132.53,258.42c5.7-.87,13.61,2.14,19.08,3.63,5.64,1.54,10.94,3.77,17,3.58,2.63-.08,4.43-1.15,7-.26,2.32.81,3.61,3,6.15,3.39s5.33-1,7.84-1.18c3-.26,4.57.5,7.4,1.1"/><path class="cls-2" d="M222.71,245a18.52,18.52,0,0,1,9.3.27c9.27,2.64,14.84,11.64,12.43,20.12s-11.89,13.19-21.16,10.55-14.84-11.65-12.43-20.12a14.81,14.81,0,0,1,4.8-7.35"/><path class="cls-2" d="M216.67,339.14s8.9-2.4,13.83-1.67"/><path class="cls-2" d="M166.49,339.14s2.7-.73,6-1.26"/><ellipse class="cls-4" cx="184.56" cy="126.5" rx="13.96" ry="16.2"/><ellipse class="cls-4" cx="204.45" cy="126.5" rx="14.59" ry="16.93"/><polygon points="153.35 300.98 153.06 308.58 178.3 310.32 177.82 304.43 153.35 300.98"/><polygon points="203.07 306.49 202.9 311.05 228.14 312.79 227.66 306.9 203.07 306.49"/><ellipse cx="198.8" cy="125.66" rx="4.65" ry="3.51" transform="translate(68.09 321.17) rotate(-88.53)"/><circle class="cls-1" cx="201.3" cy="123.01" r="1.72"/><ellipse cx="177.2" cy="125.66" rx="4.65" ry="3.51" transform="translate(47.04 299.58) rotate(-88.53)"/><circle class="cls-1" cx="179.7" cy="123.01" r="1.72"/><path class="cls-2" d="M176.8,103.41s11.33-2.81,16.4,4.73"/><path class="cls-2" d="M209.77,103.41s-11.33-2.81-16.39,4.73"/><path class="cls-1" d="M193.68,142.5l-1.81,6.85c-2.43,0-18.68-1.6-17.92-8.61S193.68,142.5,193.68,142.5Z"/><path class="cls-2" d="M193.68,142.5s-19-8.78-19.73-1.76,15.49,8.61,17.92,8.61"/></svg>