<svg id="Layer_1" data-name="Layer 1" xmlns="http://www.w3.org/2000/svg" viewBox="0 0 400 400"><defs><style>.cls-1,.cls-5,.cls-6{fill:#fff;}.cls-2,.cls-3,.cls-4{fill:none;}.cls-2,.cls-3,.cls-4,.cls-5,.cls-6{stroke:#000;stroke-width:1.88px;}.cls-2,.cls-3,.cls-5{stroke-linecap:round;}.cls-2,.cls-5,.cls-6{stroke-miterlimit:10;}.cls-3,.cls-4{stroke-linejoin:round;}</style></defs><title>Desk_Dudes23</title><path d="M224.16,334.62s-62.51-1.33-61.22,5.12c1.4,7,67.25,4.69,67.25,4.69Z"/><path d="M286.52,334.85S224,333.52,225.3,340c1.41,7,67.25,4.69,67.25,4.69Z"/><path class="cls-1" d="M115.52,173.33c1,0,2.13.23,2.22,1.63a3.84,3.84,0,0,1,0,.48c-.27,3.46-5.62,5.22-10.56,5.72a19.54,19.54,0,0,1-7.39-.38,1.82,1.82,0,0,1-.86-.54c-1.81-2.47.25-4,.25-4-9.69-10-8.08-23.2-2-22.8l.17,0c.11-.43.22-.84.35-1.2.81-2.22,3.52-4.22,5.47-1.93h0l.39.09c.57-2.39,1.76-4.12,4-3.84,6.09.76,1.38,11.75,5,14.69a1.64,1.64,0,0,0,2.35-.29c2-2.09,2.94-8.46,5.87-8.41,6.21.1.84,13.26-5.2,20.67Z"/><path class="cls-1" d="M89.55,255.91a16.39,16.39,0,0,1,.78,1.81,13.25,13.25,0,0,1,.84,3.36,11.81,11.81,0,0,1,.08,1.68c-.06,1.85-.5,3.08-2.13,4a3.36,3.36,0,0,1-3.17.17h-.09a3.73,3.73,0,0,1-2.23,2c-1.16.49-3.16.34-3.92-1l-.13,0a3.91,3.91,0,0,1-3,3.41c-1.47.42-2.47-.51-3.08-1.69l0,0a7.29,7.29,0,0,1-.45-1.14c-1.36-4.6-2-5.29-5.26-7.88v-.06c-2.18-1.74-7.29-4.08-8.13-7.89a6,6,0,0,1,1.43-5.11,1.73,1.73,0,0,1-.28-.26,3.19,3.19,0,0,1-.68-2.88,2.26,2.26,0,0,1,.81-1.24,25.81,25.81,0,0,0,4.26-.37l.22,0a14.32,14.32,0,0,0,3.51-.82h0a17.83,17.83,0,0,0,2.77-1.07,13,13,0,0,0,4-2.75c2-1.47,5.39,2.53,2.8,5.25l.14.15.42,0a29.5,29.5,0,0,1,4.14.81c6.68,1.79,9.69,5.3,10.51,6.31a3.78,3.78,0,0,1,.76,3.44,2.73,2.73,0,0,1-2.23,1.86A8.08,8.08,0,0,1,89.55,255.91Z"/><path d="M81.31,335.48s-62.89-1.25-61.23,5.11,67.25,4.7,67.25,4.7Z"/><polygon class="cls-1" points="109.29 340.08 109.29 344.14 93.09 344.14 93.09 340.08 94.24 340.08 108.12 340.08 109.29 340.08"/><path class="cls-1" d="M130.26,82.91a13.42,13.42,0,0,1,7.87,17l-22-8.39.08-.19a3.61,3.61,0,0,0-1.25-4.19A13.44,13.44,0,0,1,130.26,82.91Z"/><path class="cls-1" d="M138.14,99.92l-.08.2a1.59,1.59,0,0,0,.07-.2Z"/><path class="cls-1" d="M116.1,91.53l22,8.39a1.59,1.59,0,0,1-.07.2l0,.11h0l-22-8.4Z"/><rect class="cls-1" x="124.84" y="85.73" width="3.19" height="23.58" transform="translate(-9.68 181) rotate(-69.16)"/><polygon class="cls-1" points="141.23 340.08 141.23 344.14 109.29 344.14 109.29 340.08 140.06 340.08 141.23 340.08"/><path class="cls-1" d="M114.93,87.15a3.89,3.89,0,0,0-.83-.45l-.85-.32a3.59,3.59,0,0,0-4.64,2.08L88.47,141.32A3.59,3.59,0,0,0,90.54,146l.85.32.32.11A3.6,3.6,0,0,0,96,144.2l18.82-49.38,1.14-3,.11-.3.08-.19A3.61,3.61,0,0,0,114.93,87.15Zm-2,3.52.11-.3h0Z"/><path class="cls-1" d="M113.06,90.37h0l-.12.3Z"/><path class="cls-1" d="M114.85,94.82,96,144.2a3.6,3.6,0,0,1-4.32,2.19l-5.87,15.4A5.12,5.12,0,0,1,88.5,164l-2.75,14.18a51,51,0,0,0-9.36,8.45l-7.11,18.66,25.07,9.56h0l2.8-7.37h0c-.77-6.06-.26-14.55,2.44-26.14l.19-.52a1.82,1.82,0,0,1-.86-.54c-1.81-2.47.25-4,.25-4-9.69-10-8.08-23.2-2-22.8l.17,0a10.76,10.76,0,0,1,.35-1.2c.81-2.22,3.52-4.22,5.47-1.93l.39.1c.57-2.39,1.76-4.12,4-3.84,6.09.76,1.38,11.74,5,14.69a1.64,1.64,0,0,0,2.35-.29l18.79-48.59,3.24-9.23Z"/><path class="cls-1" d="M122.24,329.74l-.14-.17a1.94,1.94,0,0,0-1.91-1.68H120l-14.92,0a10,10,0,0,1,3,12.23h31.94C144.26,332,134.77,319.79,122.24,329.74Z"/><path class="cls-1" d="M101.32,330.45H99.74l-.79-.51A5.16,5.16,0,0,1,101.32,330.45Z"/><path class="cls-1" d="M86.64,235.05l-3.5,9.18c6.68,1.79,9.69,5.3,10.51,6.31a3.78,3.78,0,0,1,.76,3.44,2.73,2.73,0,0,1-2.23,1.86c13.33,16.33,13.17,37.16,10.34,52.59l.56.11,23.07-.67.12,0C134.3,264.82,98.56,241.53,86.64,235.05Z"/><path class="cls-1" d="M91.24,262.76c0,1.85-.49,3.08-2.12,4a3.36,3.36,0,0,1-3.17.17h-.09a3.73,3.73,0,0,1-2.23,2c-1.16.49-3.15.34-3.92-1l-.13,0a3.91,3.91,0,0,1-3,3.41c-1.47.42-2.47-.5-3.08-1.69v0c3.14,13,.77,27.9-2.44,39.66l24.86-1.36c4.84-20.7,1.26-35.94-4.75-46.76A10.5,10.5,0,0,1,91.24,262.76Z"/><path class="cls-1" d="M126.15,308.3l-23.07.66-.56-.1a109,109,0,0,1-4.7,17.28,9.48,9.48,0,0,1,7.26,1.71l14.92,0a87,87,0,0,0,6.27-19.57Z"/><path class="cls-1" d="M71.06,309.63a146.64,146.64,0,0,1-6.3,18.19l23.49.07a1.94,1.94,0,0,1,1,.27,118.5,118.5,0,0,0,6.7-19.89l-24.86,1.36Z"/><polygon class="cls-1" points="62.3 340.08 93.09 340.08 93.09 344.14 61.15 344.14 61.15 340.08 62.3 340.08"/><path class="cls-1" d="M107.5,330.45a9.66,9.66,0,0,0-2.42-2.6,9.48,9.48,0,0,0-7.26-1.71,16.29,16.29,0,0,0-7.52,3.6l-.14-.17h0a2,2,0,0,0-.94-1.41,1.94,1.94,0,0,0-1-.27l-23.49-.07h-.59s-2.65,6.27-1.87,12v.25h45.82A9.65,9.65,0,0,0,107.5,330.45Z"/><path class="cls-1" d="M75.65,238a13.34,13.34,0,0,1-4,2.75l-.15-.1A30,30,0,0,0,75.65,238Z"/><path class="cls-1" d="M73.5,269.52v0s0-.05,0-.07S73.5,269.5,73.5,269.52Z"/><path class="cls-1" d="M69.28,205.25l-1.94,5.09C67.13,225.55,75.65,238,75.65,238c1.94-1.47,5.38,2.52,2.79,5.25l.14.15.42,0a29.5,29.5,0,0,1,4.14.81l3.5-9.18,7.71-20.24Z"/><path class="cls-1" d="M73,268.33c-1.36-4.6-2-5.29-5.26-7.88v-.06c-2.18-1.74-7.29-4.08-8.13-7.89a6,6,0,0,1,1.43-5.11,2.33,2.33,0,0,1-.28-.26,3.19,3.19,0,0,1-.68-2.88,2.26,2.26,0,0,1,.81-1.24c-1.21-1-2.46-3.28-3.58-6.39l-15.14,39.7,25.08,9.56,6.23-16.34s0-.05,0-.07A7.29,7.29,0,0,1,73,268.33Z"/><path class="cls-1" d="M71.54,240.62l.15.1a17.83,17.83,0,0,1-2.77,1.07A19.75,19.75,0,0,0,71.54,240.62Z"/><path class="cls-1" d="M117.75,175h0a3.84,3.84,0,0,1,0,.48c-.27,3.46-5.62,5.22-10.56,5.72a19.33,19.33,0,0,1-7.39-.38l-.19.52c-2.7,11.59-3.21,20.08-2.44,26.14h0c1.43,11.25,7.24,14.07,11.49,12.72C120,216.53,124.52,204.91,117.75,175Z"/><path class="cls-1" d="M85.84,161.79c-3.09-1.09-6.83.78-6.83.78-29.9,15-27.73,57.24-21.68,74.05l10-26.28a36.58,36.58,0,0,1,9-23.75,51,51,0,0,1,9.36-8.45L88.5,164A5.12,5.12,0,0,0,85.84,161.79Z"/><path class="cls-1" d="M60.91,243a2.43,2.43,0,0,1,2-.47,8.55,8.55,0,0,0,2.3.1l.23,0a30,30,0,0,0,3.5-.8h0a19.75,19.75,0,0,0,2.62-1.17A30,30,0,0,0,75.65,238s-8.52-12.42-8.31-27.63l-10,26.28C58.45,239.73,59.7,242,60.91,243Z"/><path class="cls-1" d="M65.4,242.6a30,30,0,0,0,3.5-.8,14.42,14.42,0,0,1-3.51.82Z"/><path class="cls-1" d="M65.4,242.6v0l-.22,0Z"/><path class="cls-1" d="M62.87,242.54a8.55,8.55,0,0,0,2.3.1,25.81,25.81,0,0,1-4.26.37A2.43,2.43,0,0,1,62.87,242.54Z"/><rect class="cls-1" x="51.11" y="270.42" width="5.16" height="26.83" transform="translate(-230.66 232.94) rotate(-69.14)"/><polygon class="cls-1" points="65.22 291.13 51.95 301.33 51.82 301.17 43.23 297.87 40.19 281.59 65.22 291.13"/><path class="cls-1" d="M51.82,301.17l.13.16-5.16,4a1.48,1.48,0,0,1-2.35-.89l-1.22-6.53Z"/><path class="cls-2" d="M97.82,326.14a109,109,0,0,0,4.7-17.28c2.83-15.43,3-36.26-10.34-52.59"/><path class="cls-2" d="M86.64,235.48c11.92,6.47,47.65,29.76,39.63,72.84h0A87,87,0,0,1,120,327.89"/><path class="cls-2" d="M65.22,291.56,52,301.76l-5.16,4a1.48,1.48,0,0,1-2.35-.89l-1.22-6.54-3-16.27"/><polyline class="cls-2" points="43.18 298.28 43.23 298.29 51.82 301.59"/><polyline class="cls-2" points="94.35 215.24 86.64 235.48 83.14 244.65"/><line class="cls-2" x1="97.16" y1="207.87" x2="94.36" y2="215.23"/><line class="cls-2" x1="132.23" y1="115.69" x2="114.85" y2="161.46"/><line class="cls-3" x1="133.37" y1="112.86" x2="133.37" y2="112.86"/><line class="cls-2" x1="136.88" y1="103.64" x2="133.37" y2="112.86"/><line class="cls-2" x1="85.84" y1="162.22" x2="91.71" y2="146.81"/><polyline class="cls-2" points="67.34 210.76 69.28 205.68 76.39 187.01"/><polyline class="cls-2" points="73.5 269.96 67.27 286.3 42.2 276.75 57.33 237.04"/><path class="cls-2" d="M114.93,87.58a13.42,13.42,0,0,1,23.2,12.77"/><polyline class="cls-2" points="116.1 91.95 138.13 100.35 138.14 100.35 138.06 100.55 138.02 100.65 138.02 100.65 136.88 103.64 114.85 95.24"/><polygon class="cls-3" points="40.23 281.89 42.07 277.07 67.15 286.63 65.31 291.45 65.27 291.43 40.23 281.89"/><path class="cls-2" d="M91.71,146.81l-.32-.1-.85-.33a3.58,3.58,0,0,1-2.07-4.63l20.14-52.87a3.61,3.61,0,0,1,4.64-2.08l.85.33a3.17,3.17,0,0,1,.83.45,3.59,3.59,0,0,1,1.25,4.18l-.08.19-.11.31-1.14,3L96,144.63A3.6,3.6,0,0,1,91.71,146.81Z"/><polyline class="cls-2" points="69.28 205.68 94.35 215.24 94.36 215.23"/><path class="cls-2" d="M107.31,128.37s-3.89,7.82,4.46,9.69"/><line class="cls-2" x1="105.54" y1="127.63" x2="108.93" y2="128.93"/><path class="cls-2" d="M71.06,309.63C74.27,297.87,76.64,283,73.5,270a.14.14,0,0,1,0-.06"/><path class="cls-2" d="M64.76,327.82a145.31,145.31,0,0,0,6.29-18.19"/><path class="cls-2" d="M91.17,261.5c6,10.83,9.59,26.07,4.75,46.76a118.29,118.29,0,0,1-6.7,19.9"/><path class="cls-2" d="M74.24,256.88a13.31,13.31,0,0,1,3,3.37c1.58,2.49,2.72,5.59,2.38,8a3.91,3.91,0,0,1-3,3.42c-1.47.41-2.47-.51-3.08-1.7,0,0,0,0,0,0a7,7,0,0,1-.45-1.15c-1.36-4.6-2-5.28-5.26-7.87"/><path class="cls-2" d="M79.71,268.24c.76,1.37,2.76,1.52,3.92,1a3.76,3.76,0,0,0,2.23-1.95,5.12,5.12,0,0,0,.32-2.13c-.14-3.91-2.31-7.21-5.09-9.76"/><path class="cls-2" d="M86,267.33a3.33,3.33,0,0,0,3.17-.17c1.63-.9,2.07-2.13,2.13-4a12,12,0,0,0-.08-1.68,13.35,13.35,0,0,0-.84-3.36,17.24,17.24,0,0,0-.78-1.81,15.8,15.8,0,0,0-3.8-4.46"/><path class="cls-2" d="M61.06,247.82a6,6,0,0,0-1.43,5.1c.84,3.82,5.95,6.16,8.13,7.89"/><path class="cls-2" d="M75.64,238.4c2-1.47,5.39,2.52,2.8,5.24"/><path class="cls-2" d="M65.17,243.07l.22,0a14,14,0,0,0,3.51-.83"/><path class="cls-2" d="M75.92,245.44a19.36,19.36,0,0,1-11.44,3.3,8.73,8.73,0,0,1-2.43-.39,3.49,3.49,0,0,1-1-.53,1.79,1.79,0,0,1-.28-.27,3.17,3.17,0,0,1-.68-2.87,2.29,2.29,0,0,1,.81-1.25"/><path class="cls-2" d="M78.58,243.8l.42,0a29.55,29.55,0,0,1,4.14.8c6.68,1.8,9.69,5.31,10.51,6.31a3.79,3.79,0,0,1,.76,3.45,2.75,2.75,0,0,1-2.23,1.86,8.35,8.35,0,0,1-2.63.06h0"/><path class="cls-2" d="M85.75,178.56A51.41,51.41,0,0,0,76.39,187a36.58,36.58,0,0,0-9,23.75c-.21,15.21,8.3,27.63,8.3,27.63a13.23,13.23,0,0,1-4,2.75,17.83,17.83,0,0,1-2.77,1.07h0a30.2,30.2,0,0,1-3.5.81l-.23,0a25,25,0,0,1-4.26.36c-1.21-1-2.46-3.27-3.58-6.39-6-16.8-8.22-59,21.68-74,0,0,3.74-1.86,6.83-.77a5.07,5.07,0,0,1,2.66,2.17"/><path class="cls-3" d="M112.5,161.75c-3.59-2.95,1.12-13.94-5-14.7-2.25-.28-3.44,1.45-4,3.84a28.21,28.21,0,0,0,.28,11.26"/><path class="cls-3" d="M112.5,161.75a1.65,1.65,0,0,0,2.35-.29c2-2.1,2.94-8.47,5.87-8.42,6.21.1.84,13.26-5.2,20.67"/><path class="cls-3" d="M103.13,150.8h0c-1.95-2.29-4.66-.29-5.47,1.93-.13.36-.24.76-.35,1.2-.64,2.68-.76,6.56,0,8.74"/><path class="cls-3" d="M97.14,153.88c-6-.4-7.65,12.75,2,22.8,0,0-2.06,1.52-.25,4a1.82,1.82,0,0,0,.86.54,19.54,19.54,0,0,0,7.39.38c4.94-.51,10.29-2.27,10.56-5.73a3.68,3.68,0,0,0,0-.47c-.09-1.41-1.24-1.67-2.22-1.64a5.54,5.54,0,0,0-1.36.22s-2,.63-4.55,1.23a46.67,46.67,0,0,1-5.34.93"/><path class="cls-2" d="M114.5,180s-4.14,19.72-2.38,27"/><path class="cls-2" d="M117.75,175.39c6.77,30,2.24,41.56-9.1,45.19-4.25,1.36-10.06-1.46-11.49-12.71h0c-.77-6.05-.26-14.54,2.44-26.14"/><path class="cls-3" d="M120.71,331.05c.51-.47,1-.91,1.53-1.31,12.53-9.95,22,2.29,17.82,10.34"/><polyline class="cls-3" points="109.29 344.14 141.23 344.14 141.23 340.08 140.06 340.08 109.29 340.08"/><path class="cls-3" d="M122.1,329.57a1.94,1.94,0,0,0-1.91-1.68H120l-14.92,0"/><path class="cls-3" d="M88.77,331.05c.51-.48,1-.91,1.53-1.31a16.29,16.29,0,0,1,7.52-3.6,9.48,9.48,0,0,1,7.26,1.71,10,10,0,0,1,3,12.23"/><polyline class="cls-3" points="108.29 340.08 108.12 340.08 62.3 340.08 61.15 340.08 61.15 344.14 109.13 344.14"/><line class="cls-3" x1="109.29" y1="344.14" x2="109.29" y2="340.08"/><path class="cls-3" d="M90.16,329.57h0a2,2,0,0,0-.94-1.41,1.94,1.94,0,0,0-1-.27l-23.49-.07h-.59s-2.65,6.27-1.87,12"/><path class="cls-2" d="M136.49,332.75a5.33,5.33,0,0,0-4.9-3.1"/><line class="cls-2" x1="136.49" y1="332.75" x2="136.5" y2="332.75"/><path class="cls-2" d="M103.85,333.05a5.68,5.68,0,0,0-2.53-2.6,5,5,0,0,0-2.37-.51"/><line class="cls-2" x1="103.85" y1="333.05" x2="103.85" y2="333.05"/><polyline class="cls-2" points="71.05 309.63 71.06 309.63 95.92 308.26"/><line class="cls-2" x1="103.08" y1="308.97" x2="126.14" y2="308.3"/><path class="cls-3" d="M125.34,106.76s7.94.49,8,6.1h0c.08,0,4.42-2.84,7.22.41"/><g id="_Group_" data-name="&lt;Group&gt;"><path class="cls-1" d="M341.52,87.17c10.33,4.4,14.71,15.15,12.08,25.58l-38.13.5c-1.69-6.51-1.67-13,1.72-18.74a18.62,18.62,0,0,1,15.95-9A20.83,20.83,0,0,1,341.52,87.17Z"/><path class="cls-1" d="M168.44,110l-.15-.08c-1,1.94-3.4,4.07-5.53,2.3-1.69-1.4-1.16-5-.95-6.7.29-2.43,1.08-5.28,3.1-6.92,1.55-1.27,4.14-1.92,5.8-.67l.42.18A9.8,9.8,0,0,1,173,95c2-2.15,8.33-4.92,12.29-.68A32,32,0,0,0,185,83.77c-.6-2.89-1-7.84,2.52-9,5-1.71,7.43,5,7.93,8.7.54,3.87,1.53,23.43-.55,32.4v.58c1.34,0,2.38.38,2.79,1.17.89,1.72-.09,2.79-1.54,3.5l0,.06s2.12,27,28.44,27.87c4.79,7.85,9.95,16.9,12.93,26.81-59.68,4.85-63.93-48.93-63.93-48.93-1.47,0-2.58-.27-3-.91-1.89-3,.73-4.29,3.47-4.75l0-.09C168.09,121.2,165.76,115,168.44,110Z"/><path class="cls-1" d="M174.59,126.76c2,.33,4-.36,5.93-.83,2.11-.52,4.24-.93,6.32-1.56s4.25-1.5,6.37-2.26c1.22-.45,2.44-.9,3.64-1.41a2.17,2.17,0,0,0,.85-3.11c-.41-.79-1.45-1.14-2.79-1.17v-.58c2.08-9,1.09-28.53.55-32.4-.5-3.68-2.89-10.41-7.93-8.7-3.52,1.19-3.12,6.14-2.52,9a32,32,0,0,1,.24,10.58c-4-4.24-10.28-1.47-12.29.68a9.8,9.8,0,0,0-1.84,3l-.42-.18c-1.66-1.25-4.25-.6-5.8.67-2,1.64-2.81,4.49-3.1,6.92-.21,1.69-.74,5.3.95,6.7,2.13,1.77,4.52-.36,5.53-2.3l.15.08c-2.68,5-.35,11.24,5.65,11.19l0,.09c-2.74.46-5.36,1.72-3.47,4.75.38.61,1.4.87,2.75.91A1.94,1.94,0,0,1,174.59,126.76Z"/><path class="cls-1" d="M315.47,113.25c2.67,10.28,9.6,20.64,14.23,28.32,11.9,19.7,34.54,50,8.36,83.64-16.7,21.47-14.42,49.19-4.92,58.47l-16.93,0-23.27,0-44,.1-23.28.05-7.95,0c-11.8-18-6.46-37.39,10.24-59,13.64-17.63,14-34.35,9.59-49.13-3-9.91-8.14-19-12.93-26.81-1.76-2.9-3.48-5.64-5-8.2-7.57-12.61-21.26-32.41-12.51-47.33A17.91,17.91,0,0,1,213.7,87a11.09,11.09,0,0,1,5.5-1.43H333.14a18.62,18.62,0,0,0-15.95,9C313.8,100.26,313.78,106.74,315.47,113.25Z"/><path class="cls-1" d="M228.45,323.83a267.77,267.77,0,0,1-2.78-39.89v0l23.28-.05v.32a250.73,250.73,0,0,0,1.53,30.34l.1.4c.58-.15,1.14-.31,1.64-.49l0,.08c.25,5.94.58,9.3.58,9.3a1.57,1.57,0,0,0-.76.2c-4.25,2.21-17.85,4.47-21.47,2l-.13.12c-.61-.68-1.32-1.45-2.12-2.26Z"/><path class="cls-1" d="M317.86,314.93c.58-.15,1.14-.31,1.64-.49l0,.08c.25,5.94.58,9.3.58,9.3a1.57,1.57,0,0,0-.76.2c-4.25,2.21-17.85,4.47-21.47,2l-.13.12c-.61-.68-1.32-1.45-2.12-2.26l.1-.09a270.61,270.61,0,0,1-2.79-40.06l23.27,0v.22a256.93,256.93,0,0,0,1.55,30.59Z"/><path class="cls-1" d="M230.47,326.18l.13-.12c3.62,2.43,17.22.17,21.47-2a1.57,1.57,0,0,1,.76-.2c3.38.07,2.61,14.58,2.61,14.58v.65H196.55s-9.61-11.44,1.31-22.4c10.25-10.3,23.52.16,30.49,7.27C229.15,324.73,229.86,325.5,230.47,326.18Z"/><path class="cls-1" d="M297.75,326.18l.13-.12c3.62,2.43,17.22.17,21.47-2a1.57,1.57,0,0,1,.76-.2c3.39.06,2.61,14.58,2.61,14.58v.65H263.83s-9.61-11.44,1.31-22.4c10.26-10.3,23.52.16,30.49,7.27C296.43,324.73,297.14,325.5,297.75,326.18Z"/><polygon class="cls-1" points="324.03 339.05 324.03 343.89 261.87 343.89 261.87 339.05 263.83 339.05 322.72 339.05 324.03 339.05"/><polygon class="cls-1" points="256.75 339.05 256.75 343.89 194.59 343.89 194.59 339.05 196.55 339.05 255.44 339.05 256.75 339.05"/><path class="cls-4" d="M315.47,113.25h0l38.13-.5c2.63-10.43-1.75-21.18-12.08-25.58a20.83,20.83,0,0,0-8.38-1.64,18.62,18.62,0,0,0-15.95,9c-3.39,5.75-3.41,12.23-1.72,18.74,2.67,10.28,9.6,20.64,14.23,28.32,11.9,19.7,34.54,50,8.36,83.64-16.7,21.47-14.42,49.19-4.92,58.47l-16.93,0-23.27,0-44,.1-23.28.05-7.95,0c-11.8-18-6.46-37.39,10.24-59,13.64-17.63,14-34.35,9.59-49.13-3-9.91-8.14-19-12.93-26.81-1.76-2.9-3.48-5.64-5-8.2-7.57-12.61-21.26-32.41-12.51-47.33A17.91,17.91,0,0,1,213.7,87a11.09,11.09,0,0,1,5.5-1.43H333.14"/><path class="cls-3" d="M194.92,115.84c2.08-9,1.09-28.53.55-32.4-.5-3.68-2.89-10.41-7.93-8.7-3.52,1.19-3.12,6.14-2.52,9a32,32,0,0,1,.24,10.58c-.18,1.5-.43,3-.7,4.58"/><path class="cls-3" d="M178.77,103.46a4.69,4.69,0,0,0-.41-2.46"/><path class="cls-3" d="M185.26,94.36h0c-4-4.24-10.28-1.47-12.29.68a9.8,9.8,0,0,0-1.84,3,27,27,0,0,0-1.61,7.31c-.25,2.58,0,6.67,3.39,6.65,1.65,0,3-1.08,4.07-2.88"/><path class="cls-3" d="M170.71,97.89c-1.66-1.25-4.25-.6-5.8.67-2,1.64-2.81,4.49-3.1,6.92-.21,1.69-.74,5.3.95,6.7,2.13,1.77,4.52-.36,5.53-2.3a5.1,5.1,0,0,0,.29-.64"/><path class="cls-3" d="M193.32,106.13c-3.45-2.3-8.56-3.91-13-3-3.25.68-4.8,2.66-3.52,5.2,1.41,2.8,5.47,3.37,9.64,3.44"/><path class="cls-3" d="M168.59,109.68l-.15.28c-2.68,5-.35,11.24,5.65,11.19"/><path class="cls-3" d="M176.42,121a17.53,17.53,0,0,0-2.31.21c-2.74.46-5.36,1.72-3.47,4.75.4.64,1.51.9,3,.91,4.22,0,11.4-1.94,13.33-2.69"/><path class="cls-3" d="M192.49,116.65a11.15,11.15,0,0,1,2.42-.23c1.34,0,2.38.38,2.79,1.17.89,1.72-.09,2.79-1.54,3.5a21.11,21.11,0,0,1-4.26,1.29"/><path class="cls-3" d="M196.18,121.15s2.12,27,28.44,27.87"/><path class="cls-3" d="M173.62,126.9s4.25,53.78,63.93,48.93"/><path class="cls-3" d="M267,118.7c11.89,1.17,19.31-5.09,19.58-11.57"/><path class="cls-3" d="M281.81,106.63a23.86,23.86,0,0,1,8.84,1.54"/><path class="cls-3" d="M236.91,134c18.91,1.81,46.61,1,68.22-2.4"/><path class="cls-3" d="M239.75,143.89c18.9,1.82,46.61,1,68.21-2.39"/><path class="cls-3" d="M243.56,154.05c12.35,1.19,29.58,1,45.29,0"/><path class="cls-3" d="M245.3,164.32c12.08,1.16,38.53,1.16,63.6-1.76"/><path class="cls-3" d="M247.46,175.83c8.5.82,24.13,1.06,41.39.11"/><path class="cls-3" d="M250.46,187.35c8.5.81,25.72,1,43,0"/><path class="cls-3" d="M250.59,200.36c8.5.82,24.13,1.06,41.39.11"/><path class="cls-3" d="M248.56,212.26c8.5.79,47,1.84,74.5-.22"/><path class="cls-3" d="M243.55,224c8.51.79,50.1,2.44,77.6.38"/><path class="cls-3" d="M238.54,237c8.5.79,47.81,1.85,76.38.28"/><path class="cls-3" d="M230.61,249.32c9.08.92,40.58.41,81.67,1.13"/><path class="cls-3" d="M225.67,262.48c9.48.83,42.3,0,85.13.28"/><path class="cls-3" d="M241.39,316.48a69.72,69.72,0,0,0,9.19-1.55c.58-.15,1.14-.31,1.64-.49h0"/><path class="cls-3" d="M228.45,323.83a267.77,267.77,0,0,1-2.78-39.89"/><path class="cls-3" d="M250.48,314.53A250.73,250.73,0,0,1,249,284.19"/><path class="cls-3" d="M252.83,323.82s-.33-3.36-.58-9.3"/><path class="cls-3" d="M308.68,316.48a69.69,69.69,0,0,0,9.18-1.55c.58-.15,1.14-.31,1.64-.49h0"/><polygon class="cls-3" points="255.44 339.05 256.75 339.05 256.75 343.89 194.59 343.89 194.59 339.05 196.55 339.05 255.44 339.05"/><path class="cls-3" d="M196.55,339.05s-9.61-11.44,1.31-22.4c10.25-10.3,23.52.16,30.49,7.27.8.81,1.51,1.58,2.12,2.26,1.67,1.86,2.64,3.14,2.64,3.14"/><path class="cls-3" d="M255.44,338.4s.77-14.51-2.61-14.58a1.57,1.57,0,0,0-.76.2c-4.25,2.21-17.85,4.47-21.47,2"/><polygon class="cls-3" points="322.72 339.05 324.03 339.05 324.03 343.89 261.87 343.89 261.87 339.05 263.83 339.05 322.72 339.05"/><path class="cls-3" d="M263.83,339.05s-9.61-11.44,1.31-22.4c10.26-10.3,23.52.16,30.49,7.27.8.81,1.51,1.58,2.12,2.26,1.67,1.86,2.64,3.14,2.64,3.14"/><path class="cls-3" d="M322.72,338.4s.78-14.52-2.61-14.58a1.57,1.57,0,0,0-.76.2c-4.25,2.21-17.85,4.47-21.47,2"/><path class="cls-3" d="M280.16,316.75a10.38,10.38,0,0,0-9.67.43"/><path class="cls-3" d="M212.88,317.45a10.38,10.38,0,0,0-9.67.43"/><path class="cls-3" d="M295.73,323.83a270.61,270.61,0,0,1-2.79-40.06"/><path class="cls-3" d="M317.76,314.53a256.93,256.93,0,0,1-1.55-30.59"/><path class="cls-3" d="M320.11,323.82s-.33-3.36-.58-9.3"/></g><ellipse class="cls-5" cx="132.75" cy="125.39" rx="10.71" ry="7.66" transform="translate(-23.92 219.2) rotate(-74.28)"/><ellipse class="cls-5" cx="123.18" cy="122.4" rx="10.71" ry="7.66" transform="translate(-28.02 207.82) rotate(-74.28)"/><ellipse cx="123.74" cy="126.61" rx="3.45" ry="2.06" transform="translate(-42.73 186.84) rotate(-65.55)"/><ellipse class="cls-1" cx="123.6" cy="123.8" rx="1.48" ry="0.83" transform="translate(-40.26 185.07) rotate(-65.55)"/><ellipse cx="133.28" cy="130.51" rx="3.45" ry="2.06" transform="translate(-40.69 197.81) rotate(-65.55)"/><ellipse class="cls-1" cx="133.14" cy="127.7" rx="1.48" ry="0.83" transform="translate(-38.22 196.04) rotate(-65.55)"/><path class="cls-1" d="M325.6,138.28c69.57-13.86,71.24,74.74,9.82,66.06l7.94-20.23s15.19,1.58,13.61-11.49c-1.13-9.31-15.42-9.56-23.05-7.18Z"/><path class="cls-3" d="M336.7,204c60.53,10.87,59.75-79.93-9.83-66.06"/><path class="cls-3" d="M335.19,165.07c7.64-2.38,20.49-1.6,21.62,7.7,1.58,13.07-12.18,11-12.18,11"/><path class="cls-1" d="M313.13,198c.78,1.19,5.3,2.66,2.25,5.82-.59.61-6.88,3.78-9.91-6.58-.49-1.71-1.53-5.43,1.57-6.83l.65-.26c-2.55-1.66-4.3-7.41.31-9.08a12.49,12.49,0,0,1,1.28-.39c-2.84-.4-6.18-1.12-7.77-3.74a4,4,0,0,1,2-5.93c2.09-.9,6.65-1.67,15.94,2.24l.07-.17c3.91-3.57,11.21-6.29,14.72,5l-.07.15a18,18,0,0,1,6.43,5.51l.27,0a4.32,4.32,0,0,1,.25-1.06c.51-1.09,2.4-1.83,3.45-.94,3.2,2.69-.37,16.17-6.74,22.2-1.68,1.59-4.4,1.08-4.39-2.56-1,2-4.35,1.89-6.2,1.89A23.69,23.69,0,0,1,313.13,198Z"/><path class="cls-3" d="M324.7,175.71c-1.9-1-3.65-1.79-5.26-2.46-9.29-3.91-13.85-3.14-15.94-2.24a4,4,0,0,0-2,5.93c1.59,2.62,4.93,3.34,7.77,3.74"/><path class="cls-3" d="M321.67,182.38c-3-1.42-7.81-2.84-12.39-1.7a12.49,12.49,0,0,0-1.28.39c-4.61,1.67-2.86,7.42-.31,9.08h0"/><path class="cls-3" d="M318.33,191.23a14.58,14.58,0,0,0-10.64-1.08l-.65.26c-3.1,1.4-2.06,5.12-1.57,6.83,3,10.36,9.32,7.19,9.91,6.58,3.05-3.16-1.47-4.63-2.25-5.82"/><path class="cls-3" d="M334.23,178.07c-3.51-11.28-10.81-8.56-14.72-5"/><path class="cls-3" d="M330.9,177.17a14,14,0,0,1,3.26,1.05,18,18,0,0,1,6.43,5.51"/><path class="cls-3" d="M336.45,196.12a28.19,28.19,0,0,0,4.41-12.35,4.32,4.32,0,0,1,.25-1.06c.51-1.09,2.4-1.83,3.45-.94,3.2,2.69-.37,16.17-6.74,22.2-1.68,1.59-4.4,1.08-4.39-2.56-1,2-4.35,1.89-6.2,1.89a23.69,23.69,0,0,1-14.1-5.3h0c-.13-.1-.25-.21-.37-.32"/><ellipse class="cls-6" cx="254.25" cy="81.06" rx="12.22" ry="14.39" transform="translate(-2.2 7.24) rotate(-1.63)"/><ellipse class="cls-6" cx="271.41" cy="80.57" rx="12.22" ry="14.39" transform="translate(-2.18 7.73) rotate(-1.63)"/><ellipse cx="265.28" cy="83.2" rx="2.77" ry="4.65"/><ellipse class="cls-1" cx="267.02" cy="79.84" rx="1.12" ry="2"/><ellipse cx="248.6" cy="83.2" rx="2.77" ry="4.65"/><ellipse class="cls-1" cx="250.34" cy="79.84" rx="1.12" ry="2"/><path class="cls-3" d="M252.87,61.55S259.92,60,263,64.81"/><path class="cls-3" d="M270.06,61.54s7.05-1.57,10.12,3.26"/><polygon points="226.42 290.96 248.8 293 248.43 283.87 225.7 283.94 226.42 290.96"/><polygon points="293.9 290.96 316.28 293 315.9 283.87 293.18 283.94 293.9 290.96"/><path d="M337.82,113c-2,0-22.35.3-22.35.3s-6.34-19,6.32-22.26C335,87.54,337.82,113,337.82,113Z"/></svg>