<svg id="Layer_1" data-name="Layer 1" xmlns="http://www.w3.org/2000/svg" viewBox="0 0 400 400"><defs><style>.cls-1{fill:#fff;}.cls-2,.cls-3{fill:none;stroke:#000;stroke-linecap:round;stroke-miterlimit:10;}.cls-2{stroke-width:1.88px;}.cls-3{stroke-width:2.08px;}</style></defs><title>Desk_Dudes4</title><path d="M222.56,334.49h-3.09c-51.75,0-92.27,6.67-92.27,10.52l186.72-.1a1.22,1.22,0,0,0,1.16-.53C321,334.6,240.49,334.54,222.56,334.49Z"/><path class="cls-1" d="M141,344.13h56.33c.12-1.66.26-3.43.39-5.3H140.06A16.91,16.91,0,0,0,141,344.13Z"/><path class="cls-1" d="M291.93,306.55l-58.79,32.28c1.17,2.63,2,4.13,2.37,4,16.94-5.64,57.67-30.58,57.67-30.58A33.41,33.41,0,0,0,291.93,306.55Z"/><path class="cls-1" d="M163.13,323.8c-20.08,0-23.22,9-23.07,15h57.69c.51-6.89,1.1-15.09,1.68-23.29l-34-3.75C164.12,319,163.15,323.71,163.13,323.8Z"/><path class="cls-1" d="M259.69,302.32l-3.29-5.67-33,16.53c3.73,10.49,7.39,20.36,9.73,25.65l58.79-32.28C286.37,289.43,268.68,297.08,259.69,302.32Z"/><line class="cls-2" x1="139.26" y1="338.83" x2="197.73" y2="338.83"/><path class="cls-1" d="M272.73,185.73s47.59,2.67,41.73,33.49c-1.76,9.22-6,14.87-12,18.95,0-.53-.12-1.09-.21-1.69-.93-5.92-4.37-16.75-12.56-20.66l-.59-.1.24-.18c1.33-1,2-2,1.88-3L290,203.8c-.42-2.89-7.8-4.25-16.69-3.13,0-.79,0-1.59,0-2.4a94.85,94.85,0,0,0-.83-12.5Z"/><path class="cls-1" d="M289.82,243.93h0c.08-6.29-6.15-20.9-14.5-23.8,5.7-.92,10.53-2.59,13.19-4.41l.61.1c8.54,3.91,12.12,14.74,13.09,20.66.09.6.18,1.16.22,1.69.13,1.73-.2,3.07-2.1,3.85l-11.54,4.65C289.47,246.31,289.8,245.32,289.82,243.93Z"/><path class="cls-1" d="M291.19,212.49c.15,1-.55,2-1.88,3l-.24.18c-2.56,1.82-7.19,3.49-12.67,4.41l-1.2.18-1.41.19c-1.11.13-2.18.22-3.23.27-7.12.36-12.56-1-12.92-3.47l-.49-3.44-.75-5.24c.24,1.68,2.82,2.84,6.69,3.3a41.53,41.53,0,0,0,9.23-.08l1.63-.21c9.26-1.33,16.43-4.83,16-7.83Z"/><path class="cls-1" d="M290,203.8c.43,3-6.74,6.5-16,7.83l-1.63.21a41.53,41.53,0,0,1-9.23.08c-3.87-.46-6.45-1.62-6.69-3.3-.28-2,2.7-4.15,7.41-5.79l.21-.08a47,47,0,0,1,8.38-2l.86-.12C282.15,199.55,289.53,200.91,290,203.8Z"/><path class="cls-1" d="M209.84,273.73c-32.12-1.87-57.7-34.94-57.7-75.46s25.44-73.39,57.43-75.44l1.51-.07c.55,0,1.09,0,1.64,0,17.44,0,33.16,9.2,44.21,23.91a83.66,83.66,0,0,1,15.54,39.13,94.85,94.85,0,0,1,.83,12.5c0,.81,0,1.61,0,2.4l-.86.12a47,47,0,0,0-8.38,2l-.21.08-.13-.52c.07-1.33.1-2.68.1-4a75.3,75.3,0,0,0-3.33-22.33,2.83,2.83,0,0,0,.11-.31,30.06,30.06,0,0,0-.46-21.1l-9.35,1.72-.2,0v0c-8.78-11.72-21.19-19-35-19-26.61,0-48.18,27.34-48.18,61.05s21.57,61,48.18,61a40.1,40.1,0,0,0,22-6.74l.07-.28.23.23c1.52,1.41,3.8,2,7.18,0l.1,0c.09.24.2.47.31.7,1.59,3.21,4.54,3.05,6.68,2.37A61.28,61.28,0,0,1,239,266.37a50.72,50.72,0,0,1-26.26,7.44C211.75,273.81,210.8,273.79,209.84,273.73Z"/><path class="cls-1" d="M232,187.49h5.55a6.07,6.07,0,0,1,5.11,3,.41.41,0,0,1,.05.09l.15-.09c7.85-.36,14.55-6.22,17.62-14.54a75.3,75.3,0,0,1,3.33,22.33c0,1.36,0,2.71-.1,4l.13.52c-4.71,1.64-7.69,3.82-7.41,5.79l.75,5.24a43.46,43.46,0,0,0-10.87,5.73c-13.37,10.17-11.3,26-11.3,26s.47,4.31,2.73,6.66l-.07.28a40.1,40.1,0,0,1-22,6.74c-26.61,0-48.18-27.33-48.18-61S189,137.22,215.6,137.22c13.76,0,26.17,7.31,35,19v0l-25.27,4.64,0,0-.16,0L187.32,154a29.58,29.58,0,0,0-2.15,11.16c0,13.7,9,24.81,20.18,24.81,8,0,14.88-5.7,18.15-14A23.25,23.25,0,0,0,232,187.32Z"/><path class="cls-1" d="M260.45,175.94c-3.07,8.32-9.77,14.18-17.62,14.54l-.15.09a.41.41,0,0,0-.05-.09,6.07,6.07,0,0,0-5.11-3H232v-.17A23.25,23.25,0,0,1,223.5,176a29.46,29.46,0,0,0,2-10.85,30.28,30.28,0,0,0-.29-4.19l0,0,25.27-4.64.2,0,9.35-1.72a30.06,30.06,0,0,1,.46,21.1A2.83,2.83,0,0,1,260.45,175.94Z"/><path class="cls-1" d="M256.35,108.89a2.27,2.27,0,0,0,1.47-1.13c1-2.09-2.52-5.76-7.79-8.21s-10.33-2.74-11.3-.65a2.31,2.31,0,0,0,.11,1.91V101a25.87,25.87,0,0,0-24.4,14.69l-3.35,7v0c.55,0,1.09,0,1.64,0,17.44,0,33.16,9.2,44.21,23.91l2.73-5.71,1.41-3A25.44,25.44,0,0,0,256.35,108.89Z"/><path class="cls-1" d="M209.91,273.91a1.87,1.87,0,0,1-.07-.18c1,.06,1.91.08,2.88.08A50.72,50.72,0,0,0,239,266.37l.09.48,17.33,29.8-33,16.53C217.13,295.54,210.66,276.16,209.91,273.91Z"/><path class="cls-1" d="M225.24,161a30.28,30.28,0,0,1,.29,4.19,29.46,29.46,0,0,1-2,10.85c-3.27,8.26-10.17,14-18.15,14-11.15,0-20.18-11.11-20.18-24.81A29.58,29.58,0,0,1,187.32,154l37.76,6.94Z"/><path class="cls-1" d="M110.7,182.76c3-18.09,11.29-33.8,22.69-44.59l.28-.14,2.93,6.13,0,.08c1.57,3.29,13.29,1,26.16-5.17,11.87-5.67,20.59-12.61,20.66-16.24h26.11c-32,2-57.43,35-57.43,75.44s25.58,73.59,57.7,75.46a1.87,1.87,0,0,0,.07.18H170a50.47,50.47,0,0,1-24.61-6.49l-.24-.13a51.61,51.61,0,0,0,5.56-14.93c1.45-6.78-.27-12.87-3.49-18.13l-.41,0c4.78-6-2-7.42-3.48-5.65-6,7.13-21.93,13.27-28.88,15.16l-.12,0,0-.12C70.51,222,86.49,192.42,110.7,182.76Z"/><path class="cls-1" d="M183.28,122l0-.08-5.72-12a25.85,25.85,0,0,0-26.85-14.48l0,0c-1.52-1.51-6.12-1.15-10.93,1-5.32,2.34-8.88,5.94-8,8a2.32,2.32,0,0,0,1.5,1.18v.27a25.83,25.83,0,0,0-2.35,26.24l2.79,5.86,2.93,6.13,0,.08c1.57,3.29,13.29,1,26.16-5.17,11.87-5.67,20.59-12.61,20.66-16.24A1.85,1.85,0,0,0,183.28,122Z"/><path class="cls-1" d="M276.4,220.13l-1.2.18-1.41.19c-1.11.13-2.18.22-3.23.27-7.12.36-12.56-1-12.92-3.47l-.49-3.44a43.46,43.46,0,0,0-10.87,5.73c-13.37,10.17-11.3,26-11.3,26s.47,4.31,2.73,6.66l.23.23c1.52,1.41,3.8,2,7.18,0l.1,0c.09.24.2.47.31.7,1.59,3.21,4.53,3.05,6.68,2.37a11.83,11.83,0,0,0,2.6-1.17l.24-.06a4.38,4.38,0,0,0,3.89,2.84c5.54.48,7.42-6.79,8-10.62h0s2.3.19,5.89.09l.43,0h.22l.48,0,.95,0,.23,0h.1l.7-.05c.86-.06,1.77-.14,2.72-.24l.31,0,.74-.09.55-.07,1.11-.16.46-.07.56-.08.34-.06.34-.06.51-.09.39-.07.35-.07.85-.17.36-.07.22-.05.49-.11.54-.12.9-.22.53-.14c.67-.18,1.34-.37,2-.57h0C290.41,237.64,284.43,223,276.4,220.13Z"/><path class="cls-1" d="M146.79,234.2c4.78-6-2-7.42-3.48-5.65-6,7.13-21.93,13.27-28.88,15.16l-.12,0c-1.83.76-1.32,6.84,5.12,4.49l.41-.14v0c-.24.1-8,3.38-9,11.95-.92,7.52,6,8,6,8h.4c0,.28,0,.56,0,.85,0,5.52,6.37,6.08,8.29,5.32l.41-.09a3.73,3.73,0,0,0,1,1.91,8.25,8.25,0,0,0,1,.84,6.48,6.48,0,0,0,1.66.88l.32.11.16,0,.17,0,.16,0,.27.06c4.54.78,10.23-3.2,14.63-10.83a51.61,51.61,0,0,0,5.56-14.93c1.45-6.78-.27-12.87-3.49-18.13Z"/><path class="cls-2" d="M238.85,101h0a25.87,25.87,0,0,0-24.4,14.69l-3.35,7"/><path class="cls-2" d="M256.93,146.64l2.73-5.71,1.41-3a25.44,25.44,0,0,0-4.72-29.09"/><path class="cls-2" d="M243.9,126.05s12.19,7.44,15.76,14.88"/><path class="cls-2" d="M133.39,138.17C122,149,113.74,164.67,110.7,182.76"/><line class="cls-2" x1="209.57" y1="122.83" x2="183.46" y2="122.83"/><path class="cls-2" d="M252.21,255.55A61.28,61.28,0,0,1,239,266.37a50.72,50.72,0,0,1-26.26,7.44c-1,0-1.92,0-2.88-.08-32.12-1.87-57.7-34.94-57.7-75.46s25.44-73.39,57.43-75.44l1.51-.07c.55,0,1.09,0,1.64,0,17.44,0,33.16,9.2,44.21,23.91a83.66,83.66,0,0,1,15.54,39.13,94.85,94.85,0,0,1,.83,12.5c0,.81,0,1.61,0,2.4"/><path class="cls-2" d="M260.36,175.63l.09.31a75.3,75.3,0,0,1,3.33,22.33c0,1.36,0,2.71-.1,4"/><path class="cls-2" d="M237.64,252.58a40.1,40.1,0,0,1-22,6.74c-26.61,0-48.18-27.33-48.18-61S189,137.22,215.6,137.22c13.76,0,26.17,7.31,35,19"/><path class="cls-3" d="M225.28,160.93l25.27-4.64.2,0,9.35-1.72a30.06,30.06,0,0,1,.46,21.1,2.83,2.83,0,0,1-.11.31c-3.07,8.32-9.77,14.18-17.62,14.54"/><path class="cls-3" d="M232,187.32A23.25,23.25,0,0,1,223.5,176"/><path class="cls-2" d="M185.91,206.93s18.27-4.09,25.52,10.68"/><line class="cls-2" x1="185.07" y1="202.51" x2="186.6" y2="210.65"/><path class="cls-3" d="M225.24,161l-.16,0L187.32,154a29.58,29.58,0,0,0-2.15,11.16c0,13.7,9,24.81,20.18,24.81,8,0,14.88-5.7,18.15-14a29.46,29.46,0,0,0,2-10.85A30.28,30.28,0,0,0,225.24,161Z"/><path class="cls-2" d="M220.9,187.49h16.62a6.07,6.07,0,0,1,5.11,3,.41.41,0,0,1,.05.09,7.62,7.62,0,0,1,1.09,4c0,3.9-2.8,7.06-6.25,7.06H215.58"/><path class="cls-2" d="M137.08,181.23c-8.52-2.72-18-1.81-26.38,1.53-24.21,9.66-40.19,39.2,3.56,60.87"/><path class="cls-2" d="M142.89,228.52a52.43,52.43,0,0,0-8.38-7.55,77.09,77.09,0,0,0-13.13-7.92"/><path class="cls-2" d="M136.29,261.26c-9.41,5.45-11,10.21-10.44,12.94a3.73,3.73,0,0,0,1,1.91,8.25,8.25,0,0,0,1,.84,6.48,6.48,0,0,0,1.66.88l.32.11.16,0,.17,0,.16,0,.27.06c4.54.78,10.23-3.2,14.63-10.83a51.61,51.61,0,0,0,5.56-14.93c1.45-6.78-.27-12.87-3.49-18.13"/><path class="cls-2" d="M125.44,274.29c-1.92.76-8.32.2-8.29-5.32,0-.29,0-.57,0-.85.7-8.62,11.28-13.49,11.28-13.49"/><path class="cls-2" d="M116.78,268.12s-6.88-.52-6-8c1.06-8.57,8.79-11.85,9-11.95h0"/><path class="cls-2" d="M125.67,214.49a16.81,16.81,0,0,1,11.41-1.44"/><path class="cls-2" d="M272.73,185.73s47.59,2.67,41.73,33.49c-1.76,9.22-6,14.87-12,18.95"/><path class="cls-2" d="M245.22,252.48l-.1,0c-3.38,2-5.66,1.43-7.18,0l-.23-.23c-2.26-2.35-2.73-6.66-2.73-6.66s-2.07-15.88,11.3-26a43.46,43.46,0,0,1,10.87-5.73"/><path class="cls-2" d="M276,246.48l-.7.05"/><path class="cls-2" d="M290.41,243.91l-.09,0h0"/><path class="cls-2" d="M267,246.55s2.3.19,5.89.09l.43,0h.22l.48,0,.95,0,.23,0h.1l.7-.05c.86-.06,1.77-.14,2.72-.24l.31,0,.74-.09.55-.07,1.11-.16.46-.07.56-.08.34-.06.34-.06.51-.09.39-.07.35-.07.85-.17.36-.07.22-.05.49-.11.54-.12.9-.22.53-.14c.67-.18,1.34-.37,2-.57h0"/><path class="cls-2" d="M249.58,229.4c-4.22,8.17-6.54,17.53-4.36,23.08.09.24.2.47.31.7,1.59,3.21,4.54,3.05,6.68,2.37a11.83,11.83,0,0,0,2.6-1.17"/><path class="cls-2" d="M258.43,233s-5.25,12.87-3.82,19.82a7.5,7.5,0,0,0,.44,1.48,4.38,4.38,0,0,0,3.89,2.84c5.54.48,7.42-6.79,8-10.62h0c.21-1.35.27-2.28.27-2.28"/><path class="cls-2" d="M290,203.8c.43,3-6.74,6.5-16,7.83l-1.63.21a41.53,41.53,0,0,1-9.23.08c-3.87-.46-6.45-1.62-6.69-3.3-.28-2,2.7-4.15,7.41-5.79l.21-.08a47,47,0,0,1,8.38-2l.86-.12C282.15,199.55,289.53,200.91,290,203.8Z"/><path class="cls-2" d="M290,203.8l1.24,8.69c.15,1-.55,2-1.88,3l-.24.18c-2.56,1.82-7.19,3.49-12.67,4.41l-1.2.18-1.41.19c-1.11.13-2.18.22-3.23.27-7.12.36-12.56-1-12.92-3.47l-.49-3.44-.75-5.24"/><polyline class="cls-2" points="285.6 204.43 274.25 205.29 272.99 205.91 268.06 208.34"/><path class="cls-2" d="M150.66,95.43a25.85,25.85,0,0,1,26.86,14.48l5.72,12"/><path class="cls-2" d="M136.6,144.16,133.67,138l-2.79-5.86a25.83,25.83,0,0,1,2.35-26.24"/><path class="cls-2" d="M183.28,122a1.85,1.85,0,0,1,.18.85c-.07,3.63-8.79,10.57-20.66,16.24-12.87,6.15-24.59,8.46-26.16,5.17"/><path class="cls-3" d="M179.48,114.61s-4,9.94-21.15,15.77"/><path class="cls-1" d="M202.33,273.91v.41s-1.42,20.62-2.9,41.22L165,311.79c1.91-10,4.54-24.65,6.27-37.88Z"/><path class="cls-2" d="M145.37,267.42A50.47,50.47,0,0,0,170,273.91h40.64"/><path class="cls-2" d="M202.33,274.32s-1.42,20.62-2.9,41.22c-.75,10.43-1.5,20.85-2.1,28.59H140.24s-8.15-20.38,22.4-20.33A98.56,98.56,0,0,1,176.7,325"/><path class="cls-2" d="M162.64,323.8h0c0-.09,1-4.84,2.37-12,1.91-10,4.54-24.65,6.27-37.88"/><polyline class="cls-2" points="165.01 311.79 199.43 315.54 199.43 315.54"/><polyline class="cls-2" points="213.29 150.2 226.12 153.99 236.26 149.19"/><path class="cls-2" d="M285.83,245.1c.82,2.15,2.51,2.12,3.51,1.57.65-.36,1-1.35,1-2.74h0c.09-6.29-5.89-20.9-13.92-23.8"/><path class="cls-2" d="M289.34,246.67,300.42,242c1.82-.78,2.14-2.12,2-3.85,0-.53-.12-1.09-.21-1.69-.93-5.92-4.37-16.75-12.56-20.66"/><path class="cls-2" d="M150.63,95.47A1.83,1.83,0,0,1,151,96c.92,2.11-2.64,5.71-8,8-3.61,1.59-7.11,2.18-9.27,1.74a4.26,4.26,0,0,1-.54-.14,2.32,2.32,0,0,1-1.5-1.18c-.92-2.11,2.64-5.71,8-8C144.51,94.32,149.11,94,150.63,95.47Z"/><path class="cls-2" d="M256.35,108.89c-2.09.67-5.9,0-9.83-1.78s-6.64-4.14-7.6-6.12a1.42,1.42,0,0,1-.08-.18,2.31,2.31,0,0,1-.11-1.91c1-2.09,6-1.8,11.3.65s8.76,6.12,7.79,8.21A2.27,2.27,0,0,1,256.35,108.89Z"/><path class="cls-2" d="M126.19,245.78a42.08,42.08,0,0,1-6.35,2.32l-.41.14c-6.44,2.35-7-3.73-5.12-4.49l.12,0c6.95-1.89,22.91-8,28.88-15.16,1.48-1.77,8.26-.34,3.48,5.65-.08.1-.17.2-.25.31a25.83,25.83,0,0,1-5.73,4.79"/><path d="M241.42,270.74l-27.57,14.71-3.23-11.69s19.2.35,28.42-7.06Z"/><polygon points="171.43 274.47 169.27 288.06 201.51 286.49 202.66 274.32 171.43 274.47"/><ellipse cx="245.49" cy="176.14" rx="5.76" ry="10.61"/><ellipse cx="209.82" cy="175.06" rx="5.76" ry="10.61"/><ellipse class="cls-1" cx="240.7" cy="173.62" rx="3.12" ry="3.26"/><ellipse class="cls-1" cx="205.03" cy="172.53" rx="3.12" ry="3.26"/><path class="cls-2" d="M209.83,273.7a0,0,0,0,1,0,0,1.2,1.2,0,0,0,.07.18c.75,2.25,7.22,21.63,13.5,39.27,3.73,10.49,7.39,20.36,9.73,25.65,1.17,2.63,2,4.13,2.37,4,16.94-5.64,57.67-30.58,57.67-30.58a33.41,33.41,0,0,0-1.25-5.7c-5.56-17.12-23.25-9.47-32.24-4.23a61,61,0,0,0-5.33,3.47"/><polyline class="cls-2" points="259.69 302.32 259.69 302.32 256.4 296.65 239.07 266.85"/><polyline class="cls-2" points="256.4 296.65 223.41 313.18 223.41 313.18"/><polyline class="cls-2" points="291.93 306.55 291.93 306.55 233.15 338.83"/></svg>