<svg id="Layer_1" data-name="Layer 1" xmlns="http://www.w3.org/2000/svg" viewBox="0 0 400 400"><defs><style>.cls-1,.cls-5{fill:#fff;}.cls-2{fill:red;}.cls-3,.cls-4,.cls-6{fill:none;}.cls-3,.cls-4,.cls-5,.cls-6{stroke:#000;stroke-linecap:round;}.cls-3,.cls-6{stroke-linejoin:round;}.cls-3,.cls-4,.cls-5{stroke-width:1.88px;}.cls-4,.cls-5{stroke-miterlimit:10;}.cls-6{stroke-width:2.08px;}</style></defs><title>Desk_Dudes9</title><path d="M241.55,336.19l4.49-3.5s-58.71,1.64-57.47,7.23c1,4.62,28.55,5.17,38.21,5.22,0,0,29.39.51,31.5-2C261.29,339.46,251.12,337.35,241.55,336.19Z"/><polygon class="cls-1" points="321.94 174 320.94 186.79 329.48 192.55 336.91 179.52 321.94 174"/><path class="cls-1" d="M344,177.81s3.21,4,7.48,9.34l8.38,10.41c3.22,4,6.34,7.83,8.69,10.68l7.35-13.36L348.62,161l-3.29,5.57L336,182.3l-4.64,7.87-4.09,6.91-8.51,4.06-4.67,2.22-9.54,4.55-9.34,4.45-12.79,6.1h-.08a9.68,9.68,0,0,1-3.49-2h0l-.24.31-2.76,3.64,25.62,32.06,10.75-4-.11-.12,13.35-5,15.62-5.82,13.55-5,.06,0L361.05,221l7-12.77c-2.35-2.85-5.46-6.69-8.68-10.68-2.87-3.55-5.82-7.21-8.38-10.41-4.28-5.32-7.49-9.34-7.49-9.34l0,0,.12-.2Z"/><path class="cls-1" d="M294.57,211.89h0l.23.47L282,218.46h-.08a9.6,9.6,0,0,1-3.49-2c-2.12-1.8-3.85-4.68-2.26-8.22,2.34-5.19,7-2.86,8.22-2.28-1.24-1-2.68-3.56-.11-5.54,2.1-1.62,3.22-.27,3.95,0-.67-2.45-.86-4.58,1.07-6a6.38,6.38,0,0,1,3.36-1l.23-.17,2.27,3a11,11,0,0,0-.61,15.6Z"/><path class="cls-1" d="M297.28,188.18a2.92,2.92,0,0,1,1.52,5.62,2.48,2.48,0,0,1-.55.15,2.93,2.93,0,1,1-1-5.77Z"/><path class="cls-1" d="M306.24,191.22a2.93,2.93,0,1,1,.18-1.61A3,3,0,0,1,306.24,191.22Z"/><path class="cls-1" d="M313.61,203.2a11,11,0,0,0-12.16-9.77,10.86,10.86,0,0,0-2.56.6,10.74,10.74,0,0,0-3.71,2.26,11,11,0,0,0-.61,15.6h0l.23.47,9.34-4.45,9.55-4.55Z"/><path class="cls-1" d="M310.4,189.5l.31,0a1.09,1.09,0,0,1,0,.26,3.84,3.84,0,0,0,.74,3.85l6.83,7.3h0l.1.21-4.66,2.22-.08-.16a11,11,0,0,0-7.92-9.41,5.39,5.39,0,0,1,.73-2.45A4,4,0,0,1,310.4,189.5Z"/><path class="cls-1" d="M330.83,190.1l-8.11-7.61h0c-.93-.93-1.65-.92-3.06-.49-1,.32-2.84-1.53-3-1.65l-.17-.21c-1.09-1.18-3.62-.62-5.65,1.26s-2.79,4.36-1.7,5.54h0c.4.42,1.55,1.69,1.55,2.59a1.09,1.09,0,0,1,0,.26,3.84,3.84,0,0,0,.74,3.85l6.83,7.3h0l.1.21,8.51-4.06,4.09-6.91Z"/><path class="cls-1" d="M244,283.86s-6.92,18.59-29.38,16.38h0c-2.12-4.48-4.27-8.63-6.4-12.45l29.48-18.51c2.2,4.45,4.37,9.3,6.44,14.54Z"/><path class="cls-1" d="M294.67,311l-64.58,33.1c-.38-1.56-.77-3.1-1.18-4.61l.39-.13,63.81-33.81h0A46.69,46.69,0,0,1,294.67,311Z"/><path class="cls-1" d="M293.12,305.53h0L229.3,339.34l-.39.13c-1.85-7-3.91-13.47-6.11-19.56,23.75,5.81,28.33-15,28.33-15S282.61,276.17,293.12,305.53Z"/><path class="cls-1" d="M251.13,304.92s-4.58,20.8-28.33,15c-2.59-7.14-5.36-13.7-8.19-19.67,22.46,2.21,29.38-16.38,29.38-16.38l.14-.05A202.4,202.4,0,0,1,251.13,304.92Z"/><path class="cls-1" d="M344.72,166.44a12.8,12.8,0,0,0-1.1-2.94,12.93,12.93,0,0,0-24.22,8.07c.05.33.12.65.2,1a12.92,12.92,0,0,0,15.62,9.5l.38.25,9.31-15.74Z"/><path class="cls-1" d="M322.64,136.75l-26.18.41h0a2.93,2.93,0,0,1-.51,0h-.39a37,37,0,0,1-2.09,10.24c-3,8.29-9.36,15.63-20.23,18.09a38.43,38.43,0,0,1-10,.83L266.14,187a51.89,51.89,0,0,1,.51,6.44h0a52.2,52.2,0,0,0,23.52-3.7c11.71-4.93,19.44-14,24.5-23.28a85.8,85.8,0,0,0,9.39-29.73Z"/><path class="cls-1" d="M171.52,344.78l-39.69.4-32.55-21.7q2-1.74,3.85-3.5l30.33,19.78,39.44-1.23A21.31,21.31,0,0,1,171.52,344.78Z"/><path class="cls-1" d="M330,111.35c-.29-4.54-.62-10.22-4.76-12.93a6.07,6.07,0,0,0-5.54-.65c-1,.36-2.75,1.75-2.94,3A7.45,7.45,0,0,0,313.23,98a7,7,0,0,0-8,3.14l-.15.13a5.86,5.86,0,0,0-8.42-.92c-3.87,3.08-4,7.67-2.5,12.41l.1.15a10.19,10.19,0,0,0-4.08,5.12c-1.24,3.66.19,9.56,3.67,11.48l0,.06c-2.31.7-2,7.42,2,7.64h.54l26.18-.41v0c3.27-.05,4.34-1.5,3.92-4.51-.2-1.46-1.66-2.88-2.64-2.72h0l0-.15c2.85-1.41,2.39-9.24,1.4-9.76h0C330.61,119.58,330.28,115.11,330,111.35Z"/><path class="cls-1" d="M266.65,193.43h0a51.89,51.89,0,0,0-.51-6.44l-2.93-20.66-5.45-38.53c1.13,9-37.74,22-87,29s-90.31,5.31-91.59-3.73l2,15c-1.68-1-3.53-1.93-5.5-2.82-10.28-4.63-23.88-7.08-34.17,4.41-11.68,13-.69,34.4,12.89,48.72a63.39,63.39,0,0,1,6.4-16.85h0c-3.11-4.81-5.07-10.2-3.76-15.43,2.25-9,12.68-7.68,20.69-5.16,1.68.53,3.26,1.11,4.63,1.66h0l.61-.22.08.58h0L86,203.37l.76,5.36,0,0,.7,6.7a22.62,22.62,0,0,1-6.7,2.91h0a43.23,43.23,0,0,0-2.6,9.57A5.77,5.77,0,0,1,82.11,232a4.73,4.73,0,0,1,.07.8,28,28,0,0,0,10.39-4.21,54.71,54.71,0,0,0,3.23,5.59s25.88,4.34,60.5,2.29c.22-.81.32-1.24.32-1.24l2.4,1.06c33.08-2.26,73.54-10.47,107-33.64A52.4,52.4,0,0,0,266.65,193.43ZM232.3,179c-1.57,0-2.84-1.91-2.84-4.27s1.27-4.26,2.84-4.26,2.84,1.91,2.84,4.26S233.87,179,232.3,179Z"/><path class="cls-1" d="M295.92,137.17h.51A2.93,2.93,0,0,1,295.92,137.17Z"/><path d="M182.84,267.5l-.37,0c.17-.35.33-.69.49-1Z"/><path class="cls-2" d="M186.47,258.58c-.21.52-.44,1.07-.68,1.63A6.84,6.84,0,0,1,186.47,258.58Z"/><path class="cls-2" d="M187.11,257.56c-.24.34-.45.68-.64,1l.49-1.19Z"/><path d="M235.14,174.75c0,2.36-1.27,4.27-2.84,4.27s-2.84-1.91-2.84-4.27,1.27-4.26,2.84-4.26S235.14,172.4,235.14,174.75Z"/><path class="cls-1" d="M257.76,127.8c1.13,9-37.74,22-87,29s-90.31,5.31-91.59-3.73,37.65-22.05,87-29,90.31-5.31,91.59,3.73Z"/><path class="cls-1" d="M266,202.63C232.56,225.8,192.1,234,159,236.27l-2.72.18c-34.62,2.05-60.5-2.29-60.5-2.29,9.38,14.29,25.53,25,45.11,30.34a72.46,72.46,0,0,1-7.45,14.81l2.6.95L168.34,292l3.82,1.38s8.71-11.59,10.68-25.85l-.37,0c.17-.35.33-.69.49-1l-.12,1c1.16-.13,2.34-.28,3.51-.45,1.56-.22,3.1-.47,4.62-.74,9.2,8,14.12,23.42,14.12,23.42l3.12-2,29.48-18.51h0l2.27-1.43a65.36,65.36,0,0,0-8.24-17.38C250.4,238.33,263,221.17,266,202.63Z"/><path d="M156.62,235.21l2.4,1.06-2.72.18C156.52,235.64,156.62,235.21,156.62,235.21Z"/><path class="cls-1" d="M80,235.41c1.23-.49,2.19-1.19,2.21-2.63a4.73,4.73,0,0,0-.07-.8,5.77,5.77,0,0,0-3.92-4.09l-.27-.09a3,3,0,0,0-.47-.08,52.85,52.85,0,0,0-10.82,1.08h0c-5.07.89-10.67,2.29-14.25,4.07h0l-.23.12c-1.85.95-3.12,2-3.42,3.16-1.45,5.62,4.16,4.84,4.37,4.81-7,1.7-4.36,10.72-3.38,11.54-3.73-1.3-4.36,3.1-3.5,5.63a10.46,10.46,0,0,0,7,6.21c2.55.73,6,.77,8.2-.87.14-.1.28-.22.43-.34,3,3.29,6.42,2.84,9.21.94l.48.06h0c2.45,2.8,6.12,1.93,8.63.74a11.46,11.46,0,0,0,6.54-8.63C88,249.49,84.75,240.2,80,235.41Z"/><path class="cls-1" d="M88.56,180.7A45,45,0,0,0,83,182.27h0l.08.57-.68-.28h0c-9.92,3.74-16.86,10.64-21.56,18.93h0a63.39,63.39,0,0,0-6.4,16.85h0a86.19,86.19,0,0,0-2.07,14.53h0c3.58-1.78,9.18-3.18,14.25-4.07h0a52.85,52.85,0,0,1,10.82-1.08,3,3,0,0,1,.47.08l.27.09a43.23,43.23,0,0,1,2.6-9.57h0A28.93,28.93,0,0,1,87,208.73l0-.17c5.86-5.8,15.25-9.33,30.25-6.66V181.57C105.9,179.09,96.44,179,88.56,180.7Z"/><path class="cls-1" d="M83.2,182.27l.1.65-.89-.36Z"/><path class="cls-1" d="M136.07,280.26,168.34,292c-3.2,4.7-6.83,9.56-10.91,14.47-18.12,2.95-28-16-28-16l-.17-.12C131.75,286.87,134,283.52,136.07,280.26Z"/><path class="cls-1" d="M115.08,308.11s9.38,16.7,27.47,14.21l-1.16,1.09c5.94-2.62,19-7,26.54.88a18.21,18.21,0,0,1,5,14.23l-39.44,1.24L103.13,320c4.25-4,8.19-8,11.83-12Z"/><path class="cls-1" d="M129.47,290.4s9.84,19,28,16a182.52,182.52,0,0,1-14.88,15.88c-18.09,2.49-27.47-14.21-27.47-14.21L115,308a202,202,0,0,0,14.34-17.71Z"/><path class="cls-3" d="M136.07,279.55c-2.07,3.26-4.32,6.61-6.77,10A203.59,203.59,0,0,1,115,307.29c-3.64,4-7.58,8-11.83,12q-1.89,1.75-3.85,3.5l32.55,21.7,39.69-.4a21.31,21.31,0,0,0,1.38-6.25,18.22,18.22,0,0,0-5-14.24c-7.52-7.88-20.6-3.49-26.54-.88-1.92.85-3.1,1.51-3.1,1.51"/><path class="cls-3" d="M141.39,322.7l1.16-1.09a182.52,182.52,0,0,0,14.88-15.88c4.08-4.91,7.71-9.77,10.91-14.47"/><path class="cls-3" d="M115.08,307.4s9.38,16.7,27.47,14.21l.41-.05"/><path class="cls-3" d="M129.47,289.69s9.84,19,28,16l.12,0"/><path class="cls-3" d="M214.61,299.53c-2.12-4.49-4.27-8.64-6.4-12.46"/><path class="cls-3" d="M237.69,268.56c2.2,4.45,4.37,9.3,6.44,14.54a200.12,200.12,0,0,1,7,21.11s31.48-28.75,42,.61a44.93,44.93,0,0,1,1.56,5.46l-64.58,33.09c-.38-1.56-.78-3.1-1.18-4.61v0c-1.85-6.94-3.91-13.46-6.12-19.54-2.58-7.14-5.35-13.7-8.18-19.67"/><path class="cls-3" d="M222.79,319.2c23.76,5.81,28.33-15,28.33-15"/><path class="cls-3" d="M214.61,299.53h0c22.46,2.21,29.38-16.38,29.38-16.38"/><path class="cls-3" d="M182.84,266.79c-2,14.26-10.68,25.86-10.68,25.86l-3.82-1.39-32.27-11.71-2.61-.95a72.46,72.46,0,0,0,7.45-14.81"/><path class="cls-3" d="M237.69,268.56l-29.48,18.51L205.09,289s-4.92-15.4-14.12-23.42"/><path class="cls-3" d="M231.72,249.75A65.36,65.36,0,0,1,240,267.13l-2.27,1.43"/><path class="cls-4" d="M296.46,136.45l26.18-.41,1.42,0a85.78,85.78,0,0,1-9.39,29.72h0c-5.07,9.26-12.79,18.34-24.5,23.27a52.06,52.06,0,0,1-23.52,3.7"/><path class="cls-4" d="M263.21,165.62a38.43,38.43,0,0,0,10-.83c10.87-2.45,17.22-9.8,20.23-18.09v0a36.83,36.83,0,0,0,2.09-10.21h.9"/><path class="cls-4" d="M293.88,128.76c-3.48-1.91-4.91-7.82-3.67-11.48a10.18,10.18,0,0,1,4.08-5.11,13.26,13.26,0,0,1,6.22-2.2c4.64-.37,8.07,1.42,8.21,6.28h0v.3c0,3.49-7.64,6.12-12.42,4.31"/><path class="cls-4" d="M294.19,112c-1.52-4.74-1.36-9.34,2.5-12.41a5.85,5.85,0,0,1,8.42.91,9.5,9.5,0,0,1,2.13,5.65"/><path class="cls-4" d="M305.26,100.39a7.05,7.05,0,0,1,8-3.14,7.51,7.51,0,0,1,3.56,2.79,9.47,9.47,0,0,1,1.65,3.82"/><path class="cls-4" d="M325.3,118.87c-3.46,0-5-2.58-5.95-5.87"/><path class="cls-4" d="M316.79,100c.19-1.23,1.93-2.62,2.94-3a6.07,6.07,0,0,1,5.54.65c4.14,2.71,4.47,8.39,4.76,12.93.25,3.76.58,8.23-4.72,8.23h0"/><path class="cls-4" d="M318.68,110.13c.16.69.45,1.71.67,2.85v0c.64,3.36.65,7.79-5,8.32-2.95.27-4.94-2.63-5.64-5.06"/><path class="cls-4" d="M325.3,118.87h0c1,.53,1.45,8.35-1.4,9.77"/><path class="cls-4" d="M323.9,128.79h0c1-.16,2.44,1.27,2.64,2.72.43,3-.65,4.46-3.92,4.51h-.22"/><path class="cls-4" d="M296.46,136.45h0a2.93,2.93,0,0,1-.51,0c-4-.22-4.33-6.94-2-7.64a1.17,1.17,0,0,1,.46-.06,168.43,168.43,0,0,0,18.44.26"/><path class="cls-3" d="M300.65,189.87a2.93,2.93,0,1,1,5.77-1,3,3,0,0,1-.18,1.61c0,.05-.05.11-.08.16a2.9,2.9,0,0,1-2.14,1.6A2.93,2.93,0,0,1,300.65,189.87Z"/><path class="cls-3" d="M293.18,146.59c-4.91-4.26-23.55,6.54-20,18.2a11,11,0,0,0,1,2.24c1.63,2.9,9,12.75,16,22,.92,1.22,1.84,2.42,2.74,3.59h0c.77,1,1.53,2,2.27,3,4.52,5.89,8.18,10.6,9,11.62"/><path class="cls-3" d="M314.91,165.88c1.43,1.6,2,2.3,4.33,5"/><polyline class="cls-3" points="348.19 160.29 375.45 194.18 368.09 207.53 361.06 220.31 354.71 231.82 354.65 231.84 341.1 236.89 325.48 242.71 311.82 247.8 301.06 251.81 275.45 219.75 278.21 216.11"/><polyline class="cls-3" points="282.01 217.75 294.8 211.66 304.14 207.21 313.69 202.65 313.69 202.65 318.35 200.43 326.86 196.38 330.95 189.46 335.6 181.6 335.61 181.58 344.91 165.85 344.91 165.84 348.19 160.29 343.63 162.79"/><path class="cls-3" d="M328.71,201h0l8.19,9.8c2.63,3.13,5.61,6.69,8.53,10.15,3.38,4,6.67,7.91,9.21,10.9l0,0"/><path class="cls-3" d="M335.67,190.25l7.77,9.27L352,209.67c3.28,3.9,6.46,7.67,8.89,10.52"/><path class="cls-3" d="M343.54,177.1s3.21,4,7.49,9.34c2.56,3.2,5.51,6.87,8.38,10.41,3.22,4,6.33,7.83,8.68,10.68"/><path class="cls-3" d="M314.84,207.21h0l8.25,9.37,9,10.23c3.3,3.72,6.48,7.31,9,10.08l0,0"/><polyline class="cls-3" points="300.63 214.17 308.08 222.66 317.08 232.91 325.33 242.31"/><path class="cls-3" d="M288.28,219.66s2.79,3.54,6.68,8.32c2.55,3.15,5.59,6.84,8.6,10.41s5.81,6.77,8.26,9.41"/><path class="cls-3" d="M335.22,181.35a12.93,12.93,0,0,1-15.62-9.51c-.08-.32-.15-.65-.2-1a12.93,12.93,0,0,1,24.22-8.06,12.56,12.56,0,0,1,1.1,2.93"/><path class="cls-3" d="M309.16,186.22c-1.09-1.18-.33-3.66,1.7-5.54s4.56-2.44,5.65-1.25a1.46,1.46,0,0,1,.16.19"/><path class="cls-3" d="M316.68,179.63c.84,1.25.06,3.56-1.86,5.34s-4.56,2.44-5.66,1.25"/><path class="cls-3" d="M322.65,181.71l.05.06c1.67,1.9.45,5.8-2.75,8.75a12.28,12.28,0,0,1-3.36,2.25"/><path class="cls-3" d="M316.67,179.62h0c.12.13,1.93,2,3,1.66,1.41-.44,2.13-.44,3.06.48h0l8.11,7.61"/><path class="cls-3" d="M309,186.09l.13.13h0a5.34,5.34,0,0,1,1.55,2.55v0a1.09,1.09,0,0,1,0,.26,3.84,3.84,0,0,0,.74,3.85l6.83,7.3h0"/><path class="cls-3" d="M281.94,217.76a9.6,9.6,0,0,1-3.49-2c-2.12-1.8-3.85-4.68-2.26-8.22,2.34-5.18,7-2.86,8.22-2.28-1.24-1-2.68-3.56-.11-5.54,2.1-1.62,3.22-.26,3.95.05-.67-2.46-.86-4.59,1.07-6a6.28,6.28,0,0,1,3.36-1"/><path class="cls-3" d="M294.57,211.18a11,11,0,0,1,.61-15.6,10.74,10.74,0,0,1,3.71-2.26h0a10.83,10.83,0,0,1,2.57-.6,11,11,0,0,1,12.15,9.77"/><path class="cls-3" d="M305.69,193.08a5.52,5.52,0,0,1,.65-2.31l.08-.14a4,4,0,0,1,4-1.84"/><path class="cls-3" d="M300.65,189.87a2.92,2.92,0,0,1-1.85,3.22,2.48,2.48,0,0,1-.55.15,2.93,2.93,0,1,1,2.4-3.37Z"/><polyline class="cls-3" points="355.96 177.95 351.03 186.44 343.44 199.52 336.91 210.79 336.76 211.04 323.09 216.58 308.08 222.66 294.96 227.98 289.42 230.22"/><polyline class="cls-3" points="364.26 188.48 359.41 196.85 351.98 209.67 345.44 220.94 345.07 221.57 332.13 226.81 317.08 232.91 303.56 238.39 297.73 240.75"/><polyline class="cls-3" points="349.31 166.61 343.21 176.88 343.2 176.9 335.39 190.07 335.38 190.08 328.97 200.88 328.72 200.99 314.83 207.19 300.4 213.64 288.05 219.16 281.5 222.09"/><path class="cls-3" d="M327.16,167.58a2.63,2.63,0,1,1-3-2.16A2.63,2.63,0,0,1,327.16,167.58Z"/><path class="cls-3" d="M327.75,160.48s2.91-4.94,8.54-3.88"/><path class="cls-4" d="M257.75,127.09c1.14,9-37.73,22-86.95,29s-90.31,5.31-91.59-3.73,37.65-22.05,87-29,90.31-5.31,91.59,3.74"/><line class="cls-4" x1="81.23" y1="167.32" x2="79.21" y2="152.34"/><path class="cls-4" d="M87.94,214.42c-.18-.94-.35-1.88-.48-2.83L87,208"/><path class="cls-4" d="M257.75,127.05v0l5.46,38.53,2.93,20.66a51.89,51.89,0,0,1,.51,6.44h0a52.4,52.4,0,0,1-.66,9.2c-2.95,18.54-15.59,35.7-34.27,47.83-1.12.72-2.25,1.42-3.4,2.11A111.86,111.86,0,0,1,193.86,265c-1,.2-1.92.38-2.89.56-1.52.27-3.06.53-4.62.75-1.17.16-2.35.31-3.51.44l-.37,0a113.24,113.24,0,0,1-37.91-2.12c-1.23-.28-2.45-.59-3.65-.92-19.58-5.32-35.73-16.05-45.11-30.34a56.63,56.63,0,0,1-3.23-5.59"/><path class="cls-4" d="M54.45,217.63C40.87,203.31,29.88,182,41.56,168.91c10.29-11.49,23.9-9,34.17-4.41,2,.89,3.82,1.86,5.5,2.82a67.61,67.61,0,0,1,9.41,6.49"/><path class="cls-4" d="M100.1,220.75a21.2,21.2,0,0,1-1.72,2.14c-.41.45-.89.94-1.43,1.47a30.72,30.72,0,0,1-4.38,3.5,28,28,0,0,1-10.39,4.21"/><path class="cls-4" d="M80.79,217.6a23.43,23.43,0,0,0,7.15-3.18l.94-.6a62.57,62.57,0,0,0,6.21-4.58"/><path class="cls-4" d="M82.41,181.85c-1.37-.55-3-1.13-4.63-1.66-8-2.52-18.44-3.84-20.69,5.16-1.31,5.23.65,10.62,3.76,15.43"/><path class="cls-4" d="M236.25,179.72a4.84,4.84,0,0,1-3.95,2.53,4.34,4.34,0,0,1-3.12-1.47"/><path class="cls-4" d="M227.89,169.21c1-2,2.6-3.37,4.41-3.37a5,5,0,0,1,4.15,2.87"/><path class="cls-4" d="M83.2,181.56A44.2,44.2,0,0,1,88.75,180c7.89-1.7,17.35-1.62,28.63.86"/><path class="cls-4" d="M60.85,200.78c4.7-8.28,11.64-15.19,21.56-18.93h0l.79-.29"/><path class="cls-4" d="M52.38,232.16a86.19,86.19,0,0,1,2.07-14.53h0a63.52,63.52,0,0,1,6.4-16.85"/><path class="cls-4" d="M117.38,201.19c-15.15-2.7-24.58.93-30.42,6.83a28.93,28.93,0,0,0-6.17,9.58h0a43.16,43.16,0,0,0-2.6,9.58"/><path class="cls-4" d="M80,234.71c4.78,4.78,8,14.07,6.76,20.82a11.46,11.46,0,0,1-6.54,8.63c-2.51,1.19-6.18,2.06-8.64-.74"/><path class="cls-4" d="M76.51,255.33a13.34,13.34,0,0,1-5,7.74l-.41.29c-2.79,1.9-6.21,2.35-9.21-.94"/><path class="cls-3" d="M65.66,255.75c-.21,2.14-2.07,5.16-3.8,6.67-.15.13-.29.24-.43.34-2.24,1.64-5.66,1.61-8.2.87a10.46,10.46,0,0,1-7-6.21c-.86-2.53-.23-6.93,3.5-5.63-1-.82-3.61-9.83,3.37-11.54"/><path class="cls-4" d="M66.63,228.09A53.62,53.62,0,0,1,77.46,227a2.07,2.07,0,0,1,.46.09l.27.09a5.76,5.76,0,0,1,3.92,4.08,3.88,3.88,0,0,1,.07.8c0,1.45-1,2.14-2.21,2.64-.76.31-1.62.54-2.42.83l-.42.15"/><path class="cls-4" d="M52.38,232.17c3.58-1.79,9.18-3.19,14.25-4.08"/><path class="cls-4" d="M53.11,240.25h0c-.36.05-5.79.73-4.36-4.81.3-1.15,1.57-2.21,3.42-3.16l.23-.12"/><path class="cls-3" d="M95.8,233.45s25.88,4.34,60.5,2.29l2.72-.18c33.08-2.26,73.54-10.46,107-33.64"/><line class="cls-4" x1="229.3" y1="338.63" x2="293.11" y2="304.82"/><polyline class="cls-4" points="172.9 337.82 133.46 339.05 103.13 319.27"/><path d="M112.65,332.55s-58.71,1.64-57.46,7.23,76.64,6,76.64,6Z"/><path d="M319.53,173.3l-19.58,15s4-1.9,5.07-.74a6.82,6.82,0,0,1,1.49,2.57l3.23-.91s-1.65-2.91-1.4-4a4.63,4.63,0,0,1,1.38-3c1-.75,1.89-2.56,4.29-2.83s2.74,1.33,2.74,1.33l2.5,1.24,4.42.92s-1.08-2.88-.62-3.68Z"/><path d="M81.05,149c-3.3,3.91-4.74,5.64-10.36,5.54-2.71-.05-5.83-.76-7.82-2.73-1.79-1.79-2.19-3.12-1-5.48s3.82-2.86,5.71-4.06a1.68,1.68,0,0,0-.47-3c-3.62-1-5.85-4.24-4.71-7,3-7.12,8.89-6.56,14.6-5.37,14.41,3,22.38,16.45,36.07,21,14.11,4.69,32.57,2,45.33-5.18,5.18-2.92,9.91-5.85,15.62-7.85,5.47-1.92,12.22-1.43,17.93-.81,9.71,1,18,5.1,27.79,2.68a83.28,83.28,0,0,0,12.57-4.23c3.46-1.5,6.15-4.22,9.56-5.74,4.9-2.18,15.4-2.35,12.52,5.88,0,0-12.33,15.93-104,26.63,0,0-48,5.42-69.08-3.3,0,0-2.09-1.89-2.07-2.89S81.05,149,81.05,149Z"/><path d="M52.25,135.77c-2.25-2.42-9.26-.84-12-.2-4,.93-11.37,3.79-12.2,8.8-.44,2.7,1.84,4,4.22,4.41,3.52.56,6.37-.64,8.93-3,3.54-3.28,6.78-8.77,11.69-10"/><ellipse class="cls-5" cx="202.12" cy="143.25" rx="14.38" ry="18.82" transform="translate(-28.28 52.2) rotate(-13.76)"/><g id="_Group_" data-name="&lt;Group&gt;"><path class="cls-1" d="M194.2,156.33s16.76-1.94,15.27,5.52c-1.77,8.9-16.1,5.26-16.1,5.26Z"/><path class="cls-6" d="M194.2,156.33s16.76-1.94,15.27,5.52c-1.77,8.9-16.1,5.26-16.1,5.26"/><path class="cls-1" d="M276.55,110.24a.31.31,0,0,0,0-.62.31.31,0,0,0,0,.62Z"/><path class="cls-1" d="M276.35,110.24a.31.31,0,0,0,0-.62.31.31,0,0,0,0,.62Z"/></g><ellipse class="cls-5" cx="179.32" cy="148.83" rx="15.03" ry="18.82" transform="translate(-30.26 46.94) rotate(-13.76)"/><ellipse cx="201.77" cy="138.17" rx="3.62" ry="5.47" transform="translate(-27.08 51.97) rotate(-13.76)"/><ellipse class="cls-1" cx="203.78" cy="135.3" rx="1.5" ry="2.31" transform="translate(-26.34 52.37) rotate(-13.76)"/><ellipse cx="182.46" cy="142.9" rx="3.62" ry="5.47" transform="translate(-28.76 47.51) rotate(-13.76)"/><ellipse class="cls-1" cx="184.48" cy="140.03" rx="1.5" ry="2.31" transform="translate(-28.02 47.91) rotate(-13.76)"/><path class="cls-3" d="M216.77,304.92s4.43,1.29,11.72-1.7"/><path class="cls-3" d="M127,293.35a14.75,14.75,0,0,0,6.42,9.87"/><path d="M182.14,269.13s-2.77,11.72-3.8,13.12c-.69.95-38.34-14.38-38.34-14.38l1-3s32.23,6.1,41.19,3.36Z"/><path d="M191.7,266.17s6,5.76,7.5,10.56l35.49-21.39-3.47-4.56S203.58,265.47,191.7,266.17Z"/></svg>