<svg id="Layer_1" data-name="Layer 1" xmlns="http://www.w3.org/2000/svg" viewBox="0 0 400 400"><defs><style>.cls-1,.cls-7,.cls-8{fill:#fff;}.cls-2{fill:red;}.cls-3,.cls-4,.cls-5,.cls-6{fill:none;}.cls-3,.cls-4,.cls-5,.cls-7,.cls-8{stroke:#000;stroke-width:1.88px;}.cls-3,.cls-4,.cls-7,.cls-8{stroke-miterlimit:10;}.cls-4,.cls-5,.cls-7{stroke-linecap:round;}.cls-5{stroke-linejoin:round;}</style></defs><title>Desk_Dudes20</title><polygon class="cls-1" points="283.9 323.53 267.17 304.27 266.61 303.62 264.57 305.39 263.23 306.55 281 327.02 284.38 324.08 284 323.65 283.9 323.53"/><polygon class="cls-1" points="358.56 305.39 356.52 303.62 355.96 304.27 339.23 323.53 339.13 323.65 338.75 324.08 342.13 327.02 359.9 306.55 358.56 305.39"/><path class="cls-2" d="M280.62,306.17h.06c-.27,3,6.14,9.11,8.62,10.1s-5.13,7-5.13,7l-.27.24-16.73-19.26s1.16-8.93,8.42-7.65C280.94,297.56,281.22,302.48,280.62,306.17Z"/><path class="cls-1" d="M179.62,219.57c-1.45,1.92-3.7,1.12-4.29-1.71a8.17,8.17,0,0,1-.16-1.65c-.08-5.28,3.07-15.13,7.44-22a6,6,0,0,1,.4-.55,4.7,4.7,0,0,1,6.69-.52l1.24,2.17a3.34,3.34,0,0,1-.08,1.25c.32-.22.5-.32.5-.32l.07-.06L203,216.57c-6.12-1.9-8.3,4-6.62,8.06,1.3,3.15,4.61,5.25,7.61,6.44a28.88,28.88,0,0,0,3.14,1.11v0c4.31,2.59.69,9.51-3.16,8.83-8.61-1.5-11.37-5.47-10.61-9l-.12,0c-10.48-3.2-13.15-10.49-13.57-12.44Z"/><path class="cls-1" d="M203,216.57l8.88,15.67a8.26,8.26,0,0,1-4.75-.06,28.88,28.88,0,0,1-3.14-1.11c-3-1.19-6.31-3.29-7.61-6.44C194.7,220.56,196.88,214.67,203,216.57Z"/><path class="cls-1" d="M73.14,123.36l.24.48c6.88-3.12,45.72-18.78,70.46,14l.1.1L133.57,149.2c-29.62-28.83-54-2.63-54-2.63,2.27,3.16.24,5.71-2.61,5.3a6.28,6.28,0,0,1-1.36-.33c-7.85-2.69-12.15-18.28-10.28-25.92.49-2,1.37-3.39,2.71-4C69.76,120.93,72.76,121.3,73.14,123.36Z"/><path class="cls-1" d="M76.32,144.75a28.81,28.81,0,0,1-3.3-6.2,14.75,14.75,0,0,1-1-3.67c-.15-1.26-.11-2.53-.19-3.79a18.36,18.36,0,0,1-.27-3.54c.14-1.09.8-2,1-3a1.07,1.07,0,0,1,.78-.89l-.13-.26c-.38-2.06-3.38-2.43-5.12-1.69-1.34.56-2.22,2-2.71,4-1.87,7.64,2.43,23.23,10.28,25.92a6.28,6.28,0,0,0,1.36.33c2.32.34,4.1-1.3,3.45-3.63A12.67,12.67,0,0,1,76.32,144.75Z"/><path class="cls-1" d="M133.57,149.2,143.94,138l3-3.21a9.57,9.57,0,0,0,1,7.38l-44.3,47a9.55,9.55,0,0,0-6.59-.27Z"/><path class="cls-1" d="M37.13,147c-3,.55-4.83-.86-5.17-3.48s6.28-12.92,33.18-17.91l.17,0c-1.87,7.64,2.43,23.23,10.28,25.92l-.09.5c1.49,5.44,1.26,14.84-.18,20.34-1,3.69-6.08,6.26-8.53,2.29-2-3.22-1-9.62-1.45-13.15C54.91,163,45,173,41.87,171.86c-3.31-1.21-3.75-4.89-2.83-7.24s4.64-5.94,9.91-9.19h0l-9.29,3c-4.74,1.74-6.76,2-8.52-.67-1.16-1.72-1.61-6,5.16-10.31Z"/><path class="cls-1" d="M237.88,321.2a2.74,2.74,0,0,0-3.46-1.71l-56.24,19.14a2.73,2.73,0,1,0,1.76,5.17l56.24-19.13A2.73,2.73,0,0,0,237.88,321.2Z"/><path class="cls-1" d="M133.62,337.88H96.71l-.66-1.28s0,0,0,0-.05-.09-.08-.14L78.35,302.15a2.65,2.65,0,0,0-3.73-1.07l-1.05.62a2.65,2.65,0,0,0-1,3.48L90.9,341.74c.46.91,1.3,2.31,2.31,2.31h40.21c1.47,0,2.86-2,2.86-3.5a2.66,2.66,0,0,0-2.66-2.67Z"/><path class="cls-1" d="M215.71,301.59c-6.09,1.08-9.22,4.72-12.53,8.46-2.42,2.74-4.93,5.52-8.76,7.38l-.15.07-22.2,10,.22.5c-.62,3.34.7,8.62,4.44,10.91L235,319.15C238.85,315.78,234.6,298.26,215.71,301.59Z"/><path class="cls-1" d="M122.41,319.35A18.47,18.47,0,0,0,111,320.56s-14-18.06-18.88-28a1.88,1.88,0,0,1-.19-.58l-.38.07c-5.76,0-10.47,3-13.3,9.54l17.8,35s0,0,0,0a2.66,2.66,0,0,0,2.28,1.28H134.1C136.71,329.78,131,321.31,122.41,319.35Z"/><path class="cls-1" d="M121.33,280.32c-2.76,6.36-13.79,7.47-13.79,7.47l-.07-.15a2.32,2.32,0,0,0-2.69-1.22l-11.23,3A2.24,2.24,0,0,0,91.92,292a1.88,1.88,0,0,0,.19.58c4.86,10,18.88,28,18.88,28a18.47,18.47,0,0,1,11.42-1.21c14.34-9.84,22-30.09,24.2-36.23-11.37-.35-20.7-1.56-25-3.26Z"/><path class="cls-1" d="M203.07,310c-5.79-9.09-23-27.54-23.91-28.53a157.26,157.26,0,0,1-25.55,1.81h-1.05C167.64,299,169,315.62,169,315.62l.12.53c-.67.21-1.3.39-1.87.53a1.64,1.64,0,0,0-1.14,2.16c.85,2.32,2.33,6.25,3.28,8.25a1.5,1.5,0,0,0,2,.72l.74-.34,22.2-10,.15-.07c3.83-1.86,6.34-4.64,8.76-7.38Z"/><path class="cls-1" d="M103.06,207,144.7,254.4a9.48,9.48,0,0,0-1.7,5.43,1.09,1.09,0,0,0,0,.18L94.2,205.6a9.59,9.59,0,0,0,8.86,1.36Z"/><path class="cls-1" d="M109.75,198.25,156,250.92a9.49,9.49,0,0,0-6.72,0l-42-46.84a9.5,9.5,0,0,0,2.17-5.44Z"/><path class="cls-1" d="M109.75,198.25l-.3-.34a9.51,9.51,0,0,0-1.48-5.09l43.51-47.14a9.42,9.42,0,0,0,4.63,1.2,9.27,9.27,0,0,0,2.37-.3l-5.93,6.29-12.93,13.71Z"/><path class="cls-1" d="M214.28,108.56l7,8.94c-6.3-5.77-21.54-2.09-35.09,8.72-8.87,7.08-14.91,15.55-16.84,22.64-1.08,3.81-1,7.23.55,9.82l-.07,0-7.38-9.38c-.86-1.09-1.65-2.19-2.39-3.32a9.55,9.55,0,0,0-4-18.24,9.69,9.69,0,0,0-2.76.4c-1.54-11.6,2.16-22.89,11-29.81C178.61,87.11,201,91.67,214.28,108.56Z"/><path class="cls-1" d="M195.15,132.81c-1.6,1.43,1,2.91,3.77,4C198.07,133.89,196.66,131.47,195.15,132.81Z"/><path class="cls-1" d="M190.83,136.69c-1.61,1.43,1,2.91,3.77,4C193.75,137.77,192.34,135.35,190.83,136.69Z"/><path class="cls-1" d="M194.6,140.67c-.85-2.9-2.26-5.32-3.77-4S191.81,139.6,194.6,140.67Zm4.32-3.88c-.85-2.9-2.26-5.32-3.77-4S196.14,135.72,198.92,136.79Zm6.7-5.4a11.49,11.49,0,1,1-20.31,8h0c0-.22,0-.43,0-.64v0c-.22-3.38-2.25-6.48-3.55-8.16l-.11-.11c1.47-1.4,3.05-2.77,4.73-4.09s3.6-2.69,5.41-3.84l.17.26a14.84,14.84,0,0,0,7.14,4.65l.38.08h0A11.37,11.37,0,0,1,205.62,131.39Z"/><path class="cls-1" d="M223.4,120.51c3.14,7.63-3.8,21-16.76,31.3-14.23,11.36-30.34,14.84-36,7.77-2.12-2.66-2.46-6.44-1.29-10.72,1.61-5.73,5.94-12.35,12.26-18.38l.11.11c1.3,1.68,3.33,4.78,3.55,8.16v0c0,.21,0,.42,0,.64h0a11.48,11.48,0,1,0,14.17-11.87h0l-.38-.08a14.84,14.84,0,0,1-7.14-4.65l-.17-.26c12.53-8,25.26-9.84,30.35-4l.27.32A8.2,8.2,0,0,1,223.4,120.51Z"/><path class="cls-1" d="M226.72,211.54c2.74,1.5,8.29,5,6.57,8.87-1.37,3.08-5.54,3.27-8.38,2.7a32.92,32.92,0,0,1-8.5-3.4c2,4.26,1.1,9.75-3.25,12a8.08,8.08,0,0,1-1.28.53L203,216.57l-11.57-20.39c5.95-5.39,4-16.21,10.69-15.45,7.39.86,3.22,14.66.35,18.52C212.2,204.69,218.28,206.93,226.72,211.54Z"/><path class="cls-1" d="M182.61,194.21c-4.37,6.87-7.52,16.72-7.44,22h0s-33.42-11.81-35.51-49.6l0,0,12.93-13.71c7.69,34.61,30.09,40.43,30.09,40.43l.37.36A6,6,0,0,0,182.61,194.21Z"/><path class="cls-1" d="M156,250.92a9.56,9.56,0,0,0-13,8.91,1.09,1.09,0,0,0,0,.18,9.35,9.35,0,0,0,1,4.09,9.54,9.54,0,0,0,17.13-.09,9.45,9.45,0,0,0,1-4.18A9.55,9.55,0,0,0,156,250.92Zm-3.43,6a3.08,3.08,0,1,1-3.08,3.07A3.07,3.07,0,0,1,152.56,256.87Z"/><path class="cls-1" d="M156.11,127.78a9.69,9.69,0,0,0-2.76.4,9.55,9.55,0,0,0-1.87,17.5,9.42,9.42,0,0,0,4.63,1.2,9.27,9.27,0,0,0,2.37-.3,9.78,9.78,0,0,0,1.6-.56,9.55,9.55,0,0,0-4-18.24Zm0,12.62a3.07,3.07,0,0,1-1.37-5.82,3,3,0,0,1,1.37-.33,3.08,3.08,0,0,1,.8,6.05A3,3,0,0,1,156.11,140.4Z"/><path class="cls-1" d="M156.11,134.25a3,3,0,0,0-1.37.33,3.07,3.07,0,0,0,1.37,5.82,3,3,0,0,0,.8-.1,3.08,3.08,0,0,0-.8-6.05Z"/><path class="cls-1" d="M152.56,256.87a3.08,3.08,0,1,1-3.08,3.07A3.07,3.07,0,0,1,152.56,256.87Z"/><path class="cls-1" d="M161.14,264a9.54,9.54,0,0,1-17.13.09c-14.42.66-25,2.79-25,5.31a1,1,0,0,0,.18.55c.88,1.43,5.17,2.69,11.55,3.59a170.08,170.08,0,0,0,22.83,1.38,170.13,170.13,0,0,0,22.84-1.38c6.38-.9,10.67-2.16,11.55-3.59a1,1,0,0,0,.17-.55C188.17,266.77,176.61,264.56,161.14,264Z"/><path class="cls-1" d="M188.13,277.42V270H188c-.88,1.43-5.17,2.69-11.55,3.59a170.13,170.13,0,0,1-22.84,1.38,170.08,170.08,0,0,1-22.83-1.38c-6.38-.9-10.67-2.16-11.55-3.59h-.18v7.6h0a.78.78,0,0,0,0,.14c0,.78.91,1.5,2.56,2.16,4.3,1.7,13.63,2.91,25,3.26,1.93.06,3.92.09,5.95.11h1.05a157.26,157.26,0,0,0,25.55-1.81c5.6-1,9-2.29,9-3.72A1,1,0,0,0,188.13,277.42Z"/><path class="cls-1" d="M108,192.82a9.55,9.55,0,1,0-8.07,14.67,9.44,9.44,0,0,0,3.16-.53,9.57,9.57,0,0,0,6.37-8.37c0-.21,0-.43,0-.65v0A9.51,9.51,0,0,0,108,192.82ZM99.9,201a3.08,3.08,0,1,1,3.08-3.08A3.08,3.08,0,0,1,99.9,201Z"/><circle class="cls-1" cx="99.9" cy="197.94" r="3.08"/><path class="cls-1" d="M303.18,261.1a8.55,8.55,0,0,1,4.12-2.31v-2.72a6.57,6.57,0,0,1,.27-1.85,5.17,5.17,0,0,0,2.2-1.39,4.46,4.46,0,0,0,3.2,2.7c2.22.37,4.42-1.32,5.47-4a6.43,6.43,0,0,1,1.82,4.5v35.4a8.62,8.62,0,0,1-.13,1.53h0a8.54,8.54,0,0,1-5,6.29,8.53,8.53,0,0,1-7.16-.16,8.54,8.54,0,0,1-4.67-6.3,8.81,8.81,0,0,1-.11-1.36V261.3Z"/><path class="cls-1" d="M289.3,316.28c-2.48-1-8.89-7.08-8.62-10.1h-.06a18.91,18.91,0,0,0,.21-1.91c.16-3.3-.78-6.86-5.24-7.64-7.26-1.28-8.42,7.65-8.42,7.65l16.73,19.26.27-.24s6.46-5.12,5.54-6.69A.72.72,0,0,0,289.3,316.28Z"/><path class="cls-1" d="M347.53,296.62c-4.46.78-5.39,4.34-5.23,7.64a18.91,18.91,0,0,0,.21,1.91h-.06c.27,3-6.14,9.11-8.62,10.1a.73.73,0,0,0-.46.41c-.63,1.67,5.59,6.6,5.59,6.6l.27.24L356,304.27S354.8,295.34,347.53,296.62Z"/><path class="cls-1" d="M342.3,304.26a18.91,18.91,0,0,0,.21,1.91h-.06c.27,3-6.14,9.11-8.62,10.1a.73.73,0,0,0-.46.41l-.38-.11s-10.29-16.84-17.78-17.12l-.07-.17a8.54,8.54,0,0,0,5-6.29h0l.18,0c8.12.81,21.5,11.25,21.5,11.25Z"/><path d="M312,246.91a.76.76,0,0,0,.21,0,.93.93,0,0,0,.57-1.66,1.47,1.47,0,0,1,.83-.27,2.23,2.23,0,0,1,0,4.35,1.82,1.82,0,0,1-1.64-1.53C312,247.52,312,247.21,312,246.91Z"/><path d="M311.85,247.19a2.66,2.66,0,0,1,0-.3l.09,0c0,.3,0,.61,0,.92A2.67,2.67,0,0,1,311.85,247.19Z"/><path class="cls-1" d="M312.74,245.28a.92.92,0,0,0-.57-.2.85.85,0,0,0-.42.11.92.92,0,0,0-.51.82.93.93,0,0,0,.63.88l.09,0a.76.76,0,0,0,.21,0,.93.93,0,0,0,.57-1.66Z"/><path class="cls-1" d="M315.2,242.35a4.43,4.43,0,0,0-3.91,1.5,8,8,0,0,0-2.06,4.27,8.71,8.71,0,0,0,.06,3.27,8.11,8.11,0,0,0,.48,1.44,4.46,4.46,0,0,0,3.2,2.7c2.22.37,4.42-1.32,5.47-4a8.79,8.79,0,0,0,.51-1.81C319.56,246.12,317.88,242.8,315.2,242.35Zm-3.45,2.84a.85.85,0,0,1,.42-.11.92.92,0,0,1,.57.2,1.47,1.47,0,0,1,.83-.27,2.23,2.23,0,0,1,0,4.35,1.82,1.82,0,0,1-1.64-1.53,2.48,2.48,0,0,1-.06-.94.93.93,0,0,1-.63-.88A.92.92,0,0,1,311.75,245.19Z"/><path d="M306,244.59a2.23,2.23,0,1,1-1.73,2.17,2.64,2.64,0,0,1,0-.29,1,1,0,0,0,.3.05.93.93,0,0,0,.93-.93,1,1,0,0,0-.35-.73A1.44,1.44,0,0,1,306,244.59Z"/><path class="cls-1" d="M307.91,299.26c-7.48.29-17.77,17.32-17.77,17.32l-.43,0a.72.72,0,0,0-.41-.32c-2.48-1-8.89-7.08-8.62-10.1h-.06a18.91,18.91,0,0,0,.21-1.91l.49,0s13.74-10.63,21.86-11.44l.13,0a8.54,8.54,0,0,0,4.67,6.3Z"/><path class="cls-1" d="M305.21,244.86a1,1,0,0,0-.58-.2.93.93,0,0,0-.3,1.81,1,1,0,0,0,.3.05.93.93,0,0,0,.93-.93A1,1,0,0,0,305.21,244.86Z"/><path class="cls-1" d="M309.23,248.12a8,8,0,0,1,2.06-4.27,4.42,4.42,0,0,0-3.2-2.7c-2.69-.46-5.36,2.12-6,5.76s1.06,7,3.74,7.42a3.94,3.94,0,0,0,1.71-.11,5.17,5.17,0,0,0,2.2-1.39,8.11,8.11,0,0,1-.48-1.44A8.71,8.71,0,0,1,309.23,248.12Zm-3.19.82a2,2,0,0,1-1.73-2.18,2.64,2.64,0,0,1,0-.29.93.93,0,0,1,.3-1.81,1,1,0,0,1,.58.2,1.44,1.44,0,0,1,.83-.27,2.23,2.23,0,0,1,0,4.35Z"/><path class="cls-1" d="M292.29,256.56c0,.18,2.75,10.35,10.55,10.78h.36v8.48c-15.06.88-21.33-15.27-21.33-15.27,2.44-.29,6.62-2.06,8.43-2.87A10.44,10.44,0,0,0,292.29,256.56Z"/><path class="cls-1" d="M346.44,240.94c-.18.31-2.5,3.83-2.59,4,0-.14,1.35-4.68,1.89-6.4.31-1,1-3.06-2-4.22-2.72-1-3.61,2.51-3.61,2.51l-1.64,6.26s.05-3.34.08-4.92c0-.84.28-2.79-2.38-3.38-2.44-.53-2.91,2.78-2.91,2.78l-1.44,9.34-.23.05a12.2,12.2,0,0,0-3-1.59,2.49,2.49,0,0,0-2.37,4,14.06,14.06,0,0,0,4.53,3.82l0,0c-1.53,1-.54,2.41,2.35,3.7,2.43,1.09,9.13,3.9,10.17,2.57a1.68,1.68,0,0,0,0-2.3c2.81-.44,7-11,7.78-13.78C351.81,240.42,347.74,238.66,346.44,240.94Z"/><path class="cls-1" d="M294.78,246.11a12.93,12.93,0,0,0-3.22,1.71l-.05-.18-1.44-9.33s-.47-3.31-2.9-2.78c-2.67.59-2.4,2.54-2.39,3.38,0,1.57.08,4.92.08,4.92l-1.64-6.26s-.89-3.54-3.61-2.51c-3,1.16-2.34,3.22-2,4.22.54,1.71,1.85,6.26,1.89,6.4-.09-.14-2.41-3.66-2.59-4-1.3-2.28-5.37-.53-4.52,2.46.79,2.81,5,13.33,7.78,13.77a1.69,1.69,0,0,0,0,2.31c.26.34.9.41,1.74.3,2.44-.29,6.62-2.06,8.43-2.87a10.44,10.44,0,0,0,2-1.12c1.26-.93,1.45-1.85.36-2.58l0,0a14.06,14.06,0,0,0,4.53-3.82A2.49,2.49,0,0,0,294.78,246.11Z"/><path class="cls-3" d="M256.5,310.88l-44.62-78.64a8.08,8.08,0,0,0,1.28-.53c4.35-2.25,5.23-7.74,3.25-12a32.92,32.92,0,0,0,8.5,3.4c2.84.57,7,.38,8.38-2.7,1.72-3.89-3.83-7.37-6.57-8.87-8.44-4.61-14.52-6.85-24.25-12.29,2.87-3.86,7-17.66-.35-18.52-6.65-.76-4.74,10.06-10.69,15.45l-.49-.87a3.54,3.54,0,0,0-1.24-2.17l-18.76-33.06c5.9,6.52,21.66,3.06,35.67-8,13.28-10.46,20.32-24,16.79-31.61a8.51,8.51,0,0,0-1.21-2.06l128.5,117.18"/><path class="cls-4" d="M179.16,281.42c.93,1,18.12,19.44,23.91,28.53"/><path class="cls-4" d="M194.27,317.5l-22.2,10-.74.34a1.5,1.5,0,0,1-2-.72c-1-2-2.43-5.93-3.28-8.25a1.64,1.64,0,0,1,1.14-2.16c.57-.14,1.2-.32,1.87-.53a73.14,73.14,0,0,0,14.57-6.48"/><path class="cls-4" d="M146.61,283.12c-2.22,6.14-9.86,26.39-24.2,36.23"/><path class="cls-4" d="M111,320.56s-14-18.06-18.88-28a2.32,2.32,0,0,1-.16-.44l0-.14a2.24,2.24,0,0,1,1.63-2.57l11.23-3a2.32,2.32,0,0,1,2.69,1.22l.07.15c2.27,4.62,7,15.3,13.79,20.58"/><path class="cls-4" d="M188.13,277.42a1,1,0,0,1,0,.28c0,1.43-3.41,2.74-9,3.72a157.26,157.26,0,0,1-25.55,1.81h-1.05c-2,0-4-.05-5.95-.11-11.37-.35-20.7-1.56-25-3.26-1.65-.66-2.56-1.38-2.56-2.16a.78.78,0,0,1,0-.14"/><polyline class="cls-4" points="188 269.96 188.13 269.96 188.13 277.42 188.13 277.56"/><polyline class="cls-4" points="119.06 277.56 119.06 269.96 119.22 269.96"/><path class="cls-4" d="M161.15,264c15.46.55,27,2.76,27,5.4a1,1,0,0,1-.17.55c-.88,1.43-5.17,2.69-11.55,3.59a170.13,170.13,0,0,1-22.84,1.38,170.08,170.08,0,0,1-22.83-1.38c-6.38-.9-10.67-2.16-11.55-3.59a1,1,0,0,1-.18-.55c0-2.52,10.54-4.65,25-5.31"/><path class="cls-4" d="M223.4,120.51c3.53,7.58-3.51,21.15-16.79,31.61-14,11-29.77,14.48-35.67,8-.12-.14-.25-.29-.36-.44a7.1,7.1,0,0,1-.66-1c-1.51-2.59-1.63-6-.55-9.82,1.61-5.73,5.94-12.35,12.26-18.38h0c1.47-1.4,3.05-2.77,4.73-4.09s3.6-2.69,5.41-3.84h0c12.52-8,25.25-9.84,30.34-4l.27.32A8.2,8.2,0,0,1,223.4,120.51Z"/><path class="cls-4" d="M160.08,146c.74,1.13,1.53,2.23,2.39,3.32l7.38,9.38"/><path class="cls-4" d="M222.12,118.54l-.82-1-7-8.94c-13.29-16.89-35.67-21.45-50-10.19-8.79,6.92-12.49,18.21-11,29.81"/><polyline class="cls-4" points="158.48 146.58 152.55 152.87 139.62 166.58 109.75 198.25 109.43 198.59"/><line class="cls-4" x1="151.48" y1="145.68" x2="107.97" y2="192.82"/><line class="cls-4" x1="147.86" y1="142.14" x2="103.56" y2="189.12"/><polyline class="cls-4" points="146.91 134.76 143.94 137.97 133.57 149.2 96.97 188.85"/><polyline class="cls-4" points="109.45 197.91 109.75 198.25 155.99 250.92"/><line class="cls-4" x1="107.26" y1="204.03" x2="149.27" y2="250.87"/><line class="cls-4" x1="103.06" y1="206.96" x2="144.7" y2="254.4"/><line class="cls-4" x1="94.2" y1="205.6" x2="143.01" y2="260.01"/><path class="cls-4" d="M153.35,128.18a9.69,9.69,0,0,1,2.76-.4,9.55,9.55,0,0,1,4,18.24,9.78,9.78,0,0,1-1.6.56,9.27,9.27,0,0,1-2.37.3,9.42,9.42,0,0,1-4.63-1.2,9.55,9.55,0,0,1,1.87-17.5Z"/><path class="cls-4" d="M109.45,197.91v0c0,.22,0,.44,0,.65a9.68,9.68,0,1,1,0-.68Z"/><path class="cls-4" d="M156,250.92a9.55,9.55,0,1,1-12,13.18,9.35,9.35,0,0,1-1-4.09,1.09,1.09,0,0,1,0-.18,9.55,9.55,0,0,1,13-8.91Z"/><path class="cls-4" d="M194.42,317.43c3.83-1.86,6.34-4.64,8.76-7.38,3.31-3.74,6.44-7.38,12.53-8.46,18.89-3.33,23.14,14.19,19.33,17.56l-58.31,19.73c-3.74-2.29-5.06-7.57-4.44-10.91"/><path class="cls-4" d="M133.62,337.88h.48c2.61-8.1-3.06-16.57-11.69-18.53A18.47,18.47,0,0,0,111,320.56a26.39,26.39,0,0,0-6.5,4.06"/><polyline class="cls-4" points="96.05 336.6 96.7 337.88 98.33 337.88"/><path class="cls-4" d="M91.54,292c-5.76,0-10.47,3-13.3,9.54l17.8,35"/><path class="cls-4" d="M175.16,216.21s-33.42-11.81-35.51-49.6"/><path class="cls-4" d="M182.64,193.3s-22.4-5.82-30.09-40.43"/><path class="cls-4" d="M72.32,124.35s.37-.19,1.06-.51c6.88-3.12,45.72-18.78,70.46,14"/><path class="cls-4" d="M79.56,146.57s24.39-26.2,54,2.63l.05,0"/><path class="cls-4" d="M202.47,199.25c9.73,5.44,15.81,7.68,24.25,12.29,2.74,1.5,8.29,5,6.57,8.87-1.37,3.08-5.54,3.27-8.38,2.7a32.92,32.92,0,0,1-8.5-3.4,69.27,69.27,0,0,0-7.24-3.52"/><path class="cls-4" d="M203.65,216.8c-.22-.09-.44-.16-.65-.23-6.12-1.9-8.3,4-6.62,8.06,1.3,3.15,4.61,5.25,7.61,6.44a28.88,28.88,0,0,0,3.14,1.11,8.26,8.26,0,0,0,4.75.06,8.08,8.08,0,0,0,1.28-.53c4.35-2.25,5.23-7.74,3.25-12"/><path class="cls-4" d="M195.55,228.52a6.86,6.86,0,0,0-2.2,3.56c-.76,3.5,2,7.47,10.61,9,3.85.68,7.47-6.24,3.16-8.83"/><path class="cls-4" d="M201.92,199.89a3.69,3.69,0,0,0,.55-.64c2.87-3.86,7-17.66-.35-18.52-6.65-.76-4.74,10.06-10.69,15.45l-.07.06"/><path class="cls-4" d="M179.66,219.61c.42,1.95,3.09,9.24,13.57,12.44"/><path class="cls-4" d="M180.57,217.42a5.83,5.83,0,0,1-.95,2.15c-1.45,1.92-3.7,1.12-4.29-1.71a8.17,8.17,0,0,1-.16-1.65c-.08-5.28,3.07-15.13,7.44-22a6,6,0,0,1,.4-.55,4.7,4.7,0,0,1,6.69-.52,3.54,3.54,0,0,1,1.24,2.17,3.34,3.34,0,0,1-.08,1.25"/><path class="cls-4" d="M191.36,196.24s-.18.1-.5.32a18.4,18.4,0,0,0-7.5,11.82"/><circle class="cls-4" cx="99.9" cy="197.94" r="3.08"/><path class="cls-4" d="M154.74,134.58a3,3,0,0,1,1.37-.33,3.08,3.08,0,0,1,.8,6.05,3,3,0,0,1-.8.1,3.07,3.07,0,0,1-1.37-5.82Z"/><path class="cls-4" d="M155.63,259.94a3.08,3.08,0,1,1-3.07-3.07A3.08,3.08,0,0,1,155.63,259.94Z"/><path class="cls-4" d="M181.74,130.59c1.3,1.68,3.33,4.78,3.55,8.16v0c0,.21,0,.42,0,.64h0a11.48,11.48,0,1,0,14.17-11.87h0l-.38-.08a14.84,14.84,0,0,1-7.14-4.65"/><path class="cls-4" d="M73.14,123.36c-.38-2.06-3.38-2.43-5.12-1.69-1.34.56-2.22,2-2.71,4-1.87,7.64,2.43,23.23,10.28,25.92a6.28,6.28,0,0,0,1.36.33c2.85.41,4.88-2.14,2.61-5.3"/><path class="cls-4" d="M75.5,145c-6.24-13.33-5.5-19.85-3.18-20.63"/><path class="cls-4" d="M75.5,152c1.49,5.44,1.26,14.84-.18,20.34-1,3.69-6.08,6.26-8.53,2.29-2-3.22-1-9.62-1.45-13.15"/><path class="cls-4" d="M51,154.24c-.7.39-1.38.79-2,1.19-5.27,3.25-9,6.87-9.91,9.19s-.48,6,2.83,7.24C45,173,54.91,163,65.34,161.52"/><path class="cls-4" d="M45.3,143.38A38.33,38.33,0,0,0,37.13,147l-.83.51c-6.77,4.28-6.32,8.59-5.16,10.31,1.76,2.64,3.78,2.41,8.52.67l9.29-3"/><path class="cls-4" d="M65.14,125.58c-26.9,5-33.52,15.33-33.18,17.91s2.13,4,5.17,3.48h0"/><path class="cls-4" d="M96,336.57s-.05-.09-.08-.14L78.35,302.15a2.65,2.65,0,0,0-3.73-1.07l-1.05.62a2.65,2.65,0,0,0-1,3.48L90.9,341.74c.46.91,1.3,2.31,2.31,2.31h40.21c1.47,0,2.86-2,2.86-3.5a2.66,2.66,0,0,0-2.66-2.67H98.33a2.66,2.66,0,0,1-2.28-1.28S96,336.58,96,336.57Z"/><path class="cls-4" d="M176.47,342.1a2.74,2.74,0,0,0,3.47,1.7l56.24-19.13a2.73,2.73,0,0,0-.88-5.32,2.7,2.7,0,0,0-.88.14l-56.24,19.14A2.73,2.73,0,0,0,176.47,342.1Z"/><path class="cls-5" d="M198.92,136.79a45.91,45.91,0,0,0,5.05,1.56"/><path class="cls-5" d="M198.92,136.79c-.85-2.9-2.26-5.32-3.77-4S196.14,135.72,198.92,136.79Z"/><path class="cls-5" d="M194.6,140.67a47.24,47.24,0,0,0,5.05,1.57l0,0,.05,0a18.51,18.51,0,0,0-.82-5.36"/><path class="cls-5" d="M194.6,140.67c-.85-2.9-2.26-5.32-3.77-4S191.81,139.6,194.6,140.67Z"/><path class="cls-5" d="M195.42,146a18.91,18.91,0,0,0-.82-5.36"/><path class="cls-4" d="M125.93,324.69s4.69,2.43,5.28,7.43"/><path class="cls-4" d="M219.69,304.56s5.24-.67,8.57,3.1"/><path class="cls-4" d="M107.54,287.79s11-1.11,13.79-7.47"/><path class="cls-4" d="M169,315.62s-1.34-16.64-16.42-32.39"/><path class="cls-4" d="M223.4,120.51c3.14,7.63-3.8,21-16.76,31.3-14.23,11.36-30.34,14.84-36,7.77-2.12-2.66-2.46-6.44-1.29-10.72,1.93-7.09,8-15.56,16.84-22.64,13.55-10.81,28.79-14.49,35.09-8.72a8,8,0,0,1,.89,1A8.51,8.51,0,0,1,223.4,120.51Z"/><path class="cls-3" d="M350.69,235.63a65.08,65.08,0,0,1,7.17,7.63c21.76,27.26,18,66.42-8.36,87.48s-65.39,16-87.15-11.22a65.19,65.19,0,0,1-5.87-8.68"/><line class="cls-6" x1="222.19" y1="118.45" x2="350.69" y2="235.63"/><path class="cls-4" d="M320.26,255.7v35.77a8.62,8.62,0,0,1-.13,1.53h0a8.54,8.54,0,0,1-5,6.29,8.53,8.53,0,0,1-7.16-.16,8.54,8.54,0,0,1-4.67-6.3,8.81,8.81,0,0,1-.11-1.36V261.3"/><polyline class="cls-4" points="307.3 255.55 307.3 256.07 307.3 258.79 307.3 288.28"/><path class="cls-4" d="M307.29,288.31a4.44,4.44,0,0,0,8.88,0V267"/><path class="cls-4" d="M318.44,251.57a6.43,6.43,0,0,1,1.82,4.5"/><path class="cls-4" d="M307.3,256.07a6.57,6.57,0,0,1,.27-1.85"/><path class="cls-4" d="M309.77,252.83a5.17,5.17,0,0,1-2.2,1.39,3.94,3.94,0,0,1-1.71.11c-2.68-.46-4.36-3.78-3.74-7.42s3.28-6.22,6-5.76a4.42,4.42,0,0,1,3.2,2.7"/><path class="cls-4" d="M311.29,243.85a4.43,4.43,0,0,1,3.91-1.5c2.68.45,4.36,3.77,3.75,7.41a8.79,8.79,0,0,1-.51,1.81c-1.05,2.64-3.25,4.33-5.47,4a4.46,4.46,0,0,1-3.2-2.7,8.11,8.11,0,0,1-.48-1.44,8.71,8.71,0,0,1-.06-3.27A8,8,0,0,1,311.29,243.85Z"/><path class="cls-4" d="M279.47,245.68c-.09-.14-2.41-3.66-2.59-4-1.3-2.28-5.37-.53-4.52,2.46.79,2.81,5,13.33,7.78,13.77,0,0,1.69.32,5.72-1.29"/><path class="cls-4" d="M279.48,245.68h0c0-.14-1.35-4.68-1.89-6.4-.31-1-1-3.06,2-4.22,2.72-1,3.61,2.51,3.61,2.51l1.64,6.26"/><path class="cls-4" d="M284.86,243.83s-.05-3.35-.08-4.92c0-.84-.28-2.79,2.39-3.38,2.43-.53,2.9,2.78,2.9,2.78l1.44,9.33"/><path class="cls-4" d="M289.8,249.11s.76-.61,1.76-1.29a12.93,12.93,0,0,1,3.22-1.71,2.49,2.49,0,0,1,2.37,4,14.06,14.06,0,0,1-4.53,3.82c-.49.3-1,.61-1.62.95"/><path class="cls-4" d="M280.14,257.94a1.69,1.69,0,0,0,0,2.31c.26.34.9.41,1.74.3,2.44-.29,6.62-2.06,8.43-2.87a10.44,10.44,0,0,0,2-1.12c1.26-.93,1.45-1.85.36-2.58"/><path class="cls-4" d="M343.85,244.91c.09-.14,2.41-3.66,2.59-4,1.3-2.28,5.37-.52,4.52,2.46-.79,2.81-5,13.34-7.78,13.78,0,0-1.69.32-5.72-1.3"/><path class="cls-4" d="M343.85,244.92h0c0-.14,1.35-4.68,1.89-6.4.31-1,1-3.06-2-4.22-2.72-1-3.61,2.51-3.61,2.51l-1.64,6.26"/><path class="cls-4" d="M338.46,243.06s.05-3.34.08-4.92c0-.84.28-2.79-2.38-3.38-2.44-.53-2.91,2.78-2.91,2.78l-1.44,9.34"/><path class="cls-4" d="M333.52,248.35s-.85-.69-1.94-1.42a12.2,12.2,0,0,0-3-1.59,2.49,2.49,0,0,0-2.37,4,14.06,14.06,0,0,0,4.53,3.82c.49.3,1,.62,1.62,1"/><path class="cls-4" d="M343.18,257.18a1.68,1.68,0,0,1,0,2.3c-1,1.33-7.74-1.48-10.17-2.57-2.89-1.29-3.88-2.67-2.35-3.7"/><path class="cls-4" d="M317.67,237.19s3.52,3,3.12,6.68"/><path class="cls-4" d="M309.21,236.42A10.34,10.34,0,0,1,313,242.1"/><path class="cls-4" d="M292.29,256.56h0c0,.18,2.75,10.35,10.55,10.78"/><path class="cls-4" d="M281.87,260.55s6.27,16.15,21.33,15.27"/><path class="cls-4" d="M331.21,256.56s-2.68,10.35-10.54,10.78"/><path class="cls-4" d="M341.64,260.55s-6.27,16.15-21.33,15.27"/><polygon class="cls-5" points="283.9 323.53 284 323.65 284.38 324.08 281 327.02 263.23 306.55 264.57 305.39 266.61 303.62 267.17 304.27 283.9 323.53"/><path class="cls-5" d="M267.17,304.27s1.16-8.93,8.42-7.65c4.46.78,5.4,4.34,5.24,7.64a18.91,18.91,0,0,1-.21,1.91,22.28,22.28,0,0,1-1.11,4.19"/><path class="cls-5" d="M284.17,323.29s6.46-5.12,5.54-6.69a.72.72,0,0,0-.41-.32c-2.48-1-8.89-7.08-8.62-10.1"/><path class="cls-4" d="M313.78,260.78c-1.24-1-3.59-2.57-6.48-2a8.55,8.55,0,0,0-4.12,2.31"/><path class="cls-5" d="M281.32,304.29s13.74-10.63,21.86-11.44"/><path class="cls-5" d="M290.14,316.58s10.29-17,17.77-17.32"/><path class="cls-5" d="M292.53,312.28s-5.91-2.14-6.54-6.1"/><polygon class="cls-5" points="339.23 323.53 339.13 323.65 338.75 324.08 342.13 327.02 359.9 306.55 358.56 305.39 356.52 303.62 355.96 304.27 339.23 323.53"/><path class="cls-5" d="M356,304.27s-1.16-8.93-8.43-7.65c-4.46.78-5.39,4.34-5.23,7.64a18.91,18.91,0,0,0,.21,1.91,22.28,22.28,0,0,0,1.11,4.19"/><path class="cls-5" d="M339,323.29s-6.22-4.93-5.59-6.6a.73.73,0,0,1,.46-.41c2.48-1,8.89-7.08,8.62-10.1"/><path class="cls-5" d="M341.81,304.29s-13.38-10.44-21.5-11.25"/><path class="cls-5" d="M333,316.58s-10.29-16.84-17.78-17.12"/><path class="cls-5" d="M330.6,312.28s5.91-2.14,6.54-6.1"/><path class="cls-4" d="M130.55,284.44c-1.82,2.81-5.78,4.92-3.48,6.46,1,.67,4.6-.16,2.81,1.92-1.34,1.56-6.74,5.62-8.49,6.83"/><path class="cls-4" d="M169.34,285.51a58.75,58.75,0,0,1,8.36,7.2c1.15,1.3.52,3.27-1.21,3.24-1,0-1.81.06-2.15,1-.78,2.14,5.83,5.43,7.47,9.7"/><path d="M87.06,335.4s-40.06-1-38.52,5.11,43.12,4.38,45.3,4.46Z"/><path d="M178.7,344.36a4.21,4.21,0,0,1-1.54-1.51,5,5,0,0,1-.28-4.09,1.65,1.65,0,0,1,.22-.44,8,8,0,0,1-3.87-3c-11.53.06-32,.78-30.92,5.16,1.16,4.57,24.61,4.53,37.3,4.26A9.34,9.34,0,0,1,178.7,344.36Z"/><path class="cls-7" d="M218.14,96.51c0,8.67-5.28,15.71-11.8,15.71s-11.7-5-11.7-13.72,20.53-13.09,21.68-10.4A21.52,21.52,0,0,1,218.14,96.51Z"/><ellipse class="cls-7" cx="189.12" cy="96.51" rx="11.8" ry="15.71"/><ellipse cx="209.66" cy="102.57" rx="3.15" ry="3.96"/><circle class="cls-1" cx="207.1" cy="100.43" r="1.69"/><ellipse cx="192.84" cy="102.12" rx="3.15" ry="3.96"/><circle class="cls-1" cx="190.28" cy="99.98" r="1.69"/><path class="cls-8" d="M169.68,113c-4.09,0-6.81-1.24-8.78-4.48a20.38,20.38,0,0,1-2.25-6.21s-.74-4.78-4.89-4.34c-7.33.77-4.37,10.3-1.75,14.87a19.57,19.57,0,0,0,17.67,10,4.93,4.93,0,1,0,0-9.85Z"/><path class="cls-4" d="M153.89,103c.54,4.74,2.67,14.68,16.08,15.09"/><line class="cls-4" x1="152.16" y1="103.14" x2="155.85" y2="102.55"/><path class="cls-5" d="M216.92,78.88c-6.86.19-14.06,6-14.06,6s-2.35-11.82-15.06-11"/></svg>