<svg id="Layer_1" data-name="Layer 1" xmlns="http://www.w3.org/2000/svg" viewBox="0 0 400 400"><defs><style>.cls-1,.cls-6{fill:#fff;}.cls-2,.cls-3,.cls-4{fill:none;}.cls-2,.cls-3,.cls-4,.cls-5,.cls-6{stroke:#000;}.cls-2,.cls-4{stroke-linecap:round;stroke-width:1.88px;}.cls-2,.cls-3,.cls-5,.cls-6{stroke-miterlimit:10;}.cls-3{stroke-width:0;}.cls-4{stroke-linejoin:round;}.cls-5{stroke-width:0.21px;}.cls-6{stroke-width:2.08px;}</style></defs><title>Desk_Dudes6</title><path class="cls-1" d="M223.72,286.8l-40.22.82-2.81.06v5.42l3.28.12-1.29,20.51h39.86a11.24,11.24,0,0,1,2.8.39l1.09-27.38Z"/><path class="cls-1" d="M125.8,287.62l-2.81.06v5.42l3.28.12L125,313.73h39.87a11.19,11.19,0,0,1,2.79.39l1.09-27.38-2.7.06Z"/><path class="cls-1" d="M329.56,159.37l-.05,0a16.59,16.59,0,0,0-.68-2.23v-.39c-2.85-.6-5.38-1.83-6.79-3.79l0,0v5a42.59,42.59,0,0,1,7.52,1.47A.19.19,0,0,1,329.56,159.37Z"/><path class="cls-1" d="M313.38,180.34h-.29a63.69,63.69,0,0,1-15.17-1.6v.15c-4.72,8.06-18.94,3.74-26.21-6.24L275,212.16c6.81,3.87,15.85,5.07,21.25,5.37,27.6,1.48,34.57-21.1,35.07-39.42l-.08-.21C327.49,179.37,320.9,180.34,313.38,180.34Z"/><path class="cls-1" d="M296.89,159.37a43.33,43.33,0,0,1,7.25-1.39V146.4a44.5,44.5,0,0,1-11.36-1.55l0,.14c1.16,4.55,2.48,8.94,4.12,14.23Z"/><path class="cls-1" d="M313.38,167.8h-.29c-10.37,0-19-1.86-20.66-4.29v11.68c0,2.83,9.3,5.13,20.81,5.15S334,178,334,175.19V163.51C332.37,165.94,323.76,167.8,313.38,167.8Z"/><path class="cls-1" d="M313.24,167.8c11.5,0,20.8-2.32,20.8-5.16,0-2.06-4.91-3.84-12-4.66v-5l0,0c-1.33-1.83-1.68-4.29-.43-7.47l0-.24c-1.38-.85-2.21-1.89-2.2-3.1l-.11-.27c-5.12,1.8-12.29-4-15.2-7.76V158a43.33,43.33,0,0,0-7.25,1.39c-3,.89-4.76,2-4.76,3.27a1.48,1.48,0,0,0,.3.87v-.87C292.43,165.48,301.73,167.78,313.24,167.8Z"/><path class="cls-1" d="M315.37,96.45c.07.87.43,3.7.62,5-2.41.68-15.84,1.31-15.84,1.31l-.61-5.54,4.4-.1c-.45-3.44-1.46-14.24-1.56-15.94-1.24,2.39-2,4.53-3.06,6.74-1.53-.77-4-2-5.17-2.64,1.63-6.43,2.06-8.2,3.28-12.59,1.81-.1,9.49-.84,11.34-1,0,0,1.44,19.28,1.67,24.76v.24Z"/><ellipse class="cls-1" cx="313.2" cy="56.32" rx="33.44" ry="8.23"/><path class="cls-1" d="M357.73,72c-1.75-4.8-6.17-3.88-9.47-2.36l-.05-.1a96.66,96.66,0,0,0-1.46-13.23h-.11c0,4.55-15,8.23-33.44,8.23s-33.44-3.68-33.44-8.23h-.12a91.18,91.18,0,0,0-1.49,13.49l-.17.07c-3.33-1.65-8.12-2.91-10,2.13-2.85,7.84-1.88,29.23,13.16,23.46l.47.19c2.7,6.64,7.27,12.17,14.79,14.56a28.07,28.07,0,0,0,7.7,1.25v7.25l.07.45a18.31,18.31,0,0,1,13,2.81l.11-.16a10.62,10.62,0,0,1,4.75-1.2l0-.31v-8.83a27.35,27.35,0,0,0,9.53-1.82c6.58-2.62,10.69-7.79,13.19-13.93l.07-.17C359.62,101,360.57,79.81,357.73,72Zm-84,5.46c.82-2.23,2.86-1.86,4.41-1.16l-.05.18a66.18,66.18,0,0,0,1.44,12.31C272.85,90.94,272.44,81.12,273.76,77.47Zm26.39,25.26-.61-5.54,4.4-.1c-.45-3.44-1.46-14.24-1.56-15.94-1.24,2.39-2,4.53-3.06,6.74-1.53-.77-4-2-5.17-2.64,1.63-6.43,2.06-8.2,3.28-12.59,1.81-.1,9.49-.84,11.34-1,0,0,1.44,19.28,1.67,24.76v.24l4.93-.24c.07.87.43,3.7.62,5C313.58,102.1,300.15,102.73,300.15,102.73Zm46.74-14.17,0-.08a64.14,64.14,0,0,0,1.35-11.83c1.58-.86,4.15-1.76,5.09.82C354.73,81.24,354.24,91.58,346.89,88.56Z"/><path class="cls-1" d="M345.52,129.86l-.25-.14a12.89,12.89,0,0,0-1.59-13.62,17,17,0,0,0-12.12-6.38l0-.06a27.35,27.35,0,0,1-9.53,1.82v8.83l0,.31a10.62,10.62,0,0,0-4.75,1.2l-.11.16a18.31,18.31,0,0,0-13-2.81l-.07-.45v-7.25a28.07,28.07,0,0,1-7.7-1.25l-.2.59c-6.41,7.33-7.23,15.67-5.14,26.84l-.05.31a4.94,4.94,0,0,0-2.53.16c-1.54.64-3,4.5,4.25,6.73a44.5,44.5,0,0,0,11.36,1.55V134.1c2.91,3.74,10.08,9.56,15.2,7.76l.11.27c0,1.21.82,2.25,2.2,3.1l0,.24c-1.25,3.18-.9,5.64.43,7.47s3.94,3.19,6.79,3.79c5,1.06,10.93.23,13.64-1.93,5.57-4.43,1.87-9.33,1.87-9.33l-.07-.1a7.38,7.38,0,0,0,1.44-1.16C351.64,137.89,345.52,129.86,345.52,129.86Z"/><path class="cls-2" d="M344.35,145.47s3.7,4.9-1.87,9.33c-2.71,2.16-8.67,3-13.64,1.93-2.85-.6-5.38-1.83-6.79-3.79s-1.68-4.29-.43-7.47"/><path class="cls-2" d="M345.52,129.86s6.12,8,.2,14.35a7.38,7.38,0,0,1-1.44,1.16c-5.46,3.43-17.64,2.94-22.63-.14-1.38-.85-2.21-1.89-2.2-3.1"/><path class="cls-2" d="M317.29,121.82a10.62,10.62,0,0,1,4.75-1.2c4.68-.28,10.43,1.1,12.51,2.35"/><path class="cls-2" d="M331.56,109.72a17,17,0,0,1,12.12,6.38,12.89,12.89,0,0,1,1.59,13.62,11.9,11.9,0,0,1-6.28,5.64,21.46,21.46,0,0,1-15.07-.23"/><path class="cls-2" d="M297.47,122.51c1.22-1.7,3.73-2.88,6.74-3.34a18.31,18.31,0,0,1,13,2.81,13.34,13.34,0,0,1,3.33,3.33c1.76,2.55,3.45,6.36,3.3,9.82a7.88,7.88,0,0,1-.87,3.37,6.64,6.64,0,0,1-3.6,3.36c-5.12,1.8-12.29-4-15.2-7.76a12.29,12.29,0,0,1-.84-1.21"/><path class="cls-2" d="M329.51,159.35a16.59,16.59,0,0,0-.68-2.23"/><ellipse class="cls-2" cx="313.2" cy="56.32" rx="33.44" ry="8.23"/><path class="cls-2" d="M281.66,95.66c2.7,6.64,7.27,12.17,14.79,14.56a28.07,28.07,0,0,0,7.7,1.25c1.06,0,2.17,0,3.32,0"/><path class="cls-2" d="M278.12,76.49a66.18,66.18,0,0,0,1.44,12.31s0,.07,0,.1"/><path class="cls-2" d="M279.64,56.32a91.18,91.18,0,0,0-1.49,13.49"/><path class="cls-2" d="M344.73,95.73c-2.5,6.14-6.61,11.31-13.19,13.93a27.35,27.35,0,0,1-9.53,1.82c-1,0-2,0-3.09,0"/><path class="cls-2" d="M348.27,76.65a64.14,64.14,0,0,1-1.35,11.83"/><path class="cls-2" d="M346.75,56.32a96.66,96.66,0,0,1,1.46,13.23"/><path class="cls-2" d="M344.31,72a23.21,23.21,0,0,1,3.95-2.36c3.3-1.52,7.72-2.44,9.47,2.36,2.84,7.8,1.89,29-12.93,23.55-.48-.18-1-.38-1.47-.61"/><path class="cls-2" d="M281.45,72A23.74,23.74,0,0,0,278,69.88c-3.33-1.65-8.12-2.91-10,2.13-2.85,7.84-1.88,29.23,13.16,23.46.4-.15.82-.33,1.24-.52"/><path class="cls-2" d="M280.15,77.47a11.45,11.45,0,0,0-2-1.16c-1.55-.7-3.59-1.07-4.41,1.16-1.32,3.65-.91,13.47,5.8,11.33a8.46,8.46,0,0,0,1.06-.41"/><path class="cls-2" d="M347,77.47a10.1,10.1,0,0,1,1.3-.82c1.58-.86,4.15-1.76,5.09.82,1.37,3.77.88,14.11-6.47,11.09l-.39-.17"/><path class="cls-2" d="M291.11,137.65c-2.09-11.17-1.27-19.51,5.14-26.84"/><path class="cls-2" d="M296.85,159.22c-1.64-5.29-3-9.68-4.12-14.23"/><path class="cls-2" d="M275,212.16c6.81,3.87,15.85,5.07,21.25,5.37,27.6,1.48,34.57-21.1,35.07-39.42"/><path class="cls-2" d="M297.92,178.89c-4.72,8.06-18.94,3.74-26.21-6.24"/><line class="cls-2" x1="304.14" y1="111.91" x2="304.14" y2="118.72"/><line class="cls-2" x1="322.02" y1="111.91" x2="322.02" y2="120.31"/><path class="cls-3" d="M334,162.64v12.55c0,2.83-9.3,5.13-20.8,5.15h-.15a63.69,63.69,0,0,1-15.17-1.6c-3.59-.92-5.79-2.18-5.79-3.55V162.64"/><path class="cls-3" d="M334,162.64c0,2.84-9.3,5.14-20.8,5.16h-.15c-10.37,0-19-1.86-20.66-4.29a1.48,1.48,0,0,1-.3-.87"/><path class="cls-2" d="M304,158c-6.88.84-11.6,2.59-11.6,4.61,0,2.84,9.3,5.14,20.81,5.16h.14c10.38,0,19-1.86,20.66-4.29a1.48,1.48,0,0,0,.3-.87c0-1.25-1.82-2.4-4.83-3.29a41.4,41.4,0,0,0-6.31-1.27"/><path class="cls-2" d="M292.43,162.64v12.55c0,2.83,9.3,5.13,20.81,5.15h.14c7.52,0,14.11-1,17.81-2.44,2-.78,3.15-1.71,3.15-2.71V162.64"/><polyline class="cls-2" points="304.14 134.1 304.14 146.4 304.14 157.98 304.14 160.31"/><polyline class="cls-2" points="322.02 152.96 322.02 157.98 322.02 161.36"/><path class="cls-4" d="M300.56,36.28c6.87-3.33,12.19-17.91,13.38-25.07-.05,6.53,6.92,18,12.45,19.66,12.92,3.95,27.06-9.66,30.78-13.18a34.79,34.79,0,0,0-5.3,8.13c-2.31,4.45-5.19,13.65-1.22,18.51,4.5,5.5,26-2.84,30.34-3.67-1.22,1.27-14.57,18.19-15.21,25-.55,5.74,15.48,9.56,16.87,9.8,0,0-16.46,5.41-18.33,12.29"/><path class="cls-4" d="M294.47,139a15,15,0,0,0-3.41-1,4.94,4.94,0,0,0-2.53.16c-1.54.64-3,4.5,4.25,6.73a44.5,44.5,0,0,0,11.36,1.55"/><path class="cls-4" d="M294.15,85.25c1.63-6.43,2.06-8.2,3.28-12.59,1.81-.1,9.49-.84,11.34-1,0,0,1.44,19.28,1.67,24.76"/><path class="cls-4" d="M310.44,96.69l4.93-.24c.07.87.43,3.7.62,5-2.41.68-15.84,1.31-15.84,1.31l-.61-5.54,4.4-.1"/><path class="cls-4" d="M303.94,97.09c-.45-3.44-1.46-14.24-1.56-15.94-1.24,2.39-2,4.53-3.06,6.74-1.53-.77-4-2-5.17-2.64"/><polyline class="cls-4" points="315.99 77.5 321.55 76.48 328.36 75.22 332.93 74.38"/><polyline class="cls-4" points="318.14 83.27 323.13 82.61 329.83 81.73 334.18 81.15"/><polyline class="cls-4" points="327.23 70.21 328.36 75.22 329.83 81.73 330.9 86.46"/><polyline class="cls-4" points="320.08 70.77 321.55 76.48 323.13 82.61 324.46 87.75"/><ellipse cx="312.99" cy="60.53" rx="29.77" ry="4.14"/><path class="cls-1" d="M267.87,215.4a3.13,3.13,0,0,1-2.86,3.37L124.29,230.13a3.13,3.13,0,0,1-3.37-2.87l-7.5-93a3.13,3.13,0,0,1,2.86-3.37L257,119.56a3.13,3.13,0,0,1,3.37,2.87Z"/><path class="cls-1" d="M276.34,218.74l-8.15-101a7.09,7.09,0,0,0-7.63-6.5l-149.12,12a7.06,7.06,0,0,0-4.63,2.25l-14,12.16h0l-1.63,1.42a6.85,6.85,0,0,0-1.87,5.38l.64,7.94-14.72,17c-3.59,4.16-6.82,11.87-6.38,17.34l3.45,45.41c.52,6.37,3.18,14,13.92,15.4L99,249.28a7.08,7.08,0,0,0,6.16,2.71l149.12-12a5.72,5.72,0,0,0,3-.89L273,225.33A7.09,7.09,0,0,0,276.34,218.74ZM116.28,130.92,257,119.56a3.13,3.13,0,0,1,3.37,2.87l7.5,93a3.13,3.13,0,0,1-2.86,3.37L124.29,230.13a3.13,3.13,0,0,1-3.37-2.86l-7.5-93A3.13,3.13,0,0,1,116.28,130.92Z"/><path class="cls-1" d="M180.72,343.66l1.88-29.93h39.94a11.24,11.24,0,0,1,2.8.39c2.26.61,5,2.19,4.68,6.22,0,0,26.75,0,26,23.32Z"/><polygon class="cls-1" points="223.72 286.74 223.72 286.8 183.5 287.62 183.5 287.57 185.17 245.69 223.72 242.36 223.72 286.74"/><polyline class="cls-2" points="183.5 287.57 185.17 245.69 223.72 242.36 223.72 286.74"/><path class="cls-2" d="M182.68,313.73h-.08l-1.88,29.93H256c.77-23.34-26-23.32-26-23.32.35-4-2.42-5.61-4.68-6.22a11.24,11.24,0,0,0-2.8-.39Z"/><polyline class="cls-2" points="191.32 293.51 183.97 293.23 180.69 293.1 180.69 287.68 183.5 287.62 223.72 286.8 226.43 286.74 225.34 314.12 225.34 314.12"/><polyline class="cls-2" points="183.97 293.23 182.68 313.73 182.67 313.83"/><path class="cls-1" d="M167.63,314.12c2.27.61,5,2.19,4.69,6.22,0,0,26.74,0,26,23.32H123l1.87-29.93h40A11.19,11.19,0,0,1,167.63,314.12Z"/><polygon class="cls-1" points="166.01 286.74 166.02 286.8 125.8 287.62 125.8 287.57 127.26 250.07 166.01 247.15 166.01 286.74"/><polyline class="cls-2" points="125.8 287.57 127.26 250.07 166.01 247.15 166.01 286.74"/><path class="cls-2" d="M125,313.73h-.08L123,343.66H198.3c.76-23.34-26-23.32-26-23.32.34-4-2.42-5.61-4.69-6.22a11.19,11.19,0,0,0-2.79-.39Z"/><polyline class="cls-2" points="133.61 293.51 126.27 293.23 122.99 293.1 122.99 287.68 125.8 287.62 166.02 286.8 168.72 286.74 167.63 314.12 167.63 314.12"/><polyline class="cls-2" points="126.27 293.23 124.97 313.73 124.97 313.83"/><polygon class="cls-5" points="223.72 246.53 184.61 259.76 185.07 245.59 224.4 242.36 223.72 246.53"/><polygon class="cls-5" points="165.58 251.32 126.48 264.56 126.93 250.38 166.26 247.15 165.58 251.32"/><path class="cls-5" d="M123,329.35s-49.79-.66-60.63,6.46c-14.59,9.59,59.8,8.75,59.8,8.75Z"/><path class="cls-2" d="M265,218.77,124.29,230.13a3.13,3.13,0,0,1-3.37-2.87l-7.5-93a3.13,3.13,0,0,1,2.86-3.37L257,119.56a3.13,3.13,0,0,1,3.37,2.87l7.5,93A3.13,3.13,0,0,1,265,218.77Z"/><path class="cls-2" d="M106.81,125.57a7.06,7.06,0,0,1,4.63-2.25l149.12-12a7.09,7.09,0,0,1,7.63,6.5l8.15,101a7.09,7.09,0,0,1-3.32,6.59,7.29,7.29,0,0,1-.78.42,7,7,0,0,1-2.39.62l-149.12,12a7.1,7.1,0,0,1-7.64-6.49L105,131A7.06,7.06,0,0,1,106.81,125.57Z"/><path class="cls-2" d="M257.27,239.06a5.72,5.72,0,0,1-3,.89L105.13,252a7.1,7.1,0,0,1-7.64-6.5l-7.5-93-.64-7.94a6.85,6.85,0,0,1,1.87-5.38,10.86,10.86,0,0,1,1.63-1.42"/><polyline class="cls-2" points="91.13 139.23 91.22 139.15 92.85 137.73 92.86 137.73 106.81 125.57"/><polyline class="cls-2" points="257.27 239.06 273.02 225.33 273.05 225.3"/><path class="cls-2" d="M99,249.28l-12.71-1.65c-10.74-1.4-13.4-9-13.92-15.4l-3.45-45.41c-.44-5.47,2.79-13.18,6.38-17.34l14.72-17"/><path class="cls-2" d="M139.75,170.06s2.29,30.21,35.84,24.17"/><path class="cls-2" d="M135,168.81s3.13,2.08,7.92-.42"/><line class="cls-2" x1="71.55" y1="219.4" x2="82.82" y2="216.76"/><line class="cls-2" x1="72.27" y1="227.86" x2="83.54" y2="225.22"/><path class="cls-1" d="M82.82,172.92l-4.45,33.84c-16-7.91-28.55,10.41-24.42,22.74l0,.18c-5.5,1.17-18.57,14.88-21.1,22.82-9.27-9.68-11.7-22.85-9.81-35.94C29,175.85,65.25,163.5,82.82,172.92Z"/><path class="cls-1" d="M74.48,271.93l0,.06c-2.28,10.86-12.62,8.94-21,5.27C41.4,271.91,36.31,263.41,39,255.46l-.08-.06c-2.4,3.23-4.21,5-6.16,1a5.38,5.38,0,0,1,.11-3.92c2.53-7.94,15.6-21.65,21.1-22.82a3,3,0,0,1,.71-.08c2.67,0,6.51,2.1,3.44,6.45h.3a15.48,15.48,0,0,0,4.61,2.43c7.31-8.28,19.7.47,16.48,8.93l.24.09S86,254.62,80,261.2A6.35,6.35,0,0,1,77,263C77.85,266.52,77.48,270.14,74.48,271.93Z"/><path class="cls-4" d="M79.53,247.42c3.22-8.46-9.17-17.21-16.48-8.93"/><path class="cls-4" d="M39,255.46c-2.71,8,2.38,16.45,14.53,21.8,8.34,3.67,18.68,5.59,21-5.27"/><path class="cls-4" d="M61.31,271.67c6.61,2,10.74,1.71,13.17.26,3-1.79,3.37-5.41,2.54-8.91h0"/><path class="cls-4" d="M82.82,172.92C65.25,163.5,29,175.85,23.08,216.56c-1.89,13.09.54,26.26,9.81,35.94l.1.1"/><path class="cls-4" d="M54,229.5c-4.13-12.33,8.43-30.65,24.42-22.74"/><path class="cls-4" d="M63.05,238.49a15.48,15.48,0,0,1-4.61-2.43"/><path class="cls-4" d="M65.34,261.75C68.75,262.9,73.49,264,77,263a6.35,6.35,0,0,0,3-1.82c5.95-6.58-.27-13.69-.27-13.69"/><path class="cls-4" d="M54.8,239.44a17.39,17.39,0,0,0,3.34-3.39c3.07-4.35-.77-6.44-3.44-6.45a3,3,0,0,0-.71.08c-5.5,1.17-18.57,14.88-21.1,22.82a5.38,5.38,0,0,0-.11,3.92c1.95,3.93,3.76,2.21,6.16-1a55.41,55.41,0,0,1,5.93-7.35"/><ellipse class="cls-6" cx="209.65" cy="138.51" rx="16.04" ry="19.11" transform="translate(-4.77 7.51) rotate(-2.03)"/><ellipse class="cls-6" cx="181.84" cy="139.5" rx="15.55" ry="19.11" transform="translate(-4.83 6.53) rotate(-2.03)"/><ellipse cx="186.75" cy="134" rx="4.44" ry="8.17" transform="translate(-4.63 6.7) rotate(-2.03)"/><ellipse class="cls-1" cx="183" cy="132.18" rx="2.4" ry="2.51" transform="translate(-4.57 6.56) rotate(-2.03)"/><ellipse cx="212.32" cy="132.53" rx="4.44" ry="8.17" transform="translate(-4.56 7.6) rotate(-2.03)"/><ellipse class="cls-1" cx="208.56" cy="130.71" rx="2.4" ry="2.51" transform="translate(-4.5 7.47) rotate(-2.03)"/></svg>