<svg id="Layer_1" data-name="Layer 1" xmlns="http://www.w3.org/2000/svg" viewBox="0 0 400 400"><defs><style>.cls-1{fill:#fff;}.cls-2,.cls-3{fill:none;stroke:#000;stroke-linecap:round;stroke-width:1.88px;}.cls-2{stroke-miterlimit:10;}.cls-3{stroke-linejoin:round;}</style></defs><title>Desk_Dudes25</title><path class="cls-1" d="M318.15,283.5a2.9,2.9,0,0,1-.4,3.82l-39.19,34.07a2.31,2.31,0,0,1-3.46-.45l-.21-.29a2.9,2.9,0,0,1,.41-3.81l.42-.37,38.77-33.71a2.32,2.32,0,0,1,3.46.45Z"/><path class="cls-1" d="M316.43,244.53,311.7,251c-1.16-1.46-2.39-2.87-4.41-2.8-1.24,0-2.2.77-3.5.71-1.72-.09-3-1.2-4.08-2.54l4.73-6.43c1.11,1.34,2.35,2.45,4.08,2.54,1.3.06,2.26-.67,3.49-.71C314,241.65,315.27,243.06,316.43,244.53Z"/><path class="cls-1" d="M287.43,286.36c-2.95-10.47,6.41-26,16-25.48,8.57.49,14.31,12.63,11.87,21.17l-.82.71-38.77,33.71c-3.67,2.65-11.3-7.08-8.17-12.53a5.43,5.43,0,0,1,1.49-1.67l17.74-15.42.54-.47Z"/><path class="cls-1" d="M304.69,135.71l-5.73,4c-4.89-2.15-4.19-8.1-4.19-8.1L301,129l.1,0a0,0,0,0,1,0,0C301.06,129.55,300.59,134.26,304.69,135.71Z"/><path class="cls-1" d="M304.55,178.46s.95,5.91-3.85,8.27l-5.89-3.81c4.18-1.68,3.32-6.64,3.27-6.89h.1Z"/><path class="cls-1" d="M303.73,217.24l-5.89,3.81c-4.8-2.35-3.85-8.27-3.85-8.27l6.37-2.43h.1s0,0,0,0C300.36,211,299.7,215.63,303.73,217.24Z"/><path class="cls-1" d="M278.26,131.21l.07-.05c8.94-2.12,11.16,12.25,9.33,16-1,2-2.63,2.66-4.12,2.16a4.81,4.81,0,0,1-2.76-2.94l-.11,0a5.64,5.64,0,0,1-.35.77c-1.73,3.18-7.74,1.08-8.31-2.06s-2.73-6.36-5.89-6.93c-2.68-.48-5.23.94-7,3.13-1.13-3.86-.91-10.1,2.52-12.27a4.85,4.85,0,0,1,6.56,1C269,127.36,274.87,126.67,278.26,131.21Z"/><path class="cls-1" d="M267.29,279.23l9.19-6.88,10.3,14.5L269,302.27a5.43,5.43,0,0,0-1.49,1.67l-.1-.06-10.06-17.23Z"/><path class="cls-1" d="M272,145.08c.57,3.14,6.58,5.24,8.31,2.06a5.64,5.64,0,0,0,.35-.77l.11,0a4.81,4.81,0,0,0,2.76,2.94c2.61,4.92,0,10.64-3.31,11,3.09.3,2.33,5-1.25,4.53l-.24,0-17.95-3.06a2.68,2.68,0,0,1-1.09-.43c-1.58-1.09-1.91-3.79.45-4l-.24-.16c-3.4-3.42-3.56-7.73-2.86-11.38a10.71,10.71,0,0,1,2.11-4.53c1.73-2.19,4.28-3.61,7-3.13C269.28,138.72,271.38,141.83,272,145.08Z"/><path class="cls-1" d="M274.79,103.88l7,3.88c-.45,1.69-1.12,3.21-2.66,4-1.15.6-2.32.33-3.47.81-1.87.78-2.4,2.57-2.84,4.38l-7-3.88c.45-1.81,1-3.6,2.85-4.38,1.14-.48,2.32-.22,3.47-.81C273.68,107.09,274.35,105.56,274.79,103.88Z"/><path class="cls-1" d="M272.15,200l7,3.88c-.45,1.68-1.12,3.21-2.65,4-1.16.59-2.33.33-3.47.8-1.88.78-2.4,2.58-2.85,4.39l-7-3.88c.45-1.82,1-3.61,2.85-4.38,1.15-.48,2.32-.22,3.47-.82C271,203.23,271.71,201.7,272.15,200Z"/><path class="cls-1" d="M279,164.89v0S266.5,222.06,212.64,190l-.44-.27,10.2-17.11,0,0c30.93,19.84,37.19-11,37.25-11.28a2.68,2.68,0,0,0,1.09.43l17.95,3.06Z"/><path class="cls-1" d="M267.29,279.23l-9.9,7.42-6.62-11.35c5.56,1,12.16-.54,19.8-6.73a21.44,21.44,0,0,0,1.91-1.75h0l.15.14,3.84,5.39Z"/><path class="cls-1" d="M250.77,275.3c-10.23-1.82-17-12.15-20.24-17.65-5.27-8.78-20-35.44-20-35.44a5.63,5.63,0,0,1-.72-3,5.56,5.56,0,0,1,.24-1.44l3.61-12.22.5-1.68a1.87,1.87,0,0,1,3.13-.75l6.18,7.08c6,6.88,13.27,5.89,13.27,5.89,13.09-.37,25.68,1.29,33.56,12,9.09,12.38,11.92,28.78,2.21,38.74h0a21.44,21.44,0,0,1-1.91,1.75C262.93,274.76,256.33,276.29,250.77,275.3Zm12.47-10.91c8-4.48,9-16.92,2.53-27.31s-18.14-15-26-10.32-9,16.91-2.53,27.3S251.8,270.79,263.24,264.39Z"/><path class="cls-1" d="M253.32,114.05a11.27,11.27,0,0,1-1.11,8.19c-4.14,7.22-17.18,29.18-29.81,50.38l-10.2,17.11c-.69,1.14-1.35,2.27-2,3.37l-.07-.25-7.92-11.24h0l48.92-69.39C252.05,111.66,252.88,112.51,253.32,114.05Z"/><path class="cls-1" d="M246.49,88s4.15,4.32,1.53,9l-7,.22c2.47-3.75-1-7.33-1.22-7.53h0l.09-.06Z"/><path class="cls-1" d="M232.74,303.66l-2.65,7.53c-1.86-.13-3.72-.35-4.8-2.06-.67-1.05-.61-2.25-1.39-3.28-1-1.39-2.66-1.79-4.4-1.94l2.65-7.53c1.74.15,3.36.55,4.4,1.94.78,1,.72,2.23,1.38,3.28C229,303.31,230.87,303.53,232.74,303.66Z"/><path class="cls-1" d="M216.38,122.45c6.13,1.29,6.07,8.24,4.54,12s-5.17,8-15.23,9.49c-6.84,1-14.71-1.59-18-8-2.11-4.09-.28-11,5.26-10.48,2.33.22,4.35,1.56,6.71,1.8a12.38,12.38,0,0,0,8-2.25C210.2,123.18,213,121.75,216.38,122.45Z"/><path class="cls-1" d="M218.24,263.63l-.21,7c-4.66,2.62-9-1.52-9-1.52l1.6-6.61h0l.07-.06.14.12h0C211.6,263.23,214.85,265.87,218.24,263.63Z"/><path class="cls-1" d="M202.78,105.2a12.57,12.57,0,0,0-2-5.48,8.43,8.43,0,0,1,3.87-3.21,6.59,6.59,0,0,1,2.29-.42c4.6,0,8.33,5,8.33,11.07s-3.73,11.08-8.33,11.08a7.56,7.56,0,0,1-6.15-3.63,13.28,13.28,0,0,0,2.16-7.45A15.74,15.74,0,0,0,202.78,105.2Z"/><path class="cls-1" d="M210.19,193.1l3.45,12.43L210,217.75a5.56,5.56,0,0,0-.24,1.44l-7.59-12.7Z"/><path class="cls-1" d="M210.19,193.1h0l-8,13.39-8-13.39.08-.25,7.92-11.24,7.92,11.24Zm-5.59.36A2.64,2.64,0,1,0,202,196.1,2.64,2.64,0,0,0,204.6,193.46Z"/><path class="cls-1" d="M204.23,248.43l-5.89,3.81c-4.81-2.36-3.85-8.27-3.85-8.27l6.36-2.43h.1v0h0C200.85,242.14,200.2,246.81,204.23,248.43Z"/><path class="cls-1" d="M202,190.82a2.64,2.64,0,1,1-2.64,2.64A2.64,2.64,0,0,1,202,190.82Z"/><path class="cls-1" d="M202.78,105.2a15.74,15.74,0,0,1,.13,2,13.28,13.28,0,0,1-2.16,7.45,13.88,13.88,0,0,1,0-14.89A12.57,12.57,0,0,1,202.78,105.2Z"/><path class="cls-1" d="M202.2,181.61l-7.92,11.24-.08.25-2-3.33c-3.24-5.43-6.71-11.24-10.21-17.12-12.63-21.21-25.68-43.19-29.83-50.42-2.76-4.81-1.09-11.33,1.09-10l48.93,69.39Z"/><path class="cls-1" d="M194.2,193.1l8,13.39c-4.58,7.66-7.55,12.62-7.59,12.7a6,6,0,0,0-.24-1.44l-3.62-12.22Z"/><path class="cls-1" d="M194.61,219.19a5.72,5.72,0,0,1-.72,3s-14.76,26.66-20,35.45c-3.26,5.43-9.87,15.59-19.91,17.58-5.64,1.11-12.34-.36-20.14-6.67a22.89,22.89,0,0,1-1.77-1.61c-9.89-9.94-7.07-26.44,2.07-38.88,7.87-10.72,20.47-12.38,33.56-12,0,0,7.26,1,13.27-5.9l6.18-7.07a1.87,1.87,0,0,1,3.13.75l.49,1.68,3.62,12.22a6,6,0,0,1,.24,1.44Zm-27.42,34.87c6.48-10.39,5.35-22.61-2.54-27.3s-19.53-.07-26,10.32-5.48,22.83,2.53,27.31C152.59,270.79,160.7,264.46,167.19,254.06Z"/><path class="cls-1" d="M192.22,189.77l-.41.23c-53.85,32.06-66.26-25.08-66.26-25.08v0l.17,0,18-3.06a2.64,2.64,0,0,0,1.08-.43c.06.3,6.33,31.12,37.26,11.28C185.51,178.53,189,184.34,192.22,189.77Z"/><path class="cls-1" d="M187,282.42l-1,6.75-.13,0c-.58-.45-4.25-3.09-7.54-.42l-.47-7C182.24,278.72,187,282.42,187,282.42Z"/><path class="cls-1" d="M165.4,305.3c1.1,1.69.53,3.47-.13,5.22l-8-.73c.66-1.76,1.24-3.53.13-5.23-.67-1-1.79-1.49-2.41-2.63-.81-1.52-.5-3.16.08-4.81l7.95.74c-.59,1.64-.9,3.28-.08,4.81C163.6,303.81,164.72,304.26,165.4,305.3Z"/><path class="cls-1" d="M162.13,95.28l-7,3.89c-.45-1.82-1-3.61-2.85-4.39-1.14-.48-2.32-.22-3.47-.81-1.54-.8-2.21-2.32-2.65-4l7-3.88c.45,1.69,1.12,3.21,2.66,4,1.14.59,2.32.33,3.46.81C161.16,91.67,161.68,93.47,162.13,95.28Z"/><path class="cls-1" d="M137.4,279.23l-9.19-6.88L132,267h0a22.89,22.89,0,0,0,1.77,1.61c7.8,6.31,14.5,7.78,20.14,6.67l-6.67,11.41Z"/><path class="cls-1" d="M144.94,157.49c1.65.61,1.24,2.89-.19,3.88a2.64,2.64,0,0,1-1.08.43l-18,3.06-.17,0c-3.63.52-4.42-4.22-1.32-4.52-3.35-.37-5.92-6.09-3.3-11h0a4.83,4.83,0,0,0,2.76-2.94l.11,0h0a5.47,5.47,0,0,0,.35.76c1.72,3.18,7.73,1.08,8.31-2.06s2.73-6.36,5.88-6.93c2.69-.48,5.23.93,7,3.12a10.57,10.57,0,0,1,2.11,4.54c.71,3.65.55,8-2.86,11.38Z"/><path class="cls-1" d="M137.4,279.23l9.89,7.42-10.06,17.23h0l-.09.05h0a5.67,5.67,0,0,0-1.49-1.66L117.9,286.85l10.31-14.5Z"/><path class="cls-1" d="M123.79,146.38h0l-.11,0a4.83,4.83,0,0,1-2.76,2.94c-1.5.5-3.14-.14-4.12-2.16-1.84-3.78.39-18.15,9.33-16l.07.05c3.39-4.54,9.26-3.84,10-1.2a4.86,4.86,0,0,1,6.57-1c3.43,2.17,4,8.14,2.87,12l-.36.26c-1.73-2.19-4.27-3.6-7-3.12-3.15.57-5.25,3.68-5.88,6.93s-6.59,5.24-8.31,2.06A5.47,5.47,0,0,1,123.79,146.38Z"/><path class="cls-1" d="M117.26,286.35l.11,0,.53.47,17.75,15.42a5.67,5.67,0,0,1,1.49,1.66h0c3.13,5.45-4.5,15.17-8.17,12.53L90.2,282.76h0l-.8-.7c-2.44-8.54,3.3-20.68,11.87-21.17,9.59-.54,18.93,15,16,25.45Z"/><path class="cls-1" d="M129.39,316.84a2.9,2.9,0,0,1,.4,3.81l-.2.29a2.31,2.31,0,0,1-3.46.45L86.94,287.32a2.92,2.92,0,0,1-.41-3.82l.2-.29a2.32,2.32,0,0,1,3.45-.46h0L129,316.47Z"/><path class="cls-1" d="M128,200.93l.07.08c-.27.32-3.32,4.1-.61,7.58l-7,.34c-3-4.46.83-9.09.83-9.09Z"/><path class="cls-1" d="M120.17,102.66l-5.9,3.81c-4.8-2.35-3.85-8.27-3.85-8.27l6.37-2.43h.1a.18.18,0,0,1,0,0C116.79,96.37,116.14,101,120.17,102.66Z"/><path class="cls-1" d="M107.94,236.43l-.2,7c-4.67,2.62-9-1.52-9-1.52l1.61-6.61h0l.06-.07.15.13a7.29,7.29,0,0,0,4.55,2A5,5,0,0,0,107.94,236.43Z"/><path class="cls-1" d="M99.2,200.72l4.6,6.52c-1.75.64-3.48,1.35-4,3.3-.35,1.18,0,2.33-.44,3.53-.63,1.62-2.08,2.44-3.7,3.07L91,210.61c1.63-.62,3.08-1.45,3.71-3.06.47-1.21.08-2.35.44-3.54C95.72,202.07,97.45,201.35,99.2,200.72Z"/><path class="cls-1" d="M102.3,130l-5.73,4.06c-4.89-2.15-4.19-8.1-4.19-8.1l6.25-2.7.1,0v0C98.66,123.89,98.21,128.59,102.3,130Z"/><path class="cls-1" d="M100.7,170.85,96,177.28c-1.16-1.47-2.39-2.88-4.42-2.8-1.23,0-2.2.76-3.49.7-1.73-.08-3-1.19-4.08-2.54l4.73-6.43c1.1,1.35,2.35,2.46,4.08,2.54,1.29.06,2.25-.66,3.49-.71C98.32,168,99.54,169.38,100.7,170.85Z"/><path class="cls-2" d="M236.72,216.07c13.09-.37,25.68,1.29,33.56,12,9.09,12.38,11.92,28.78,2.21,38.74h0a21.44,21.44,0,0,1-1.91,1.75c-7.64,6.19-14.24,7.72-19.8,6.73-10.23-1.82-17-12.15-20.24-17.65-5.27-8.78-20-35.44-20-35.44a5.63,5.63,0,0,1-.72-3,5.56,5.56,0,0,1,.24-1.44l3.61-12.22.5-1.68a1.87,1.87,0,0,1,3.13-.75l6.18,7.08c6,6.88,13.27,5.89,13.27,5.89"/><line class="cls-3" x1="210.19" y1="193.1" x2="213.64" y2="205.53"/><path class="cls-3" d="M194.2,193.1l-2-3.33c-3.24-5.43-6.71-11.24-10.21-17.12-12.63-21.21-25.68-43.19-29.83-50.42-2.76-4.81-1.09-11.33,1.09-10l48.93,69.39"/><path class="cls-3" d="M209.79,219.19l-7.59-12.7"/><path class="cls-3" d="M263.24,264.39c8-4.48,9-16.92,2.53-27.31s-18.14-15-26-10.32-9,16.91-2.53,27.3S251.8,270.79,263.24,264.39Z"/><path class="cls-2" d="M194.61,219.19a6,6,0,0,0-.24-1.44l-3.62-12.22-.49-1.68a1.87,1.87,0,0,0-3.13-.75L181,210.17c-6,6.89-13.27,5.9-13.27,5.9"/><path class="cls-2" d="M167.68,216.07c-13.09-.37-25.69,1.29-33.56,12-9.14,12.44-12,28.94-2.07,38.88a22.89,22.89,0,0,0,1.77,1.61c7.8,6.31,14.5,7.78,20.14,6.67,10-2,16.65-12.15,19.91-17.58,5.26-8.79,20-35.45,20-35.45a5.72,5.72,0,0,0,.72-3"/><path class="cls-3" d="M194.61,219.19h0c0-.08,3-5,7.59-12.7l8-13.39h0c.66-1.1,1.32-2.23,2-3.37l10.2-17.11c12.63-21.2,25.67-43.16,29.81-50.38a11.27,11.27,0,0,0,1.11-8.19c-.44-1.54-1.27-2.39-2.2-1.83L202.2,181.61h0l-7.92,11.24-.08.25-3.45,12.43"/><path class="cls-3" d="M167.19,254.06c-6.49,10.4-14.6,16.73-26,10.33-8-4.48-9-16.92-2.53-27.31s18.14-15,26-10.32S173.67,243.67,167.19,254.06Z"/><path class="cls-2" d="M123.94,137.7c-1,4.53-.72,7.14-.15,8.68a5.47,5.47,0,0,0,.35.76c1.72,3.18,7.73,1.08,8.31-2.06"/><path class="cls-2" d="M136.23,130.09a.24.24,0,0,0,0-.08c-.75-2.64-6.62-3.34-10,1.2a10.69,10.69,0,0,0-1.11,1.89"/><path class="cls-2" d="M126.13,131.16c-8.94-2.12-11.17,12.25-9.33,16,1,2,2.62,2.66,4.12,2.16a4.83,4.83,0,0,0,2.76-2.94"/><path class="cls-2" d="M144.54,157.19c3.41-3.42,3.57-7.73,2.86-11.38a10.57,10.57,0,0,0-2.11-4.54c-1.73-2.19-4.27-3.6-7-3.12-3.15.57-5.25,3.68-5.88,6.93a8.6,8.6,0,0,0,.23,5.31c1.58,3.48,5.34,1.76,7.35-.3"/><path class="cls-2" d="M143.46,157.37a3.25,3.25,0,0,1,1.48.12c1.65.61,1.24,2.89-.19,3.88a2.64,2.64,0,0,1-1.08.43l-18,3.06-.17,0c-3.63.52-4.42-4.22-1.32-4.52"/><path class="cls-2" d="M145.65,141c1.13-3.86.56-9.83-2.87-12a4.86,4.86,0,0,0-6.57,1c-1.39,1.55-2.47,4.07-2.91,7.64"/><path class="cls-2" d="M120.92,149.35c-2.62,4.92,0,10.64,3.3,11l11.16-1.79"/><path class="cls-2" d="M125.55,164.92S138,222.06,191.81,190"/><path class="cls-2" d="M144.75,161.37h0c.06.3,6.33,31.12,37.26,11.28"/><path class="cls-2" d="M280.51,137.7c1.05,4.52.73,7.13.16,8.67a5.64,5.64,0,0,1-.35.77c-1.73,3.18-7.74,1.08-8.31-2.06"/><path class="cls-2" d="M268.22,130.09a.24.24,0,0,0,0-.08c.75-2.65,6.63-3.34,10,1.2a10.09,10.09,0,0,1,1.1,1.89"/><path class="cls-2" d="M278.33,131.16c8.94-2.12,11.16,12.25,9.33,16-1,2-2.63,2.66-4.12,2.16a4.81,4.81,0,0,1-2.76-2.94"/><path class="cls-2" d="M259.91,157.19c-3.4-3.42-3.56-7.73-2.86-11.38a10.71,10.71,0,0,1,2.11-4.53c1.73-2.19,4.28-3.61,7-3.13,3.16.57,5.26,3.68,5.89,6.93a8.67,8.67,0,0,1-.23,5.31c-1.58,3.48-5.34,1.76-7.35-.3"/><path class="cls-2" d="M261,157.37a5,5,0,0,0-.85,0c-2.36.23-2,2.93-.45,4a2.68,2.68,0,0,0,1.09.43l17.95,3.06.24,0c3.58.46,4.34-4.23,1.25-4.53"/><path class="cls-2" d="M259.16,141.28c-1.13-3.86-.91-10.1,2.52-12.27a4.85,4.85,0,0,1,6.56,1c1.4,1.55,2.48,4.07,2.92,7.64"/><path class="cls-2" d="M283.54,149.35c2.61,4.92,0,10.64-3.31,11l-11.16-1.79"/><path class="cls-2" d="M279,164.92S266.5,222.06,212.64,190"/><path class="cls-2" d="M259.7,161.37h0c-.06.31-6.32,31.12-37.25,11.28"/><path class="cls-2" d="M129,316.47c3.67,2.64,11.3-7.08,8.17-12.53h0a5.67,5.67,0,0,0-1.49-1.66L117.9,286.85l-.53-.47h0"/><path class="cls-2" d="M116.16,289.05a12.25,12.25,0,0,0,1.1-2.7v0c2.91-10.47-6.43-26-16-25.45-8.57.49-14.31,12.63-11.87,21.17l.8.7"/><path class="cls-2" d="M90.18,282.75a2.32,2.32,0,0,0-3.45.46l-.2.29a2.92,2.92,0,0,0,.41,3.82l39.19,34.07a2.31,2.31,0,0,0,3.46-.45l.2-.29a2.9,2.9,0,0,0-.4-3.81l-.42-.37L90.2,282.76Z"/><polyline class="cls-2" points="117.91 286.85 128.21 272.35 132.04 266.96"/><polyline class="cls-2" points="137.23 303.88 137.23 303.88 147.29 286.65 153.96 275.24"/><polyline class="cls-2" points="128.21 272.35 137.4 279.23 147.29 286.65"/><line class="cls-2" x1="132.04" y1="275.24" x2="129.4" y2="279.5"/><polyline class="cls-2" points="137.41 279.21 137.4 279.23 134.77 283.47"/><line class="cls-2" x1="142.62" y1="283.47" x2="139.97" y2="287.74"/><path class="cls-2" d="M275.72,316.47c-3.67,2.65-11.3-7.08-8.17-12.53a5.43,5.43,0,0,1,1.49-1.67l17.74-15.42.54-.47"/><path class="cls-2" d="M288.53,289.05a12.17,12.17,0,0,1-1.1-2.69c-2.95-10.47,6.41-26,16-25.48,8.57.49,14.31,12.63,11.87,21.17l-.82.71"/><path class="cls-2" d="M314.49,282.76a2.32,2.32,0,0,1,3.46.45l.2.29a2.9,2.9,0,0,1-.4,3.82l-39.19,34.07a2.31,2.31,0,0,1-3.46-.45l-.21-.29a2.9,2.9,0,0,1,.41-3.81l.42-.37Z"/><polyline class="cls-2" points="286.78 286.85 276.48 272.35 272.64 266.96"/><polyline class="cls-2" points="267.45 303.88 257.39 286.65 250.77 275.3 250.73 275.23"/><polyline class="cls-2" points="276.48 272.35 267.29 279.23 257.39 286.65"/><line class="cls-2" x1="272.64" y1="275.24" x2="275.28" y2="279.5"/><polyline class="cls-2" points="267.28 279.21 267.29 279.23 269.92 283.47"/><line class="cls-2" x1="262.07" y1="283.47" x2="264.71" y2="287.74"/><path class="cls-2" d="M216.38,122.45c-3.38-.7-6.18.73-8.73,2.52a12.38,12.38,0,0,1-8,2.25c-2.36-.24-4.38-1.58-6.71-1.8-5.54-.54-7.37,6.39-5.26,10.48,3.33,6.46,11.2,9.08,18,8,10.06-1.53,13.69-5.69,15.23-9.49S222.51,123.74,216.38,122.45Z"/><path class="cls-2" d="M200.75,114.61a7.59,7.59,0,0,1-6.16,3.63c-4.6,0-8.33-5-8.33-11.08s3.73-11.07,8.33-11.07a7.56,7.56,0,0,1,6.15,3.63"/><path class="cls-2" d="M198.58,108.07s-2.62-3.73-9-2.83"/><path class="cls-2" d="M192.62,132.72s10,8,23.91-2.08"/><path class="cls-2" d="M211.64,92s4.66.72,7.46,6.87"/><path class="cls-2" d="M199,92.66a9.81,9.81,0,0,1,5.66,3.85"/><path class="cls-2" d="M204.61,96.51a6.59,6.59,0,0,1,2.29-.42c4.6,0,8.33,5,8.33,11.07s-3.73,11.08-8.33,11.08a7.56,7.56,0,0,1-6.15-3.63,13.88,13.88,0,0,1,0-14.89A8.43,8.43,0,0,1,204.61,96.51Z"/><path class="cls-2" d="M211.4,108.07s-2.51-3.59-8.62-2.87l-.38,0"/><path class="cls-2" d="M204.6,193.46a2.64,2.64,0,1,1-2.64-2.64A2.64,2.64,0,0,1,204.6,193.46Z"/><polyline class="cls-2" points="253.32 114.05 253.32 114.05 208.91 181.38"/><line class="cls-2" x1="151.2" y1="114.05" x2="195.62" y2="181.38"/><path class="cls-3" d="M116.89,95.77a.18.18,0,0,1,0,0c-.09.55-.74,5.22,3.29,6.84l-5.9,3.81c-4.8-2.35-3.85-8.27-3.85-8.27l6.37-2.43h0"/><path class="cls-3" d="M300.46,210.35h0s0,0,0,0c-.09.55-.75,5.23,3.28,6.84l-5.89,3.81c-4.8-2.35-3.85-8.27-3.85-8.27l6.37-2.43"/><path class="cls-3" d="M201,241.54h0v0h0c-.1.55-.75,5.22,3.28,6.84l-5.89,3.81c-4.81-2.36-3.85-8.27-3.85-8.27l6.36-2.43"/><path class="cls-3" d="M185.94,289.26l0,0-.06-.05c-.58-.45-4.25-3.09-7.54-.42l-.47-7c4.39-3,9.1.65,9.1.65l-1,6.75"/><path class="cls-3" d="M128.13,201l0,0c-.27.32-3.32,4.1-.61,7.58l-7,.34c-3-4.46.83-9.09.83-9.09l6.72,1.09"/><path class="cls-3" d="M100.4,235.22h0l.15.13a7.29,7.29,0,0,0,4.55,2,5,5,0,0,0,2.83-.89l-.2,7c-4.67,2.62-9-1.52-9-1.52l1.61-6.61h0"/><path class="cls-3" d="M210.7,262.41l0,0,.14.12h0c.74.67,4,3.31,7.38,1.07l-.21,7c-4.66,2.62-9-1.52-9-1.52l1.6-6.61h0"/><path class="cls-3" d="M298.08,176h0c.05.25.91,5.21-3.27,6.89l5.89,3.81c4.8-2.36,3.85-8.27,3.85-8.27L298.18,176"/><path class="cls-3" d="M239.78,89.69h0c.2.2,3.69,3.78,1.22,7.53l7-.22c2.62-4.67-1.53-9-1.53-9l-6.62,1.61"/><path class="cls-3" d="M98.74,123.28v.06c-.07.55-.52,5.25,3.57,6.69l-5.73,4.06c-4.89-2.15-4.19-8.1-4.19-8.1l6.25-2.7"/><path class="cls-3" d="M301.13,129v0a0,0,0,0,1,0,0c-.06.54-.53,5.25,3.57,6.7l-5.73,4c-4.89-2.15-4.19-8.1-4.19-8.1L301,129"/><path class="cls-3" d="M162.13,95.28c-.45-1.81-1-3.61-2.85-4.38-1.14-.48-2.32-.22-3.46-.81-1.54-.8-2.21-2.32-2.66-4l-7,3.88c.44,1.69,1.11,3.21,2.65,4,1.15.59,2.33.33,3.47.81,1.87.78,2.4,2.57,2.85,4.39Z"/><path class="cls-3" d="M265.82,113.08c.45-1.81,1-3.6,2.85-4.38,1.14-.48,2.32-.22,3.47-.81,1.54-.8,2.21-2.33,2.65-4l7,3.88c-.45,1.69-1.12,3.21-2.66,4-1.15.6-2.32.33-3.47.81-1.87.78-2.4,2.57-2.84,4.38Z"/><path class="cls-3" d="M100.7,170.85c-1.16-1.47-2.38-2.88-4.41-2.81-1.24.05-2.2.77-3.49.71-1.73-.08-3-1.19-4.08-2.54L84,172.64c1.11,1.35,2.35,2.46,4.08,2.54,1.29.06,2.26-.66,3.49-.7,2-.08,3.26,1.33,4.42,2.8Z"/><path class="cls-3" d="M99.2,200.72c-1.75.63-3.48,1.35-4,3.29-.36,1.19,0,2.33-.44,3.54-.63,1.61-2.08,2.44-3.71,3.06l4.61,6.53c1.62-.63,3.07-1.45,3.7-3.07.47-1.2.09-2.35.44-3.53.57-1.95,2.3-2.66,4-3.3Z"/><path class="cls-3" d="M316.43,244.53c-1.16-1.47-2.39-2.88-4.42-2.8-1.23,0-2.19.77-3.49.71-1.73-.09-3-1.2-4.08-2.54l-4.73,6.43c1.11,1.34,2.36,2.45,4.08,2.54,1.3.06,2.26-.67,3.5-.71,2-.07,3.25,1.34,4.41,2.8Z"/><path class="cls-3" d="M165.27,310.52c.66-1.75,1.23-3.53.13-5.22-.68-1-1.8-1.49-2.41-2.63-.82-1.53-.51-3.17.08-4.81l-7.95-.74c-.58,1.65-.89,3.29-.08,4.81.62,1.14,1.74,1.59,2.41,2.63,1.11,1.7.53,3.47-.13,5.23Z"/><path class="cls-3" d="M263.18,209.22c.45-1.82,1-3.61,2.85-4.38,1.15-.48,2.32-.22,3.47-.82,1.54-.79,2.21-2.32,2.65-4l7,3.88c-.45,1.68-1.12,3.21-2.65,4-1.16.59-2.33.33-3.47.8-1.88.78-2.4,2.58-2.85,4.39Z"/><path class="cls-3" d="M230.09,311.19c-1.86-.13-3.72-.35-4.8-2.06-.67-1.05-.61-2.25-1.39-3.28-1-1.39-2.66-1.79-4.4-1.94l2.65-7.53c1.74.15,3.36.55,4.4,1.94.78,1,.72,2.23,1.38,3.28,1.08,1.71,2.94,1.93,4.81,2.06Z"/><ellipse cx="201.87" cy="339.12" rx="63.17" ry="6.54"/></svg>