<svg id="Layer_1" data-name="Layer 1" xmlns="http://www.w3.org/2000/svg" viewBox="0 0 400 400"><defs><style>.cls-1,.cls-3{fill:#fff;}.cls-2{fill:none;}.cls-2,.cls-3{stroke:#000;stroke-linecap:round;stroke-miterlimit:10;stroke-width:1.88px;}</style></defs><title>Desk_Dudes18</title><path class="cls-1" d="M127.7,316.84v-.08s6-2.78,2.46-5.14h0a5.1,5.1,0,0,0-.48-.28c-5.55-3-24.26-16-23.74-19.18s-19,1.56-19.6,11.6l1.36,2.06,19.65,29.93v0a2.93,2.93,0,0,0,2.45,1.31h34.56S154.45,315.41,127.7,316.84Z"/><path class="cls-1" d="M237.38,310.84c-8.57-3.9-17.28,1.72-22.9,6.88l-.19-.08c-.52-3.75-4.94-1.13-4.94-1.13l-.58-.14c0,.09-.05.18-.07.26L182,320.77l-.18.22s-7.26,5.73-4.76,17.4l67.57-2.68,2-.09S256.7,319.63,237.38,310.84Z"/><path class="cls-1" d="M149.49,282.39a5.4,5.4,0,0,0,4.56,3.07c-2.68,15.25-15,22.52-23.9,26.16h0a5.1,5.1,0,0,0-.48-.28c-5.55-3-24.26-16-23.74-19.18,25.41,1.79,31.48-23,31.48-23a22.49,22.49,0,0,0,9,2.9l2.19-2.24C148.66,270.51,149.45,282.33,149.49,282.39Z"/><path class="cls-1" d="M303,148.94a78.19,78.19,0,0,0,16.51,1.67c0,2-.55,49.73-47.64,47.36l-.1-.12c12.79-11.1,21.37-19.9,21.58-23.68,0-.06-.26-.79-.68-1.93,8.89-4.21,8-23.53,8-23.53Z"/><path class="cls-1" d="M293.1,173c.41,1.15.66,1.88.66,1.94-.25,3.78-8.91,12.49-21.82,23.46-34.37,29.2-98.84,74.4-114.69,85.23a6.27,6.27,0,0,1-3.88,1.15,5.4,5.4,0,0,1-4.53-3.11c0-.06-.7-11.89-.74-12.54l82.72-83.21L275.55,155c3.76-2.56,9.75-2.12,11.51,2.08C288.66,160.87,291.75,169.2,293.1,173Z"/><path class="cls-1" d="M138,240.05a4.73,4.73,0,1,1-4.72,4.73A4.72,4.72,0,0,1,138,240.05Z"/><path class="cls-1" d="M146.34,340v.77a3,3,0,0,1-3,2.95h-39a2.94,2.94,0,0,1-2.55-1.48L83.62,308.54c-.88-1.53-.72-3.27.44-3.81a2.95,2.95,0,0,1,3.63,1.09l19.65,29.93v0l.86,1.31h35.18A3,3,0,0,1,146.34,340Z"/><path class="cls-1" d="M324.17,124.61a6,6,0,0,0-3.19-.84c-2.36,0-4.8,1.23-6.83,2.39s-4.76,3.68-3.64,6.29c.92,2.17,3.3,1.94,5.56,1l.08.19a17.88,17.88,0,0,1,4.72-2.48,6.54,6.54,0,0,1,5.66.39C327.92,128.73,326.25,125.86,324.17,124.61Z"/><path class="cls-1" d="M311.3,113.92c-3.13.61-6.68,2.75-7.69,5.7a5.78,5.78,0,0,0,1.27,5.69,2.24,2.24,0,0,0,.34.27c3.58-.88,6.08-4.25,6.08-8.42Z"/><path class="cls-1" d="M290.89,130.8a9.71,9.71,0,0,1,5.82-8c2.16-.87,4.9-1,6.55.73a4.57,4.57,0,0,1,1.29,2.16h.06l.61-.13c3.58-.88,6.08-4.25,6.08-8.42v-3.24a9.54,9.54,0,0,1,1.46-.18,8.27,8.27,0,0,1,7.95,5.69,7.4,7.4,0,0,1,.27,4.33h0c-2.36,0-4.8,1.23-6.83,2.39s-4.76,3.68-3.64,6.29c.92,2.17,3.3,1.94,5.56,1l.08.19a18,18,0,0,1,4.72-2.48,6.54,6.54,0,0,1,5.66.39,9.18,9.18,0,0,1,2.36,1.81c2.79,3,.23,9.54-6.2,11,2.16,1.81,2,5.81-1.07,6.13-.62.07-1.35.11-2.16.13v-.07L303,148.94c-3.17-.72-5.51-1.66-5.79-2.76-.63-2.39.52-3.86,1.57-4.08l.46.07v0C293.33,141.07,290.75,135.24,290.89,130.8Z"/><path class="cls-1" d="M176.78,164.49c.28-6.56,0-14,.67-21.63l.11-.2c-4.53-4.27-3.05-12,3-14.6l-.05-.12c3-8.54,8.38-16.46,18.73-23.5,19.88-13.5,42.3-5.6,57.77,11,1.5,1.6,1.84,5-.06,6.13l-2.15,1.3,0,0L260.47,155l-30,30.8-81.86,84.06-2.19,2.24a22.49,22.49,0,0,1-9-2.9c-14.94-8.33-25.94-33.13-1.14-59.77,5.71-6.13,39.35-41.22,40.33-45Zm-34.11,80.29A4.72,4.72,0,1,0,138,249.5,4.72,4.72,0,0,0,142.67,244.78Z"/><path class="cls-1" d="M230.48,185.8l-81.86,84.06-2.19,2.24a22.16,22.16,0,0,1-7.75-2.23l.08-.18L231.46,167l-3.88-21c-.73-3-.36-5.43,3.07-7.81,0,0,17.16-11,24.18-15.3l0,0L260.47,155Z"/><path class="cls-2" d="M292.62,172.24c8.89-4.21,8-23.53,8-23.53l2.35.23,16.51,1.6v.07c0,2-.55,49.73-47.64,47.36"/><path class="cls-2" d="M130.15,311.62c8.89-3.64,21.22-10.91,23.9-26.16"/><path class="cls-2" d="M137.41,269.2s-6.07,24.75-31.48,23"/><path class="cls-2" d="M148.62,269.86c0,.65.84,12.47.87,12.53a5.4,5.4,0,0,0,4.56,3.07,6.3,6.3,0,0,0,3.87-1.2c15.73-11,79.73-56.86,113.8-86.41,12.79-11.1,21.37-19.9,21.57-23.68,0-.06-.25-.78-.67-1.93-1.38-3.76-4.56-12.07-6.2-15.87-1.81-4.18-7.8-4.56-11.54-2l-44.4,31.4"/><path class="cls-2" d="M311.9,125.05c-1.33,1.69-4.88,1.74-6.68.53a2.24,2.24,0,0,1-.34-.27,5.78,5.78,0,0,1-1.27-5.69c1-3,4.56-5.08,7.69-5.7a9.54,9.54,0,0,1,1.46-.18,8.28,8.28,0,0,1,8,5.69,7.48,7.48,0,0,1,.26,4.33"/><path class="cls-2" d="M299.2,142.12l-.1,0c-5.8-1.1-8.35-6.89-8.2-11.3a9.68,9.68,0,0,1,5.81-8l.24-.09c2.11-.79,4.71-.82,6.31.82a4.57,4.57,0,0,1,1.29,2.16c.51,2.4-2.19,4.25-4.64,5.13"/><path class="cls-2" d="M326.53,131.57c1.39-2.84-.28-5.71-2.36-7a6,6,0,0,0-3.19-.84c-2.36,0-4.8,1.23-6.83,2.39s-4.76,3.68-3.64,6.29c.93,2.17,3.3,1.94,5.56,1l.15-.06"/><path class="cls-2" d="M322.7,144.35c6.42-1.43,9-8,6.19-11a9.18,9.18,0,0,0-2.36-1.81,6.54,6.54,0,0,0-5.66-.39,19.89,19.89,0,0,0-4.46,2.26l-.26.22a2.62,2.62,0,0,0-1.08,2.49c.81,4.1,5.82,3.63,7.89,2.47"/><path class="cls-2" d="M320.32,143.48a3.76,3.76,0,0,1,2.37.87h0c2.16,1.81,2,5.81-1.08,6.14-.62.06-1.35.1-2.16.12A78.19,78.19,0,0,1,303,148.94c-3.18-.73-5.51-1.66-5.79-2.76-.63-2.39.52-3.86,1.57-4.08l.36.05.1,0a70,70,0,0,0,10.28.84"/><path class="cls-2" d="M295.1,117V72.28a10.67,10.67,0,0,1,21.33,0V110"/><path class="cls-2" d="M304.61,125.71l.61-.13c3.58-.88,6.08-4.25,6.08-8.43V76.27"/><path class="cls-2" d="M295.1,117.15a8.81,8.81,0,0,0,1.85,5.59"/><path class="cls-2" d="M311.31,76.23a5.55,5.55,0,0,0-11.09,0v26.62"/><path class="cls-2" d="M143.39,337.08h1s10.09-21.67-16.66-20.24a76.86,76.86,0,0,0-12.11,1.76"/><polyline class="cls-2" points="107.35 335.77 108.21 337.08 109.8 337.08"/><path class="cls-2" d="M127.69,316.76s6-2.78,2.46-5.14h0a5.1,5.1,0,0,0-.48-.28c-5.55-3-24.26-16.06-23.74-19.18s-19,1.56-19.6,11.6l1.36,2.06"/><path class="cls-2" d="M143.39,337.08a3,3,0,0,1,3,2.95v.77a3,3,0,0,1-3,2.95h-39a2.93,2.93,0,0,1-2.55-1.48L83.62,308.54c-.88-1.53-.72-3.27.44-3.81a2.95,2.95,0,0,1,3.63,1.09l19.65,29.93v0a2.93,2.93,0,0,0,2.45,1.31Z"/><path class="cls-2" d="M281,158.51s-32.62,32.68-35.84,35.25-51.56,38.71-51.56,38.71"/><path class="cls-2" d="M132.64,320.77s7.66,0,8.34,5.37"/><circle class="cls-2" cx="137.95" cy="244.78" r="4.72"/><path class="cls-2" d="M176.6,164.48c-1,3.73-34.62,38.82-40.33,45-24.8,26.64-13.8,51.43,1.14,59.77.42.24.84.46,1.27.67a22.16,22.16,0,0,0,7.75,2.23l2.19-2.24,81.86-84.06,30-30.8-5.61-32"/><path class="cls-2" d="M177.45,142.85c-.71,7.64-.39,15.08-.67,21.64s-1.13,12.12-4.11,16.26"/><path class="cls-2" d="M138.76,269.69,231.46,167l-3.88-21c-.73-3-.36-5.43,3.07-7.81,0,0,17.16-11,24.18-15.3l2.15-1.3c1.9-1.1,1.56-4.53.06-6.13-15.47-16.64-37.89-24.54-57.77-11-10.35,7-15.76,15-18.73,23.5"/><path class="cls-2" d="M180.1,144.35a9.23,9.23,0,0,1-2.5-1.66l0,0c-4.53-4.27-3.05-12,3-14.6a13,13,0,0,1,8.15-.39"/><path class="cls-2" d="M185.42,136.51s2.08,10.77,19.71,8.82"/><path class="cls-2" d="M182,137.49s4.2-2.47,6.86-2.69"/><path class="cls-1" d="M182,320.77s7.34-37.21-5.66-59.22l9.09-5.52,12.38-7.51s16.19,46.23,11,67.85l-.06.26Z"/><path class="cls-1" d="M247.21,340.46a2.2,2.2,0,0,1-2.2,2.45l-67.89-.11a2.21,2.21,0,0,1-.08-4.41l67.57-2.68a2.2,2.2,0,0,1,2.28,2Z"/><path class="cls-2" d="M197.79,248.52s16.19,46.23,11,67.85c0,.09-.05.18-.07.26L182,320.77s7.34-37.21-5.66-59.22"/><path class="cls-2" d="M244.61,335.71l2-.09s10-16-9.27-24.78c-8.57-3.9-17.28,1.72-22.9,6.88a52.49,52.49,0,0,0-6.2,6.78"/><path class="cls-2" d="M181.8,321s-7.26,5.73-4.76,17.4"/><path class="cls-2" d="M209.35,316.51s4.42-2.62,4.94,1.13"/><path class="cls-2" d="M177,338.39a2.21,2.21,0,0,0,.08,4.41l67.89.11a2.2,2.2,0,0,0,2.2-2.45l-.32-2.8a2.2,2.2,0,0,0-2.28-2Z"/><path class="cls-2" d="M227.35,314.48s9-2.54,13,3.16"/><g id="_Group_" data-name="&lt;Group&gt;"><path class="cls-1" d="M125,170.92c21.83-6.34,47.9,26.71,47.9,26.71l-16.2,10.74c-30.28-31.38-48.41,3.87-48.41,3.87L88.69,198.75S103.19,177.26,125,170.92Z"/><path class="cls-2" d="M172.92,197.63s-26.07-33-47.9-26.71-36.33,27.83-36.33,27.83l19.62,13.49s18.13-35.25,48.41-3.87"/></g><path class="cls-1" d="M89.5,196.81c-1.5-4.54,3.86-6.22,5.47-3.72l.06.15c1,2.88,4.36,8.25,13.5,15.51l.39.26c2,1.26,2,6.21-3.21,5.71,2.16,3.19,2.36,9,.43,12.92-2.12,4.27-6.79,6.31-10.7,3.6h0l-.17.24c-5.84,8.41-12.46,2.42-12.33-1.06a7.59,7.59,0,0,1,.16-1.21l0,0c-3.32,2.42-8.3-1.63-7.52-5.44a9.77,9.77,0,0,1,.41-1.46.25.25,0,0,0,0-.07l-.29-.11c-5.79.51-6.57-6.69-3.45-12S83.44,197.06,89.5,196.81Z"/><path class="cls-2" d="M89.5,196.81c-6.06.25-14.13,7.9-17.28,13.27s-2.34,12.54,3.45,12"/><path class="cls-2" d="M77.61,218.92a17.23,17.23,0,0,0-1.65,3.3.25.25,0,0,1,0,.07,9.77,9.77,0,0,0-.41,1.46c-.78,3.81,4.2,7.86,7.52,5.44"/><path class="cls-2" d="M85,224.81a15,15,0,0,0-1.9,4.4,7.59,7.59,0,0,0-.16,1.21c-.13,3.48,6.49,9.47,12.33,1.06"/><path class="cls-2" d="M105.71,214.72c2.16,3.19,2.36,9,.43,12.92-2.12,4.27-6.79,6.31-10.7,3.6h0a8.78,8.78,0,0,1-1.17-1"/><path class="cls-2" d="M95,193.24c1,2.88,4.36,8.25,13.5,15.51l.39.26c2,1.26,2,6.21-3.21,5.71l-.43-.05c-2.72-.4-6.25-4.36-6.25-4.36"/><path class="cls-2" d="M95,193.09c-1.61-2.5-7-.82-5.47,3.72a25,25,0,0,0,5.1,8.73"/><path d="M98.07,336.64s-29-2.43-27.52,3.41,32.74,4.4,32.74,4.4Z"/><path d="M148.9,271l96.5-76.65s43.55-36.47,40.42-38.8c-8.41-6.25-19,5.26-19,5.26l-41.48,30.1Z"/><path d="M177.46,336.29l-32.87-.4a6.52,6.52,0,0,1,1.95,2.68c.56,1.61-.87,5.29-1.95,5.36s33.14,0,33.14,0-4.71-2.1-3.1-3.33,3.1-2.57,3.1-2.57Z"/><path d="M136.93,274.22,152,293.42l1.45-6.9a5.2,5.2,0,0,1-3.72-3.65c-1-3.13-.87-12-.87-12l-2.19,1.7-9.78-2.9Z"/><ellipse class="cls-3" cx="231.88" cy="102.61" rx="13.51" ry="17.55"/><ellipse class="cls-3" cx="212.84" cy="104.48" rx="14.66" ry="19.04"/><path class="cls-2" d="M206.11,80s-11.33.22-13.28,14"/><path class="cls-2" d="M227.5,79.59s-6.76.63-9.53,6.58"/><ellipse cx="217.97" cy="104.16" rx="3.35" ry="5.03"/><ellipse cx="237.14" cy="104.16" rx="3.35" ry="5.03"/><circle class="cls-1" cx="234.17" cy="102.25" r="1.91"/><circle class="cls-1" cx="214.62" cy="102.25" r="1.91"/></svg>