<svg id="Layer_1" data-name="Layer 1" xmlns="http://www.w3.org/2000/svg" viewBox="0 0 400 400"><defs><style>.cls-1{fill:red;}.cls-2,.cls-4{fill:#fff;}.cls-3{fill:none;}.cls-3,.cls-4{stroke:#000;stroke-linecap:round;stroke-linejoin:round;stroke-width:1.88px;}</style></defs><title>Desk_Dudes21</title><path d="M239.77,336.58s-99.27-.51-112.35,6c-1.83.91-1.4,2.26,1.46,2.26H240.67Z"/><path class="cls-1" d="M272.37,159.79a2.81,2.81,0,0,1-.55,2.36l-1.05-4.54.1-.27A3.32,3.32,0,0,1,272.37,159.79Z"/><path class="cls-2" d="M270.87,157.34l-.1.27-.75.19v-.71A2.55,2.55,0,0,1,270.87,157.34Z"/><path class="cls-2" d="M274.4,149.8l-.86-.15a25.85,25.85,0,0,1-3.52,6.14v1.3a2.55,2.55,0,0,1,.85.25,3.32,3.32,0,0,1,1.5,2.45,2.81,2.81,0,0,1-.55,2.36h0a5.83,5.83,0,0,1-1.8,1.46h0a25.49,25.49,0,0,1-2.84,1.26A60.26,60.26,0,0,1,254,168.8a14.16,14.16,0,0,1-2.1.15l.07.14c1.59,11,8.37,28.76,18,38.17,4.12,4,8.76,6.51,13.75,6.34l0-.39a11.33,11.33,0,0,1,1.48-15.94c4.81-4.19,11.68-4.17,15.69.42C303,178,274.4,149.8,274.4,149.8Z"/><path class="cls-2" d="M270,157.09v.71l-1.29.31.17-1H269A3.57,3.57,0,0,1,270,157.09Z"/><path class="cls-1" d="M270,155.79v1.3a3.57,3.57,0,0,0-1.07,0h0l0-.13A15.89,15.89,0,0,0,270,155.79Z"/><path class="cls-2" d="M252,169.09l-.07-.14c-2,0-4.34-.45-4.61-2.23a2.62,2.62,0,0,1,1.38-3.09l-.1-.18h0c-12.21-1.68-16.31-6.93-19.69-14.78a11.7,11.7,0,0,1-.45-1.2L217,160l-14.76,16.18-100,109.52H270V207.26C260.36,197.85,253.58,180.13,252,169.09Zm-8,90.55H161.31L244,169.09Z"/><path class="cls-2" d="M245.14,129.17c1.38,2.45,1.55,6.88,4.08,10,3.14,3.95,9.76,7.46,14.94,6h0c2.64-3.24,3.62-7.66,5.86-9.36V101.92Z"/><path class="cls-2" d="M251.83,338.78a2.43,2.43,0,0,1,.55.07,1.69,1.69,0,0,1-.57.4l-38.77.32a2.25,2.25,0,0,0-1.15-.72l.07-.07Z"/><path class="cls-2" d="M250.4,317.73H225a1.87,1.87,0,0,0-.34,0,2.22,2.22,0,0,0-1.88,2.19v2.88a2.22,2.22,0,0,0,2.22,2.23h25.15a2.23,2.23,0,0,0,2.22-2.23v-2.88A2.22,2.22,0,0,0,250.4,317.73Z"/><path class="cls-2" d="M203.93,125.28c-7.92,2.8-16.1.51-18.58-1.4l-.1.19c-.72,8.56-.82,19.8,1.8,30l.47-.12c3.32-1.77,8.38,1.24,11.31,6.72s2.94,10.89-.38,12.66l-.14.16a26.91,26.91,0,0,0,3.94,2.71L217,160C204.57,152.16,203.33,137.2,203.93,125.28Z"/><path class="cls-2" d="M252.38,338.85a1.69,1.69,0,0,1-.57.4l-38.77.32-12,.1c0-.11-.07-.22-.1-.33h-1.54a2.21,2.21,0,0,0-.74,1.66v.69a2.21,2.21,0,0,0,2.22,2.22h30.38l3.2-2,2.55,2h14.81a2.22,2.22,0,0,0,2.23-2.22V341A2.23,2.23,0,0,0,252.38,338.85Z"/><path class="cls-2" d="M213,339.57l-12,.1c0-.11-.07-.22-.1-.33l10.37-.09a1.91,1.91,0,0,0,.57-.4A2.25,2.25,0,0,1,213,339.57Z"/><path class="cls-2" d="M211.35,338.78H212l-.07.07A2.42,2.42,0,0,0,211.35,338.78Z"/><path class="cls-2" d="M250,325.08v0H225a2.22,2.22,0,0,1-1-.22h0l-.19.36c-4.88-2.55-8.82-3.59-12-3.59a10.26,10.26,0,0,0-8,3.45c-3.4,3.87-3.89,10.11-3.06,13.73h51a2.43,2.43,0,0,1,.55.07C255,336.27,254.73,325.22,250,325.08Z"/><path class="cls-2" d="M211.35,338.78a2.42,2.42,0,0,1,.54.07,1.91,1.91,0,0,1-.57.4l-10.37.09c0-.18-.1-.36-.14-.55h10.54Z"/><path class="cls-2" d="M272.29,135.17a3.31,3.31,0,0,0-2.27.69c-2.24,1.7-3.22,6.12-5.86,9.36h0c-5.18,1.45-11.8-2.06-14.94-6-2.53-3.16-2.7-7.59-4.08-10a3.12,3.12,0,0,0-2.34-1.76c-3.21-.48-4.08,1.8-4.22,4.39-5.2-1.59-6.73,2.68-6,7h-.05c-4.59-.91-5.56,4.08-4.09,8.61a11.7,11.7,0,0,0,.45,1.2c3.38,7.85,7.48,13.1,19.69,14.78h0l.1.18a2.62,2.62,0,0,0-1.38,3.09c.27,1.78,2.56,2.24,4.61,2.23a14.16,14.16,0,0,0,2.1-.15,60.26,60.26,0,0,0,13.16-3.93,25.49,25.49,0,0,0,2.84-1.26h0a5.83,5.83,0,0,0,1.8-1.46h0l-1.05-4.54-.75.19-1.29.31.17-1H269l0-.13a15.89,15.89,0,0,0,1.09-1.2,25.85,25.85,0,0,0,3.52-6.14,67.25,67.25,0,0,0,2.44-6.79C277.09,139.27,276.52,135.4,272.29,135.17Z"/><path class="cls-2" d="M209.94,86.94c-2.65-1.39-4.8.14-6.72,7.4.75-4.77.83-9.62-1.63-10.5-3.46-1.22-8.54,3.08-8.92,10.56a9.92,9.92,0,0,0-.81-1.59c-2.56-4.06-8.85-5.19-12.56-1.64-1.81,1.73-3.87,5.83-1.56,8.14s4.73-1.08,6.51-2c1.75.81,1.37,12-2.7,15.79h-.21c.55-4.07-2.25-5.46-4-5-2.9.74-3,5.39-2.23,7.77,1.63,5,6.73,5.44,10.42,3.28l.1.11c-.61.41-2.69,2.07-.67,4.28a2.79,2.79,0,0,0,.43.39c2.48,1.91,10.66,4.2,18.58,1.4,2.66-1,3.08-4.26.44-4.56l.54-.22C208.31,114.16,213.7,88.92,209.94,86.94Z"/><path class="cls-2" d="M209.91,317.73H184.55a2.07,2.07,0,0,0-.35,0,2.21,2.21,0,0,0-1.87,2.19v2.88a2.22,2.22,0,0,0,1.26,2,2.18,2.18,0,0,0,1,.22h19.32a10.26,10.26,0,0,1,8-3.45v-1.66A2.23,2.23,0,0,0,209.91,317.73Z"/><path class="cls-2" d="M248.77,285.69H226.14l-1.44,32.05a1.87,1.87,0,0,1,.34,0H250.4Z"/><path class="cls-2" d="M185.65,285.7l-1.45,32.05a2.07,2.07,0,0,1,.35,0h25.36l-1.63-32Z"/><path class="cls-2" d="M203.87,325.05H184.55a2.18,2.18,0,0,1-1-.22h0l-.19.36c-21.17-11.08-24.72,6.39-23.08,13.6h40.49C200,335.16,200.47,328.92,203.87,325.05Z"/><path class="cls-2" d="M201,339.34h-1.54a2.22,2.22,0,0,1,1.4-.56C200.85,339,200.9,339.16,201,339.34Z"/><path class="cls-2" d="M198.67,341.7V341a2.21,2.21,0,0,1,.74-1.66l-38.85.32c-.09-.27-.17-.57-.24-.88a2.22,2.22,0,0,0-2.14,2.22v.69a2.21,2.21,0,0,0,2.22,2.22h30.37l3.21-2,2.55,2h4.36A2.21,2.21,0,0,1,198.67,341.7Z"/><path class="cls-2" d="M200.86,338.78h0Z"/><path class="cls-2" d="M200.81,338.78h0a2.22,2.22,0,0,0-1.4.56l-38.85.32c-.09-.27-.17-.57-.24-.88h40.49Z"/><path class="cls-2" d="M285.23,197.27a11.33,11.33,0,0,0-1.48,15.94l0,.39c3.77-.13,7.75-1.79,11.84-5.48a15.85,15.85,0,0,0,5.31-10.43C296.91,193.1,290,193.08,285.23,197.27Z"/><path class="cls-2" d="M187.52,153.92l-.47.12c1.95,7.59,5.41,14.59,11.26,19.42l.14-.16c3.32-1.77,3.3-7.18.38-12.66S190.84,152.15,187.52,153.92Z"/><polyline class="cls-3" points="246.23 285.69 208.28 285.69 102.27 285.69 202.25 176.17 217.01 160 228.44 147.47"/><polyline class="cls-3" points="270.02 207.26 270.02 285.69 248.77 285.69"/><polyline class="cls-3" points="245.14 129.17 270.02 101.92 270.02 126.17 270.02 135.86"/><polygon class="cls-3" points="161.31 259.64 243.97 169.09 243.97 259.64 161.31 259.64"/><path class="cls-3" d="M255.86,128.29s7.14-2.88,14.16-2.12a14,14,0,0,1,9.36,4.51"/><path class="cls-3" d="M281.33,129.83a3.57,3.57,0,0,0-2.87,2.76"/><path class="cls-3" d="M193.28,104.88c.52-3.32.74-7.22-.61-10.48a9.92,9.92,0,0,0-.81-1.59c-2.56-4.06-8.85-5.19-12.56-1.64-1.81,1.73-3.87,5.83-1.56,8.14s4.73-1.08,6.51-2c1.75.81,1.37,12-2.7,15.79"/><path class="cls-3" d="M185.49,119.1c-3.69,2.16-8.79,1.71-10.42-3.28-.78-2.38-.67-7,2.23-7.77,1.79-.46,4.59.93,4,5"/><path class="cls-3" d="M200.87,104.46a82.93,82.93,0,0,0,2.35-10.12c.75-4.77.83-9.62-1.63-10.5-3.46-1.22-8.54,3.08-8.92,10.56"/><path class="cls-3" d="M204.91,120.5c3.4-6.34,8.79-31.58,5-33.56-2.65-1.39-4.8.14-6.72,7.4"/><path class="cls-3" d="M185.75,119.11l-.16.1c-.61.41-2.69,2.07-.67,4.28a2.79,2.79,0,0,0,.43.39c2.48,1.91,10.66,4.2,18.58,1.4,2.66-1,3.08-4.26.44-4.56a4.68,4.68,0,0,0-1.36.08,25.9,25.9,0,0,1-12.49.25"/><path class="cls-3" d="M251.92,169l.07.14c1.59,11,8.37,28.76,18,38.17,4.12,4,8.76,6.51,13.75,6.34,3.77-.13,7.75-1.79,11.84-5.48a15.85,15.85,0,0,0,5.31-10.43C303,178,274.4,149.8,274.4,149.8l-.86-.15"/><path class="cls-3" d="M284.11,185.12C278.07,177.72,272,163,272,163l-.2-.86"/><path class="cls-3" d="M264.16,145.22c-5.18,1.45-11.8-2.06-14.94-6-2.53-3.16-2.7-7.59-4.08-10a3.12,3.12,0,0,0-2.34-1.76c-3.21-.48-4.08,1.8-4.22,4.39a28.73,28.73,0,0,0,.16,3.9c0,.15,0,.3,0,.44h0c.4,3.86,1.85,6.92,5.91,10.33"/><path class="cls-3" d="M238.58,131.8c-5.2-1.59-6.73,2.68-6,7a6.18,6.18,0,0,0,.12.62c.18.82.39,1.71.65,2.62,1,3.61,2.76,7.6,6,9.42"/><path class="cls-3" d="M232.54,138.86c-4.59-.91-5.56,4.08-4.09,8.61a11.7,11.7,0,0,0,.45,1.2c3.38,7.85,7.48,13.1,19.69,14.78"/><path class="cls-3" d="M262.71,146.71a10.2,10.2,0,0,0,1.45-1.49h0c2.64-3.24,3.62-7.66,5.86-9.36a3.31,3.31,0,0,1,2.27-.69c4.23.23,4.8,4.1,3.69,7.69a67.25,67.25,0,0,1-2.44,6.79,25.85,25.85,0,0,1-3.52,6.14,15.89,15.89,0,0,1-1.09,1.2"/><path class="cls-3" d="M267.51,157.54a7.8,7.8,0,0,1,1.39-.41H269a3.57,3.57,0,0,1,1.07,0,2.55,2.55,0,0,1,.85.25,3.32,3.32,0,0,1,1.5,2.45,2.81,2.81,0,0,1-.55,2.36h0a5.83,5.83,0,0,1-1.8,1.46h0a25.49,25.49,0,0,1-2.84,1.26A60.26,60.26,0,0,1,254,168.8a14.16,14.16,0,0,1-2.1.15c-2,0-4.34-.45-4.61-2.23a2.62,2.62,0,0,1,1.38-3.09l.26-.13c1.93-.87,5.23-.91,8.52-2.08"/><path class="cls-3" d="M203.93,125.28c-.6,11.92.64,26.88,13.08,34.71"/><path class="cls-3" d="M185.25,124.07c-.72,8.56-.82,19.8,1.8,30,1.95,7.59,5.41,14.59,11.26,19.42a26.91,26.91,0,0,0,3.94,2.71"/><line class="cls-3" x1="113.88" y1="278.73" x2="113.88" y2="285.1"/><line class="cls-3" x1="118.79" y1="281.33" x2="118.79" y2="285.1"/><line class="cls-3" x1="123.5" y1="281.33" x2="123.5" y2="285.1"/><line class="cls-3" x1="128.2" y1="281.33" x2="128.2" y2="285.1"/><line class="cls-3" x1="137.92" y1="281.33" x2="137.92" y2="285.1"/><line class="cls-3" x1="132.91" y1="278.73" x2="132.91" y2="285.1"/><line class="cls-3" x1="142.72" y1="281.33" x2="142.72" y2="285.1"/><line class="cls-3" x1="147.42" y1="281.33" x2="147.42" y2="285.1"/><line class="cls-3" x1="152.13" y1="278.73" x2="152.13" y2="285.1"/><line class="cls-3" x1="156.56" y1="281.33" x2="156.56" y2="285.1"/><line class="cls-3" x1="161.27" y1="281.33" x2="161.27" y2="285.1"/><line class="cls-3" x1="165.98" y1="281.33" x2="165.98" y2="285.1"/><line class="cls-3" x1="175.69" y1="281.33" x2="175.69" y2="285.1"/><line class="cls-3" x1="170.68" y1="278.73" x2="170.68" y2="285.1"/><line class="cls-3" x1="180.49" y1="281.33" x2="180.49" y2="285.1"/><line class="cls-3" x1="185.2" y1="281.33" x2="185.2" y2="285.1"/><line class="cls-3" x1="189.9" y1="278.73" x2="189.9" y2="285.1"/><line class="cls-3" x1="194.34" y1="281.33" x2="194.34" y2="285.1"/><line class="cls-3" x1="199.04" y1="281.33" x2="199.04" y2="285.1"/><line class="cls-3" x1="203.75" y1="281.33" x2="203.75" y2="285.1"/><line class="cls-3" x1="213.46" y1="281.33" x2="213.46" y2="285.1"/><line class="cls-3" x1="208.46" y1="278.73" x2="208.46" y2="285.1"/><line class="cls-3" x1="218.26" y1="281.33" x2="218.26" y2="285.1"/><line class="cls-3" x1="222.97" y1="281.33" x2="222.97" y2="285.1"/><line class="cls-3" x1="227.68" y1="278.73" x2="227.68" y2="285.1"/><line class="cls-3" x1="232.11" y1="281.33" x2="232.11" y2="285.1"/><line class="cls-3" x1="236.82" y1="281.33" x2="236.82" y2="285.1"/><line class="cls-3" x1="241.52" y1="281.33" x2="241.52" y2="285.1"/><line class="cls-3" x1="251.24" y1="281.33" x2="251.24" y2="285.1"/><line class="cls-3" x1="246.23" y1="278.73" x2="246.23" y2="285.1"/><line class="cls-3" x1="256.04" y1="281.33" x2="256.04" y2="285.1"/><line class="cls-3" x1="260.74" y1="281.33" x2="260.74" y2="285.1"/><line class="cls-3" x1="265.45" y1="278.73" x2="265.45" y2="285.1"/><polyline class="cls-3" points="184.21 317.75 185.65 285.7 208.28 285.69 209.91 317.73"/><path class="cls-3" d="M186.86,327.16c-1.21-.74-2.36-1.39-3.46-2-21.17-11.08-24.72,6.39-23.08,13.6"/><path class="cls-3" d="M203.87,325.05H184.55a2.18,2.18,0,0,1-1-.22,2.22,2.22,0,0,1-1.26-2v-2.88a2.21,2.21,0,0,1,1.87-2.19,2.07,2.07,0,0,1,.35,0h25.36a2.23,2.23,0,0,1,2,2.21v1.66"/><path class="cls-3" d="M200.89,343.92h-4.36L194,342l-3.21,2H160.4a2.21,2.21,0,0,1-2.22-2.22V341a2.22,2.22,0,0,1,2.14-2.22h40.49"/><polyline class="cls-3" points="224.7 317.75 226.14 285.7 246.23 285.69 248.77 285.69 250.4 317.73"/><path class="cls-3" d="M227.35,327.16c-1.2-.74-2.36-1.4-3.46-2-4.88-2.55-8.82-3.59-12-3.59a10.26,10.26,0,0,0-8,3.45c-3.4,3.87-3.89,10.11-3.06,13.73h0"/><path class="cls-3" d="M250,325.08c4.69.14,5,11.19,2.34,13.77"/><path class="cls-3" d="M250.4,317.73a2.22,2.22,0,0,1,2,2.21v2.88a2.23,2.23,0,0,1-2.22,2.23H225a2.22,2.22,0,0,1-2.22-2.23v-2.88a2.22,2.22,0,0,1,1.88-2.19,1.87,1.87,0,0,1,.34,0H250.4"/><path class="cls-3" d="M252.38,338.85a2.23,2.23,0,0,1,1.68,2.16v.69a2.22,2.22,0,0,1-2.23,2.22H237l-2.55-2-3.2,2H200.89a2.21,2.21,0,0,1-2.22-2.22V341a2.21,2.21,0,0,1,2.14-2.22h51A2.43,2.43,0,0,1,252.38,338.85Z"/><line class="cls-3" x1="245.46" y1="321.38" x2="252.41" y2="321.38"/><line class="cls-3" x1="182.9" y1="321.38" x2="189.85" y2="321.38"/><path class="cls-3" d="M187.52,153.92c3.32-1.77,8.38,1.24,11.31,6.72s2.94,10.89-.38,12.66"/><path class="cls-3" d="M283.75,213.21a11.33,11.33,0,0,1,1.48-15.94c4.81-4.19,11.68-4.17,15.69.42l0,0"/><path class="cls-4" d="M269.75,106.59c0,8.28-4.72,15-10.54,15s-10.54-6.71-10.54-15a20.35,20.35,0,0,1,.83-5.84c1.6-5.38,5.34-9.15,9.71-9.15C265,91.6,269.75,98.31,269.75,106.59Z"/><ellipse class="cls-4" cx="274" cy="106.59" rx="10.54" ry="14.99"/><line class="cls-4" x1="249.5" y1="100.75" x2="263.06" y2="104.97"/><path class="cls-3" d="M275.3,83.77s11,.61,12.16,11"/><ellipse cx="271.51" cy="109.34" rx="4.97" ry="3.19" transform="translate(155.24 377.95) rotate(-88.53)"/><circle class="cls-2" cx="273.79" cy="106.2" r="1.63"/><ellipse cx="254.73" cy="109.34" rx="4.97" ry="3.19" transform="translate(138.89 361.18) rotate(-88.53)"/><circle class="cls-2" cx="257.01" cy="106.2" r="1.63"/><path class="cls-4" d="M261.63,82.26s4,7.21,8.12,9.81"/><polygon points="226.71 286.33 226.09 296.19 249.21 300.64 248.52 286.33 226.71 286.33"/><polygon points="186.18 286.33 185.56 296.19 208.69 300.64 207.99 286.33 186.18 286.33"/></svg>