<svg id="Layer_1" data-name="Layer 1" xmlns="http://www.w3.org/2000/svg" viewBox="0 0 400 400"><defs><style>.cls-1,.cls-4{fill:#fff;}.cls-2,.cls-3{fill:none;stroke-linecap:round;stroke-width:1.88px;}.cls-2,.cls-3,.cls-4{stroke:#000;}.cls-2,.cls-4{stroke-miterlimit:10;}.cls-3{stroke-linejoin:round;}.cls-4{stroke-width:2.08px;}</style></defs><title>Desk_Dudes12</title><path class="cls-1" d="M138.54,296.1c-4,4-22.32-9.37-22.32-9.37a20.16,20.16,0,0,0-2.65,7.7L164,313.19l1.27-5.31S142.58,292.05,138.54,296.1Z"/><path class="cls-1" d="M267.31,292.16s-17.93,11.37-21.77,7.19-28,10.17-28,10.17l-.36.07,1.2,6.69,51.39-15.88A19.6,19.6,0,0,0,267.31,292.16Z"/><path class="cls-1" d="M115.75,286.88s18.27,13.42,22.31,9.36S164.78,308,164.78,308l3.45-14.47.15-.59a121.36,121.36,0,0,0-23.12-10.4C133.85,279,121.36,277.87,115.75,286.88Z"/><path class="cls-1" d="M237.46,286.84a121.59,121.59,0,0,0-23.29,9l.11.6,2.4,13.32.36-.07s24.19-14.36,28-10.18,21.77-7.18,21.77-7.18h0C261.54,283.31,249,283.88,237.46,286.84Z"/><path class="cls-1" d="M166.89,120c1.83.06,3.65.13,5.45.21h0s5.61-40,7.4-55.17c1-8.61,2.76-26.72,30.08-25.17C234.21,41.24,229,71.21,229,71.21l-8.91,53.16v.07c2.05.26,3.91.51,5.55.74v0s10-34.1,13.43-47C241,70.8,247,54,271.22,59,293.33,63.62,285,92.77,285,92.77l-26.17,95.68c11.31-1.73,26.13-3.39,36.19-2.21,13.85,1.63,28.36,22.56,4.91,33.87-13.26,6.39-28.27,9.55-51.51,11.9,7.12,11.43-.07,18.69-18.13,21.1a112.22,112.22,0,0,1-14.19.89h-.82c-2.38,0-5.13,0-8.16-.09-8.11-.17-18.21-.59-28.63-1.42-2.95-.23-5.92-.49-8.89-.79-4.8-.49-9.57-1.07-14.13-1.75-16.64-2.49-30.6-6.37-33.92-12.28-4.77-8.5,6-12.81,6-12.81C108.81,203.68,113,103.39,116.67,76.93c4.07-29.29,44.22-28.8,46.57-3.91.33,3.5,3.66,46.76,3.66,46.76ZM178,162.76c11.1,2.58,40,.92,34.17-19.82-1-3.43-5.3-5.3-8.9-4.24-3.8,1.12-6.77,4.45-10.45,5.78-4.53,1.64-10.09.06-14-2.48-2.41-1.55-6.15-3.9-9.23-4.09-2.71-.16-8.05,2.48-6.87,11.32C164.15,154.92,167.06,160.22,178,162.76Z"/><path class="cls-1" d="M212.17,142.94c5.86,20.74-23.07,22.4-34.17,19.82-10.94-2.54-13.85-7.84-15.29-13.53-1.18-8.84,4.16-11.48,6.87-11.32,3.08.19,6.82,2.54,9.23,4.09,3.92,2.54,9.48,4.12,14,2.48,3.68-1.33,6.65-4.66,10.45-5.78C206.87,137.64,211.19,139.51,212.17,142.94Z"/><path class="cls-1" d="M237.86,286.42l-1.27-5.61-.53.12L222.2,285.2,213.25,288l1.4,7.72a122,122,0,0,1,23.28-9Z"/><path class="cls-1" d="M148.31,276.89l-.52-.15-1.59,5.54-.47.14a121.36,121.36,0,0,1,23.12,10.4l1.84-7.63-8.78-3.26Z"/><path class="cls-1" d="M230.34,253.28l0-.17a112.22,112.22,0,0,1-14.19.89h-.82c-2.38,0-5.13,0-8.16-.09v.29L213.25,288l8.95-2.75,13.86-4.27.53-.12Z"/><path class="cls-1" d="M155.49,250l-7.7,26.78.52.15,13.6,5,8.78,3.26,7.8-32.48,0-.21c-2.95-.23-5.92-.49-8.89-.79C164.82,251.22,160.05,250.64,155.49,250Z"/><path class="cls-2" d="M166.9,119.78S163.57,76.52,163.24,73c-2.35-24.89-42.5-25.38-46.57,3.91-3.67,26.46-7.86,126.75,10.93,147.94a13.84,13.84,0,0,0,2.52,2.26s12.77,9.34,52.09,10.89"/><path class="cls-2" d="M172.34,120.19s5.61-40,7.4-55.17c1-8.61,2.76-26.72,30.08-25.17C234.21,41.24,229,71.21,229,71.21l-8.91,53.16"/><path class="cls-2" d="M225.59,125.16s10-34.1,13.43-47C241,70.8,247,54,271.22,59,293.33,63.62,285,92.77,285,92.77l-26.17,95.68"/><path class="cls-2" d="M211,123.34c3.29.37,6.32.75,9,1.1,2.05.26,3.91.51,5.55.74,5.19.72,8.22,1.22,8.22,1.22"/><path class="cls-2" d="M144.42,120c7.37-.27,15-.24,22.47,0,1.83.06,3.65.13,5.45.21,3.23.14,6.42.32,9.56.52"/><path class="cls-2" d="M242.7,191.34s6.9-1.47,16.15-2.89h0c11.31-1.73,26.13-3.39,36.19-2.21,13.85,1.63,28.36,22.56,4.91,33.87-13.26,6.39-28.27,9.55-51.51,11.9-5.22.53-10.87,1-17,1.49"/><path class="cls-2" d="M127.6,224.87s-10.8,4.31-6,12.81c3.32,5.91,17.28,9.79,33.92,12.28,4.56.68,9.33,1.26,14.13,1.75,3,.3,5.94.56,8.89.79,10.42.83,20.52,1.25,28.63,1.42,3,.07,5.78.09,8.16.09h.82a112.22,112.22,0,0,0,14.19-.89c18.06-2.41,25.25-9.67,18.13-21.1"/><polyline class="cls-2" points="155.49 249.96 147.79 276.74 146.2 282.28"/><polyline class="cls-2" points="178.5 252.71 170.69 285.19 168.85 292.82"/><path class="cls-2" d="M168.85,292.82l-.14.6-3.45,14.46L164,313.19l-50.42-18.76a20.16,20.16,0,0,1,2.65-7.7c5.61-9,18.11-7.88,29.51-4.31A121.36,121.36,0,0,1,168.85,292.82Z"/><polyline class="cls-2" points="148.31 276.89 161.91 281.94 170.69 285.19 170.7 285.19"/><line class="cls-2" x1="279.47" y1="170.03" x2="294.38" y2="125.28"/><line class="cls-2" x1="102.67" y1="164.28" x2="100.89" y2="117.43"/><line class="cls-2" x1="296.34" y1="159.7" x2="301.8" y2="145.38"/><line class="cls-2" x1="91.75" y1="146.73" x2="89.17" y2="131.72"/><path class="cls-2" d="M165.26,307.88s-22.68-15.83-26.72-11.78-22.32-9.37-22.32-9.37"/><line class="cls-2" x1="162.06" y1="281.52" x2="169.62" y2="251.78"/><polyline class="cls-2" points="230.34 253.28 236.59 280.81 237.86 286.42"/><polyline class="cls-2" points="236.06 280.93 222.2 285.19 213.25 287.95 213.24 287.95"/><polyline class="cls-2" points="207.13 254.21 213.25 287.95 214.65 295.67"/><path class="cls-2" d="M267.31,292.16c-5.29-9-17.85-8.43-29.38-5.46a122,122,0,0,0-23.28,9l.11.61,2.4,13.31,1.2,6.69,51.39-15.88a19.6,19.6,0,0,0-2.44-8.24"/><path class="cls-2" d="M217.52,309.52s24.19-14.36,28-10.17,21.77-7.19,21.77-7.19h0"/><line class="cls-2" x1="222.07" y1="284.77" x2="216.12" y2="254.21"/><path class="cls-3" d="M162.71,149.23c1.44,5.69,4.35,11,15.29,13.53,11.1,2.58,40,.92,34.17-19.82-1-3.43-5.3-5.3-8.9-4.24-3.8,1.12-6.77,4.45-10.45,5.78-4.53,1.64-10.09.06-14-2.48-2.41-1.55-6.15-3.9-9.23-4.09C166.87,137.75,161.53,140.39,162.71,149.23Z"/><path class="cls-3" d="M166.28,143.15a23.2,23.2,0,0,0,2.33,2.54,25.75,25.75,0,0,0,7.23,4.85,29,29,0,0,0,9.26,2.39,39.85,39.85,0,0,0,10.61-.55,58.37,58.37,0,0,0,9.75-2.7c1.19-.44,2.42-.92,3.67-1.46"/><polyline class="cls-3" points="204.84 144.5 205.46 149.68 206.03 154.5"/><polyline class="cls-3" points="195.26 147.28 195.71 152.38 196.25 158.33"/><polyline class="cls-3" points="185.28 148.16 185.1 152.93 184.85 159.3"/><polyline class="cls-3" points="177.38 145.52 175.84 150.54 174.12 156.18"/><polyline class="cls-3" points="170.03 142.21 168.61 145.69 166.89 149.92"/><path class="cls-3" d="M208,133.7c5.82-1.9,10.2,3.52,10.51,8.15"/><path class="cls-3" d="M160.07,139.08a8.53,8.53,0,0,1,7.53-5.38"/><polygon points="154.7 252.71 176.02 263.01 178.5 251.95 156.15 249.1 154.7 252.71"/><polygon points="231.05 256.42 209.18 265.51 207.33 254.32 229.81 252.74 231.05 256.42"/><path d="M230.49,233.93s1.67,5,19.57,3.16a43.64,43.64,0,0,0-2.24-4.56Z"/><ellipse cx="188.01" cy="340.73" rx="39.72" ry="4.12"/><ellipse class="cls-4" cx="176.16" cy="113.87" rx="13.48" ry="12.04" transform="matrix(0.13, -0.99, 0.99, 0.13, 40.68, 274.01)"/><ellipse cx="178" cy="112.79" rx="5.02" ry="4.03" transform="translate(47.9 278.56) rotate(-84.23)"/><ellipse class="cls-1" cx="181.44" cy="111.81" rx="1.54" ry="2.19" transform="translate(60.61 287.37) rotate(-87.11)"/><ellipse class="cls-4" cx="198.03" cy="113.87" rx="13.48" ry="12.04" transform="translate(59.75 295.7) rotate(-82.65)"/><ellipse cx="199.87" cy="112.79" rx="5.02" ry="4.03" transform="matrix(0.1, -0.99, 0.99, 0.1, 67.57, 300.32)"/><ellipse class="cls-1" cx="203.31" cy="111.81" rx="1.54" ry="2.19" transform="translate(81.38 309.22) rotate(-87.11)"/></svg>