<svg id="Layer_1" data-name="Layer 1" xmlns="http://www.w3.org/2000/svg" viewBox="0 0 400 400"><defs><style>.cls-1,.cls-6,.cls-7{fill:#fff;}.cls-2{fill:red;}.cls-3,.cls-4,.cls-5{fill:none;}.cls-3,.cls-4,.cls-5,.cls-6,.cls-7{stroke:#000;}.cls-3,.cls-4,.cls-7{stroke-linecap:round;}.cls-3,.cls-5,.cls-6{stroke-miterlimit:10;}.cls-3,.cls-4{stroke-width:1.84px;}.cls-4,.cls-7{stroke-linejoin:round;}.cls-5{stroke-width:0.2px;}.cls-6,.cls-7{stroke-width:2.05px;}</style></defs><title>Desk_Dudes14</title><path d="M240.6,339.52c-1.77-6.57-71.3-4.84-71.3-4.84H138.05l-.07-.1s-64.89-1.29-63.17,5.28c1.56,6,57.29,5.09,67.72,4.88l34,.08C184.39,344.94,242.25,345.65,240.6,339.52Z"/><path class="cls-1" d="M129.55,146.56a39.48,39.48,0,0,1,7.14-1.56l-1.34-16.39a51.72,51.72,0,0,0-8.34.22c-14.5,1.41-43.33,9-48.54,47.17-3.43-.35-7.52,4.43-2.61,7.8-5.81,4.81-8,18.44-7.11,26.13s7.11,14.18,12.46,9.31l.4,0A13.44,13.44,0,0,0,82.3,221c2.09,4.35,10.07,4.62,11.53-.27l.07,0a9.42,9.42,0,0,0,.76,1.33c2.48,3.53,13.53,4.48,13-8.24v-.37c5.91-.25,9-5.78,7.88-11.6-1-5.31-5.62-10.94-10.15-12.47,5.49-3.39,1.79-8.3-1.12-8.07l-.58,0v0C103.62,158,119.82,149.54,129.55,146.56Z"/><path class="cls-1" d="M78.45,176c-3.35,0-7,4.57-2.27,7.82-5.8,4.81-8,18.44-7.11,26.13s7.11,14.18,12.46,9.31l.4,0a13.44,13.44,0,0,0,.69,1.76c2.1,4.35,10.08,4.62,11.54-.27l.07,0A8.5,8.5,0,0,0,95,222c2.48,3.53,13.54,4.48,13-8.24v-.37c5.92-.25,9-5.78,7.88-11.6-1-5.31-5.61-10.94-10.15-12.47,5.5-3.39,1.79-8.3-1.12-8.07l-.32,0C92.79,182.47,81.51,180.06,78.45,176Z"/><path class="cls-2" d="M200.69,74.21v0l-.31-.1Z"/><path class="cls-1" d="M248.57,263.46l-8.14-11.84-15.09-22a3.65,3.65,0,0,1-.61-1.56l-10-70a3.83,3.83,0,0,1,.08-1.43l1.22-4.77,4.09-16.07,4.1-16.07a3.61,3.61,0,0,0,.08-1.35l-4.77-39a8.25,8.25,0,0,1-1,.94,13.22,13.22,0,0,1-6.34,2.31A25.58,25.58,0,0,1,217,95.56c1.26,13.51-8,25.42-20.61,26.61a22.71,22.71,0,0,1-20.52-9.72c-4.18-1.68-6.67-3.81-8.12-6.17A14,14,0,0,1,165.89,99a14.9,14.9,0,0,1,.52-3.92h0c1-3.7,3.26-7.88,7.33-9a22.66,22.66,0,0,1,18.11-12.8,21.54,21.54,0,0,1,8.53.9h0l.3.07c4,.91,6.46.2,12.65-2.41a6.6,6.6,0,0,1,5.2-.22l-.41-3.36A3.68,3.68,0,0,0,214,65l-50.35,7.21L146.3,74.71h0l-2-14.1-5.77.83-7.78,1.11,2,14.1,1.7-.25-1.7.25L123.45,78a3.68,3.68,0,0,0-3.12,4.16L127,128.83l2.54,17.73,19,132.86a3.68,3.68,0,0,0,4.16,3.12l8.52-1.22,18.81-2.69,17.81-2.55,13.21-1.89,35-5A3.67,3.67,0,0,0,248.57,263.46ZM130.06,128.61l1.1-.05Zm42.8,8.89,43.78-5.84-5.09,18.78L168,156.53ZM206,224.75l-16.16,2.08-15.19,1.95-2.14-14.94-2-14.05-2-14.06-2.14-14.91,16-2.27,16.14-2.29,12.13-1.72,2.18,15.18,2,14,2,14.06,2.19,15.26Z"/><path class="cls-1" d="M291,151.66l-.05.23s-29.24,31.36-74.87,0l-.07,0,4.09-16.07h0c30.16,24.49,51.7-2.83,51.93-3.13a16.47,16.47,0,0,0,2.64,5.34,62.74,62.74,0,0,0,9.44,10.1A16,16,0,0,0,291,151.66Z"/><path class="cls-1" d="M333.09,117.05c-4.89-5.08-10.67,1.41-14.19,4.55l-.42-.07a9.1,9.1,0,0,0-2.24-8,5.5,5.5,0,0,0-6.29-1.37h0a8.06,8.06,0,0,0-1.95-5.51c-3.1-3.33-12.12-3.53-20.1,2.68-1.31-2.34-6.23-9.65-10-11.75-3.22-1.8-7.76-1.86-9.84,2.29-1.31,2.63.88,5.68,2.91,7.37a30.39,30.39,0,0,1,7.61,8.72l-.36.32a8.61,8.61,0,0,0-1.23,9.6l0,0c-5.21-.68-6,3-4.89,6.81a16.47,16.47,0,0,0,2.64,5.34,62.74,62.74,0,0,0,9.44,10.1,16,16,0,0,0,6.89,3.55c4.09.86,7-.82,6-3.85,6.69,2,15.84-.67,27.14-14.72C327.26,129.59,338.58,122.77,333.09,117.05Z"/><path class="cls-1" d="M314.66,261.53l-45,62.53-3.81-2.49a2.77,2.77,0,0,1-.78-3.88l41.57-57.13.9-1.25a2.76,2.76,0,0,1,4.08-.45Z"/><path class="cls-1" d="M269.22,273.3c1.36-18.25,19.75-37.47,37.47-12.74l-41.57,57.13c-12-6.81-15.67-17.11-15.67-17.11s-.17-7.23,5.84-16c8.24-12,13.56-11.34,13.56-11.34Zm25.14-18.8"/><path class="cls-1" d="M199.75,106l-.5.42h0l-3.73-4.08a24.34,24.34,0,0,0,2.73-1.19l1.44,4.77Z"/><path class="cls-1" d="M195.52,102.29l3.73,4.08a17,17,0,0,1-5.7,2.76l-.07-.26-.76-5.75A21.48,21.48,0,0,0,195.52,102.29Z"/><path class="cls-1" d="M179,100l-2.82,6.3a9.45,9.45,0,0,1-4.33-7.54,7.39,7.39,0,0,1,1.86-5.26l.05,0A20.94,20.94,0,0,0,179,100Z"/><path class="cls-1" d="M182.71,92.21c1.7,1.14,2.91,3,4.6,4.1l-1.8,6.86A15.83,15.83,0,0,1,179,100l3.39-7.57h0l.13-.33Z"/><path class="cls-1" d="M202.46,99.34a7.35,7.35,0,0,1-2.71,6.61l-.06-.08-1.44-4.77a31.05,31.05,0,0,0,3.83-2.3l.26-.06A4.25,4.25,0,0,1,202.46,99.34Z"/><path class="cls-1" d="M185.51,103.17l-1.65,6.27a19.43,19.43,0,0,1-7.7-3.16h0L179,100A15.83,15.83,0,0,0,185.51,103.17Z"/><path class="cls-1" d="M196.64,95.79l1.61,5.31a24.34,24.34,0,0,1-2.73,1.19l-3.41-3.72L192,97.4l0-.14h0a14.38,14.38,0,0,0,3.89-1.37,5.76,5.76,0,0,1,.72-.34l.09.24Z"/><path class="cls-1" d="M192.11,98.57l3.41,3.72a21.48,21.48,0,0,1-2.8.83Z"/><path class="cls-1" d="M202.08,98.8a31.05,31.05,0,0,1-3.83,2.3l-1.61-5.31h0l-.09-.24c3.25-1.3,5.26,1.12,5.79,3.19Z"/><path class="cls-1" d="M180.05,278.63l-18.81,2.69s-.92,19.26-33,21.2c0,0,7,2.74,12.66,12.1a25.32,25.32,0,0,1,3.13,9.67l-.49.4.85-.16h0c5.28-3.06,9.69-4.32,13.28-4.36,25.32-12.56,22.35-41.54,22.35-41.54Z"/><path class="cls-1" d="M240.43,251.62c-13.61-5.89-28.71-8.51-42-9.54a201.09,201.09,0,0,0-24.22-.36c-7.28.33-11.8.93-11.8.93l2.44,22.17c8.53-1.71,17.51-.83,26.32,1.57a108.31,108.31,0,0,1,19.87,7.8,187.75,187.75,0,0,1,38.38,26.39s-.17-7.23,5.84-16c8.24-12,13.56-11.34,13.56-11.34C261.55,263.31,251.48,256.39,240.43,251.62Z"/><path d="M195.66,89.31a1.55,1.55,0,1,1,1.55-1.55A1.55,1.55,0,0,1,195.66,89.31Z"/><path class="cls-1" d="M157.7,320.17c-3.59,0-8,1.3-13.28,4.36h0c-.84.49-1.71,1-2.59,1.6l1.74-1.44.49-.4a25.32,25.32,0,0,0-3.13-9.67c-5.65-9.36-12.66-12.1-12.66-12.1-10.14,0-13.57,7-13.57,7l15.7,28.1h38.35C172.33,332.46,169.27,320,157.7,320.17Z"/><path class="cls-2" d="M294.36,254.5H284.5S290.72,251.57,294.36,254.5Z"/><path d="M198.83,84.43a1.55,1.55,0,1,1,1.55-1.55A1.54,1.54,0,0,1,198.83,84.43Z"/><path class="cls-1" d="M192.72,103.12a16.72,16.72,0,0,1-7.21,0l1.8-6.86a5.84,5.84,0,0,0,3.7,1l1.1,1.21Z"/><path class="cls-1" d="M185.51,103.17a16.72,16.72,0,0,0,7.21,0l.76,5.75.07.26a19,19,0,0,1-2.61.55,22,22,0,0,1-7.08-.23h0Z"/><polygon class="cls-1" points="172.86 137.5 167.95 156.53 211.55 150.44 216.64 131.66 172.86 137.5"/><polygon class="cls-1" points="216.91 207.82 214.89 193.76 212.87 179.72 210.69 164.54 198.56 166.26 182.42 168.54 166.38 170.82 168.52 185.74 170.53 199.79 172.54 213.84 174.68 228.78 189.87 226.83 206.03 224.75 219.1 223.07 216.91 207.82"/><circle cx="190.89" cy="83.55" r="1.55"/><path class="cls-1" d="M179,100a20.94,20.94,0,0,1-5.24-6.46l-.05,0a7.19,7.19,0,0,1,8.82-1.4h0l-.13.33h0Z"/><polygon class="cls-1" points="125.53 343.6 108.23 313.8 114.7 309.51 130.4 337.61 163.7 337.61 168.75 337.61 170.4 337.61 169.79 343.6 125.53 343.6"/><path class="cls-1" d="M191,97.36a8.21,8.21,0,0,0,.93-.1h0l0,.14.15,1.17Z"/><path class="cls-1" d="M218.54,71.58a6.6,6.6,0,0,0-5.2.22c-6.19,2.61-8.68,3.32-12.65,2.41v0l-.31-.1h0a21.54,21.54,0,0,0-8.53-.9A22.66,22.66,0,0,0,173.74,86c-4.07,1.17-6.38,5.35-7.33,9a14.9,14.9,0,0,0-.52,3.92,14,14,0,0,0,1.89,7.28c1.45,2.36,3.94,4.49,8.12,6.17a22.71,22.71,0,0,0,20.52,9.72c12.65-1.19,21.87-13.1,20.61-26.61a25.58,25.58,0,0,0-4.87-12.89,13.22,13.22,0,0,0,6.34-2.31,8.25,8.25,0,0,0,1-.94C222.31,76.39,221.36,72.8,218.54,71.58Zm-19.71,9.75a1.55,1.55,0,1,1-1.55,1.55A1.55,1.55,0,0,1,198.83,81.33Zm-3.17,4.88a1.55,1.55,0,1,1-1.55,1.55A1.55,1.55,0,0,1,195.66,86.21ZM190.89,82a1.55,1.55,0,1,1-1.55,1.55A1.55,1.55,0,0,1,190.89,82ZM171.12,97.76c0,.68,0,1.38.11,2.08C171.17,99.14,171.13,98.44,171.12,97.76Zm29,12.49c.31-.27.61-.54.9-.83C200.72,109.71,200.42,110,200.11,110.25Zm-.36-4.3-.5.42h0a17,17,0,0,1-5.7,2.76,19,19,0,0,1-2.61.55,22,22,0,0,1-7.08-.23h0a19.43,19.43,0,0,1-7.7-3.16h0a9.45,9.45,0,0,1-4.33-7.54,7.39,7.39,0,0,1,1.86-5.26,7.19,7.19,0,0,1,8.82-1.4h0l.2.13c1.7,1.14,2.91,3,4.6,4.1a5.84,5.84,0,0,0,3.7,1,8.21,8.21,0,0,0,.93-.1,14.38,14.38,0,0,0,3.89-1.37,5.76,5.76,0,0,1,.72-.34c3.25-1.3,5.26,1.12,5.79,3.19a4.25,4.25,0,0,1,.12.6A7.35,7.35,0,0,1,199.75,106Z"/><path class="cls-2" d="M163.94,327.27l-5.48-3.21S162.53,323.9,163.94,327.27Z"/><path class="cls-3" d="M216,151.87l4.09-16.07,4.1-16.07a3.61,3.61,0,0,0,.08-1.35l-4.77-39"/><path class="cls-4" d="M240.43,251.62l-15.09-22a3.65,3.65,0,0,1-.61-1.56l-10-70a3.83,3.83,0,0,1,.08-1.43l1.22-4.77"/><path class="cls-3" d="M129.55,146.56l19,132.86a3.68,3.68,0,0,0,4.16,3.12l8.52-1.22,18.81-2.69,17.81-2.55,13.21-1.89"/><path class="cls-3" d="M132.75,76.65,123.45,78a3.68,3.68,0,0,0-3.12,4.16L127,128.83"/><path class="cls-3" d="M218.54,71.58l-.41-3.36A3.68,3.68,0,0,0,214,65l-50.35,7.21L146.3,74.71"/><line class="cls-3" x1="166.41" y1="95.08" x2="163.61" y2="72.23"/><polyline class="cls-3" points="174.24 241.72 170.78 236.68 160.53 165.09 170.29 126.8 167.78 106.28"/><line class="cls-3" x1="197.86" y1="276.08" x2="191.2" y2="266.39"/><path class="cls-3" d="M173.74,86a22.66,22.66,0,0,1,18.1-12.8,21.57,21.57,0,0,1,8.54.9"/><path class="cls-3" d="M212.16,82.67A25.58,25.58,0,0,1,217,95.56c1.26,13.51-8,25.42-20.61,26.61a22.71,22.71,0,0,1-20.52-9.72"/><path class="cls-3" d="M295.44,116.71l.39-.69"/><path class="cls-3" d="M287.9,109.29c8-6.21,17-6,20.1-2.68a8.06,8.06,0,0,1,1.95,5.51,21,21,0,0,1-3.35,10.78,21.86,21.86,0,0,1-4.46,5c-2.2,1.74-4.71,2.71-7.06,1.41-5.27-2.9-2.18-8.11.36-12.62"/><path class="cls-3" d="M310,112.12a5.5,5.5,0,0,1,6.29,1.37,9.1,9.1,0,0,1,2.24,8,18.82,18.82,0,0,1-1.16,3.92c-1.2,3-5.92,9.47-9.54,10.26s-6.88-3.8-5.36-7.75"/><path class="cls-3" d="M318.9,121.6c3.52-3.14,9.3-9.63,14.19-4.55,5.49,5.72-5.83,12.54-9,16"/><path class="cls-3" d="M324.1,133.09c-11.3,14-20.45,16.72-27.14,14.72a16.86,16.86,0,0,1-7.71-5.18"/><path class="cls-3" d="M297,147.81c1,3-1.88,4.71-6,3.85a16,16,0,0,1-6.89-3.55,62.74,62.74,0,0,1-9.44-10.1,16.47,16.47,0,0,1-2.64-5.34c-1.07-3.82-.32-7.49,4.89-6.81"/><path class="cls-3" d="M287.9,109.29c-1.31-2.34-6.23-9.65-10-11.75-3.22-1.8-7.76-1.86-9.84,2.29-1.31,2.63.88,5.68,2.91,7.37a30.39,30.39,0,0,1,7.61,8.72"/><path class="cls-3" d="M279.38,129.57a14.41,14.41,0,0,1-2.43-3.73,8.61,8.61,0,0,1,1.23-9.6"/><polyline class="cls-3" points="295.44 116.71 295.44 116.71 292.64 117.77"/><path class="cls-3" d="M272,132.67h0c-.23.3-21.77,27.62-51.93,3.13"/><path class="cls-3" d="M290.94,151.89s-29.24,31.36-74.87,0"/><path class="cls-4" d="M157.7,320.17c25.32-12.56,22.35-41.54,22.35-41.54"/><path class="cls-4" d="M143.57,324.69l.85-.16"/><path class="cls-4" d="M161.24,281.32s-.92,19.26-33,21.2"/><path class="cls-3" d="M163.7,337.61H130.4l-15.7-28.1s3.43-7,13.57-7c0,0,7,2.74,12.66,12.1a25.32,25.32,0,0,1,3.13,9.67"/><path class="cls-3" d="M141.83,326.13c.88-.58,1.75-1.11,2.59-1.6h0c5.28-3.06,9.69-4.32,13.28-4.36,11.57-.14,14.63,12.29,11.05,17.44"/><line class="cls-3" x1="141.83" y1="326.13" x2="141.83" y2="326.14"/><polyline class="cls-3" points="114.7 309.51 108.23 313.8 125.53 343.6 169.79 343.6 170.4 337.61 168.75 337.61 163.7 337.61"/><polygon class="cls-3" points="146.3 74.71 132.75 76.65 130.73 62.55 138.51 61.44 144.28 60.61 146.3 74.71"/><path class="cls-4" d="M164.88,264.82c8.53-1.71,17.51-.83,26.32,1.57a108.31,108.31,0,0,1,19.87,7.8,187.75,187.75,0,0,1,38.38,26.39s-.17-7.23,5.84-16c8.24-12,13.56-11.34,13.56-11.34-7.3-10-17.37-16.89-28.42-21.66-13.61-5.89-28.71-8.51-42-9.54a201.09,201.09,0,0,0-24.22-.36c-7.28.33-11.8.93-11.8.93"/><path class="cls-3" d="M135.35,128.61a51.72,51.72,0,0,0-8.34.22c-14.5,1.41-43.33,9-48.54,47.17"/><path class="cls-3" d="M103.67,181.25c0-23.24,16.15-31.71,25.88-34.69a39.48,39.48,0,0,1,7.14-1.56"/><path class="cls-3" d="M75.86,183.8c-5.81,4.81-8,18.44-7.11,26.13s7.11,14.18,12.46,9.31"/><path class="cls-3" d="M80.72,214.62a21.23,21.23,0,0,0,.89,4.59A13.44,13.44,0,0,0,82.3,221c2.09,4.35,10.07,4.62,11.53-.27"/><path class="cls-3" d="M92.47,214.89a18.7,18.7,0,0,0,1.43,5.78,8.77,8.77,0,0,0,.76,1.32c2.48,3.54,13.53,4.49,13-8.23"/><path class="cls-3" d="M105.37,189.32c4.53,1.53,9.12,7.16,10.15,12.47,1.12,5.82-2,11.35-7.88,11.6a10.28,10.28,0,0,1-1.9-.09"/><path class="cls-3" d="M95.45,190s6.46,1.25,9.45-.4a4.39,4.39,0,0,0,.47-.27c5.49-3.39,1.79-8.3-1.12-8.07l-.58,0c-1.9.11-5.16.14-5.16.14"/><path class="cls-3" d="M89.79,180.16c-3.53-.71-8-2-11.15-4.06"/><path class="cls-3" d="M78.47,176c-3.43-.35-7.52,4.43-2.61,7.8a31.31,31.31,0,0,0,11.61,4.81"/><path class="cls-3" d="M269.62,280.45a25.74,25.74,0,0,1-.4-7.15c1.36-18.25,19.75-37.47,37.47-12.74l-41.57,57.13c-12-6.81-15.67-17.11-15.67-17.11"/><path class="cls-3" d="M306.69,260.56l.9-1.25a2.76,2.76,0,0,1,4.08-.45l3,2.67-45,62.53-3.81-2.49a2.77,2.77,0,0,1-.78-3.88"/><path class="cls-3" d="M138.51,61.44S139.47,23,107.1,17"/><path class="cls-3" d="M144.86,35.24A40.17,40.17,0,0,0,135.72,20"/><path class="cls-3" d="M148.05,27.9a40.05,40.05,0,0,0-4-6.71"/><path class="cls-3" d="M122.52,46.78a39.94,39.94,0,0,0-9.37-15.13"/><path class="cls-3" d="M114.76,46.23a39.55,39.55,0,0,0-4.13-6.65"/><path class="cls-3" d="M106.82,15.69A3.64,3.64,0,1,1,103.18,12,3.64,3.64,0,0,1,106.82,15.69Z"/><polygon class="cls-3" points="172.86 137.5 167.95 156.53 211.55 150.44 216.64 131.66 172.86 137.5"/><polygon class="cls-3" points="168.52 185.74 166.38 170.82 182.42 168.54 198.56 166.26 210.69 164.54 212.87 179.72 214.89 193.76 216.91 207.82 219.1 223.07 206.03 224.75 189.87 226.83 174.68 228.78 172.54 213.84 170.53 199.79 168.52 185.74"/><polyline class="cls-3" points="182.43 168.6 182.43 168.6 184.35 183.59 186.14 197.67 187.94 211.75 189.78 226.17"/><polyline class="cls-3" points="198.6 166.53 200.5 181.4 202.29 195.48 204.09 209.56 205.95 224.09"/><polyline class="cls-3" points="212.87 179.72 200.5 181.4 184.35 183.59 168.52 185.74"/><polyline class="cls-3" points="214.46 193.83 202.29 195.48 186.14 197.67 170.83 199.75"/><polyline class="cls-3" points="216.91 207.82 204.09 209.56 187.94 211.75 173.14 213.76"/><path class="cls-3" d="M200.38,74.13h0l.3.07c4,.91,6.46.2,12.65-2.41a6.6,6.6,0,0,1,5.2-.22c2.82,1.22,3.77,4.81,1,7.84a8.25,8.25,0,0,1-1,.94,13.22,13.22,0,0,1-6.34,2.31,39.11,39.11,0,0,1-7.63.19"/><path class="cls-3" d="M181.71,87.19c-3.18-1.56-5.82-1.78-8-1.16-4.07,1.17-6.38,5.35-7.33,9a14.9,14.9,0,0,0-.52,3.92,14,14,0,0,0,1.89,7.28c1.45,2.36,3.94,4.49,8.12,6.17a40.31,40.31,0,0,0,6.24,1.88c5.17,1.15,13.85.53,19.4-5.46"/><path class="cls-3" d="M199.25,106.37l.5-.42a7.35,7.35,0,0,0,2.71-6.61,4.25,4.25,0,0,0-.12-.6c-.53-2.07-2.54-4.49-5.79-3.19a5.76,5.76,0,0,0-.72.34,14.38,14.38,0,0,1-3.89,1.37,8.21,8.21,0,0,1-.93.1,5.84,5.84,0,0,1-3.7-1c-1.69-1.15-2.9-3-4.6-4.1l-.2-.13h0a7.19,7.19,0,0,0-8.82,1.4,7.39,7.39,0,0,0-1.86,5.26,9.45,9.45,0,0,0,4.33,7.54"/><path class="cls-3" d="M183.86,109.45a22,22,0,0,0,7.08.23,19,19,0,0,0,2.61-.55,17,17,0,0,0,5.7-2.76"/><path class="cls-3" d="M176.16,106.28a19.43,19.43,0,0,0,7.7,3.16"/><path class="cls-3" d="M173.74,93.52A20.94,20.94,0,0,0,179,100a15.83,15.83,0,0,0,6.53,3.19,16.72,16.72,0,0,0,7.21,0,21.48,21.48,0,0,0,2.8-.83,24.34,24.34,0,0,0,2.73-1.19,31.05,31.05,0,0,0,3.83-2.3"/><polyline class="cls-3" points="196.64 95.79 198.25 101.1 199.69 105.87"/><polyline class="cls-3" points="191.96 97.4 192.11 98.56 192.72 103.12 193.48 108.88"/><polyline class="cls-3" points="187.31 96.31 185.51 103.17 183.86 109.44 183.86 109.45"/><polyline class="cls-3" points="182.38 92.42 178.98 99.98 176.16 106.28 176.16 106.28"/><circle class="cls-5" cx="190.89" cy="83.55" r="1.55"/><path class="cls-5" d="M200.38,82.88a1.55,1.55,0,1,1-1.55-1.55A1.54,1.54,0,0,1,200.38,82.88Z"/><path class="cls-5" d="M197.21,87.76a1.55,1.55,0,1,1-1.55-1.55A1.56,1.56,0,0,1,197.21,87.76Z"/><line class="cls-3" x1="210.81" y1="235.08" x2="215.34" y2="244.2"/><line class="cls-3" x1="204.07" y1="236.01" x2="206.72" y2="242.87"/><line class="cls-3" x1="196.59" y1="237.5" x2="198.46" y2="242.08"/><path class="cls-3" d="M284.5,254.5s6.22-2.93,9.86,0"/><line class="cls-3" x1="294.36" y1="254.5" x2="294.36" y2="254.5"/><path class="cls-3" d="M158.46,324.06s4.07-.16,5.48,3.21"/><ellipse class="cls-6" cx="201.36" cy="63.23" rx="11.32" ry="13.91" transform="translate(-3.92 14.19) rotate(-4)"/><ellipse class="cls-6" cx="184.16" cy="65.04" rx="12.14" ry="14.92" transform="translate(-4.09 12.99) rotate(-4)"/><ellipse cx="182.3" cy="63.84" rx="4.07" ry="5.55" transform="matrix(1, -0.07, 0.07, 1, -4.01, 12.86)"/><ellipse class="cls-1" cx="178.84" cy="62.75" rx="2.2" ry="1.71" transform="translate(-3.94 12.62) rotate(-4)"/><path class="cls-7" d="M196.76,62.75a9.88,9.88,0,0,1,12-2.09"/><path class="cls-3" d="M167.4,59.49c0-4.51,4.06-17.54,18.77-14.6"/><path d="M160.94,281.39s-.81,7-3.34,8.95,22.7-6.28,22.7-6.28l-1.2-5.43Z"/><path d="M166.19,267.25c7.57.35,22.9,2.57,27.37,9.47l16.12-2.31s-16.33-14-43.14-10.92S165.5,267.21,166.19,267.25Z"/><path d="M131.69,63s1.65,10.92,11.9,11.71l-10.17,1.56Z"/><path d="M136.62,146.49s-5.46,3.91-5.63,5.94-1.07-5.94-1.07-5.94l6.7-.94Z"/></svg>