<svg id="Layer_1" data-name="Layer 1" xmlns="http://www.w3.org/2000/svg" viewBox="0 0 400 400"><defs><style>.cls-1,.cls-2,.cls-5{fill:#fff;}.cls-1,.cls-10,.cls-2,.cls-3,.cls-4,.cls-6,.cls-7,.cls-8{stroke:#000;}.cls-1,.cls-10,.cls-2,.cls-3,.cls-4,.cls-6,.cls-8{stroke-miterlimit:10;}.cls-1,.cls-10,.cls-2,.cls-3,.cls-4,.cls-6,.cls-7{stroke-width:1.88px;}.cls-2,.cls-4,.cls-7{stroke-linecap:round;}.cls-3{fill:#00ac94;}.cls-10,.cls-4,.cls-7,.cls-8{fill:none;}.cls-6{fill:#f3e5d4;}.cls-7{stroke-linejoin:round;}.cls-8{stroke-width:1.67px;}.cls-9{fill:#fcdceb;}</style></defs><title>Desk_Dudes17</title><polyline class="cls-1" points="315.67 258.9 311.07 316.18 274.39 320.13 276.71 257.52"/><path class="cls-1" d="M308.28,316.68l.89-.44c6.44-3.13,45.43-20.52,37.19,20.71l-72.52,1.16C268.93,330,277.51,320,277.51,320l30.77-3.29"/><rect class="cls-1" x="271.37" y="337.52" width="78.9" height="6.83" rx="3.42" ry="3.42"/><path class="cls-2" d="M298.75,322c2.64-1.86,10.87-6,10.87-6"/><polyline class="cls-1" points="261.08 258.9 256.47 316.18 219.8 320.13 222.12 257.52"/><path class="cls-1" d="M251,316.68l.89-.44c6.44-3.13,45.43-20.52,37.18,20.71l-72.51,1.16C211.6,330,220.17,320,220.17,320L251,316.68"/><rect class="cls-1" x="214.03" y="337.52" width="78.9" height="6.83" rx="3.42" ry="3.42"/><path class="cls-1" d="M354.05,160.27c2.77,5.47,10.67,22.64,5.06,32.63-8.73,15.57-28.38,1.95-34.17-4.81l1.88-24.51,4.93,4,0,.06a110.72,110.72,0,0,0,4.35,14l-4.35-14c-.68-2.76-1-4.59-1-4.59l1-2.16,18.37-2.62Z"/><path class="cls-3" d="M331.77,167.69l4.35,14A110.72,110.72,0,0,1,331.77,167.69Z"/><path class="cls-4" d="M331.75,167.63l-4.93-4-1.88,24.51c5.79,6.76,25.44,20.38,34.17,4.81,5.61-10-2.29-27.16-5.06-32.63l-3.93-2-18.37,2.62-1,2.16s.37,1.83,1,4.59a110.72,110.72,0,0,0,4.35,14"/><polyline class="cls-1" points="272.22 96.36 211 97.93 201.62 260.01 262.65 259.5"/><polygon class="cls-1" points="319.43 260.01 331.75 99.25 272.22 96.36 262.65 259.5 319.43 260.01"/><path class="cls-5" d="M219.37,148.57l12.2,7.33c-4.84,4.73-16.84,12.11-16.61,20.43.09,3,5.45,11.78,7,14.3-6.3,5.23-17.82,9.59-22.16,10.41a2.57,2.57,0,0,0-1,.42c-5-5-6.69-6.71-10.66-12.62A25,25,0,0,1,184,176.11c-.31-15.56,13.91-25.13,24.33-34.16Z"/><path class="cls-4" d="M293.29,164.87s-10.63-4.32-15.82,2.88"/><path class="cls-4" d="M275.09,166.42a5.68,5.68,0,0,1,3.09,2.65"/><polygon class="cls-1" points="278.69 183.13 274.52 251.97 311.51 252.74 315.94 185.48 278.69 183.13"/><ellipse class="cls-6" cx="295.32" cy="234.48" rx="9.18" ry="6.96" transform="translate(42.78 514.51) rotate(-86.41)"/><path class="cls-4" d="M295.59,230.05c1.86.11,3.24,2.19,3.09,4.64s-1.79,4.34-3.64,4.23"/><ellipse class="cls-2" cx="310.37" cy="126.61" rx="12.47" ry="13.5"/><ellipse class="cls-2" cx="291.27" cy="126.49" rx="12.47" ry="13.5"/><polyline class="cls-1" points="275.63 109.85 302.03 118.7 324.76 112.73"/><ellipse cx="296.18" cy="126.14" rx="3.68" ry="4.44"/><ellipse cx="312.36" cy="126.14" rx="3.68" ry="4.44"/><circle class="cls-5" cx="293.48" cy="123.74" r="2.04"/><circle class="cls-5" cx="309.32" cy="123.77" r="2.04"/><path class="cls-2" d="M241.41,322c2.64-1.86,10.88-6,10.88-6"/><polygon points="260.29 268.73 222.12 275.31 222.66 260.01 261.03 259.51 260.29 268.73"/><polygon points="314.6 268.73 276.43 275.31 276.98 260.01 315.34 259.51 314.6 268.73"/><path class="cls-5" d="M226.75,195.86l-.36,0a3.1,3.1,0,0,0,1-2.18c-.24-3.64-4.47-3.81-5.33-3-6.3,5.23-17.82,9.59-22.16,10.41a2.57,2.57,0,0,0-1,.42,2.53,2.53,0,0,0,1,4.63,7.86,7.86,0,0,0,2.46-.15h0s-3,6.85.3,10l-.3.22c-1.79,5.33-5.94,12.47-3.09,16.29,2.33,3.13,6,.19,7-3.21-.53,2.25-.68,4.31,0,5.86a3.88,3.88,0,0,0,4.66,2.46c5-1,5.06-7.5,6.65-12.27-1.6,5.66-3.66,13.43,1.73,13.84,7.67.59,9.45-18.26,9.31-26.52,3.06,2.84,5.68,5.28,9.17,4.42,2.77-.69,3.57-2.8,3.07-5.31C240,208.07,230.89,199.55,226.75,195.86Z"/><path class="cls-5" d="M354,154.6l.08-.22c1.39-1.21,1.79-12.86.5-18.9,2.22-7.22,4.34-26.49-5.72-21.73-3.32,1.57-.76,8.29-1.75,16H347c.25-3.1-4.89-19.2-9.78-18-6.89,1.63-2.42,9.1-1.94,10.53.26.78.55,1.56.81,2.39-2.08-3.33-4.64-5.45-8.89-3.49-4,1.82-8.17,6.73-7.47,10.57,1.11,6.09,5.8,3.77,8.58.57l.35.05a27,27,0,0,1,1.25,8.9l-.09.2c-3.68-1.66-8-2-8.93-.4-1.38,2.45-1.23,4.89,4.45,8.45a36.24,36.24,0,0,0,4.39,2.46c-.68,1.67.09,4.25.8,5.81-1.81.76-5.8,9.64,17.51,4,1.92-.47,7.24-1.27,7.48-3.71C355.72,156.22,355.12,155,354,154.6Z"/><path class="cls-4" d="M336.12,124.6c-2.08-3.33-4.64-5.45-8.89-3.49-4,1.82-8.17,6.73-7.47,10.57,1.11,6.09,5.8,3.77,8.58.57a10.05,10.05,0,0,0,1.87-3"/><path class="cls-4" d="M347,129.73c.25-3.1-4.89-19.2-9.78-18-6.89,1.63-2.42,9.1-1.94,10.53.26.78.55,1.56.81,2.39h0a21.25,21.25,0,0,1,1,8"/><path class="cls-4" d="M354.55,135.48c2.22-7.22,4.34-26.49-5.72-21.73-3.32,1.57-.76,8.29-1.75,16a22.89,22.89,0,0,1-1.27,5.18"/><path class="cls-4" d="M354.55,135.48c1.29,6,.89,17.69-.5,18.9"/><path class="cls-7" d="M350.58,155.31a4.29,4.29,0,0,1,3.39-.71c1.15.38,1.75,1.62,1.58,3.39-.24,2.44-5.56,3.24-7.48,3.71-23.31,5.66-19.32-3.22-17.51-4-.71-1.56-1.48-4.14-.8-5.81a36.24,36.24,0,0,1-4.39-2.46c-5.68-3.56-5.83-6-4.45-8.45.91-1.63,5.25-1.26,8.93.4a11.09,11.09,0,0,1,4.63,3.53"/><path class="cls-4" d="M328.69,132.3a27,27,0,0,1,1.25,8.9"/><path class="cls-7" d="M330.56,157.72s3.15,2.72,12.52,0"/><path d="M301.25,143.14c-.61,6.48-5.61,11.54-11.7,11.54-6.49,0-12.05-3.41-11.75-17l-.21-.17L256.1,122.19a1.54,1.54,0,0,0-1.85.22c-1.94,1.46-6.66,5.2-7.05,5.34a1.33,1.33,0,0,1-1.51-2.09l8-9a1.39,1.39,0,0,1,1.82-.22l23.89,16.3a1.35,1.35,0,0,0,.73.24l42.91,1.58a1.33,1.33,0,0,1,1.32,1.31v7.26c0,6.77-5.16,12.25-11.53,12.25s-11.53-5.48-11.53-12.25Z"/><path class="cls-5" d="M295.35,145c-.78-2-1.57-4.05-2.45-6a23.64,23.64,0,0,0-2.07-3.84s-4.86-.19-4.86-.19,2,4.44,2.83,6.25a2.66,2.66,0,0,0-2.08.89,2.37,2.37,0,0,0-.3,2.63q1.2,2.47,2.54,4.87c.61,1.1,1.33,2.12,2,3.16a8.88,8.88,0,0,0,3.58-1.09c-.51-1.42-.78-2.46-1.3-3.86C294.6,147.53,295.93,146.46,295.35,145Z"/><path class="cls-5" d="M317.61,145.94c-.79-2-1.59-4-2.48-6a23.4,23.4,0,0,0-2.08-3.81s-4.87-.18-4.87-.18,2.08,4.41,2.86,6.21a2.66,2.66,0,0,0-2.08.89,2.33,2.33,0,0,0-.28,2.62q1.2,2.44,2.55,4.82c.62,1.09,1.34,2.11,2,3.14a12.41,12.41,0,0,0,3.65-.81,26.87,26.87,0,0,0-1.39-4.11C316.87,148.5,318.19,147.43,317.61,145.94Z"/><path class="cls-1" d="M302.15,146.18s14.32,4.78,11.2,11.54-15.45-4.08-15.45-4.08"/><path class="cls-4" d="M208.33,142c-10.42,9-24.64,18.6-24.33,34.16a25,25,0,0,0,4.17,12.73c4,5.91,5.66,7.6,10.66,12.62"/><path class="cls-4" d="M222,190.63c-1.6-2.52-7-11.28-7-14.3-.23-8.32,11.77-15.7,16.61-20.43"/><path class="cls-4" d="M226.75,195.86c4.14,3.69,13.26,12.21,14,15.87.5,2.51-.3,4.62-3.07,5.31-3.49.86-6.11-1.58-9.17-4.42"/><path class="cls-4" d="M202.26,216.17c-1.79,5.33-5.94,12.47-3.09,16.29,2.33,3.13,6,.19,7-3.21"/><path class="cls-4" d="M209.22,220.08c-1,2.88-2.36,6.19-3.06,9.17h0c-.53,2.25-.68,4.31,0,5.86a3.88,3.88,0,0,0,4.66,2.46c5-1,5.06-7.5,6.65-12.27"/><path class="cls-4" d="M218.47,221.58c-.22,1-.6,2.3-1,3.72h0c-1.6,5.66-3.66,13.43,1.73,13.84,7.67.59,9.45-18.26,9.31-26.52,0-.42,0-.81,0-1.18"/><path class="cls-4" d="M217.19,201.46a50.1,50.1,0,0,1-14.93,4.48,7.86,7.86,0,0,1-2.46.15,2.53,2.53,0,0,1-1-4.63,2.57,2.57,0,0,1,1-.42c4.34-.82,15.86-5.18,22.16-10.41"/><path class="cls-4" d="M222,190.63c.86-.79,5.09-.62,5.33,3a3.1,3.1,0,0,1-1,2.18,15,15,0,0,1-3.63,2.77"/><path class="cls-4" d="M202.26,206s-3,6.85.3,10a2.5,2.5,0,0,0,.24.22"/><path class="cls-7" d="M323.91,316.85s13-6,16.74,2.15"/><path class="cls-7" d="M266.59,316.85s13-6,16.74,2.15"/><path class="cls-5" d="M241.42,320.83H202.26l0,1.3c10.44,2.79,14.17,8.19,15.24,13,2.86.55,5.92,1.3,9.21,2.07,1.69.4,3.44.8,5.26,1.18,8.88,1.86,31.51-.14,31.51-.14h.38C263.68,332,260.07,323.21,241.42,320.83Z"/><path class="cls-5" d="M263.65,338.69h-.38s-22.63,2-31.51.14c-1.81-.38-3.56-.78-5.25-1.18-3.29-.77-6.36-1.52-9.21-2.07a15.25,15.25,0,0,1,.29,1.82c0,.44.07.86.08,1.28a17.23,17.23,0,0,1-1,6.23h46A17.23,17.23,0,0,0,263.65,338.69Z"/><path class="cls-5" d="M217.76,336.91a15.32,15.32,0,0,0-.3-1.82c-1.07-4.77-4.8-10.17-15.24-13a51.82,51.82,0,0,0-6.78-1.3H156.28l-.4,15.63h.06c6.23-4,14.38-1.73,24.76.7,1.69.4,3.44.8,5.25,1.18,3.74.78,9.94.88,15.85.73,8.09-.2,15.66-.87,15.66-.87h.38C217.83,337.77,217.8,337.35,217.76,336.91Z"/><polygon class="cls-5" points="240.45 260.5 203.66 258.14 202.26 315.42 203.92 315.42 237.81 315.42 241.42 315.42 240.45 260.5"/><polygon class="cls-5" points="157.68 258.14 156.28 315.42 158.31 315.42 192.2 315.42 195.44 315.42 194.47 260.5 157.68 258.14"/><rect class="cls-5" x="203.92" y="315.42" width="33.89" height="5.42"/><rect class="cls-5" x="158.31" y="315.42" width="33.9" height="5.42"/><path class="cls-5" d="M217.84,338.19h-.38s-7.57.67-15.66.87c-5.91.15-12.11.05-15.85-.73-1.81-.38-3.56-.78-5.25-1.18-10.38-2.43-18.53-4.68-24.76-.7h-.06l-.2,8h61.16A17.23,17.23,0,0,0,217.84,338.19Z"/><polyline class="cls-8" points="203.92 315.42 202.26 315.42 203.66 258.14 240.45 260.5 241.42 315.42 237.81 315.42"/><polyline class="cls-8" points="203.92 320.83 202.26 320.83 202.22 322.13"/><path class="cls-8" d="M216.84,344.42h46a17.23,17.23,0,0,0,1-6.23c-.14-6.16-3.75-15-22.4-17.36h-3.61"/><path class="cls-8" d="M217.46,335.09c2.86.55,5.92,1.3,9.21,2.07,1.69.4,3.44.8,5.26,1.18,8.88,1.86,31.51-.14,31.51-.14"/><rect class="cls-8" x="203.92" y="315.42" width="33.89" height="5.42"/><polyline class="cls-8" points="158.31 315.42 156.28 315.42 157.68 258.14 194.47 260.5 195.44 315.42 192.2 315.42"/><path class="cls-8" d="M158.31,320.83h-2l-.4,15.63-.2,8h61.16a17.23,17.23,0,0,0,1-6.23c0-.42,0-.84-.08-1.28a15.32,15.32,0,0,0-.3-1.82c-1.08-4.77-4.8-10.17-15.24-13a51.82,51.82,0,0,0-6.78-1.3H192.2"/><path class="cls-8" d="M155.94,336.46c6.23-4,14.38-1.73,24.76.7,1.69.4,3.44.8,5.25,1.18,3.74.78,9.94.88,15.85.73,8.09-.2,15.66-.87,15.66-.87"/><rect class="cls-8" x="158.31" y="315.42" width="33.9" height="5.42"/><path class="cls-5" d="M234.61,93.69v-.25L194.08,82.25l-59.36,8S146.67,170,146.67,254V254l40.55,11.38,58-4.37S249.06,187.39,234.61,93.69Z"/><path class="cls-4" d="M194.08,82.25l-59.36,8S146.67,170,146.67,254"/><path class="cls-7" d="M234.61,93.69l-59.35,8a.42.42,0,0,0,0,.07c.42,2.82,11.94,81.23,11.94,163.69l58-4.37S249.06,187.39,234.61,93.69Z"/><line class="cls-4" x1="194.08" y1="82.25" x2="234.61" y2="93.44"/><polyline class="cls-4" points="135.33 90.7 175.27 101.72 175.86 101.89"/><polyline class="cls-4" points="146.5 253.98 146.66 254.03 187.21 265.41"/><g id="_Group_" data-name="&lt;Group&gt;"><path d="M212.28,132.26c1.74,11.85-5.16,18.12-14.83,18-11.19-.21-13-10.26-13.25-12.92h0c-4.82-1.23-27.36-9.19-30.76-10.42-2-.72-2.82,1.77-5,4.49s-4,.64-2.65-2.9c1.5-4,3.1-8.66,5.7-8.66,3.07,0,23,7.44,30.31,9.39,19.47-3.24,53.3-10.92,57.61-11.76l1.4,7.76c2.51,13.4-4.69,19.93-14.89,19.74-10.69-.2-13-9.32-13.42-12.7Z"/><path class="cls-4" d="M181.75,129.2c19.47-3.24,53.3-10.92,57.61-11.76l1.4,7.76c2.51,13.4-4.69,19.93-14.89,19.74-10.69-.2-13-9.32-13.42-12.7a12.29,12.29,0,0,1-.12-1.23"/><path class="cls-4" d="M181.75,129.2c-7.34-1.95-27.24-9.38-30.31-9.39-2.6,0-4.2,4.67-5.7,8.66-1.33,3.54.47,5.63,2.65,2.9s3-5.21,5-4.49c3.4,1.23,25.94,9.19,30.76,10.42"/><path class="cls-4" d="M212.07,131c.08.42.15.84.21,1.25,1.74,11.85-5.16,18.12-14.83,18-11.19-.21-13-10.26-13.25-12.92,0-.37,0-.59,0-.63l-.15-4.92"/></g><path class="cls-5" d="M262.77,172.56c-1-12.47-10.12-21.94-20.8-25.57l.6,6.6.05.18c4.38-1.55,8-.59,8.76.93.3.61.76,2.1-.33,3h0a5.74,5.74,0,0,1,2.52.35c1.49.67,3.15,3.83,1.33,5.67l0,.25H255a3.42,3.42,0,0,1,3.4,2.28,2.54,2.54,0,0,1-1.23,3.39,47,47,0,0,0-17,13.8c.73,1.47.74,3.43-2.17,3.61a1.57,1.57,0,0,1-.46,0c-3.65-.91-15.64-12.91-16.31-17.19h0c-7.32-1.36-17.37,0-18.88.42h0c2.84,1.78,6.3,6.1,7.89,8.06-5.85,3.64-12.35,6.28-18.64,6-5.21,1.78-6.43,11.39-11.07,7.63a3.39,3.39,0,0,1-1.15-1.77c-2,1.42-5.7.8-5.78-4.5a9.5,9.5,0,0,1,.2-1.95c-.09.06-2.89,2.34-4.79,1-2.2-1.5-1.67-4.7-.65-6.74a13.74,13.74,0,0,1,6-5.82l-.07-.26a20,20,0,0,1-.34-12.42l-19.71,2.72c-4,21.14,10.16,46.8,31.48,48.1,12.85.79,26.54-5.21,37.13-11.89C257.85,204.26,263.65,183.12,262.77,172.56Z"/><path class="cls-5" d="M202.32,170.22a11.09,11.09,0,0,0-5.17-1.77c-3-.2-2.62,2-2.5,2.48l-.09.21-.25-.11a25.19,25.19,0,0,0-20,1.11,13.74,13.74,0,0,0-6,5.82c-1,2-1.55,5.24.65,6.74,1.9,1.32,4.7-1,4.79-1a9.5,9.5,0,0,0-.2,1.95c.08,5.3,3.77,5.92,5.78,4.5a3.39,3.39,0,0,0,1.15,1.77c4.64,3.76,5.86-5.85,11.07-7.63,6.29.29,12.79-2.35,18.64-6C208.62,176.32,205.16,172,202.32,170.22Z"/><path class="cls-5" d="M258.41,166.24A3.42,3.42,0,0,0,255,164h-.07l0-.25c1.82-1.84.16-5-1.33-5.67a5.74,5.74,0,0,0-2.52-.35h0c1.09-.89.63-2.38.33-3-.77-1.52-4.38-2.48-8.76-.93a17.42,17.42,0,0,0-4,2.08l-.06-.1c-1.59-3.1-12.56-1.08-13.7,11.41l-.16,0a2.22,2.22,0,0,0-1.7-.47c-.83.12-1.68.72-1.76,2.63a1.69,1.69,0,0,0,0,.44c.67,4.28,12.66,16.28,16.31,17.19a1.57,1.57,0,0,0,.46,0c2.91-.18,2.9-2.14,2.17-3.61a47,47,0,0,1,17-13.8A2.54,2.54,0,0,0,258.41,166.24Z"/><polygon class="cls-5" points="197.68 209.25 199.16 257.65 237.13 255.61 236.23 200.36 222.78 198.39 209.85 205.26 197.68 209.25"/><path class="cls-5" d="M213.4,139.12s16.7-.84,14.55,8.09c-2.52,10.44-17,1.67-17,1.67Z"/><path class="cls-4" d="M213.4,139.12s16.7-.84,14.55,8.09c-2.52,10.44-17,1.67-17,1.67"/><path class="cls-4" d="M194.08,156.21s4.94,8.22,17.42,4.7"/><path class="cls-4" d="M195.66,154.93a2.73,2.73,0,0,0-3,3"/><polygon points="194.08 271.57 157.17 279.91 158.31 257.3 185.79 265.41 194.08 264.9 194.08 271.57"/><polygon points="203.92 275.22 240.17 268.6 240.17 261.05 203.92 264.15 203.92 275.22"/><path class="cls-4" d="M236.45,199.48c1.6,16.72.67,56.13.67,56.13l-38,2s-2.19-45.31-2.23-47.3"/><ellipse class="cls-1" cx="219.22" cy="240.96" rx="6.22" ry="7.84"/><path class="cls-4" d="M218.23,236.8c2,0,3.61,2,3.61,4.55s-1.61,4.55-3.61,4.55"/><path class="cls-5" d="M204.9,139.56c-1.07-2.57-2.15-5.12-3.35-7.63a30.64,30.64,0,0,0-2.76-4.83c-1.94.39-3.86.76-5.73,1.12v0c1.25,2.22,2.42,4.46,3.48,6.75a3.28,3.28,0,0,0-2.55,1.24,3.11,3.11,0,0,0-.24,3.4q1.61,3.1,3.39,6.12c.82,1.38,1.76,2.66,2.67,4a15.13,15.13,0,0,0,4.52-1.22,38,38,0,0,0-1.92-5.25C204.09,142.9,205.69,141.46,204.9,139.56Z"/><path class="cls-5" d="M235.42,133.27c-1.07-2.57-2.16-5.12-3.36-7.63a28.14,28.14,0,0,0-3.05-5.23l-5.58,1.21c0,.11.1.22.16.33,1.25,2.22,2.42,4.46,3.48,6.75a3.3,3.3,0,0,0-2.56,1.24,3.13,3.13,0,0,0-.24,3.4c1.07,2.07,2.21,4.11,3.4,6.12.87,1.47,1.89,2.82,2.85,4.21a14.57,14.57,0,0,0,4.36-1.4,36.16,36.16,0,0,0-1.95-5.32C234.61,136.61,236.21,135.17,235.42,133.27Z"/><path class="cls-4" d="M191.57,184.27c6.29.29,12.79-2.35,18.64-6a75.7,75.7,0,0,0,11-8.48"/><path class="cls-4" d="M237.54,187a95.55,95.55,0,0,1-14.76,11.35c-10.59,6.68-24.28,12.68-37.13,11.89-21.32-1.3-35.46-27-31.48-48.1"/><path class="cls-4" d="M174.22,171.88a20,20,0,0,1-.34-12.42"/><path class="cls-4" d="M222.78,198.39c35.07,5.87,40.87-15.27,40-25.83-1-12.47-10.12-21.94-20.8-25.57l.6,6.6"/><path class="cls-4" d="M173.77,183.68c-.09.06-2.89,2.34-4.79,1-2.2-1.5-1.67-4.7-.65-6.74a13.74,13.74,0,0,1,6-5.82,25.19,25.19,0,0,1,20-1.11l.25.11c.39.16.76.34,1.12.52a18.79,18.79,0,0,1,7.23,4.67"/><path class="cls-4" d="M173.77,183.68h0"/><path class="cls-4" d="M182.24,175.47c-5.45,2-7.81,5.23-8.47,8.21h0a9.5,9.5,0,0,0-.2,1.95c.08,5.3,3.77,5.92,5.78,4.5h0"/><path class="cls-4" d="M187.79,179.34c-4.84.79-9.47,7-8.44,10.79a3.39,3.39,0,0,0,1.15,1.77c4.64,3.76,5.86-5.85,11.07-7.63"/><path class="cls-4" d="M194.65,170.93c-.12-.49-.54-2.68,2.5-2.48a11.09,11.09,0,0,1,5.17,1.77c2.84,1.78,6.3,6.1,7.89,8.06"/><path class="cls-4" d="M233.82,160.31a22.49,22.49,0,0,1,4.77-4.46,17.42,17.42,0,0,1,4-2.08c4.38-1.55,8-.59,8.76.93.3.61.76,2.1-.33,3"/><path class="cls-4" d="M240.6,163.13a16.2,16.2,0,0,1,10.45-5.43,5.74,5.74,0,0,1,2.52.35c1.49.67,3.15,3.83,1.33,5.67"/><path class="cls-4" d="M245.37,169c1.72-1.67,3.84-4.24,9.57-5H255a3.42,3.42,0,0,1,3.4,2.28,2.54,2.54,0,0,1-1.23,3.39,47,47,0,0,0-17,13.8"/><path class="cls-4" d="M224.83,167.16c1.14-12.49,12.11-14.51,13.7-11.41"/><path class="cls-4" d="M239.91,183c.09.15.19.31.27.47.73,1.47.74,3.43-2.17,3.61a1.57,1.57,0,0,1-.46,0c-3.65-.91-15.64-12.91-16.31-17.19a1.69,1.69,0,0,1,0-.44c.08-1.91.93-2.51,1.76-2.63a2.22,2.22,0,0,1,1.7.47l.07.06a2.72,2.72,0,0,1,.37.39c1.45,1.91,5.68,7.34,9.53,10.55"/><path class="cls-4" d="M221.2,169.8c-7.32-1.36-17.37,0-18.88.42"/><path d="M167.49,337.14s-30-2.17-28.51,3.66,32.73,4.4,32.73,4.4Z"/><path class="cls-5" d="M169,176c1.47,7.59-3.89,15.72-13.28,30.67v-56.3C163.65,160,167.78,169.49,169,176Z"/><path d="M162,89.05a2.21,2.21,0,0,1,2,2.55c-.71,6.35-4,11.37-8.27,12.48V90.27H144.17A2.06,2.06,0,0,1,146,89.05Z"/><path class="cls-5" d="M162,123.93l0-.14-6.25.79-12.11,1.52-.11,0c.07.7.11,1.41.11,2.13A18.78,18.78,0,0,1,139.71,140c3.33-1,8.78-2,8.78,2.56a7.53,7.53,0,0,1-.28,2.11,12.81,12.81,0,0,0,7.55-2.69,18,18,0,0,0,6.61-14.34A20.06,20.06,0,0,0,162,123.93Zm-10.4,9.44c-1.89,0-3.48-1.67-4-4h0a1.46,1.46,0,0,1,0-2.83h0a6.59,6.59,0,0,1,.23-.9l7.16-.92a6.71,6.71,0,0,1,.75,3.14C155.76,130.92,153.91,133.37,151.63,133.37Z"/><path d="M155.76,90.27v13.81a7,7,0,0,1-1.77.23c-5,0-9.23-5.5-10-12.71a2.55,2.55,0,0,1,.22-1.33Z"/><path d="M155,124.77a6.71,6.71,0,0,1,.75,3.14c0,3-1.85,5.46-4.13,5.46-1.89,0-3.48-1.67-4-4a1.32,1.32,0,0,0,.34,0,1.46,1.46,0,1,0,0-2.92,1.2,1.2,0,0,0-.38,0,6.59,6.59,0,0,1,.23-.9Z"/><path class="cls-5" d="M148,126.54a1.46,1.46,0,1,1,0,2.92,1.32,1.32,0,0,1-.34,0h0a6.79,6.79,0,0,1-.16-1.51,7,7,0,0,1,.12-1.32h0A1.2,1.2,0,0,1,148,126.54Z"/><path class="cls-5" d="M148.49,176.35v69.49H116.82V176.35Zm-7.18,56.38c0-4.34-3-7.85-6.7-7.85s-6.7,3.51-6.7,7.85,3,7.84,6.7,7.84S141.31,237.06,141.31,232.73Z"/><path class="cls-5" d="M139.71,140q-.36.45-.75.87a14.24,14.24,0,0,1-2.22,2l-1.36,5.65c8.06,1.45,11.84-.38,12.83-3.82a7.53,7.53,0,0,0,.28-2.11C148.49,137.94,143,138.93,139.71,140Z"/><path class="cls-5" d="M147.62,126.59a7,7,0,0,0-.12,1.32,6.79,6.79,0,0,0,.16,1.51,1.46,1.46,0,0,1,0-2.83Z"/><path class="cls-5" d="M143.65,126.1l-.11,0v0Z"/><path class="cls-5" d="M143.54,126.1v0l-3,.45c0-.16-.09-.31-.14-.47l-3.09-.39Z"/><path class="cls-5" d="M143.54,126.1l-6.26-.39-4.07-.53-.13.27-17.78-1.11c1.49-7.52,7.19-13.13,14-13.13C136.61,111.21,142.64,117.71,143.54,126.1Z"/><path d="M140.51,126.57a7.11,7.11,0,0,1,.21,1.75c0,3-1.84,5.47-4.13,5.47a3.47,3.47,0,0,1-2.24-.88h0a20,20,0,0,1-.66-3.91h0a1.49,1.49,0,0,0,.52-1.12,1.34,1.34,0,0,0-.05-.35Z"/><path d="M140.51,126.57l-6.35,1h0a1.46,1.46,0,0,0-1.42-1.11h0a7,7,0,0,1,.36-1l4.2.26,3.09.39C140.42,126.26,140.47,126.41,140.51,126.57Z"/><path class="cls-5" d="M129.29,111.21c7.32,0,13.35,6.5,14.25,14.89h.11l12.11-1.52V107.3a10.67,10.67,0,0,1-1.6.12c-7.27,0-13.17-6.94-13.17-15.49h-.1c0,8.55-5.89,15.49-13.16,15.49s-13.17-6.94-13.17-15.49l-5.25,4.46V259.24h46.45V142a12.81,12.81,0,0,1-7.55,2.69c-1,3.44-4.77,5.27-12.83,3.82l1.36-5.65a12.63,12.63,0,0,1-7.45,2.47c-7.94,0-14.37-7.62-14.37-17a19.94,19.94,0,0,1,.38-3.91C116.79,116.82,122.49,111.21,129.29,111.21Zm-12.47,65.14h31.67v69.49H116.82Z"/><path class="cls-5" d="M139.71,140q-.36.45-.75.87l-.46-.46C138.85,140.25,139.26,140.11,139.71,140Z"/><polygon points="139.54 259.64 139.13 266.1 106.76 271.73 107.39 259.24 107.39 259.24 139.54 259.64"/><path class="cls-5" d="M138.5,140.38l.46.46a14.24,14.24,0,0,1-2.22,2l.47-1.93S137.71,140.66,138.5,140.38Z"/><path class="cls-5" d="M143.54,126.12l-3,.45a7.11,7.11,0,0,1,.21,1.75c0,3-1.84,5.47-4.13,5.47a3.47,3.47,0,0,1-2.24-.88h0a5.82,5.82,0,0,1-1.82-3.58,1.46,1.46,0,0,1,.19-2.91h0a7,7,0,0,1,.36-1l-17.78-1.11a19.94,19.94,0,0,0-.38,3.91c0,9.41,6.43,17,14.37,17a12.63,12.63,0,0,0,7.45-2.47l.47-1.93s.5-.22,1.29-.5c.35-.13.76-.27,1.21-.41a18.78,18.78,0,0,0,3.94-11.72C143.65,127.53,143.61,126.82,143.54,126.12Z"/><path d="M137.69,90.27a2.37,2.37,0,0,1,.22,1.33c-.81,7.21-5,12.71-10,12.71s-9.23-5.5-10-12.71a2.37,2.37,0,0,1,.22-1.33Z"/><path d="M137.69,90.27H118.06a2,2,0,0,1,1.82-1.22h16A2,2,0,0,1,137.69,90.27Z"/><path d="M137.28,125.71l-4.2-.26.13-.27Z"/><path class="cls-5" d="M134.61,224.88c-3.7,0-6.7,3.51-6.7,7.85s3,7.84,6.7,7.84,6.7-3.51,6.7-7.84S138.31,224.88,134.61,224.88Z"/><path class="cls-5" d="M134.16,127.53a1.34,1.34,0,0,1,.05.35,1.49,1.49,0,0,1-.52,1.12c0-.46-.05-.93-.05-1.39l.52-.08Z"/><path class="cls-5" d="M134.16,127.53l-.52.08c0,.46,0,.93.05,1.39h0a1.51,1.51,0,0,1-.95.34h-.21a8.28,8.28,0,0,1-.07-1,7.27,7.27,0,0,1,.26-1.9h0A1.46,1.46,0,0,1,134.16,127.53Z"/><path d="M134.35,132.91a5.82,5.82,0,0,1-1.82-3.58h.21a1.51,1.51,0,0,0,.95-.34A20,20,0,0,0,134.35,132.91Z"/><path class="cls-5" d="M132.72,126.42a7.27,7.27,0,0,0-.26,1.9,8.28,8.28,0,0,0,.07,1,1.46,1.46,0,0,1,.19-2.91Z"/><path class="cls-5" d="M122.59,335.24h.83l-.07.11A2.74,2.74,0,0,0,122.59,335.24Z"/><polygon class="cls-5" points="109.67 90.27 109.31 90.58 109.31 90.27 109.67 90.27"/><path class="cls-5" d="M165.23,86.25H116.4a5.73,5.73,0,0,0-3.74,1.4l-3,2.62-.36.31L90.16,107.34a5.7,5.7,0,0,0-1.75,2.8c-.88,3.28-2.6,10.33-1.36,11.74.91,1,3,1.43,4.83-8.94a5.74,5.74,0,0,1,1.91-3.33l15.52-13.22,5.25-4.46c0,8.55,5.9,15.49,13.17,15.49s13.16-6.94,13.16-15.49h.1c0,8.55,5.9,15.49,13.17,15.49a10.67,10.67,0,0,0,1.6-.12c6.52-.92,11.56-7.46,11.56-15.37V88.34A2.1,2.1,0,0,0,165.23,86.25ZM137.91,91.6c-.81,7.21-5,12.71-10,12.71s-9.23-5.5-10-12.71a2.37,2.37,0,0,1,.22-1.33,2,2,0,0,1,1.82-1.22h16a2,2,0,0,1,1.82,1.22A2.37,2.37,0,0,1,137.91,91.6Zm26.12,0c-.71,6.35-4,11.37-8.27,12.48a7,7,0,0,1-1.77.23c-5,0-9.23-5.5-10-12.71a2.55,2.55,0,0,1,.22-1.33A2.06,2.06,0,0,1,146,89.05h16A2.21,2.21,0,0,1,164,91.6Z"/><path class="cls-5" d="M100.21,335.24h1.49a2.77,2.77,0,0,0-1.4.38Z"/><path class="cls-5" d="M167.84,335.26h0l-.31,0h-44.1l-.07.11a2.74,2.74,0,0,0-.76-.11H101.7a2.77,2.77,0,0,0-1.4.38l-.09-.38H56.77A2.76,2.76,0,0,0,54,338v3.64a2.76,2.76,0,0,0,2.76,2.76H167.52a2.77,2.77,0,0,0,2.76-2.76V338A2.77,2.77,0,0,0,167.84,335.26Z"/><path class="cls-5" d="M90.16,107.34l19.15-16.76v-.31H48V154.5a90.27,90.27,0,0,1,9.55-12.64l25.38,15.41S67.72,175.18,70.3,181c6,13.6,9,19.34,9,19.34v0c2-.44,3.25,2.95,2.08,4.14,9.42,20,6,28.31-2.65,27.52a5.48,5.48,0,0,1-2.37-.85l-.23.23c-2.06,2.08-5.92,4.13-8.79,2.51a9.21,9.21,0,0,1-2-1.59l-.25.44c-4,2.74-6.42,2.47-9.6-2.07-1.76-2.51-3-5.87-.79-7.69l.18-.15-.11-.16c-.86-2.86,3-5.68,4.48-6.48a6.36,6.36,0,0,1,1-.45l-.09-.21c-4.93,1.88-6.38-.68-6-2.73a2.18,2.18,0,0,1,.89-1.37c-2.68-4.32-5-8.13-7-11.55v59.34h61.31V96.39L93.79,109.61a5.74,5.74,0,0,0-1.91,3.33c-1.84,10.37-3.92,10-4.83,8.94-1.24-1.41.48-8.46,1.36-11.74A5.7,5.7,0,0,1,90.16,107.34Z"/><polygon class="cls-5" points="109.31 259.24 107.39 259.24 139.54 259.64 139.13 266.1 106.76 271.73 107.39 259.24 106.88 259.24 105.44 293.05 138.64 293.05 139.94 259.24 109.31 259.24"/><polygon class="cls-5" points="96.2 259.64 95.79 266.1 63.42 271.73 64.04 259.24 63.77 259.24 61.92 294.38 62.45 294.4 93.7 294.4 94.13 294.43 96.69 259.24 64.04 259.24 96.2 259.64"/><polygon points="96.2 259.64 95.79 266.1 63.42 271.73 64.04 259.24 96.2 259.64"/><polygon class="cls-5" points="105.44 293.05 104.68 310.8 104.75 310.8 137.99 310.16 138.64 293.05 105.44 293.05"/><polygon class="cls-5" points="62.45 294.4 61.92 294.38 61.06 310.79 92.99 310.19 94.13 294.43 93.7 294.4 62.45 294.4"/><path class="cls-5" d="M58.93,315.84a6.57,6.57,0,0,0,1.11.53c-3,3.05-5.62,13.16-4.22,19a2.75,2.75,0,0,1,1-.17H167.52l.31,0h0c8.34-12.36-6.19-30.14-24.92-21.11.59-2.65-1.68-4-4.63-4l-33.54.62h-.07a4.74,4.74,0,0,0-1.61,1.63,26.36,26.36,0,0,0-4.58,1.72c.6-2.65-1.67-4-4.62-4H93l-31.93.6h-.81a4.38,4.38,0,0,0-2.15,3.4,2,2,0,0,0,.82,1.64h0"/><path class="cls-5" d="M58.93,315.84l16.38.28C67.78,317.26,59.09,315.86,58.93,315.84Z"/><path class="cls-9" d="M81.38,204.5c1.17-1.19-.08-4.58-2.08-4.14a2.31,2.31,0,0,0-.9.43C67.78,208.85,58,209.11,55,211.45a2.18,2.18,0,0,0-.89,1.37c-.35,2.05,1.1,4.61,6,2.73l.09.21a6.36,6.36,0,0,0-1,.45c-1.46.8-5.34,3.62-4.48,6.48l.11.16-.18.15c-2.19,1.82-1,5.18.79,7.69,3.18,4.54,5.59,4.81,9.6,2.07l.25-.44a9.21,9.21,0,0,0,2,1.59c2.87,1.62,6.73-.43,8.79-2.51l.23-.23a5.48,5.48,0,0,0,2.37.85C87.39,232.81,90.8,224.52,81.38,204.5Z"/><path class="cls-5" d="M70.3,181c-2.58-5.8,12.63-23.71,12.63-23.71L57.55,141.86A90.27,90.27,0,0,0,48,154.5c-4.52,7.28-7.1,14-8.08,19.05-1.38,7.1,1.14,14.26,8.08,26.35,2,3.42,4.28,7.23,7,11.55,3-2.34,12.82-2.6,23.44-10.66a2.31,2.31,0,0,1,.9-.43v0S76.34,194.58,70.3,181Z"/><polyline class="cls-10" points="92.99 310.19 94.13 294.43 96.69 259.24"/><polyline class="cls-10" points="63.77 259.24 61.92 294.38 61.06 310.79"/><polyline class="cls-10" points="104.75 310.8 137.99 310.16 138.64 293.05 139.94 259.24"/><polyline class="cls-10" points="106.88 259.24 105.44 293.05 104.68 310.8"/><path class="cls-4" d="M155.76,150.33c7.89,9.7,12,19.16,13.28,25.63,1.47,7.59-3.89,15.72-13.28,30.67"/><line class="cls-4" x1="109.31" y1="90.27" x2="109.67" y2="90.27"/><polyline class="cls-4" points="155.76 141.95 155.76 150.33 155.76 206.63 155.76 259.24 139.94 259.24 109.31 259.24"/><line class="cls-4" x1="155.76" y1="107.3" x2="155.76" y2="124.58"/><polyline class="cls-10" points="109.31 90.58 109.31 90.27 48 90.27 48 154.5"/><polyline class="cls-10" points="107.39 259.24 109.31 259.24 109.31 254.84 109.31 96.39"/><polyline class="cls-10" points="48 199.9 48 259.24 63.77 259.24 64.04 259.24 96.69 259.24 106.88 259.24 107.39 259.24"/><path class="cls-10" d="M143.65,126.1l12.11-1.52,6.25-.79,0,.14a20.06,20.06,0,0,1,.34,3.68A18,18,0,0,1,155.76,142a12.81,12.81,0,0,1-7.55,2.69"/><path class="cls-7" d="M129.48,158.49s-9-2.21-12.45,4.43"/><rect class="cls-10" x="116.82" y="176.35" width="31.67" height="69.49"/><path class="cls-7" d="M139.71,140c3.33-1,8.78-2,8.78,2.56a7.53,7.53,0,0,1-.28,2.11c-1,3.44-4.77,5.27-12.83,3.82"/><path class="cls-10" d="M143.54,126.12c.07.7.11,1.41.11,2.13A18.78,18.78,0,0,1,139.71,140q-.36.45-.75.87a14.24,14.24,0,0,1-2.22,2,12.63,12.63,0,0,1-7.45,2.47c-7.94,0-14.37-7.62-14.37-17a19.94,19.94,0,0,1,.38-3.91c1.49-7.52,7.19-13.13,14-13.13,7.32,0,13.35,6.5,14.25,14.89Z"/><line class="cls-4" x1="133.08" y1="125.45" x2="115.3" y2="124.34"/><polyline class="cls-4" points="143.65 126.1 143.54 126.1 133.09 125.45"/><path class="cls-4" d="M81.38,204.5c9.42,20,6,28.31-2.65,27.52a5.48,5.48,0,0,1-2.37-.85,11,11,0,0,1-3.08-3,13,13,0,0,1-2-4.42c-.46-2-.19-4,1.72-5.25,3.39-2.16,6.88.83,7.93,4.25"/><path class="cls-4" d="M76.13,231.4c-2.06,2.08-5.92,4.13-8.79,2.51a9.21,9.21,0,0,1-2-1.59,12.27,12.27,0,0,1-3.31-6,8.48,8.48,0,0,1-.13-1.4,4.23,4.23,0,0,1,1.79-3.74,4.05,4.05,0,0,1,1-.51c2.36-.77,4.68,1.22,6.38,3.1"/><path class="cls-4" d="M65.06,232.76c-4,2.74-6.42,2.47-9.6-2.07-1.76-2.51-3-5.87-.79-7.69l.18-.15c3-2.35,5.39,0,6.91,2.06"/><path class="cls-4" d="M54.74,222.69c-.86-2.86,3-5.68,4.48-6.48a6.36,6.36,0,0,1,1-.45c.19-.07.37-.12.54-.17,3.8-1,5.25,3.44,4,5.07"/><path class="cls-4" d="M68.71,211.11s7.63-1.53,12.67-6.61c1.17-1.19-.08-4.58-2.08-4.14a2.31,2.31,0,0,0-.9.43C67.78,208.85,58,209.11,55,211.45a2.18,2.18,0,0,0-.89,1.37c-.35,2.05,1.1,4.61,6,2.73l.52-.21c.46-.2.94-.43,1.45-.7"/><path class="cls-4" d="M82.93,157.27S67.72,175.18,70.3,181c6,13.6,9,19.34,9,19.34"/><path class="cls-4" d="M55,211.45c-2.68-4.32-5-8.13-7-11.55-6.94-12.09-9.46-19.25-8.08-26.35,1-5.05,3.56-11.77,8.08-19.05a90.27,90.27,0,0,1,9.55-12.64"/><path class="cls-10" d="M141.31,232.73c0,4.33-3,7.84-6.7,7.84s-6.7-3.51-6.7-7.84,3-7.85,6.7-7.85S141.31,228.39,141.31,232.73Z"/><path class="cls-7" d="M135.77,228.63a5.66,5.66,0,0,1-.16,8.33"/><path class="cls-4" d="M140.89,91.93c0,8.55-5.89,15.49-13.16,15.49s-13.17-6.94-13.17-15.49"/><path class="cls-7" d="M141,91.93c0,8.55,5.9,15.49,13.17,15.49a10.67,10.67,0,0,0,1.6-.12c6.52-.92,11.56-7.46,11.56-15.37V88.34a2.1,2.1,0,0,0-2.09-2.09H116.4a5.73,5.73,0,0,0-3.74,1.4l-3,2.62-.36.31L90.16,107.34a5.7,5.7,0,0,0-1.75,2.8c-.88,3.28-2.6,10.33-1.36,11.74.91,1,3,1.43,4.83-8.94a5.74,5.74,0,0,1,1.91-3.33l15.52-13.22,5.25-4.46"/><path class="cls-7" d="M167.84,335.26c8.34-12.36-6.19-30.14-24.92-21.11h0c-.74.35-1.48.75-2.23,1.18"/><path class="cls-7" d="M142.92,314.15c.59-2.65-1.68-4-4.63-4l-33.54.62h-.07a4.74,4.74,0,0,0-1.61,1.63"/><path class="cls-7" d="M123.42,335.24c7.63-11.33-3.94-27.2-20.35-22.81a26.36,26.36,0,0,0-4.58,1.72h0c-.73.35-1.47.75-2.22,1.18"/><path class="cls-7" d="M58.93,315.84a6.57,6.57,0,0,0,1.11.53c-3,3.05-5.62,13.16-4.22,19"/><path class="cls-7" d="M98.49,314.15c.6-2.65-1.67-4-4.62-4H93l-31.93.6h-.81a4.38,4.38,0,0,0-2.15,3.4,2,2,0,0,0,.82,1.64"/><line class="cls-10" x1="62.45" y1="294.4" x2="93.7" y2="294.4"/><polyline class="cls-10" points="105.44 293.05 105.44 293.05 138.64 293.05 138.68 293.05"/><path class="cls-7" d="M58.93,315.84c.16,0,8.85,1.42,16.38.28"/><line class="cls-7" x1="58.93" y1="315.84" x2="58.92" y2="315.84"/><path class="cls-7" d="M167.83,335.26h0"/><path class="cls-10" d="M122.59,335.24h44.93l.31,0"/><path class="cls-10" d="M167.84,335.26a2.77,2.77,0,0,1,2.44,2.74v3.64a2.77,2.77,0,0,1-2.76,2.76H122.59"/><path class="cls-10" d="M123.35,335.35a2.76,2.76,0,0,1,2,2.65v3.64a2.77,2.77,0,0,1-2.76,2.76"/><path class="cls-10" d="M122.59,335.24a2.74,2.74,0,0,1,.76.11"/><path class="cls-10" d="M123,344.4H56.77A2.76,2.76,0,0,1,54,341.64V338a2.76,2.76,0,0,1,2.76-2.76h66.58"/><line class="cls-7" x1="61.7" y1="300.13" x2="77.35" y2="300.13"/><line class="cls-7" x1="105.86" y1="300.13" x2="121.51" y2="300.13"/></svg>