<svg id="Layer_1" data-name="Layer 1" xmlns="http://www.w3.org/2000/svg" viewBox="0 0 400 400"><defs><style>.cls-1{fill:#fff;}.cls-2{fill:#f3e5d4;}.cls-3,.cls-4{fill:none;stroke:#000;stroke-miterlimit:10;stroke-width:1.88px;}.cls-3{stroke-linecap:round;}</style></defs><title>Desk_Dudes3</title><path class="cls-1" d="M161.22,145.54a7.31,7.31,0,0,1,.32-1.5c1.11-3.53,4.54-5.58,7.66-4.6l15,4.76.39-.19a18.76,18.76,0,0,0,13.2,10.42c10.37,2.06,20.54-5.16,22.73-16.12a21,21,0,0,0-.89-11.45l.3-.11c16.8,13.71,25,37.15,19.08,60.49-8,31.56-38.81,51-68.81,43.36s-47.83-39.36-39.82-70.92a60.52,60.52,0,0,1,22.66-34l.14,0C151.89,133.79,155.08,141.37,161.22,145.54Zm45,42.61a9.61,9.61,0,0,0-6.93-11.69l-38.62-9.86a9.2,9.2,0,0,0-1.45-.26,10.3,10.3,0,0,0-1.36,0,9.61,9.61,0,0,0-4.49,17.86,9.73,9.73,0,0,0,2.54,1.06l7.82,2,10.43,2.67,10.43,2.66,9.94,2.54.52.12c.31.06.62.11.93.14A9.62,9.62,0,0,0,206.24,188.15Z"/><path class="cls-1" d="M193.9,103.62a63.33,63.33,0,0,1,11.82,2.74c29.3,9.81,49,40.05,45.67,73.59-3.81,38.68-36.75,67.09-73.56,63.46a64,64,0,0,1-8.74-1.47c-1-.24-2-.5-2.91-.77l-4.84-1.62h0a65.21,65.21,0,0,1-19.81-11.95A71.26,71.26,0,0,1,118,167.83c0-.34.06-.68.09-1a73.36,73.36,0,0,1,6.79-24.47,70.11,70.11,0,0,1,28.76-30.95,64.4,64.4,0,0,1,38-8C192.39,103.43,193.15,103.51,193.9,103.62ZM239,187.24c5.92-23.34-2.28-46.78-19.08-60.49l-.3.11a18.86,18.86,0,0,0-13.93-12.16,18.28,18.28,0,0,0-10,.84,50.91,50.91,0,0,0-9.16-.88l-.12.11a18.22,18.22,0,0,0-10.32-6c-10.37-2.06-20.55,5.15-22.73,16.12,0,.27-.1.53-.14.79l-.14,0a60.52,60.52,0,0,0-22.66,34c-8,31.56,9.82,63.31,39.82,70.92S231,218.8,239,187.24Z"/><path class="cls-1" d="M219.66,126.86a21,21,0,0,1,.89,11.45c-2.19,11-12.36,18.18-22.73,16.12A18.76,18.76,0,0,1,184.62,144a21.18,21.18,0,0,1,4.76-24.58,19.46,19.46,0,0,1,6.3-3.89,18.28,18.28,0,0,1,10-.84A18.86,18.86,0,0,1,219.66,126.86Z"/><path class="cls-1" d="M197.42,185.9,187,183.23l-10.43-2.66h0l-10.43-2.67-10.43-2.66,2.19-8.61v-.33a10.3,10.3,0,0,1,1.36,0,9.2,9.2,0,0,1,1.45.26l38.62,9.86A9.61,9.61,0,0,1,196,195.34c-.31,0-.62-.08-.93-.14l.09-.47Z"/><path class="cls-1" d="M197.42,185.9l-2.26,8.83-.09.47-.52-.12-9.94-2.54.12-.48h0l2.26-8.83Z"/><polygon class="cls-1" points="186.99 183.23 184.73 192.06 184.73 192.06 184.61 192.54 174.18 189.88 174.3 189.4 174.3 189.4 176.56 180.57 176.56 180.57 186.99 183.23"/><path class="cls-2" d="M186.52,114.66a50.91,50.91,0,0,1,9.16.88,19.46,19.46,0,0,0-6.3,3.89h0a19.91,19.91,0,0,0-3-4.66Z"/><path class="cls-1" d="M189.38,119.43h0A21.18,21.18,0,0,0,184.62,144l-.39.19-15-4.76c-3.12-1-6.55,1.07-7.66,4.6a7.31,7.31,0,0,0-.32,1.5c-6.14-4.17-9.33-11.75-8-19.83,0-.26.09-.52.14-.79,2.18-11,12.36-18.18,22.73-16.12a18.22,18.22,0,0,1,10.32,6A19.91,19.91,0,0,1,189.38,119.43Z"/><polygon class="cls-1" points="176.56 180.57 174.3 189.4 174.3 189.4 174.18 189.88 163.75 187.21 163.87 186.74 166.13 177.9 176.56 180.57"/><path class="cls-1" d="M155.7,175.24l10.43,2.66-2.26,8.83-.12.48-7.82-2a9.73,9.73,0,0,1-2.54-1.06l.05-.09Z"/><path class="cls-1" d="M269.65,93.57a1,1,0,0,0,.17-.18c1.4-1.67-.89-5.9-5.12-9.43s-8.8-5-10.2-3.36a2.61,2.61,0,0,0-.21,2.46,24.51,24.51,0,0,0-24.43,8.86l-3.74,4.77-4,5.15-.05.07c-1.44,1.84,1.25,6.54,6.44,12h0a84.72,84.72,0,0,0,9,8.07c9.82,7.69,19.39,12.17,22.5,10.69a1.72,1.72,0,0,0,.65-.5h0l.06-.08.9-1.15,3.89-5,3-3.79A24.54,24.54,0,0,0,269.65,93.57Z"/><path class="cls-1" d="M200.22,96.19l-2.65-7.32-1.64-4.54a24.51,24.51,0,0,0-23.58-16.17l-.06-.25c-.68-2.07-5.48-2.37-10.72-.65s-8.93,4.78-8.26,6.85a2.61,2.61,0,0,0,2,1.49A24.53,24.53,0,0,0,149.84,101l2.06,5.7,1.66,4.59.06.09a64.4,64.4,0,0,1,38-8c.75.08,1.51.16,2.26.27,4-2.5,6.23-4.74,6.44-6.53a1.87,1.87,0,0,0-.09-.82Z"/><path class="cls-1" d="M157.88,166.3v.33l-2.19,8.61-6.7-1.71A9.62,9.62,0,0,1,157.88,166.3Z"/><path class="cls-1" d="M155.7,175.24l-2.26,8.83-.05.09A9.6,9.6,0,0,1,149,173.53Z"/><path class="cls-1" d="M255.6,295.2c-6.22-6.43-17.7-5.54-25.44-.52l-.21-.32q-1.78-7.69-3.87-16l-.36.09-33.68,4c1.91,14.93,3.58,28.57,4.46,35.83l62-5.1h0C261.46,307.73,260.73,300.5,255.6,295.2Z"/><path class="cls-1" d="M116.45,250.15c-4.43,4-8.58,7.88-12.07,11.18l-.37.09c-3.71-8.43-12.76-15.48-21.48-13.56a15.35,15.35,0,0,0-12,11.61l48.44,40.42c4.72-5.52,13.73-16,23.65-27.54l-25.88-21.94Z"/><path class="cls-1" d="M196.5,318.27c.42,3.47.67,5.48.67,5.48,9.58-.28,56.42-5.43,56.42-5.43a14.17,14.17,0,0,0,4.87-5.15Z"/><path class="cls-1" d="M71.44,268.24s36.19,30.17,44,35.7l3.46-4.05L70.48,259.47A14,14,0,0,0,71.44,268.24Z"/><path class="cls-1" d="M325.65,173.31c-5.74-2.56-15.94-12-17.34-21.2,0,0-10,7.74-26.91,14.25a67,67,0,0,0-19.82-35.45l-.9,1.15-.06.08h0a1.72,1.72,0,0,1-.65.5c-3.11,1.48-12.68-3-22.5-10.69a84.72,84.72,0,0,1-9-8.07h0l-22.76-7.52h0c29.3,9.81,49,40.05,45.67,73.59-3.81,38.68-36.75,67.09-73.56,63.46a64,64,0,0,1-8.74-1.47l-.14.15,18.6,6.23c1.46,10.63,3,22.75,4.49,34.12l33.68-4,.36-.09q-2.93-11.75-6.4-24.77v0c26.59-2.28,50.84-21.19,59.85-49.56a67,67,0,0,0,2.16-8.47l-.09-.32c22-5.58,43.88-21.53,43.88-21.53Z"/><path class="cls-1" d="M161.34,239.55h0a65.21,65.21,0,0,1-19.81-11.95l-.17.2c-7.7,6.84-16.78,15-24.9,22.36l.24.26,25.88,21.94C151.44,262.07,161,251,169,242.09l-2.77-.92Q163.7,240.45,161.34,239.55Z"/><path class="cls-1" d="M118,167.83c0-.34.06-.68.09-1a73.36,73.36,0,0,1,6.79-24.47l-.17-.08C103.35,129,91.77,113.34,91.77,113.34,88,121.56,75.44,127.75,68.9,128.83l.36.41S93.55,160.66,118,167.83Z"/><path class="cls-1" d="M364.11,149.54c-2-6.61-14.23-.51-18.23.78,4.17-2.49,8.2-6.53,12.44-9.95,5.65-4.53,4.95-8.12,2.61-10.72-5.18-5.76-18.19,6-22.41,8.82,2.48-5,4.43-7.43,6.94-13.09,2.85-6.39-4.15-12.27-9.11-6.7-4.5,5-11.29,16.92-13.79,20.31l-.35.13c-1.1-2.94-2.15-5.74-4.28-8.12s-6.93-5.31-9.75-1.51c-3.47,4.66,3.12,14.68,5.27,19.11-2.22-2.7-5.52,1-5.14,3.51h0c1.4,9.16,11.6,18.64,17.34,21.2a6,6,0,0,0,2.66.67c3.32-.26,4.13-2.9,3.33-5l.59,0C335.45,169.43,366.77,158.31,364.11,149.54Zm-50.66-.93a.35.35,0,0,1,.07.09s0,.09.1.26C313.56,148.85,313.51,148.73,313.45,148.61Z"/><path class="cls-1" d="M98.23,91.66c-1.66-4.43-6.91-3.06-9.79-1.27s-4.58,4.18-6.5,6.76h0l-.18-.38h0c-1.45-4-4.65-17.25-7.56-23.36-3.21-6.74-11.57-3-10.63,3.88.84,6.14,2,9,3,14.51-3.26-3.87-12.46-18.82-19-14.74-3,1.85-4.65,5.1-.5,11,3.12,4.47,5.86,9.47,9.17,13-3.48-2.35-13.52-11.64-17.3-5.84-5,7.67,22,27.1,25.19,27.56l.31.3c-1.49,1.83-1.77,4.5,1.26,5.65a6.77,6.77,0,0,0,3.23,0c6.54-1.08,19.06-7.27,22.87-15.49,1.09-2.35-1.06-6.77-3.94-4.8-.1.11-.2.21-.28.31l.18-.24.1-.07C91.13,104.88,100.26,97.11,98.23,91.66Z"/><path class="cls-3" d="M219.68,253.6q3.45,13.05,6.4,24.77,2.08,8.29,3.87,16"/><path class="cls-3" d="M258.46,313.17a14.17,14.17,0,0,1-4.87,5.15s-46.84,5.15-56.42,5.43c0,0-.25-2-.67-5.48-.88-7.26-2.55-20.9-4.46-35.83-1.44-11.37-3-23.49-4.49-34.12"/><path class="cls-3" d="M224.12,300.72a18.83,18.83,0,0,1,6-6h0c7.74-5,19.22-5.91,25.44.52,5.13,5.3,5.86,12.53,2.86,18"/><polyline class="cls-3" points="225.72 278.46 192.04 282.44 192.03 282.44"/><path class="cls-3" d="M141.35,227.79c-7.7,6.84-16.78,15-24.9,22.36-4.43,4-8.58,7.88-12.07,11.18"/><path class="cls-3" d="M105.72,269.85a19.07,19.07,0,0,0-1.71-8.43c-3.71-8.43-12.76-15.48-21.48-13.56a15.35,15.35,0,0,0-12,11.61,14,14,0,0,0,1,8.77s36.19,30.17,44,35.7l3.46-4.05c4.72-5.52,13.73-16.05,23.65-27.54C151.44,262.07,161,251,169,242.09l.14-.15"/><path class="cls-3" d="M172.35,68.16a24.51,24.51,0,0,1,23.58,16.17l1.64,4.54,2.65,7.32"/><path class="cls-3" d="M153.56,111.3l-1.66-4.59-2.06-5.7a24.53,24.53,0,0,1,5.45-25.41"/><path class="cls-3" d="M200.25,96.27a1.87,1.87,0,0,1,.09.82c-.21,1.79-2.43,4-6.44,6.53l0,0"/><path class="cls-3" d="M197.35,89s-1.86,3.52-7.33,7.11h0"/><path class="cls-3" d="M155.29,75.6a2.61,2.61,0,0,1-2-1.49c-.67-2.07,3-5.14,8.26-6.85s10-1.42,10.72.65l.06.25c.32,2.07-3.29,5-8.32,6.61C160.57,75.9,157.31,76.15,155.29,75.6Z"/><path class="cls-3" d="M220,126.75c16.8,13.71,25,37.15,19.08,60.49-8,31.56-38.81,51-68.81,43.36s-47.83-39.36-39.82-70.92a60.52,60.52,0,0,1,22.66-34"/><path class="cls-3" d="M186.52,114.66a50.91,50.91,0,0,1,9.16.88"/><path class="cls-3" d="M281.69,195.52a66.59,66.59,0,0,1-2.16,8.47c-9,28.37-33.26,47.28-59.85,49.56a63,63,0,0,1-24.6-2.75"/><path class="cls-3" d="M261.58,130.91a67,67,0,0,1,19.82,35.45"/><line class="cls-3" x1="228.48" y1="113.88" x2="228.48" y2="113.88"/><polyline class="cls-3" points="203.73 105.7 205.72 106.36 228.48 113.88"/><polyline class="cls-3" points="161.34 239.55 166.18 241.16 168.95 242.09 187.55 248.32 194.9 250.78"/><path class="cls-3" d="M80,99.74c.7-.86,1.36-1.73,2-2.59,1.92-2.58,3.74-5,6.5-6.76s8.13-3.16,9.79,1.27c2,5.45-7.1,13.22-10.4,16.88-.1.11-.2.21-.28.31"/><path class="cls-3" d="M81.76,96.77c-1.45-4-4.65-17.25-7.56-23.36-3.21-6.74-11.57-3-10.63,3.88.84,6.14,2,9,3,14.51"/><path class="cls-3" d="M66.58,91.8c-3.26-3.87-12.46-18.82-19-14.74-3,1.85-4.65,5.1-.5,11,3.12,4.47,5.86,9.47,9.17,13"/><path class="cls-3" d="M56.21,101.12c-3.48-2.35-13.52-11.64-17.3-5.84-5,7.67,22,27.1,25.19,27.56"/><path class="cls-3" d="M78.15,115.9c-1.8,1.51-11.43,5.56-11.43,5.56a5.3,5.3,0,0,0-2.31,1.68c-1.49,1.83-1.77,4.5,1.26,5.65a6.77,6.77,0,0,0,3.23,0c6.54-1.08,19.06-7.27,22.87-15.49,1.09-2.35-1.06-6.77-3.94-4.8l-.1.07-.18.24a31.7,31.7,0,0,1-2.19,2.53"/><path class="cls-3" d="M91.77,113.34s11.58,15.69,32.92,28.92"/><path class="cls-3" d="M69.26,129.24S93.55,160.66,118,167.83"/><path class="cls-3" d="M325.48,173.67s-21.91,16-43.88,21.53a56.33,56.33,0,0,1-13.68,1.9"/><path class="cls-3" d="M269.2,170.4c4.38-1.22,8.46-2.6,12.2-4,16.9-6.51,26.91-14.25,26.91-14.25"/><path class="cls-3" d="M313.62,149h0"/><path class="cls-3" d="M313.45,148.61c.06.12.11.24.17.35"/><path class="cls-3" d="M323.46,142.35c-.46-1.08-.86-2.16-1.25-3.23-1.1-2.94-2.15-5.74-4.28-8.12s-6.93-5.31-9.75-1.51c-3.47,4.66,3.12,14.68,5.27,19.11"/><path class="cls-3" d="M322.56,139c2.5-3.39,9.29-15.26,13.79-20.31,5-5.57,12,.31,9.11,6.7-2.51,5.66-4.46,8.1-6.94,13.09"/><path class="cls-3" d="M338.52,138.47c4.22-2.81,17.23-14.58,22.41-8.82,2.34,2.6,3,6.19-2.61,10.72-4.24,3.42-8.27,7.46-12.44,9.95"/><path class="cls-3" d="M345.88,150.32h0c4-1.29,16.23-7.39,18.23-.78,2.66,8.77-28.66,19.89-31.88,19.43"/><path class="cls-3" d="M320.68,158.37c1.3,2,9.42,8.54,9.42,8.54a4.43,4.43,0,0,1,1.54,2c.8,2.14,0,4.77-3.33,5a6,6,0,0,1-2.66-.67c-5.74-2.56-15.94-12-17.34-21.2h0c-.38-2.56,2.92-6.21,5.14-3.51h0a.35.35,0,0,1,.07.09s0,.09.1.26v0a30.49,30.49,0,0,0,1.39,3"/><path class="cls-3" d="M195.07,195.2l-.52-.12-9.94-2.54-10.43-2.66-10.43-2.67-7.82-2a9.73,9.73,0,0,1-2.54-1.06,9.61,9.61,0,0,1,4.49-17.86,10.3,10.3,0,0,1,1.36,0,9.2,9.2,0,0,1,1.45.26l38.62,9.86A9.61,9.61,0,0,1,196,195.34C195.69,195.31,195.38,195.26,195.07,195.2Z"/><path class="cls-3" d="M147.46,187.06a15.48,15.48,0,0,1-1.24-21.1,15.62,15.62,0,0,1,5.2-4"/><path class="cls-3" d="M137.41,177.38a17.52,17.52,0,0,1,.38-6.91,18.67,18.67,0,0,1,1-2.95,17.51,17.51,0,0,1,1.47-2.62"/><path class="cls-3" d="M218,185.38a17.59,17.59,0,0,1-.72,6.87,18.11,18.11,0,0,1-1.17,2.9,16.84,16.84,0,0,1-1.59,2.55"/><path class="cls-3" d="M208.53,175.38a15.45,15.45,0,0,1-8.73,25.67"/><polyline class="cls-3" points="176.56 180.57 186.99 183.23 197.41 185.9 205.29 187.91"/><polyline class="cls-3" points="149 173.53 155.69 175.24 166.13 177.9 176.56 180.57"/><polyline class="cls-3" points="157.89 166.63 155.69 175.24 153.44 184.07"/><polyline class="cls-3" points="168.32 169.3 166.13 177.9 163.87 186.74"/><polyline class="cls-3" points="178.75 171.96 176.56 180.57 176.56 180.57 174.3 189.4 174.3 189.4"/><polyline class="cls-3" points="189.19 174.63 186.99 183.23 184.73 192.06"/><polyline class="cls-3" points="199.61 177.29 197.41 185.9 195.16 194.73"/><path class="cls-3" d="M269.65,93.57a24.54,24.54,0,0,1-1.2,28.58l-3,3.79-3.89,5-.9,1.15"/><path class="cls-3" d="M222.09,101.84l4-5.15,3.74-4.77a24.53,24.53,0,0,1,24.43-8.86"/><path class="cls-3" d="M260.62,132.14a1.72,1.72,0,0,1-.65.5c-3.11,1.48-12.68-3-22.5-10.69a84.72,84.72,0,0,1-9-8.07h0c-5.19-5.43-7.88-10.13-6.44-12"/><path class="cls-3" d="M265.28,125.79s-4,.3-9.92-2.43h0A43.59,43.59,0,0,1,243,114.48"/><path class="cls-3" d="M254.29,83.06a2.61,2.61,0,0,1,.21-2.46c1.4-1.68,6-.17,10.2,3.36s6.52,7.76,5.12,9.43a1,1,0,0,1-.17.18h0c-1.58,1.37-5.95-.15-10-3.54C256.84,87.69,254.89,85.06,254.29,83.06Z"/><line class="cls-3" x1="116.69" y1="250.41" x2="142.57" y2="272.35"/><path class="cls-3" d="M184.23,144.2l-15-4.76c-3.12-1-6.55,1.07-7.66,4.6a7.31,7.31,0,0,0-.32,1.5,6.12,6.12,0,0,0,3.94,6.66L185,158.48"/><path class="cls-3" d="M205.72,106.36c29.3,9.81,49,40.05,45.67,73.59-3.81,38.68-36.75,67.09-73.56,63.46a64,64,0,0,1-8.74-1.47c-1-.24-2-.5-2.91-.77q-2.48-.72-4.84-1.62h0a65.21,65.21,0,0,1-19.81-11.95A71.26,71.26,0,0,1,118,167.83c0-.34.06-.68.09-1a73.36,73.36,0,0,1,6.79-24.47,70.11,70.11,0,0,1,28.76-30.95,64.4,64.4,0,0,1,38-8c.75.08,1.51.16,2.26.27A63.33,63.33,0,0,1,205.72,106.36Z"/><path class="cls-3" d="M101.33,180.68s-2.81,20.37,9.78,32.72"/><path class="cls-3" d="M92.28,193.17a41.13,41.13,0,0,0,4.8,16.3"/><path class="cls-3" d="M273.66,240.25s15.4-13.63,13.88-31.2"/><path class="cls-3" d="M288.66,236.67a41.13,41.13,0,0,0,7-15.51"/><path class="cls-3" d="M292,109.74s2.11-20.46-10.9-32.36"/><path class="cls-3" d="M300.64,96.94a41,41,0,0,0-5.36-16.12"/><path class="cls-3" d="M145.52,65s-14.92,14.15-12.8,31.65"/><path class="cls-3" d="M132.08,67.5a41,41,0,0,0-6.44,15.73"/><line class="cls-3" x1="70.48" y1="259.47" x2="118.92" y2="299.89"/><polyline class="cls-3" points="196.5 318.27 258.46 313.17 258.46 313.17"/><path class="cls-3" d="M189.38,119.43a19.91,19.91,0,0,0-3-4.66,18.22,18.22,0,0,0-10.32-6c-10.37-2.06-20.55,5.15-22.73,16.12,0,.27-.1.53-.14.79-1.32,8.08,1.87,15.66,8,19.83"/><path class="cls-3" d="M189.38,119.43A21.18,21.18,0,0,0,184.62,144a18.76,18.76,0,0,0,13.2,10.42c10.37,2.06,20.54-5.16,22.73-16.12a21,21,0,0,0-.89-11.45,18.86,18.86,0,0,0-13.93-12.16,18.28,18.28,0,0,0-10,.84A19.46,19.46,0,0,0,189.38,119.43Z"/><ellipse cx="167.93" cy="125.27" rx="7.64" ry="4.58" transform="translate(12.27 265.5) rotate(-78.74)"/><ellipse class="cls-4" cx="173.58" cy="125.27" rx="7.64" ry="4.58" transform="translate(16.82 271.05) rotate(-78.74)"/><ellipse class="cls-4" cx="163.18" cy="125.27" rx="7.64" ry="4.58" transform="translate(8.45 260.85) rotate(-78.74)"/><circle class="cls-1" cx="171.79" cy="123.08" r="2.44"/><ellipse cx="198.91" cy="132.08" rx="7.64" ry="4.58" transform="translate(30.52 301.36) rotate(-78.74)"/><ellipse class="cls-4" cx="204.56" cy="132.08" rx="7.64" ry="4.58" transform="translate(35.07 306.9) rotate(-78.74)"/><ellipse class="cls-4" cx="194.16" cy="132.08" rx="7.64" ry="4.58" transform="translate(26.7 296.71) rotate(-78.74)"/><circle class="cls-1" cx="202.77" cy="129.89" r="2.44"/><polygon points="136.58 232.03 159.47 252.9 168.58 242.5 155.55 237.21 140.77 228.31 136.58 232.03"/><path d="M220.73,257.58,190,266.38l-1.77-17.84s13.56,5.32,19.69,5.72a54.08,54.08,0,0,0,11.79-.66Z"/><ellipse cx="167.73" cy="339.39" rx="44.87" ry="5.27"/></svg>