<svg id="Layer_1" data-name="Layer 1" xmlns="http://www.w3.org/2000/svg" viewBox="0 0 400 400"><defs><style>.cls-1,.cls-5{fill:#fff;}.cls-2,.cls-3,.cls-4{fill:none;stroke-linecap:round;stroke-width:1.88px;}.cls-2,.cls-3,.cls-5{stroke:#000;}.cls-2,.cls-5{stroke-miterlimit:10;}.cls-3,.cls-4{stroke-linejoin:round;}.cls-4{stroke:#1d1d1b;}.cls-5{stroke-width:2.08px;}</style></defs><title>Desk_Dudes7</title><path d="M220.05,333.56c-6.73-.32-13.12-.53-18.87-.59-62.12-.62-65.47-1.5-61.59,7.83a6.23,6.23,0,0,0,5.75,3.84H313.85C324.77,334.42,233.91,333.62,220.05,333.56Z"/><path class="cls-1" d="M124.31,142.09,145.59,162c-39.95,57.5-87.71,11.87-87.71,11.87L80,150.07,80,150C109.79,172.35,124.31,142.09,124.31,142.09Z"/><path class="cls-1" d="M76.74,143.48c4-2.25,6.19,3.42,3.3,6.5l-.08.09L57.88,173.82h-.19c-4.64,5.07-10.75-.24-6.6-4.11-5.07,3.2-14.35-1.4-15.71-10.45-1.6,2.3-4.56,3.3-8,1.79-6.37-2.81-17.63-23.65-2.89-30.81h.15c.22-9.57,8.93-15.3,12.65-12.74.57-4.81,4.07-7.78,8.54-8.42,7-1,13.74,6.43,16,12.61l-.07.33a16.59,16.59,0,0,1,7.4,3.45c4.65,3.9,8.75,9.59,7.38,17.72Z"/><path class="cls-2" d="M28,141c3.64,8.27,7.29,10.94,9.74,11.88,5.62,2.16,10.34-5.56,8-10.22"/><path class="cls-2" d="M37.59,117.63c-3.72-2.56-12.71,3.05-12.93,12.62a16.9,16.9,0,0,0,.33,3.61"/><path class="cls-2" d="M24.51,130.25c-14.74,7.16-3.48,28,2.89,30.81,3.42,1.51,6.38.51,8-1.79a8.22,8.22,0,0,0,1-6.8"/><path class="cls-2" d="M80,150.07,57.88,173.82s47.76,45.63,87.71-11.87"/><path class="cls-2" d="M124.31,142.09S109.79,172.35,80,150"/><path class="cls-2" d="M76.58,143.2c1.37-8.13-2.73-13.82-7.38-17.72A16.59,16.59,0,0,0,61.8,122c-4.67-.92-9.74.06-13.06,3.67-3.88,4.22-3.72,10.52-1.36,15.37,1.3,2.67,2.86,5.22,5.65,6.54,5.71,2.71,9.29-3.64,10.06-8.51"/><path class="cls-2" d="M75.23,144.64a7.28,7.28,0,0,1,1.51-1.16c4-2.25,6.19,3.42,3.3,6.5l-.08.09"/><path class="cls-2" d="M51.09,169.72c-4.15,3.87,2,9.18,6.6,4.11"/><path class="cls-2" d="M61.87,121.7c-2.28-6.18-9-13.61-16-12.61a9.31,9.31,0,0,0-8.26,8.54c-.42,3.51.58,7.94,3.54,13"/><path class="cls-2" d="M35.38,159.27c1.36,9,10.64,13.65,15.71,10.45l14-14.63"/><path class="cls-3" d="M154.85,266.47h37.61c-3-25.1,10.87-44.62,10.87-44.62H170.2S153.48,236.33,154.85,266.47Z"/><path class="cls-3" d="M241.44,221.85H203.33s-1.2,48.19,32.1,65.91l17.65-38.88C240.54,238.69,241.44,221.85,241.44,221.85Z"/><path class="cls-1" d="M252.43,293.43,255.6,286,251.84,295h-.09Z"/><path class="cls-1" d="M120.72,106.43a7.38,7.38,0,0,1,.82,0H271.15a7.09,7.09,0,0,1,7.09,7.08V214.76a7.08,7.08,0,0,1-4,6.36,7,7,0,0,1-3.12.73H121.54a7.09,7.09,0,0,1-7.08-7.09V113.47A7.09,7.09,0,0,1,120.72,106.43ZM270.06,210.76V117.47a3.12,3.12,0,0,0-3.12-3.12H125.76a3.13,3.13,0,0,0-3.13,3.12v93.29a3.13,3.13,0,0,0,3.13,3.12H266.94A3.12,3.12,0,0,0,270.06,210.76Z"/><polygon class="cls-1" points="313.46 270.96 310.31 270.34 307.48 269.79 282.16 324.22 285.4 324.86 293.32 326.4 296.67 319.2 298.46 315.37 304.8 301.73 306.58 297.9 312.93 284.26 314.71 280.43 318.65 271.97 313.46 270.96"/><path class="cls-1" d="M258.16,251.29l1.25-2.75-5.12-2.32-1.21,2.66-17.65,38.88-1,2.1s8.76,4.54,17.27,5.13l.68-1.56L255.6,286l12.79-30.41.92-2.18Z"/><path class="cls-1" d="M154.85,266.47H151.7s-.52,9.92,2.5,17.93l3.37-.09,39.36-1.11,2.33-.07-2.65-11h3v-5.62H154.85Z"/><path class="cls-1" d="M321.06,266.79c-4.13-1.92-8.9-.43-10.65,3.34a2,2,0,0,0-.1.21l3.15.62,5.19,1-3.94,8.45c4.13,1.93,8.9.43,10.65-3.34S325.19,268.71,321.06,266.79Z"/><path class="cls-1" d="M296.67,319.2l-3.35,7.2-7.92-1.54a8.21,8.21,0,0,0,4.93,8c4.13,1.92,8.89.43,10.65-3.34S300.8,321.13,296.67,319.2Z"/><path class="cls-1" d="M202.34,327.17h-.24l.65,2.62,1.39,5.63h-9.32c0,4.55,3.36,8.24,7.52,8.24s7.52-3.69,7.52-8.24S206.49,327.17,202.34,327.17Z"/><path class="cls-1" d="M183.07,343.66c4.15,0,7.52-3.69,7.52-8.24h-15C175.55,340,178.91,343.66,183.07,343.66Z"/><path class="cls-1" d="M312.93,284.26l-6.35,13.64c4.13,1.92,8.9.42,10.66-3.34S317.06,286.18,312.93,284.26Z"/><path class="cls-1" d="M142.16,327.58a8.23,8.23,0,0,0-5.16,7.84c0,4.55,3.37,8.24,7.52,8.24,4.39,0,7.52-3.69,7.52-8.24H144.1Z"/><path class="cls-1" d="M163.79,343.66c4.16,0,7.53-3.69,7.53-8.24h-15C156.27,340,159.64,343.66,163.79,343.66Z"/><path class="cls-1" d="M304.8,301.73l-6.34,13.64c4.13,1.92,8.9.43,10.65-3.34S308.93,303.65,304.8,301.73Z"/><polygon class="cls-1" points="202.75 329.79 202.1 327.17 201.41 324.37 141.37 324.37 142.16 327.58 144.1 335.42 152.04 335.42 156.27 335.42 171.32 335.42 175.54 335.42 190.59 335.42 194.81 335.42 204.14 335.42 202.75 329.79"/><path class="cls-1" d="M331.08,180A15.39,15.39,0,0,1,322,194.15l-20.21,9.12h-.16V110.63H302l18.77,7.23a15.39,15.39,0,0,1,9.9,14.26Z"/><path class="cls-1" d="M299,212.68l-24.67,8.48,0,0a7.08,7.08,0,0,0,4-6.36V113.47a7.09,7.09,0,0,0-7.09-7.08H121.54a7.38,7.38,0,0,0-.82,0l20-6.87a16.38,16.38,0,0,1,5.33-.89l148.51-.1a7.1,7.1,0,0,1,7.1,7.1V207.14c0,2.17-.73,4.71-2.64,5.7Z"/><rect class="cls-1" x="122.63" y="114.35" width="147.43" height="99.53" rx="3.13" ry="3.13"/><path class="cls-1" d="M151.89,305.54s5.76,3.75,5.71,7.18-5.28,2.9-7,1.15c-2.78-2.78-5.5-5.88-7-6.54l-.1-.3a41.39,41.39,0,0,1,8.36-1.65Z"/><path class="cls-1" d="M281.72,266.72a3.89,3.89,0,1,1-3.88,3.88A3.89,3.89,0,0,1,281.72,266.72Z"/><path class="cls-1" d="M194.33,299.25a3.89,3.89,0,1,1-3.89,3.89A3.89,3.89,0,0,1,194.33,299.25Z"/><path class="cls-1" d="M172.8,294.13a3.89,3.89,0,0,1-.22,7.78l-.23,0H157.6l-.21.07-2.62-7.83Z"/><path class="cls-1" d="M276.79,311.43c-3.63,1.5-8,2.85-9.19,3.94l-.31,0a40.07,40.07,0,0,1,1.88-8.05c.14-.09,6.15-4.14,9.27-2.79S279.08,310.49,276.79,311.43Z"/><path class="cls-1" d="M267.32,279.69a3.9,3.9,0,0,1,2.35,5l-.1.21-5.18,14.47,0,.41-8-.91v0l6.07-16.95v0A3.88,3.88,0,0,1,267.32,279.69Z"/><path class="cls-1" d="M157.59,284.4l-6,.18,3.19,9.55h18a3.89,3.89,0,0,1-.22,7.78l-.23,0H157.6l-.21.07,1,3c-2.4,0-4.57.17-6.54.38l0,.16s5.76,3.75,5.71,7.18-5.28,2.9-7,1.15c-2.78-2.78-5.5-5.88-7-6.54l-.1-.3c-15.5,5-7.8,17.34-7.8,17.34l72.65-.83-7-40.41ZM194.33,307a3.89,3.89,0,1,1,3.89-3.89A3.89,3.89,0,0,1,194.33,307Z"/><path class="cls-1" d="M270.07,252.43,255.61,286,251.84,295h-.09l-1.37,3.19,6,.67v0l6.07-16.95v0a3.89,3.89,0,0,1,7.24,2.83l-.1.21-5.18,14.47,0,.41,7.42.84c-1.07,2.43-1.93,4.65-2.6,6.68.14-.09,6.15-4.14,9.27-2.79s.64,6-1.65,6.94c-3.63,1.5-8,2.85-9.19,3.94l-.31,0c-1.76,15.77,12.48,14,12.48,14l29.89-66.23Zm11.65,22.06a3.89,3.89,0,1,1,3.89-3.89A3.89,3.89,0,0,1,281.72,274.49Z"/><rect class="cls-2" x="122.63" y="114.35" width="147.43" height="99.53" rx="3.13" ry="3.13"/><path class="cls-2" d="M274.27,221.12a7,7,0,0,1-3.12.73H121.54a7.09,7.09,0,0,1-7.08-7.09V113.47a7.09,7.09,0,0,1,6.26-7,7.37,7.37,0,0,1,.82-.05H271.15a7.1,7.1,0,0,1,7.09,7.09V214.76A7.08,7.08,0,0,1,274.27,221.12Z"/><path class="cls-2" d="M118.61,107.16l2.11-.73,20-6.87a16.38,16.38,0,0,1,5.33-.89l148.51-.1a7.1,7.1,0,0,1,7.1,7.1V207.14c0,2.17-.73,4.71-2.64,5.7l-.18.1"/><polyline class="cls-2" points="274.29 221.16 298.96 212.68 298.98 212.68"/><path class="cls-2" d="M302,110.63l18.77,7.23a15.39,15.39,0,0,1,9.9,14.26l.37,47.87A15.39,15.39,0,0,1,322,194.15l-20.21,9.12"/><line class="cls-2" x1="326.79" y1="142.53" x2="308.17" y2="146"/><line class="cls-2" x1="326.79" y1="149.97" x2="308.17" y2="153.44"/><line class="cls-2" x1="326.79" y1="157.41" x2="308.17" y2="160.88"/><line class="cls-2" x1="326.79" y1="164.85" x2="308.17" y2="168.32"/><line class="cls-2" x1="326.79" y1="172.29" x2="308.17" y2="175.76"/><path class="cls-3" d="M157.57,284.31s0,.06,0,.09"/><path class="cls-3" d="M170.2,221.85s-16.72,14.48-15.35,44.62"/><path class="cls-4" d="M241.44,221.85s-.9,16.84,11.64,27"/><path class="cls-3" d="M192.47,266.47c-3-25.1,10.86-44.62,10.86-44.62s-1.2,48.19,32.1,65.9"/><path class="cls-3" d="M152,335.41c0,4.56-3.13,8.25-7.52,8.25-4.15,0-7.52-3.69-7.52-8.25a8.22,8.22,0,0,1,5.17-7.83"/><path class="cls-3" d="M171.32,335.41c0,4.56-3.37,8.25-7.53,8.25s-7.52-3.69-7.52-8.25"/><path class="cls-3" d="M190.59,335.41c0,4.56-3.37,8.25-7.52,8.25s-7.52-3.69-7.52-8.25"/><path class="cls-3" d="M202.1,327.17h.24c4.15,0,7.52,3.69,7.52,8.24s-3.37,8.25-7.52,8.25-7.52-3.69-7.52-8.25"/><polyline class="cls-3" points="141.37 324.37 142.16 327.58 144.1 335.42 152.04 335.42 156.27 335.42 171.32 335.42 175.55 335.42 190.59 335.42 194.82 335.42 204.14 335.42 202.75 329.79 202.1 327.17 201.41 324.37"/><path class="cls-3" d="M157.59,284.4l43.77-1.27,7,40.41-72.65.83S128,312,143.51,307h0a41.28,41.28,0,0,1,8.35-1.65c2-.21,4.14-.34,6.54-.38l-1-3-2.62-7.83-3.19-9.56Z"/><path class="cls-3" d="M296.67,319.2c4.13,1.92,6.06,6.54,4.31,10.3s-6.52,5.26-10.65,3.34a8.21,8.21,0,0,1-4.93-8"/><path class="cls-3" d="M304.8,301.73c4.13,1.92,6.06,6.53,4.31,10.3s-6.52,5.26-10.65,3.34"/><path class="cls-3" d="M312.93,284.26c4.13,1.92,6.06,6.53,4.31,10.3s-6.53,5.26-10.66,3.34"/><path class="cls-3" d="M310.31,270.34a2,2,0,0,1,.1-.21c1.75-3.77,6.52-5.26,10.65-3.34s6.06,6.53,4.3,10.29-6.52,5.27-10.65,3.34"/><polyline class="cls-3" points="282.16 324.22 285.4 324.86 293.32 326.4 296.67 319.2 298.46 315.37 304.8 301.73 306.58 297.9 312.93 284.26 314.71 280.42 318.65 271.97 313.46 270.96 310.31 270.34 307.49 269.79"/><path class="cls-3" d="M255.61,286l14.46-33.61,39.59,10.7-29.89,66.23s-14.24,1.74-12.48-14a40.07,40.07,0,0,1,1.88-8.05c.67-2,1.53-4.25,2.6-6.68l-7.42-.84-8-.91-6-.67,1.37-3.19"/><path class="cls-3" d="M157.57,284.31l39.36-1.11,2.33-.07-2.65-11h3v-5.62H151.7s-.52,9.92,2.5,17.93Z"/><path class="cls-3" d="M255.61,286l12.78-30.41.92-2.19-11.15-2.15,1.25-2.75-5.12-2.32-1.21,2.66-17.65,38.87-1,2.11s8.76,4.54,17.27,5.13h.09Z"/><polyline class="cls-3" points="180.09 329.89 188.65 329.89 196.75 329.89 202.34 329.89"/><path class="cls-2" d="M198.22,303.14a3.89,3.89,0,1,1-3.89-3.89A3.89,3.89,0,0,1,198.22,303.14Z"/><path class="cls-2" d="M285.61,270.6a3.89,3.89,0,1,1-3.89-3.88A3.89,3.89,0,0,1,285.61,270.6Z"/><path class="cls-2" d="M172.58,294.13h.22a3.89,3.89,0,0,1-.22,7.77"/><line class="cls-2" x1="154.77" y1="294.13" x2="172.8" y2="294.13"/><line class="cls-2" x1="157.6" y1="301.89" x2="172.35" y2="301.89"/><path class="cls-2" d="M262.43,281.84a3.89,3.89,0,0,1,7.24,2.83"/><path class="cls-2" d="M262.35,282a1.34,1.34,0,0,1,.07-.18"/><polyline class="cls-2" points="256.35 298.81 262.42 281.86 262.43 281.84"/><line class="cls-2" x1="264.39" y1="299.35" x2="269.57" y2="284.88"/><path class="cls-2" d="M151.89,305.53s5.77,3.76,5.71,7.19-5.28,2.9-7,1.15c-2.78-2.78-5.5-5.88-7-6.54"/><path class="cls-3" d="M269.16,307.29h0c.14-.09,6.15-4.14,9.27-2.79s.64,6-1.65,6.94c-3.63,1.5-8,2.85-9.19,3.94"/><polyline class="cls-2" points="313.46 270.96 310.86 276.96 308.02 283.5 304.42 291.82"/><line class="cls-2" x1="280.61" y1="106.38" x2="294.99" y2="102.45"/><ellipse class="cls-5" cx="152.97" cy="121.2" rx="15.55" ry="19.11"/><ellipse cx="152.67" cy="117.75" rx="4.44" ry="8.17"/><ellipse class="cls-1" cx="148.98" cy="115.8" rx="2.4" ry="2.51"/><path class="cls-2" d="M228.62,139.1s-4.06,36.9-35.53,34.09"/><path class="cls-2" d="M224,138.34s6.52-1.15,8.13,2.4"/><path class="cls-1" d="M368,176.73l-31.79,7C324.44,148.4,295.28,165,295.28,165l-6.2-28.43C354.65,112,368,176.73,368,176.73Z"/><path class="cls-2" d="M295.28,165s29.16-16.61,40.89,18.71l31.79-7s-13.31-64.7-78.88-40.15"/><path class="cls-1" d="M373.41,217.63a8.39,8.39,0,0,1-12.21,4.18l-.23-.08a8.7,8.7,0,0,1-1.63,3c-3.81,4.25-14.43,4.3-15.55-3a7.83,7.83,0,0,1-.1-1.31c-23.86-8.21-7.17-28.59-7.17-28.59-3.94.66-5.32-7.47-2.16-9.92,7.36-5.72,21.62-9,32.59-7.62,5.28.66,7.43,7.88,3.36,8.8,7.93,4.45,12.18,9.63,14,17.35,2,8.58.13,17.35-10.36,17.35Z"/><path class="cls-2" d="M370.31,183.1c7.93,4.45,12.18,9.63,14,17.35,2,8.58.13,17.35-10.36,17.35"/><path class="cls-2" d="M370.44,199.34c4.19,8.48,4.51,14.46,3,18.29a8.39,8.39,0,0,1-12.21,4.18"/><path class="cls-2" d="M343.69,220.43a7.83,7.83,0,0,0,.1,1.31c1.12,7.31,11.74,7.26,15.55,3a8.7,8.7,0,0,0,1.63-3c1.57-4.67,1.25-12.32-2.56-18.32"/><path class="cls-2" d="M343.69,220.43c-23.86-8.21-7.17-28.59-7.17-28.59"/><path class="cls-2" d="M336.52,191.84c-3.94.66-5.32-7.47-2.16-9.92,7.36-5.72,21.62-9,32.59-7.62,5.28.66,7.43,7.88,3.36,8.8,0,0-18,1-26,6.37"/><path class="cls-2" d="M342.79,206.14s1.27,4.76,1,15.6"/><ellipse class="cls-5" cx="180.8" cy="121.2" rx="16.04" ry="19.11"/><ellipse cx="178.27" cy="117.75" rx="4.44" ry="8.17"/><ellipse class="cls-1" cx="174.58" cy="115.8" rx="2.4" ry="2.51"/><path d="M203.38,227l39.05,4s-1.86-6.84-1.23-8.93-37.72-.21-37.72-.21Z"/><path d="M165.35,227.71l33.34,2.71s2.71-6.46,3.33-8.55H170.14Z"/></svg>