<svg id="Layer_1" data-name="Layer 1" xmlns="http://www.w3.org/2000/svg" viewBox="0 0 400 400"><defs><style>.cls-1,.cls-6{fill:#fff;}.cls-2{fill:red;}.cls-3,.cls-4,.cls-5{fill:none;}.cls-3,.cls-4,.cls-5,.cls-6{stroke:#000;stroke-width:1.88px;}.cls-3,.cls-4,.cls-6{stroke-linecap:round;}.cls-3{stroke-linejoin:round;}.cls-4,.cls-5,.cls-6{stroke-miterlimit:10;}</style></defs><title>Desk_Dudes16</title><path class="cls-1" d="M266.29,245.88l22.95-4.79a106,106,0,0,1-19.19-22.58c-.81-1.26-1.61-2.54-2.37-3.83a56,56,0,0,0,10.22-1.1c8.3,14,18.84,25.76,32.19,31.95l-15.94,3.53-120,26.59c-11.88-5.47-21.62-16.57-29.57-30.42,2.09-3,3.49-6.4,4.73-8.58a10.15,10.15,0,0,1,1.58-2.09c7,13.6,15.91,24.67,27,29.8l32.22-6.73L238,251.79Z"/><path class="cls-1" d="M304.52,257.57l-12.84,2.94L176.19,287a108.07,108.07,0,0,1-35.28-37.92,16.29,16.29,0,0,0,3.63-3.82h0c8,13.85,17.69,25,29.57,30.42l120-26.59Z"/><path class="cls-1" d="M302.14,269.39,178,296.87l-3.36.75a95.49,95.49,0,0,1-15-12.61c-9.08-9.34-16.87-20.83-23.38-34.07a9.15,9.15,0,0,0,2.4-.65,10.56,10.56,0,0,0,2.2-1.24A108.07,108.07,0,0,0,176.19,287l115.49-26.46.09.37Z"/><path class="cls-1" d="M279.94,285.14l-1.67,1.07h0l-.9.58h0c-3.41-3.78-5.77-6.59-9.59-9.55L232,285.05c20.85,7.23,35.73,29.24,35.73,29.24s.36-5.45,5.47-11.62c7-8.44,12-11,12-11A65.84,65.84,0,0,0,279.94,285.14Z"/><path class="cls-1" d="M278.25,286.22l-.9.58C277.84,286.47,278.17,286.27,278.25,286.22Z"/><path class="cls-1" d="M267.57,192.44h-.07a173.1,173.1,0,0,1-6.7-19.19C262.76,179.63,265,186.1,267.57,192.44Z"/><path class="cls-1" d="M249,116a344.41,344.41,0,0,0,7.62,42.18l.09.33c1.18,4.79,2.53,9.73,4.06,14.73a0,0,0,0,1,0,0,173.1,173.1,0,0,0,6.7,19.19,49.9,49.9,0,0,1-10-.87h0a3.92,3.92,0,0,0-.3-1.11,2.28,2.28,0,0,0-1.68-1.24c-2.26-5.95-4.16-11.85-5.75-17.51h0a233.62,233.62,0,0,1-8.11-45.2l-27.08,2.09-89.05,6.89s.56,6.61,2.06,16.88c-5.15.1-10.06-1-12.53-4.66-.16-.23-.33-.46-.5-.67-2.14-13.58-3.11-23.39-3.34-25.93l-.06-.64,5.84-.36,10.14-.63,8.21-.5,10.07-.62,8.27-.51,10.09-.62,8.25-.51,10.08-.62,8.47-.52,10.08-.62,8.26-.51,10.08-.62,8.05-.49,10.08-.62,7.63-.47,3.86-.24S248.73,113.43,249,116Z"/><path class="cls-2" d="M257.5,191.57a27.12,27.12,0,0,1,.29,3.36q-1.19-2.87-2.27-5.71a2.28,2.28,0,0,1,1.68,1.24,3.92,3.92,0,0,1,.3,1.11Z"/><path class="cls-1" d="M138.83,299.43c12.54-3,18.33-9.64,20.86-14.42a95.49,95.49,0,0,0,15,12.61l3.36-.75.05.19A39.92,39.92,0,0,1,159,318.88c-4-.11-9,1.32-15.27,5.15l-.45.08.5-.41a26.24,26.24,0,0,0-3.25-10.06c-5.88-9.73-13.16-12.58-13.16-12.58,3.46-.21,7-2.14,9.75-3.44l1.06,1.11,0,0,.64.67Z"/><path class="cls-1" d="M270.05,218.51c-.81-1.26-1.61-2.54-2.37-3.83a73.06,73.06,0,0,1-12.63-.8l-.24,0a2.37,2.37,0,0,1-1.83,1c-2.6,0-3.1-1.05-3-2.29-3.29,2.22-7.35,2.71-11.3,2.36a45.85,45.85,0,0,1-15.52-4.77c5,3,6.36,5.89,3.75,8.4s-6.34,1.72-9.56-1.65c-3.66-3.82-5.43-6.12-3.26-10.57a7.34,7.34,0,0,1-2.73-3.67,7.07,7.07,0,0,1,.16-4.56,7.17,7.17,0,0,1,.84-1.71c-2.62.43-7.39-1.27-7.79-4.19-1.13-8.29,11.88-9.06,21.81-7.69.7.09,1.38.2,2.05.32v0c5.69-9.78,21.86-2.37,24,5.43l.13,0a4.63,4.63,0,0,1,3-.92c-2.26-5.95-4.16-11.85-5.75-17.51h0a233.62,233.62,0,0,1-8.11-45.2l-27.08,2.09-89.05,6.89s.56,6.61,2.06,16.88a52.84,52.84,0,0,0,16.24-3.25,8.54,8.54,0,0,1,11.09,4.79,8.68,8.68,0,0,1,.55,2.13,8.55,8.55,0,0,1-5.34,9,72.52,72.52,0,0,1-17.82,4.21c-.64.06-1.27.12-1.89.16a335.35,335.35,0,0,0,7.78,32.69,15,15,0,0,1,4.13-1.58c4-.72,7.94,1,7.39,5.11-.3,2.28-3.28,4.27-5.89,5.95a29.52,29.52,0,0,1,3.78-2c3-1.27,6.83-1.37,8.53,2.06l0,.05a4.69,4.69,0,0,1-.9,5c-2.13,2.74-5.48,3.68-9.71,6.44v0c2.87-1.8,6.29-3.75,9.8-3.33s6.44,3.88,5,7.44c-.66,1.65-2.43,2.57-3.89,3.42a25.26,25.26,0,0,0-5.65,3.9c7,13.6,15.91,24.67,27,29.8l32.22-6.73L238,251.79l28.27-5.91,22.95-4.79A106,106,0,0,1,270.05,218.51Z"/><polygon class="cls-1" points="315.75 285.38 313.48 288.01 278.41 328.2 277.06 329.86 281.44 333.3 319.42 289.27 315.75 285.38"/><polygon class="cls-1" points="164.16 337.55 129.54 337.55 113.23 308.33 106.5 312.79 124.48 343.77 170.5 343.77 171.13 337.55 169.41 337.55 164.16 337.55"/><path class="cls-1" d="M285.28,291.68h0s-5.06,2.55-12,11c-5.11,6.17-5.47,11.62-5.47,11.62a26.82,26.82,0,0,0,10.65,13.91L313.48,288C302.79,269.9,289.22,279.47,285.28,291.68Z"/><path class="cls-1" d="M159,318.88c-4-.11-9,1.32-15.27,5.15-.48.3-1,.61-1.47.94l1-.86.5-.41a26.24,26.24,0,0,0-3.25-10.06c-5.88-9.73-13.16-12.58-13.16-12.58-10.54,0-14.1,7.27-14.1,7.27l16.31,29.21h39.87C173.09,332.24,170.44,319.2,159,318.88Z"/><path class="cls-1" d="M142.15,212.63c.54-.37,1.09-.73,1.65-1.07Z"/><path class="cls-1" d="M142.1,212.67a4,4,0,0,0-.34.23Z"/><path class="cls-1" d="M130.42,169.37a335.35,335.35,0,0,0,7.78,32.69,48,48,0,0,0-9.28,6.79,366.64,366.64,0,0,1-10.46-40.19,41.07,41.07,0,0,0,8.47.83C128.05,169.49,129.21,169.45,130.42,169.37Z"/><path class="cls-1" d="M257.79,194.93q-1.19-2.87-2.27-5.71a4.63,4.63,0,0,0-3,.92l-.13,0c-2.18-7.8-18.35-15.21-24-5.43v0c-.67-.12-1.35-.23-2.05-.32-9.93-1.37-22.94-.6-21.81,7.69.4,2.92,5.17,4.62,7.79,4.19a7.17,7.17,0,0,0-.84,1.71,7.07,7.07,0,0,0-.16,4.56,7.34,7.34,0,0,0,2.73,3.67c-2.17,4.45-.4,6.75,3.26,10.57,3.22,3.37,7,4.12,9.56,1.65s1.25-5.38-3.75-8.4a45.85,45.85,0,0,0,15.52,4.77c3.95.35,8-.14,11.3-2.36-.07,1.24.43,2.3,3,2.29a2.37,2.37,0,0,0,1.83-1C257.43,210.7,258,200.84,257.79,194.93Z"/><path class="cls-1" d="M155.37,219.8c-3.51-.42-6.93,1.53-9.8,3.33l-.5.31.49-.33c4.23-2.76,7.58-3.7,9.71-6.44a4.69,4.69,0,0,0,.9-5l0-.05c-1.7-3.43-5.57-3.33-8.53-2.06a29.52,29.52,0,0,0-3.78,2c2.61-1.68,5.59-3.67,5.89-5.95.55-4.11-3.38-5.83-7.39-5.11a15,15,0,0,0-4.13,1.58,48,48,0,0,0-9.28,6.79,29,29,0,0,0-2.24,2.25c-.26.3-.53.6-.78.9-1,1.19-2,2.35-2.91,3.58h0a16.63,16.63,0,0,0-3.43,10.89h-.21c-1.95-.24-3.14.45-3.69,1.78a7,7,0,0,0-.3,3.4c1.62,14.09,8.51,19.26,13.33,21.28l.93.36c3.69,1.32,5.15-.62,3.41-3a3.51,3.51,0,0,1-1.1-1.16,7.31,7.31,0,0,1,1.1,1.16,4.83,4.83,0,0,0,3.28.62,9.15,9.15,0,0,0,2.4-.65,10.56,10.56,0,0,0,2.2-1.24,16.29,16.29,0,0,0,3.63-3.82h0c2.09-3,3.49-6.4,4.73-8.58a10.15,10.15,0,0,1,1.58-2.09,25.26,25.26,0,0,1,5.65-3.9c1.46-.85,3.23-1.77,3.89-3.42C161.81,223.68,158.84,220.21,155.37,219.8Zm-13.67-6.86-.32.23.32-.23.05,0Zm.45-.31c.54-.37,1.09-.73,1.65-1.07Z"/><path class="cls-1" d="M128.92,208.85a29,29,0,0,0-2.24,2.25c-.26.3-.53.6-.78.9a351,351,0,0,1-9.19-43.76c.57.15,1.15.29,1.75.42A366.64,366.64,0,0,0,128.92,208.85Z"/><path class="cls-1" d="M125.9,212c-1,1.19-2,2.35-2.91,3.58h0q-2.22-7.86-4-16.17-2.68-12.39-4.44-25.66c-.29-2.14-.55-4.29-.8-6.45a29.76,29.76,0,0,0,3,.94A351,351,0,0,0,125.9,212Z"/><path class="cls-1" d="M256.64,158.16l.09.33c.37,1.47,1.95,7.63,4.06,14.73a0,0,0,0,1,0,0c2,6.38,4.2,12.85,6.77,19.19h-.07a49.9,49.9,0,0,1-10-.87,27.12,27.12,0,0,1,.29,3.36c.24,5.91-.36,15.77-3,18.9l.24,0a73.06,73.06,0,0,0,12.63.8,56,56,0,0,0,10.22-1.1c7.93-1.68,15.43-5.63,17.74-14.24C300.72,180.38,288.43,161.08,256.64,158.16Z"/><path class="cls-1" d="M115.36,231.66a7,7,0,0,1,.3-3.4l-.41-.06c-.77,0-7.26,0-9.2-5.47-3.8-10.79,4.14-20.21,12.92-23.32q-2.68-12.39-4.44-25.66h0c-18.76,5.92-38.5,32.54-30.92,59.44,10,35.53,44.81,19.87,45.08,19.75C123.87,250.92,117,245.75,115.36,231.66Z"/><path class="cls-1" d="M155.47,156a8.68,8.68,0,0,0-.55-2.13,8.54,8.54,0,0,0-11.09-4.79,52.84,52.84,0,0,1-16.24,3.25c-5.15.1-10.06-1-12.53-4.66-.16-.23-.33-.46-.5-.67a7.8,7.8,0,0,0-.79-.83,8.25,8.25,0,0,0-1.94-1.35,8.54,8.54,0,0,0-11,12.39,26.31,26.31,0,0,0,12.85,10.05,29.76,29.76,0,0,0,3,.94c.57.15,1.15.29,1.75.42a41.07,41.07,0,0,0,8.47.83c1.12,0,2.28,0,3.49-.12.62,0,1.25-.1,1.89-.16A72.52,72.52,0,0,0,150.13,165,8.55,8.55,0,0,0,155.47,156Z"/><path class="cls-1" d="M108.5,154.21l-.09.07-.08-.09Z"/><path class="cls-3" d="M278.27,286.21l1.67-1.07a65.84,65.84,0,0,1,5.34,6.54s-5.06,2.55-12,11c-5.11,6.17-5.47,11.62-5.47,11.62s-14.88-22-35.73-29.24"/><path class="cls-3" d="M267.76,277.25c3.82,3,6.18,5.77,9.59,9.55"/><path class="cls-4" d="M284.28,300.5a21.43,21.43,0,0,1,1-8.82c3.94-12.21,17.51-21.78,28.2-3.67L278.41,328.2a26.82,26.82,0,0,1-10.65-13.91"/><polyline class="cls-4" points="313.48 288.01 315.75 285.38 319.42 289.27 281.44 333.3 277.06 329.86 278.41 328.2"/><path class="cls-3" d="M159,318.88a39.92,39.92,0,0,0,19.12-21.82"/><path class="cls-3" d="M143.24,324.11l.45-.08"/><path class="cls-3" d="M138.14,298.73l-1.06-1.11c-2.71,1.3-6.29,3.23-9.75,3.44"/><path class="cls-3" d="M159.69,285c-2.53,4.78-8.32,11.41-20.86,14.42h0l-.64-.67"/><path class="cls-4" d="M164.16,337.54H129.54l-16.31-29.21s3.56-7.27,14.1-7.27c0,0,7.28,2.85,13.16,12.58a26.24,26.24,0,0,1,3.25,10.06"/><path class="cls-4" d="M142.22,325c.5-.33,1-.64,1.47-.94,6.23-3.83,11.28-5.26,15.27-5.15,11.48.32,14.13,13.36,10.45,18.66"/><polyline class="cls-4" points="113.23 308.33 106.5 312.79 124.48 343.77 170.5 343.77 171.13 337.55 169.41 337.55 164.16 337.55"/><path class="cls-4" d="M144.54,245.23c8,13.85,17.69,25,29.57,30.42l120-26.59,15.94-3.53"/><path class="cls-4" d="M118.46,168.66a366.64,366.64,0,0,0,10.46,40.19"/><path class="cls-4" d="M111.22,121.11c.23,2.54,1.2,12.35,3.34,25.93"/><path class="cls-4" d="M140.91,249.05A108.07,108.07,0,0,0,176.19,287l115.49-26.46,12.84-2.94-10.37-8.51"/><path class="cls-4" d="M116.71,168.24A351,351,0,0,0,125.9,212"/><path class="cls-4" d="M111.16,120.47l.06.64c.78,8.77,1.62,17.12,2.55,25.1"/><path class="cls-4" d="M277.9,213.58c8.3,14,18.84,25.76,32.19,31.95"/><path class="cls-4" d="M256.73,158.49c1.18,4.79,2.53,9.73,4.06,14.73"/><path class="cls-4" d="M111.83,144.86q-.67-12-.67-24.39l5.84-.36,10.14-.63,8.21-.5,10.07-.62,8.27-.51,10.09-.62,8.25-.51,10.08-.62,8.47-.52,10.08-.62,8.26-.51,10.08-.62,8.05-.49,10.08-.62,7.63-.47,3.86-.24s.11,1.42.4,4a344.41,344.41,0,0,0,7.62,42.18"/><path class="cls-4" d="M123,215.58q-2.22-7.86-4-16.17-2.68-12.39-4.44-25.66c-.29-2.14-.55-4.29-.8-6.45"/><path class="cls-4" d="M291.77,260.88l10.37,8.51L178,296.87l-3.36.75a95.49,95.49,0,0,1-15-12.61c-9.08-9.34-16.87-20.83-23.38-34.07"/><path class="cls-4" d="M117,120c-2.33-2-1.37-5.82,0-7.36a6.07,6.07,0,0,1,8.87-.11c1.56,1.58,1.94,4.49,1.24,7s-2.45,4.48-5.14,4.31"/><path class="cls-4" d="M135.33,118.67c-2.33-2-1.37-5.82,0-7.36a6.08,6.08,0,0,1,8.87-.11c1.61,1.63,2,4.65,1.18,7.16-.73,2.36-2.46,4.27-5.08,4.11"/><path class="cls-4" d="M153.67,117.61c-2.33-2-1.37-5.82,0-7.35a6.06,6.06,0,0,1,8.87-.11c1.59,1.6,1.95,4.59,1.2,7.08s-2.46,4.34-5.1,4.18"/><path class="cls-4" d="M172,116.43c-2.33-2-1.37-5.82,0-7.35a6.07,6.07,0,0,1,8.87-.12c1.6,1.62,2,4.64,1.19,7.14s-2.47,4.29-5.09,4.13"/><path class="cls-4" d="M190.56,115.31c-2.33-2-1.37-5.82,0-7.35a6.07,6.07,0,0,1,8.87-.12c1.6,1.62,1.95,4.62,1.19,7.12s-2.46,4.31-5.09,4.15"/><path class="cls-4" d="M208.9,114.2c-2.33-2-1.37-5.83,0-7.36a6.06,6.06,0,0,1,8.87-.11c1.6,1.61,1.95,4.6,1.19,7.1s-2.45,4.32-5.09,4.16"/><path class="cls-4" d="M227,113.08c-2.33-2-1.37-5.83,0-7.36a6.07,6.07,0,0,1,8.87-.11c1.6,1.61,1.95,4.61,1.19,7.11s-2.46,4.31-5.09,4.15"/><path class="cls-4" d="M244.74,112c-2.33-2-1.37-5.82,0-7.36a6.07,6.07,0,0,1,8.87-.11c2.83,2.85,3.12,10.89-4.63,11.49a14.72,14.72,0,0,1-2.7-.07"/><path class="cls-4" d="M114.53,173.75c-18.76,5.92-38.5,32.54-30.92,59.44,10,35.53,44.81,19.87,45.08,19.75h0"/><path class="cls-4" d="M119,199.41c-8.78,3.11-16.72,12.53-12.92,23.32,1.94,5.51,8.43,5.49,9.2,5.47h.08"/><path class="cls-4" d="M150.85,234.56c7,13.6,15.91,24.67,27,29.8l32.22-6.73L238,251.79l28.27-5.91,22.95-4.79"/><path class="cls-4" d="M145.56,223.11v0"/><path class="cls-4" d="M130.42,169.37a335.35,335.35,0,0,0,7.78,32.69"/><path class="cls-4" d="M125.53,135.49s.56,6.61,2.06,16.88"/><path class="cls-4" d="M267.68,214.68c.76,1.29,1.56,2.57,2.37,3.83a106,106,0,0,0,19.19,22.58"/><path class="cls-4" d="M249.77,171.71c1.59,5.66,3.49,11.56,5.75,17.51"/><path class="cls-4" d="M125.53,135.49l89.05-6.89,27.08-2.09a233.62,233.62,0,0,0,8.11,45.2"/><path class="cls-4" d="M238.65,214.88c1.67,3.17,3.45,6.23,5.34,9.14,6.16,9.46,13.53,17.27,22.3,21.86l.11.06"/><path class="cls-4" d="M214.59,128.64s.91,8.89,3.36,21.86c1.37,7.18,3.2,15.62,5.63,24.5.85,3.11,1.77,6.28,2.77,9.47"/><path class="cls-4" d="M186.74,131.5s.82,8.64,3.25,21.48c1.39,7.39,3.33,16.17,5.95,25.49a234.75,234.75,0,0,0,8.59,25.26,151,151,0,0,0,13.33,25.81c5.66,8.61,12.31,16.21,20.09,21.93"/><path class="cls-4" d="M156.79,133.78s1.2,8.8,3.92,21.8c1.61,7.68,3.74,16.84,6.47,26.51,2.42,8.59,5.32,17.58,8.72,26.31a163.57,163.57,0,0,0,13.29,27.2c6,9.54,12.92,17.37,20.91,22h0"/><polyline class="cls-4" points="156.03 242.6 189.19 235.6 217.86 229.54 243.99 224.02 270.05 218.51"/><polyline class="cls-4" points="156.15 211.63 175.9 208.41 204.53 203.73 211.33 202.62"/><polyline class="cls-4" points="135.9 186.02 167.18 182.09 195.94 178.47 223.58 175 249.77 171.71 249.77 171.71"/><polyline class="cls-4" points="155.47 156.04 160.71 155.58 189.99 152.98 217.95 150.5 243.34 148.25"/><path class="cls-4" d="M235.29,186.61a33.54,33.54,0,0,0-6.89-1.82c-.67-.12-1.35-.23-2.05-.32-9.93-1.37-22.94-.6-21.81,7.69.4,2.92,5.17,4.62,7.79,4.19"/><path class="cls-4" d="M252.57,190.77a5.61,5.61,0,0,0-.13-.59c-2.18-7.8-18.35-15.21-24-5.43"/><path class="cls-4" d="M231.37,194s-.77-.24-2-.52c-4.14-.94-13.51-2.37-17,2.9a7.17,7.17,0,0,0-.84,1.71,7.07,7.07,0,0,0-.16,4.56,7.34,7.34,0,0,0,2.73,3.67"/><path class="cls-3" d="M223.13,210.11a45.85,45.85,0,0,0,15.52,4.77c3.95.35,8-.14,11.3-2.36"/><polyline class="cls-3" points="223.11 210.1 223.11 210.1 223.12 210.1 223.12 210.11"/><path class="cls-3" d="M230.12,202.4a19.84,19.84,0,0,0-9.19-1.11,8.79,8.79,0,0,0-6.87,5c-2.17,4.45-.4,6.75,3.26,10.57,3.22,3.37,7,4.12,9.56,1.65s1.25-5.38-3.75-8.4h0"/><path class="cls-4" d="M257.5,191.57a27.12,27.12,0,0,1,.29,3.36c.24,5.91-.36,15.77-3,18.9a2.37,2.37,0,0,1-1.83,1c-2.6,0-3.1-1.05-3-2.29.05-.8.33-1.69.44-2.41,0,0,1.59-9.48,1.59-12.14"/><path class="cls-4" d="M252.57,190.14a4.63,4.63,0,0,1,3-.92,2.28,2.28,0,0,1,1.68,1.24,3.92,3.92,0,0,1,.3,1.11"/><path class="cls-4" d="M255.05,213.88a73.06,73.06,0,0,0,12.63.8,56,56,0,0,0,10.22-1.1c7.93-1.68,15.43-5.63,17.74-14.24,5.08-19-7.21-38.26-39-41.18l.09.33c.37,1.47,1.95,7.63,4.06,14.73a0,0,0,0,1,0,0,173.1,173.1,0,0,0,6.7,19.19"/><path class="cls-4" d="M257.5,191.57h0a49.9,49.9,0,0,0,10,.87h.07c3.89-.15,7.47-1.1,7.73-4.05"/><path class="cls-4" d="M141.34,213.2l-.5.38"/><path class="cls-4" d="M141.75,212.91l-.05,0-.32.23"/><path class="cls-4" d="M142.1,212.67l-.34.23"/><path class="cls-4" d="M143.8,211.56l-1.65,1.07"/><path class="cls-4" d="M121.87,236.78a33.1,33.1,0,0,1-2.31-10.31A16.63,16.63,0,0,1,123,215.58h0c.89-1.23,1.88-2.39,2.91-3.58.25-.3.52-.6.78-.9a29,29,0,0,1,2.24-2.25,48,48,0,0,1,9.28-6.79,15,15,0,0,1,4.13-1.58c4-.72,7.94,1,7.39,5.11-.3,2.28-3.28,4.27-5.89,5.95"/><path class="cls-4" d="M133.37,220a34.84,34.84,0,0,1,5.21-4.75c.88-.7,1.8-1.41,2.76-2.09l0,0,.32-.23.05,0h0a4,4,0,0,1,.34-.23l.05,0c.54-.37,1.09-.73,1.65-1.07l0,0a29.52,29.52,0,0,1,3.78-2c3-1.27,6.83-1.37,8.53,2.06l0,.05a4.69,4.69,0,0,1-.9,5c-2.13,2.74-5.48,3.68-9.71,6.44l-.49.33"/><path class="cls-4" d="M139.53,228.57a29.28,29.28,0,0,1,5.54-5.13l.5-.31c2.87-1.8,6.29-3.75,9.8-3.33s6.44,3.88,5,7.44c-.66,1.65-2.43,2.57-3.89,3.42a25.26,25.26,0,0,0-5.65,3.9,10.15,10.15,0,0,0-1.58,2.09c-1.24,2.18-2.64,5.61-4.73,8.58h0a16.29,16.29,0,0,1-3.63,3.82,10.56,10.56,0,0,1-2.2,1.24,9.15,9.15,0,0,1-2.4.65,4.83,4.83,0,0,1-3.28-.62,3.51,3.51,0,0,1-1.1-1.16"/><path class="cls-4" d="M119.35,226.48c-1.95-.24-3.14.45-3.69,1.78a7,7,0,0,0-.3,3.4c1.62,14.09,8.51,19.26,13.33,21.28l.93.36c3.69,1.32,5.15-.62,3.41-3a7.31,7.31,0,0,0-1.1-1.16"/><path class="cls-3" d="M194.19,181a77.94,77.94,0,0,0-8.71,9.71,59.28,59.28,0,0,0-7.95,13.68"/><path class="cls-3" d="M172.7,185.42s6.67,2.36,12.78,5.27c4.48,2.13,8.66,4.56,9.7,6.56"/><path class="cls-3" d="M138.14,298.73l0,0c.08.08.32.31.66.67,1.36,1.41,4.36,4.7,5.56,7.53"/><path class="cls-3" d="M278.27,286.21h0c-.08,0-.41.25-.9.58h0c-2,1.34-6.55,4.86-8.7,9.88"/><path class="cls-5" d="M130.42,169.37c-1.21.08-2.37.12-3.49.12a41.07,41.07,0,0,1-8.47-.83c-.6-.13-1.18-.27-1.75-.42a29.76,29.76,0,0,1-3-.94,26.31,26.31,0,0,1-12.85-10.05,8.54,8.54,0,0,1,11-12.39,8.25,8.25,0,0,1,1.94,1.35,7.8,7.8,0,0,1,.79.83c.17.21.34.44.5.67,2.47,3.67,7.38,4.76,12.53,4.66a52.84,52.84,0,0,0,16.24-3.25,8.54,8.54,0,0,1,11.09,4.79,8.68,8.68,0,0,1,.55,2.13,8.55,8.55,0,0,1-5.34,9,72.52,72.52,0,0,1-17.82,4.21C131.67,169.27,131,169.33,130.42,169.37Z"/><path class="cls-3" d="M108.41,154.28a18.56,18.56,0,0,0,4.33,3.28,27.7,27.7,0,0,0,2.62,1.32c.42.18.85.36,1.31.53A35.07,35.07,0,0,0,129,161.58,57.54,57.54,0,0,0,148,158.16"/><path class="cls-3" d="M106.45,155.83s1.77-3.18,4.22-3.34"/><line class="cls-3" x1="108.41" y1="154.28" x2="108.41" y2="154.28"/><path d="M120.35,336.65s-30-2.18-28.51,3.66,32.73,4.4,32.73,4.4Z"/><path d="M171.25,344.69s130.87,1.86,129.34-4S172,336.61,172,336.61Z"/><ellipse class="cls-6" cx="163.29" cy="122.22" rx="17.49" ry="12.95" transform="translate(26.19 273.23) rotate(-84.58)"/><ellipse class="cls-6" cx="146.28" cy="120.9" rx="18.17" ry="13.46" transform="translate(12.1 255.1) rotate(-84.58)"/><polygon points="173.01 305.96 158 289.29 159.88 285.47 174.4 298.18 177.98 297.32 173.01 305.96"/><polygon points="245.38 291.2 270.05 279.74 266.4 277.3 233.71 285.38 245.38 291.2"/><ellipse cx="148.38" cy="128.16" rx="5.09" ry="3.26" transform="translate(-3.16 252.58) rotate(-80.21)"/><ellipse cx="167.9" cy="128.16" rx="5.09" ry="3.26" transform="translate(13.04 271.81) rotate(-80.21)"/><circle class="cls-1" cx="146.65" cy="124.75" r="1.67"/><circle class="cls-1" cx="166.23" cy="124.56" r="1.67"/><path d="M120.35,336.65s-30-2.18-28.51,3.66,32.73,4.4,32.73,4.4Z"/><path d="M171.25,344.69s130.87,1.86,129.34-4S172,336.61,172,336.61Z"/><ellipse class="cls-6" cx="163.29" cy="122.22" rx="17.49" ry="12.95" transform="translate(26.19 273.23) rotate(-84.58)"/><ellipse class="cls-6" cx="146.28" cy="120.9" rx="18.17" ry="13.46" transform="translate(12.1 255.1) rotate(-84.58)"/><polygon points="173.01 305.96 158 289.29 159.88 285.47 174.4 298.18 177.98 297.32 173.01 305.96"/><polygon points="245.38 291.2 270.05 279.74 266.4 277.3 233.71 285.38 245.38 291.2"/><ellipse cx="148.38" cy="128.16" rx="5.09" ry="3.26" transform="translate(-3.16 252.58) rotate(-80.21)"/><ellipse cx="167.9" cy="128.16" rx="5.09" ry="3.26" transform="translate(13.04 271.81) rotate(-80.21)"/><circle class="cls-1" cx="146.65" cy="124.75" r="1.67"/><circle class="cls-1" cx="166.23" cy="124.56" r="1.67"/></svg>