<svg id="Layer_1" data-name="Layer 1" xmlns="http://www.w3.org/2000/svg" viewBox="0 0 400 400"><defs><style>.cls-1,.cls-4{fill:#fff;}.cls-2,.cls-3{fill:none;}.cls-2,.cls-3,.cls-4{stroke:#000;stroke-linecap:round;stroke-width:1.88px;}.cls-2,.cls-4{stroke-linejoin:round;}.cls-3{stroke-miterlimit:10;}</style></defs><title>Desk_Dudes19</title><path d="M145.35,336.52s-52.8-.83-51.26,5,47.58,3.37,47.58,3.37Z"/><path class="cls-1" d="M299.51,148.62c13.92,37.44-10.28,59.77-30.1,59.55l.11-20.54c11-1.31,20.74-15.24,11.71-33.74l0,0c4,1.27,13.33-1.23,18.26-5.23Z"/><path class="cls-1" d="M165.85,319.72a20.66,20.66,0,0,1,3.7.82l-4,.06S165.69,320.3,165.85,319.72Z"/><path class="cls-1" d="M106.36,249.13h0Z"/><path class="cls-1" d="M260.33,102.93l-34.7.19a3.56,3.56,0,0,0-3.31,3.81L222.6,122l-115.31,3.71c-2.82.09-5.08,2.65-5.15,5.83L100,240.4c-.16,4.69,2.39,8.61,5.69,8.75h.63c3-.31,5.5-3.82,5.65-8.21l2.22-99.76c.08-3.44,2.51-6.22,5.57-6.36l112.59-5V118.29c0-3.34,2.41-6.05,5.38-6.05l25.59,0,.2-5.55A3.44,3.44,0,0,0,260.33,102.93Z"/><path d="M253.07,197.44a4,4,0,1,1-2-5.25A4,4,0,0,1,253.07,197.44Z"/><path class="cls-1" d="M137.44,315.52A72.63,72.63,0,0,1,127,315Z"/><path class="cls-1" d="M298.15,143.14h0l0,0h0c-7.57-22-20-37.1-25.34-31.15-3.38,3.81,5.12,7,9.37,17.09a30.15,30.15,0,0,0-12.29-11.44,11.06,11.06,0,0,0-5.31-1.35c-2.26.19-4,3-3.81,4.75.41,3.08,4.54,4.61,6.9,6,.76.45,1.48.87,2.18,1.34h0a20.94,20.94,0,0,1,5.43,5.29,9.63,9.63,0,0,0-5.45-.86,10.22,10.22,0,0,0-9.16,8.72c-.71,5.14,3.52,5,3.52,5,2.46-.29,3.46-1.41,3.57-2.44a4.55,4.55,0,0,1,2-3.56c2.05-1.25,4.92-.16,5.2,4.21a3.68,3.68,0,0,1-5.2,3.75h0c-1.05-.37-5.26.12-3.56,4.13a5.24,5.24,0,0,0,3.53,3h0a9,9,0,0,0,9.63-4.16l.07,0h0c-.1,1.2.62,2,1.86,2.36h0c4,1.27,13.33-1.23,18.26-5.23.35-.29.68-.58,1-.88C302.37,145.87,300.64,141.32,298.15,143.14Z"/><path class="cls-1" d="M168.47,309.76l-.41,0c-.87,4.94-1.78,8.45-2.21,10a20.66,20.66,0,0,1,3.7.82h0l26.75-.41a64.06,64.06,0,0,0,2.4-11.53C193.73,311.22,178,310.77,168.47,309.76ZM167.11,315l10.44.57A72.63,72.63,0,0,1,167.11,315Zm22.39.17,8.11-.79A77.9,77.9,0,0,1,189.5,315.12Z"/><path class="cls-1" d="M128.36,309.83l-.23-.05c-.39,2-.78,3.69-1.13,5.17l10.44.57A72.63,72.63,0,0,1,127,315c-.85,3.59-1.47,5.65-1.47,5.65H126l30.26-.46a57.25,57.25,0,0,0,3.2-11.36h0C154.34,311.16,138.18,310.75,128.36,309.83ZM150,315l8.18-.62A32.8,32.8,0,0,1,150,315Z"/><path class="cls-1" d="M177.55,315.52a72.63,72.63,0,0,1-10.44-.57Z"/><path class="cls-1" d="M260.75,121c-.23-1.75,1.55-4.56,3.81-4.75a11.06,11.06,0,0,1,5.31,1.35,5.48,5.48,0,0,0-5.17-5.39h-1.35l-25.59,0c-3,0-5.38,2.71-5.38,6.05v11.55l-112.59,5c-3.06.14-5.49,2.92-5.57,6.36L112,240.92c-.15,4.39-2.63,7.9-5.65,8.21l22.1-.64,22.36-.65,12.86-.37,21.6-.63,79.06-2.31c2.72-.07,4.89-2.56,4.9-5.62l.17-30.74.11-20.54.17-32a5.24,5.24,0,0,1-3.53-3c-1.7-4,2.51-4.5,3.56-4.13l0-7.95a4.55,4.55,0,0,0-2,3.56c-.11,1-1.11,2.15-3.57,2.44,0,0-4.23.15-3.52-5a10.22,10.22,0,0,1,9.16-8.72l0-4.43h0c-.7-.47-1.42-.89-2.18-1.34C265.29,125.62,261.16,124.09,260.75,121Zm-7.68,76.43a4,4,0,1,1-2-5.25A4,4,0,0,1,253.07,197.44Z"/><path class="cls-1" d="M221.38,329.39c-5.59-11.72-19-10.22-23.41-9.26h0l-28.33.43h0l-.07,0h0l-4,.06s.09-.3.25-.88a29.12,29.12,0,0,0-9.59.41h0l-30.26.46h-.47c-4.57,4.56-4.92,20.22-2.47,23.49h10.26c-.19-1.83,1.29-6,3.7-5.14,1.55.56,2,3.1,2,5.14h40.72c.23-.89.45-1.83.64-2.79a11,11,0,0,1,.34,2.79h40.72C222.69,339.51,223.52,333.89,221.38,329.39Z"/><path class="cls-1" d="M150,315l8.18-.62A32.8,32.8,0,0,1,150,315Z"/><path class="cls-1" d="M128.46,248.49c5.6,23.41,2.41,47.73-.33,61.29l.23.05c9.82.92,26,1.33,31.1-1.06h0c4-22.66-3.71-48-8.64-60.93Z"/><path class="cls-1" d="M185.28,246.84l-21.6.63c8.79,24.53,6.74,48.77,4.38,62.26l.41,0c9.54,1,25.26,1.46,30.24-1.16C201.54,284.16,191.28,259,185.28,246.84Z"/><path class="cls-1" d="M189.5,315.12l8.11-.79A77.9,77.9,0,0,1,189.5,315.12Z"/><polyline class="cls-2" points="169.63 320.56 197.96 320.13 198.08 320.13"/><path class="cls-2" d="M190.52,326.66c1.73-5,7.27-6.48,7.44-6.53h0c4.41-1,17.82-2.46,23.41,9.26,2.14,4.5,1.31,10.12.11,14.7H180.77a11,11,0,0,0-.34-2.79"/><path class="cls-2" d="M165.85,319.72c.43-1.54,1.34-5.05,2.21-10,2.36-13.49,4.41-37.73-4.38-62.26"/><path class="cls-2" d="M185.28,246.84c6,12.19,16.26,37.32,13.43,61.76a64.06,64.06,0,0,1-2.4,11.53l-26.75.41"/><path class="cls-2" d="M125.53,320.6s.62-2.06,1.47-5.65c.35-1.48.74-3.21,1.13-5.17,2.74-13.56,5.93-37.88.33-61.29"/><path class="cls-2" d="M150.82,247.84c4.93,13,12.68,38.27,8.64,60.93a57.25,57.25,0,0,1-3.2,11.36l-30.26.46"/><path class="cls-2" d="M148.81,326.66c1.74-5,7.28-6.48,7.45-6.53h0a29.12,29.12,0,0,1,9.59-.41,20.66,20.66,0,0,1,3.7.82h0l.07,0h0a16.38,16.38,0,0,1,10.05,8.83c1.72,3.62,1.52,8,.75,11.91-.19,1-.41,1.9-.64,2.79H139.07c0-2-.5-4.58-2-5.14-2.41-.88-3.89,3.31-3.7,5.14H123.06c-2.45-3.27-2.1-18.93,2.47-23.49H126l30.26-.46h.12"/><path class="cls-2" d="M128.36,309.83c9.82.92,26,1.33,31.1-1.06"/><path class="cls-2" d="M127,315a72.63,72.63,0,0,0,10.44.57"/><path class="cls-2" d="M168.47,309.76c9.54,1,25.26,1.46,30.24-1.16"/><path class="cls-2" d="M167.11,315a72.63,72.63,0,0,0,10.44.57"/><path class="cls-2" d="M189.5,315.12a77.9,77.9,0,0,0,8.11-.79"/><line class="cls-2" x1="189.5" y1="315.12" x2="189.5" y2="315.12"/><path class="cls-2" d="M150,315a32.8,32.8,0,0,0,8.18-.62"/><path class="cls-3" d="M269.87,117.61a5.48,5.48,0,0,0-5.17-5.39h-1.35l-25.59,0c-3,0-5.38,2.71-5.38,6.05v11.55l-112.59,5c-3.06.14-5.49,2.92-5.57,6.36L112,240.92"/><line class="cls-3" x1="269.81" y1="132.78" x2="269.83" y2="128.35"/><line class="cls-3" x1="269.72" y1="148.44" x2="269.77" y2="140.49"/><path class="cls-3" d="M106.34,249.14h0l22.1-.64,22.36-.65,12.86-.37,21.6-.63,79.06-2.31c2.72-.07,4.89-2.56,4.9-5.62l.17-30.74.11-20.54.17-32"/><line class="cls-3" x1="105.73" y1="249.15" x2="106.33" y2="249.14"/><path class="cls-3" d="M112,240.92c-.15,4.39-2.63,7.9-5.65,8.21h0a4,4,0,0,1-.6,0c-3.3-.14-5.85-4.06-5.69-8.75l2.1-108.86c.07-3.18,2.33-5.74,5.15-5.83L222.6,122l-.28-15.07a3.56,3.56,0,0,1,3.31-3.81l34.7-.19a3.44,3.44,0,0,1,3.22,3.74l-.2,5.55"/><path class="cls-3" d="M242,192.3a7.85,7.85,0,1,1,4,10.36"/><path class="cls-3" d="M253.07,197.44a4,4,0,1,1-2-5.25A4,4,0,0,1,253.07,197.44Z"/><path class="cls-2" d="M269.83,128.35a20.94,20.94,0,0,1,5.43,5.29"/><path class="cls-2" d="M282.16,129.05a30.15,30.15,0,0,0-12.29-11.44,11.06,11.06,0,0,0-5.31-1.35c-2.26.19-4,3-3.81,4.75.41,3.08,4.54,4.61,6.9,6,.76.45,1.48.87,2.18,1.34"/><path class="cls-2" d="M282.18,129.09l0,0"/><path class="cls-2" d="M298.13,143.11c-7.57-22-20-37.1-25.34-31.15-3.38,3.81,5.12,7,9.37,17.09h0l.18.44"/><path class="cls-2" d="M299.51,148.62c13.92,37.44-10.28,59.77-30.1,59.55"/><path class="cls-2" d="M269.52,187.63c11-1.31,20.74-15.24,11.71-33.74"/><path class="cls-2" d="M288.33,149a21.92,21.92,0,0,0,9.46-5.57,3.05,3.05,0,0,1,.36-.29h0c2.49-1.82,4.22,2.73,2.34,4.59-.3.3-.63.59-1,.88-4.93,4-14.28,6.5-18.26,5.23h0c-1.24-.4-2-1.16-1.86-2.36h0"/><path class="cls-2" d="M279.88,150.19a6.71,6.71,0,0,1-.56,1.25,9,9,0,0,1-9.63,4.16,5.24,5.24,0,0,1-3.53-3"/><path class="cls-2" d="M266.16,152.57c-1.7-4,2.51-4.5,3.56-4.13h0a3.68,3.68,0,0,0,5.2-3.75c-.28-4.37-3.15-5.46-5.2-4.21a4.55,4.55,0,0,0-2,3.56c-.11,1-1.11,2.15-3.57,2.44,0,0-4.23.15-3.52-5a10.22,10.22,0,0,1,9.16-8.72,9.63,9.63,0,0,1,5.45.86"/><path class="cls-2" d="M238.46,168.75s18.54-3.51,14.33,6.89-20.59,2.27-20.59,2.27"/><path class="cls-1" d="M212.79,344H195.21c1,0,2-.76,2.71-2.52a16.07,16.07,0,0,0,.6-2.32c.63-3.05,1.35-7,5-6.46l.11,0c3.15.57,3.64,6.82,5.37,9.11A5.25,5.25,0,0,0,212.79,344Z"/><path class="cls-1" d="M236.6,344V344H213.19a3.37,3.37,0,0,0,3.11-2.77c.75-2.7.47-5.55.65-8.32a14.24,14.24,0,0,1,.63-3.6c.95-2.91,2.67-3.86,4.49-3.57,2,.32,4.11,2.12,5.5,4.45C230.39,335,229.9,344,236.6,344Z"/><path class="cls-1" d="M227.45,234.52a12.08,12.08,0,0,1-1.38-1.58h0c.88,2-1.86,4-3.78,2.88a3.53,3.53,0,0,1-.34-.24c-4-3-6.67-15.13-5.9-20.53a7,7,0,0,1,.42-1.6c1-2.27,3.72-2.21,5.07-.24-.84-3.12,3-11.76,10.4-12.09,3.62-.17,14.52,3.86,13,9.35a3.52,3.52,0,0,1-2.1,2.41l-4.13.13a10.6,10.6,0,0,1-5.1-2.58l-.46-.09a7.29,7.29,0,0,0-.34,2.9c.42,5.09,5.94,9.52,8.56,11.77,4.1,3.5,6.8,8.34,8.44,14C237.59,242.62,230.31,237.34,227.45,234.52Z"/><path class="cls-1" d="M221.94,235.58l-.15.34c-45.19,13.15-56.79-39.4-34.24-60.47l16,13.9c-13,19.94.76,30.88,12.15,25.66l.33,0C215.27,220.45,217.9,232.59,221.94,235.58Z"/><path class="cls-1" d="M193.21,338.9c-1.75,2.41-.09,5.1,1.86,5.14h.14c1,0,2-.76,2.71-2.52a16.07,16.07,0,0,0,.6-2.32A9.7,9.7,0,0,1,193.21,338.9Z"/><path class="cls-1" d="M203.65,332.72v0c3.15.57,3.64,6.82,5.37,9.11a5.25,5.25,0,0,0,3.77,2.17h.4a3.37,3.37,0,0,0,3.11-2.77c.75-2.7.47-5.55.65-8.32h-.12C213.16,333.88,203.65,332.72,203.65,332.72Z"/><path class="cls-1" d="M291.47,288.1l0-.33c1,.08,2,.18,3,.32,3,.4,5.95,1,8.19,3.15,7.83-25.43,6.23-79.19-8.57-79.15-.93,0-27.19,0-51.37.79a7.09,7.09,0,0,1-4.13.13l-5.81.22h-.09c.42,5.09,5.94,9.52,8.56,11.77,4.1,3.5,6.8,8.34,8.44,14-12.17,3.64-19.45-1.64-22.31-4.46l-.09.1c-6.37,33.44,6.42,65.5,13.55,89.6-7.11,3.37-17.33,1.8-18.84,1.54v0c2,.32,4.11,2.12,5.5,4.45,2.82,4.77,2.33,13.76,9,13.76V344h59.3s9.39,0,6.43-12.74C300.79,324.71,293.29,306.84,291.47,288.1Z"/><path class="cls-2" d="M203.56,189.35c-13,19.94.76,30.88,12.15,25.66"/><path class="cls-2" d="M221.79,235.92c-45.19,13.15-56.79-39.4-34.24-60.47"/><path class="cls-2" d="M221.9,213.94a1.68,1.68,0,0,1-.37-.73c-.84-3.12,3-11.76,10.4-12.09,3.62-.17,14.52,3.86,13,9.35a3.52,3.52,0,0,1-2.1,2.41,7.09,7.09,0,0,1-4.13.13,10.6,10.6,0,0,1-5.1-2.58"/><path class="cls-2" d="M227.36,234.62c-6.37,33.44,6.42,65.5,13.55,89.6q.84,2.83,1.56,5.52c1.17,4.36,2.21,12.79-4,14.05a9.25,9.25,0,0,1-1.87.2c-6.7,0-6.21-9-9-13.76-1.39-2.33-3.51-4.13-5.5-4.45-1.82-.29-3.54.66-4.49,3.57A14.24,14.24,0,0,0,217,333c-.18,2.77.1,5.62-.65,8.32a3.37,3.37,0,0,1-3.11,2.77h-.4a5.25,5.25,0,0,1-3.77-2.17c-1.73-2.29-2.22-8.54-5.37-9.11l-.11,0c-3.67-.52-4.39,3.41-5,6.46a16.07,16.07,0,0,1-.6,2.32c-.7,1.76-1.73,2.48-2.71,2.52h-.14c-1.95,0-3.61-2.73-1.86-5.14a9.7,9.7,0,0,0,5.31.3"/><path class="cls-2" d="M203.65,332.72s9.51,1.16,13.18.22"/><path class="cls-2" d="M221.88,325.73l.19,0c1.51.26,11.73,1.83,18.84-1.54l.05,0"/><path class="cls-2" d="M232.85,213.23l5.81-.22,4.13-.13c24.18-.75,50.44-.79,51.37-.79,14.8,0,16.4,53.72,8.57,79.15-2.24-2.13-5.19-2.75-8.19-3.15-1-.14-2-.24-3-.32-6.26-.51-12.19,0-18.56.59-5,.45-9.91,1-14.87,1.65-1.54.2-10.29.3-11.61,1.12,4.45-16.35,7.67-37.1,3.3-52.15-1.64-5.63-4.34-10.47-8.44-14-2.62-2.25-8.14-6.68-8.56-11.77a7.29,7.29,0,0,1,.34-2.9,7.82,7.82,0,0,1,.44-1.05"/><path class="cls-2" d="M195.07,344H295.9s9.39,0,6.43-12.74c-1.54-6.6-9-24.47-10.86-43.21"/><path class="cls-2" d="M249.76,239h0c-12.17,3.64-19.45-1.64-22.31-4.46a12.08,12.08,0,0,1-1.38-1.58"/><path class="cls-2" d="M221.53,213.21c-1.35-2-4.05-2-5.07.24a7,7,0,0,0-.42,1.6c-.77,5.4,1.86,17.54,5.9,20.53a3.53,3.53,0,0,0,.34.24c1.92,1.14,4.66-.84,3.78-2.88a1.66,1.66,0,0,0-.13-.27s-4.14-5.73-3.9-11.69"/><path class="cls-2" d="M235.88,227.55a7.92,7.92,0,0,0,8.35,1"/><path class="cls-2" d="M234.34,233.66s4.33,3.38,13.36.48"/><ellipse class="cls-4" cx="252.28" cy="151.22" rx="16.67" ry="22.61"/><path class="cls-2" d="M212.8,141.26s-22.69-2.63-26.54-2.75c-.57,0-1.59,3.23-1.59,3.23"/><ellipse cx="254.23" cy="162.09" rx="4.32" ry="5.43"/><ellipse class="cls-4" cx="228.66" cy="151.22" rx="16.67" ry="22.61"/><ellipse cx="234.32" cy="162.09" rx="4.32" ry="5.43"/><polygon points="151.54 251.4 130.65 260.87 129.17 248.47 150.5 247.85 151.54 251.4"/><polygon points="187.24 251.4 167.38 259.46 164.64 247.44 185.89 246.82 187.24 251.4"/><path d="M226.23,241.25s8.62,7,17.37,5.19c0,0,7.88,14.48,6.13,23.54-1.25,6.45,1.83-8.44,1.83-8.44s.45-19.64-1.92-22.82c0,0-14.55,4-22.26-4.05Z"/><circle class="cls-1" cx="230.63" cy="158.98" r="2.32"/><circle class="cls-1" cx="250.71" cy="159.16" r="2.32"/></svg>