<svg id="Layer_1" data-name="Layer 1" xmlns="http://www.w3.org/2000/svg" viewBox="0 0 400 400"><defs><style>.cls-1,.cls-4{fill:#fff;}.cls-2{fill:red;}.cls-3,.cls-5{fill:none;stroke-linecap:round;stroke-width:1.88px;}.cls-3,.cls-4,.cls-5{stroke:#000;}.cls-3,.cls-4{stroke-miterlimit:10;}.cls-4{stroke-width:2.08px;}.cls-5{stroke-linejoin:round;}</style></defs><title>Desk_Dudes8</title><path d="M103,343.71l83.53.34s92.34,1.11,155.82-1c23.39-.77,28.8-11.17-15.11-12.35-9.58-.26-214.64.83-214.64.83Z"/><path class="cls-1" d="M131.27,178.09c-1.92-1-4.23-1-5.39,1.11h0a4.56,4.56,0,0,0-2-1c-3.27-.8-5.47.43-6.78,3.38a6.87,6.87,0,0,0-5.56.15c-8.82,4-13.58,21.77-15.69,34.17l-.26,0c-.15-.33-.23-.53-.23-.53-3.86,1.19-2.64,5.15-.85,7.14,3.9,4.32,9.33,6.4,15,4.26V198.84a7.09,7.09,0,0,1,6.28-7l3-1,7.55-2.57,6.87-2.33-.12-.37C133.8,182.54,134,179.51,131.27,178.09Z"/><path class="cls-1" d="M109.43,226.79V273.9c-18.76-3.77-19.84-33.64-15-51.37C98.36,226.85,103.79,228.93,109.43,226.79Z"/><path class="cls-1" d="M275.9,311a7,7,0,0,1-3.3.82H116.52a7.08,7.08,0,0,1-7.09-7.08V198.84a7,7,0,0,1,7.09-7.08H272.6a7.08,7.08,0,0,1,7.08,7.08V304.7A7.06,7.06,0,0,1,275.9,311Zm-4.72-10.58V203.16a3.12,3.12,0,0,0-3.12-3.12h-147a3.12,3.12,0,0,0-3.12,3.12v97.22a3.12,3.12,0,0,0,3.12,3.12h147A3.12,3.12,0,0,0,271.18,300.38Z"/><path class="cls-1" d="M304,292.47v4c0,2.33-.81,5.06-2.93,6L275.9,311a7.06,7.06,0,0,0,3.78-6.26V198.84a7.08,7.08,0,0,0-7.08-7.08H117.35a4.16,4.16,0,0,0,1.32-1l7.55-2.57,6.87-2.33,3.63-1.24a17.12,17.12,0,0,1,5.54-.92l154.38-.11A7.38,7.38,0,0,1,304,191V292.47Z"/><path class="cls-2" d="M115.71,191.8l3-1a4.16,4.16,0,0,1-1.32,1h-.83A7.09,7.09,0,0,0,115.71,191.8Z"/><path class="cls-1" d="M334.62,268.28A16,16,0,0,1,325.2,283l-21,9.48H304v-96.3h.41l19.5,7.51a16,16,0,0,1,10.3,14.83Z"/><rect class="cls-1" x="117.93" y="200.04" width="153.26" height="103.46" rx="3.13" ry="3.13"/><rect class="cls-3" x="117.93" y="200.04" width="153.26" height="103.46" rx="3.13" ry="3.13"/><path class="cls-3" d="M275.9,311a7,7,0,0,1-3.3.82H116.52a7.08,7.08,0,0,1-7.09-7.08V198.84a7,7,0,0,1,7.09-7.08H272.6a7.08,7.08,0,0,1,7.08,7.08V304.7A7.06,7.06,0,0,1,275.9,311Z"/><path class="cls-3" d="M115.67,191.81h0l3-1,7.55-2.57,6.87-2.33,3.63-1.24a17.12,17.12,0,0,1,5.54-.92l154.38-.11A7.38,7.38,0,0,1,304,191V296.5c0,2.33-.81,5.06-2.93,6"/><polyline class="cls-3" points="275.58 311.07 275.9 310.96 301.09 302.52"/><path class="cls-3" d="M304.43,196.17l19.5,7.51a16,16,0,0,1,10.3,14.83l.39,49.77A16,16,0,0,1,325.2,283l-21,9.48"/><line class="cls-3" x1="330.15" y1="229.33" x2="310.8" y2="232.94"/><line class="cls-3" x1="330.15" y1="237.06" x2="310.8" y2="240.67"/><line class="cls-3" x1="330.15" y1="244.8" x2="310.8" y2="248.41"/><line class="cls-3" x1="330.15" y1="252.53" x2="310.8" y2="256.14"/><line class="cls-3" x1="330.15" y1="260.26" x2="310.8" y2="263.87"/><line class="cls-3" x1="282.15" y1="191.76" x2="297.1" y2="187.67"/><path class="cls-3" d="M95.8,215.87c2.11-12.4,6.87-30.15,15.69-34.17a6.87,6.87,0,0,1,5.56-.15,5.64,5.64,0,0,1,2.21,1.82,6.88,6.88,0,0,1-.59,7.43,4.16,4.16,0,0,1-1.32,1l0,0"/><path class="cls-3" d="M117.05,181.56h0c1.31-3,3.51-4.18,6.78-3.38a4.56,4.56,0,0,1,2,1c2.24,2.05,1.11,6.17.31,8.9"/><path class="cls-3" d="M125.88,179.2c1.16-2.12,3.47-2.11,5.39-1.11,2.72,1.42,2.53,4.45,1.7,7.44"/><path class="cls-3" d="M109.43,226.79c-5.64,2.14-11.07.06-15-4.26-1.79-2-3-5.95.85-7.14,0,0,.08.2.23.53.69,1.46,2.95,5.45,7.64,6.51"/><path class="cls-3" d="M94.46,222.53c-4.87,17.73-3.79,47.6,15,51.37"/><polygon class="cls-1" points="221.59 295.28 218.88 335.6 101.73 340.34 105.93 296.7 221.59 295.28"/><polygon class="cls-1" points="134.47 338.73 98.81 340.34 98.81 296.84 128.36 297.96 134.47 338.73"/><polygon class="cls-3" points="218.88 335.6 101.73 340.34 105.93 296.7 221.59 295.28 218.88 335.6"/><path class="cls-1" d="M104.37,309.66l.57-15.89,0-.51,6.16-.3-5.22,50.46-42.37-.34,8.73-75S85.5,262,88.9,277.55c-.82,1.46-5,4.7-8.09,7.33-2,1.66-3,7,.56,7.39s8.3-5.57,8.3-5.57c0,2.2-.18,4.63-.48,7.32l7.68-.37v0l-.55,15.22,0,.24a4,4,0,0,0,8.07.52ZM90,330.73a4,4,0,1,0-5.08-2.63A4,4,0,0,0,90,330.73Z"/><polygon class="cls-1" points="67.21 274.94 58.88 275.91 57.83 284.1 57.27 288.46 55.29 303.97 54.73 308.33 52.75 323.84 52.19 328.2 52.19 328.2 50.96 337.82 56.41 337.19 59.73 336.8 62.7 336.45 70.63 274.55 67.21 274.94"/><path class="cls-1" d="M58.67,283.45l1-8.19,8.34-1a8.54,8.54,0,0,0-7.4-6.36c-4.7-.6-8.95,2.38-9.5,6.67S54,282.85,58.67,283.45Z"/><path class="cls-1" d="M51.79,337.17,53,327.55c-4.69-.6-8.94,2.38-9.49,6.67s2.81,8.24,7.51,8.84,9-2.38,9.5-6.67a1.94,1.94,0,0,0,0-.24l-3.31.39Z"/><path class="cls-1" d="M56.12,303.32l2-15.51c-4.7-.6-9,2.38-9.5,6.67S51.43,302.72,56.12,303.32Z"/><path class="cls-1" d="M53.58,323.19l2-15.51c-4.7-.6-9,2.38-9.5,6.67S48.88,322.59,53.58,323.19Z"/><path class="cls-3" d="M149.91,240c7.67-7.41,12.68,7.05,19.68,7.12,3.68,0,5.28-4.12,8.14-5.83a9.93,9.93,0,0,1,8.42-1.14c5.9,1.79,10.91,8.94,18.63,8,6.85-.87,5.48-11.55,16-9.39"/><path class="cls-1" d="M323,264.27l-7.39,6.91-7.45,7s-30.9-19-35.67-52.82l33.15-9.22S309.42,257.26,323,264.27Z"/><path class="cls-3" d="M308.86,278.14s-31.49-19.52-36.35-54.36l33.78-9.49s3.8,42.36,17.66,49.58"/><path class="cls-1" d="M305.41,210.7l0-.08c2.52-5.14,2.41-31.29-8.23-28.29-2.06-7-5.36-11.17-9.1-13.67-3.1-2.09-7-1.69-8.23,2.73l-.58.11a9.05,9.05,0,0,0-3.41-2.33c-4.43-1.55-8.38.49-10.09,4.82l-.1.21c-3.32-1.62-7.9-1.6-9.52,2.13-1.26,2.93.58,7.19,2.16,9.66a88.54,88.54,0,0,1,6.13,11.53s5.13,17.08,6.25,22.49l-.58.1c-3.63,1.44-2.73,5.95.12,6.93,12.44,4.24,36.12-5.48,38.21-13C309,211.8,308.12,209.51,305.41,210.7Z"/><path class="cls-3" d="M276.57,192.36c-.9-6.12-4.41-13.58-9.51-17.31a9.88,9.88,0,0,0-1.42-.85c-3.32-1.62-7.9-1.6-9.52,2.13-1.26,2.93.58,7.19,2.16,9.66a88.54,88.54,0,0,1,6.13,11.53s5.13,17.08,6.25,22.49a10.13,10.13,0,0,1,.21,1.27"/><path class="cls-3" d="M265.74,174c1.71-4.33,5.66-6.37,10.09-4.82a9.05,9.05,0,0,1,3.41,2.33c4.08,4.23,6.58,12.47,7.08,17.22"/><path class="cls-3" d="M279.82,171.39c1.19-4.42,5.13-4.82,8.23-2.73,3.74,2.5,7,6.71,9.1,13.67a60.28,60.28,0,0,1,2.17,14.9"/><path class="cls-3" d="M305.38,210.62c2.52-5.14,2.41-31.29-8.23-28.29"/><path class="cls-3" d="M270.08,220.11c-3.63,1.44-2.73,5.95.12,6.93,12.44,4.24,36.12-5.48,38.21-13,.63-2.26-.29-4.55-3-3.36l-.25.11s-10,8.81-23.12,10.47"/><path class="cls-1" d="M204.2,315.32l-22.45,8.09-24.23-39.62s51.11-16.19,63.72-17.51S257.08,312,257.08,312l15.24-.23c4.25,35.69-35.06,34.13-46.81,28.76C215.54,336,204.2,315.32,204.2,315.32Z"/><path class="cls-3" d="M204.2,315.32l-22.45,8.09-24.23-39.62s51.11-16.19,63.72-17.51S257.08,312,257.08,312l15.24-.23c4.25,35.69-35.06,34.13-46.81,28.76C215.54,336,204.2,315.32,204.2,315.32Z"/><line class="cls-3" x1="215.98" y1="311.07" x2="204.2" y2="315.32"/><polygon class="cls-1" points="195.47 267.62 208.11 313.91 186.8 321.59 174.4 278.14 189.73 273.87 191.43 278.14 190.13 273.94 188.69 269.29 195.47 267.62"/><polyline class="cls-3" points="191.43 278.14 190.13 273.94 188.69 269.29 195.47 267.62 208.11 313.91 186.8 321.59 174.4 278.14 189.73 273.87"/><polyline class="cls-3" points="208.5 273.56 215.08 279.75 223.3 272.85 227.67 281.19 232.15 276.5"/><path class="cls-4" d="M144.76,204.23c0,11.29,7.44,20.44,16.63,20.44S178,215.52,178,204.23Z"/><line class="cls-3" x1="154.16" y1="208.17" x2="160.36" y2="216.76"/><line class="cls-3" x1="160.36" y1="208.17" x2="154.16" y2="216.76"/><ellipse class="cls-4" cx="184.08" cy="206.79" rx="16.67" ry="19.86"/><line class="cls-3" x1="174.21" y1="203.6" x2="182.45" y2="215.02"/><line class="cls-3" x1="182.45" y1="203.6" x2="174.21" y2="215.02"/><path class="cls-1" d="M175,292.81l-5.2-15-.21-.47,5.64-2.5,13.32,48.95-39.64,15L130,265.61s10.26-10.53,19.06,2.94l-.15.08c-.23,1.65-2.85,6-4.82,9.57-1.24,2.25-.26,7.63,3.18,6.69s5.69-8,5.75-8.18c.76,2.06,1.49,4.38,2.19,7l7-3.12v0l5,14.4.06.23a4,4,0,0,0,7.71-2.42Zm-5.79,24.83a4,4,0,1,0-5.68-.62A4,4,0,0,0,169.2,317.64Z"/><polygon class="cls-1" points="131.4 271.32 128.36 272.92 120.94 276.83 122.91 284.84 122.91 284.84 123.96 289.11 127.7 304.29 128.75 308.56 128.75 308.56 132.49 323.74 133.54 328.01 135.86 337.43 140.72 334.87 143.68 333.32 146.33 331.92 131.4 271.32"/><path class="cls-1" d="M143.74,333.55l-.06-.23-3,1.55-4.86,2.56L133.54,328c-4.59,1.13-7.48,5.45-6.45,9.64s5.6,6.68,10.19,5.54S144.77,337.75,143.74,333.55Z"/><path class="cls-1" d="M132.49,323.74l-3.74-15.18h0c-4.59,1.13-7.48,5.45-6.45,9.64S127.89,324.88,132.49,323.74Z"/><path class="cls-1" d="M122.91,284.84l-2-8,7.42-3.91a8.54,8.54,0,0,0-9.19-3.26c-4.6,1.13-7.49,5.45-6.45,9.64S118.31,286,122.91,284.84Z"/><path class="cls-1" d="M127.7,304.29,124,289.11c-4.6,1.13-7.49,5.45-6.45,9.64S123.1,305.42,127.7,304.29Z"/><path class="cls-3" d="M141.52,113.23c-2.38,3.28-3.44,6.78-1.86,9.92,4,7.94,20.5,6.41,30.65.77,5.11-2.84,1.86-9.27-3.37-6.67-6.31,3.14-12,7.62-15.41,12.66-6.15,9.09-4.32,19.06,5.68,18.88,5.27-.1,15.87-2.19,20.48-4.89,4.34-2.54,4.11-8.56-.63-8.17-9.41.77-24.94,18.94-9.35,24"/><path class="cls-3" d="M279.59,154.49c3.08,1,6,.95,8-1,4.88-4.83.82-16.36-5.38-23.1-3.46-3.77-8.07.77-5.16,4.35a25.38,25.38,0,0,0,12.76,8.05c6.51,1.75,16.19-.52,13-9a56.49,56.49,0,0,0-9-14.36c-3.18-3.3-7.84-1.09-6.54,3.06,2.6,8.25,26.66,15.17,26.63,2.06"/><path class="cls-3" d="M238.07,119.1c-8.2,5.58,1.8,10.77-.49,16.52-2.83,7.14-15.81,1.45-11.53,15.57"/><path class="cls-3" d="M125.05,168.26c-5.89-7-9.71,2.66-15.19,1.1-6.81-1.92-2.82-14.35-15.37-9.1"/><path class="cls-1" d="M104.91,293.26l0,.51-.57,15.89h0a4,4,0,0,1-8.07-.52l0-.24.55-15.22v0Z"/><path class="cls-1" d="M92.65,325.65A4,4,0,1,1,87.57,323,4,4,0,0,1,92.65,325.65Z"/><path class="cls-1" d="M88.9,277.55a41.18,41.18,0,0,1,.77,9.15s-4.75,5.93-8.3,5.57-2.53-5.73-.56-7.39C83.93,282.25,88.08,279,88.9,277.55Z"/><path class="cls-1" d="M175,292.82a4,4,0,0,1-7.71,2.42l-.06-.23-5-14.4v0l7.35-3.26.21.47,5.2,15Z"/><path class="cls-1" d="M153,276.71h0c-.06.17-2.34,7.24-5.75,8.18s-4.42-4.44-3.18-6.69c2-3.58,4.59-7.92,4.82-9.57l.15-.08A41.19,41.19,0,0,1,153,276.71Z"/><path class="cls-1" d="M169.82,312a4,4,0,1,1-5.69-.61A4,4,0,0,1,169.82,312Z"/><path class="cls-5" d="M58.67,283.45c-4.7-.6-8.06-4.56-7.52-8.84s4.8-7.27,9.5-6.67a8.54,8.54,0,0,1,7.4,6.36"/><path class="cls-5" d="M56.12,303.32c-4.69-.6-8.06-4.56-7.51-8.84s4.8-7.27,9.5-6.67"/><path class="cls-5" d="M53.58,323.19c-4.7-.6-8.06-4.56-7.51-8.84s4.8-7.27,9.5-6.67"/><path class="cls-5" d="M60.56,336.15a1.94,1.94,0,0,1,0,.24c-.55,4.29-4.8,7.27-9.5,6.67s-8.06-4.56-7.51-8.84,4.8-7.27,9.49-6.67"/><polyline class="cls-5" points="71.46 273.9 68.05 274.3 59.71 275.26 58.66 283.45 58.11 287.81 56.12 303.32 55.57 307.68 53.58 323.19 53.02 327.55 53.02 327.55 51.79 337.17 57.25 336.54 60.56 336.15 63.54 335.81"/><path class="cls-5" d="M104.91,293.26l6.16-.3-5.22,50.46-42.37-.34,8.73-75S85.5,262,88.9,277.55a41.18,41.18,0,0,1,.77,9.15c0,2.2-.18,4.63-.48,7.32l7.68-.37Z"/><path class="cls-3" d="M84.94,328.1A4,4,0,1,1,90,330.73,4.05,4.05,0,0,1,84.94,328.1Z"/><path class="cls-3" d="M104.37,309.66a4,4,0,0,1-8.07-.52"/><path class="cls-3" d="M104.39,309.43c0,.08,0,.15,0,.23"/><polyline class="cls-3" points="104.94 293.77 104.37 309.66 104.37 309.66"/><line class="cls-3" x1="96.88" y1="293.68" x2="96.33" y2="308.9"/><path class="cls-3" d="M89.67,286.7s-4.75,5.93-8.3,5.57-2.53-5.73-.56-7.39c3.12-2.63,7.27-5.87,8.09-7.33"/><polyline class="cls-3" points="57.25 336.54 57.93 329.76 58.68 322.39 59.63 313.01"/><path class="cls-5" d="M122.91,284.84c-4.6,1.13-9.16-1.35-10.19-5.54s1.85-8.51,6.45-9.64a8.54,8.54,0,0,1,9.19,3.26"/><path class="cls-5" d="M127.7,304.29c-4.6,1.13-9.16-1.35-10.19-5.54s1.85-8.51,6.45-9.64"/><path class="cls-5" d="M132.49,323.74c-4.6,1.14-9.16-1.34-10.19-5.54s1.86-8.51,6.45-9.64"/><path class="cls-5" d="M143.68,333.32l.06.23c1,4.2-1.86,8.51-6.46,9.64s-9.16-1.34-10.19-5.54,1.86-8.51,6.45-9.64"/><polyline class="cls-5" points="131.4 271.32 128.36 272.92 120.94 276.83 122.91 284.84 122.91 284.84 123.96 289.11 127.7 304.29 128.75 308.56 128.75 308.56 132.49 323.74 133.54 328.01 135.86 337.43 140.72 334.87 143.68 333.32 146.33 331.92"/><path class="cls-5" d="M153,276.71c.76,2.06,1.49,4.38,2.19,7l7-3.12,7.35-3.26,5.64-2.5,13.32,48.95-39.64,15L130,265.61s10.26-10.53,19.06,2.94a41.19,41.19,0,0,1,4,8.16"/><path class="cls-3" d="M163.52,317a4,4,0,1,1,5.68.62A4,4,0,0,1,163.52,317Z"/><path class="cls-3" d="M175,292.82a4,4,0,0,1-7.71,2.42"/><path class="cls-3" d="M174.92,292.6a1.72,1.72,0,0,1,.07.21"/><polyline class="cls-3" points="169.79 277.79 174.99 292.81 174.99 292.82"/><line class="cls-3" x1="162.24" y1="280.61" x2="167.22" y2="295.01"/><path class="cls-3" d="M153,276.71h0c-.06.17-2.34,7.24-5.75,8.18s-4.42-4.44-3.18-6.69c2-3.58,4.59-7.92,4.82-9.57"/><polyline class="cls-3" points="140.72 334.87 138.92 328.31 136.96 321.16 134.47 312.07"/></svg>