<svg id="Layer_1" data-name="Layer 1" xmlns="http://www.w3.org/2000/svg" viewBox="0 0 400 400"><defs><style>.cls-1,.cls-4{fill:#fff;}.cls-2,.cls-3{fill:none;stroke-linecap:round;}.cls-2,.cls-3,.cls-4{stroke:#000;stroke-width:1.88px;}.cls-2,.cls-4{stroke-miterlimit:10;}.cls-3{stroke-linejoin:round;}</style></defs><title>Desk_Dudes1</title><path d="M64.7,341.44c0,.92-1,3.23-2.74,3.27-3.23.08-7.54,0-11.14,0-8.4,0-13.19-.94-13.19-2.76s4.66-3.5,12.31-3.67C57.26,338.15,64.7,339.62,64.7,341.44Z"/><path d="M292.55,344.62S216,347,218.72,339.75c2-5.13,74.3-1.87,74.3-1.87Z"/><path d="M175.22,344.83s-32.29-.29-56.94,0c-18.44.24-27.89-2.25-26.92-4.8,1.87-5,82.9-3.4,82.9-3.4Z"/><path class="cls-1" d="M134.24,155.45l0-.07V140.89a18.47,18.47,0,0,1,18.46-18.46H295.88a18.47,18.47,0,0,1,18.47,18.46v17.52h0c35.2-14.14,76.16,33.22,26,68.19-3-6.31-10.34-14-14.21-17.41,27.08-20.76,6.13-38.92-12-30.18l.22.45V209c-4.33-.37-9.74,2-8.92,10.45v.5c-4.12-.12-5.82,2.23-4.73,6.28a5.46,5.46,0,0,0,4.12,3.56c-4.36-.37-5.85,3.92-3.67,6.87,1.33,1.8,3.52,2.62,5.59,3.18l0,.12c-2.37.53-3.14,4.5-.07,6.81a18.36,18.36,0,0,1-10.74,3.44H152.72a18.46,18.46,0,0,1-18.46-18.46V179.63C99.38,167.57,86.91,196,86.91,196c-1.19-9.34-11.11-12.56-11.11-12.56v-5.84l0-.1a4.19,4.19,0,0,0,3.33-4.1v-9.7h.14C88.32,158.06,111.17,146.49,134.24,155.45Z"/><polygon class="cls-1" points="326.92 334.67 325.46 343.92 275.59 343.55 272.59 338.83 268.97 343.9 253.63 343.92 255.26 335.57 257.7 335.45 321.92 334.62 326.92 334.67"/><polygon class="cls-1" points="188.65 335.57 190.28 343.92 174.94 343.9 171.32 338.83 168.32 343.55 118.45 343.92 116.99 334.67 121.99 334.62 186.21 335.45 188.65 335.57"/><path class="cls-1" d="M294.26,295.3c7.56,3.57,4.68,10.59.69,12.14h0l-.26.1c-8.43,2.7-28.57,4.2-36.46,2.25a5.85,5.85,0,0,1-2.89-1.33,6.78,6.78,0,0,1,2.58-10.91c.64-.24,1.33-.46,2-.67,10.43-3.08,28.31-3.77,33.76-1.8A5.51,5.51,0,0,1,294.26,295.3Z"/><path class="cls-1" d="M186.55,297.78a6.8,6.8,0,0,1,2,10.68,5.9,5.9,0,0,1-2.84,1.33c-7.86,1.95-28.06.45-36.5-2.25a4.73,4.73,0,0,1-.62-.25h0c-3.8-1.81-6.29-8.51,1.05-12a11.31,11.31,0,0,1,2.91-.8c7.7-1.29,24.57-.2,33.44,3.05Z"/><path class="cls-1" d="M289.55,250.4c3.72,10.15,6.24,24.65,4.17,44.68-5.45-2-23.33-1.28-33.76,1.8l0-.15c2.88-11.65,6.47-32.46-.94-46.55h30.57Z"/><path class="cls-1" d="M187.13,250.18v.46c-7.17,14.44-3.36,35.67-.49,47l-.09.18-.55-.23c-8.87-3.25-25.74-4.34-33.44-3.05-2-20.11.66-34.26,4.45-44.32Z"/><path class="cls-1" d="M295,307.44c30.83-12.05,40.84,15,27,27.18l-64.22.83.47-25.49.05-.17c7.89,1.95,28,.45,36.46-2.25l.26-.1Z"/><path class="cls-1" d="M185.73,309.79l.48,25.66L122,334.62c-13.87-12.14-4.22-39.39,26.61-27.34h0a4.73,4.73,0,0,0,.62.25C157.67,310.24,177.87,311.74,185.73,309.79Z"/><path class="cls-1" d="M79.11,163.67v9.7a4.19,4.19,0,0,1-3.33,4.1,4.14,4.14,0,0,1-.87.09,4.19,4.19,0,0,1-4.19-4.19V115.66a4.2,4.2,0,0,1,8.39,0Z"/><polygon class="cls-1" points="75.83 317.86 75.83 322.4 48.1 322.4 48.01 322.4 48.01 317.86 75.81 317.86 75.83 317.86"/><polygon class="cls-1" points="75.83 322.4 66.77 337.2 66.58 337.09 56.99 337.09 48.1 322.81 48.1 322.4 75.83 322.4"/><rect class="cls-1" x="48.01" y="245.63" width="27.79" height="72.23"/><path class="cls-1" d="M75.8,214.42v31.21H48V223.57h-.48c2.41,0,3.71-3.06,2.38-5.25l0-.47A5.53,5.53,0,0,0,51,218a3.67,3.67,0,0,0,3.52-1.68c1.26-1.93.31-4.18-.84-6l.05-.37c2.79.31,5.6-.88,5.62-4.37,0-3.8-6.51-7.91-11.35-8.83v-77H70.72v53.6a4.19,4.19,0,0,0,4.19,4.19,4.14,4.14,0,0,0,.87-.09l0,.1v18.75s-1.16,7.25-7.17,10.58c-5.57,3.07-1.21,13.33,5.65,8.59a12.43,12.43,0,0,0,1.34-1.09Z"/><path class="cls-1" d="M74.91,111.47a4.2,4.2,0,0,0-4.19,4.19v.08H48a13.86,13.86,0,0,1,13.86-13.86A13.49,13.49,0,0,1,74.91,111.47Z"/><polygon class="cls-1" points="70.72 115.74 70.72 119.77 70.52 119.77 48.01 119.77 48.01 115.74 70.52 115.74 70.72 115.74"/><path class="cls-1" d="M66.77,337.2,63.26,343a1.53,1.53,0,0,1-2.61,0L57,337.09h9.59Z"/><path class="cls-1" d="M341,228q-.25-.71-.6-1.44c-3-6.31-10.34-14-14.21-17.41-.19-.18-.38-.34-.56-.49-3.1-2.64-7.3.5-6.38,2.71-.61-1.27-2.59-2.25-4.87-2.44-4.33-.37-9.74,2-8.92,10.45v.5c-4.12-.12-5.82,2.23-4.73,6.28a5.46,5.46,0,0,0,4.12,3.56c-4.36-.37-5.85,3.92-3.67,6.87,1.33,1.8,3.52,2.62,5.59,3.18l0,.12c-2.37.53-3.14,4.5-.07,6.81a7.29,7.29,0,0,0,1.23.74c3,1.37,16.45,6,28.46-13.91l.11-.21C338.29,235,342.49,232.16,341,228Z"/><path class="cls-1" d="M75.8,183.41v12.91s-1.16,7.25-7.17,10.58c-5.57,3.07-1.21,13.33,5.65,8.59a12.43,12.43,0,0,0,1.34-1.09c5.26-4.92,3-12.39,3-12.39a3.62,3.62,0,0,0,2.62-3.34c.8,2.82,6.36,2.71,5.67-2.7C85.72,186.63,75.8,183.41,75.8,183.41Z"/><path class="cls-1" d="M48,196.73v-4.45c-3.64.24-5.06,4.13-4.9,6.4a5.23,5.23,0,0,0,.07.68l-.34,0c-2.06.57-2.74,3.54-2.56,5.37a13.75,13.75,0,0,0,1,3.83l-.32.13c-1.74-.28-2.85,1.89-2.87,3.27,0,2.69,1.55,5.54,3.19,7.57,1.34,1.67,3.5,3.53,5.67,4a3.05,3.05,0,0,0,.6.06c2.41,0,3.71-3.06,2.38-5.25l0-.47A5.53,5.53,0,0,0,51,218a3.67,3.67,0,0,0,3.52-1.68c1.26-1.93.31-4.18-.84-6l.05-.37c2.79.31,5.6-.88,5.62-4.37C59.38,201.76,52.85,197.65,48,196.73Z"/><path class="cls-2" d="M259.92,296.73c2.88-11.65,6.47-32.46-.94-46.55"/><path class="cls-2" d="M289.55,250.4c3.72,10.15,6.24,24.65,4.17,44.68"/><path class="cls-2" d="M186.64,297.6c-2.87-11.29-6.68-32.52.49-47"/><path class="cls-2" d="M157,250.18c-3.79,10.06-6.47,24.21-4.45,44.32"/><path class="cls-3" d="M295,307.44c30.83-12.05,40.84,15,27,27.18l5,.05-1.46,9.25-49.87-.37-3-4.72L269,343.9l-15.34,0,1.63-8.35,2.44-.12.47-25.49"/><path class="cls-3" d="M258.22,309.79c7.89,1.95,28,.45,36.46-2.25l.26-.1h0c4-1.55,6.87-8.57-.69-12.14a5.51,5.51,0,0,0-.54-.22c-5.45-2-23.33-1.28-33.76,1.8-.72.21-1.41.43-2,.67a6.78,6.78,0,0,0-2.58,10.91A5.85,5.85,0,0,0,258.22,309.79Z"/><line class="cls-3" x1="321.92" y1="334.62" x2="257.7" y2="335.45"/><path class="cls-3" d="M148.6,307.28c-30.83-12-40.48,15.2-26.61,27.34l-5,.05,1.46,9.25,49.87-.37,3-4.72,3.61,5.07,15.35,0-1.63-8.35-2.44-.12-.48-25.66"/><path class="cls-3" d="M185.73,309.79c-7.86,1.95-28.06.45-36.5-2.25a4.73,4.73,0,0,1-.62-.25h0c-3.8-1.81-6.29-8.51,1.05-12a11.31,11.31,0,0,1,2.91-.8c7.7-1.29,24.57-.2,33.44,3.05l.55.23a6.8,6.8,0,0,1,2,10.68A5.9,5.9,0,0,1,185.73,309.79Z"/><line class="cls-3" x1="121.99" y1="334.62" x2="186.21" y2="335.45"/><path class="cls-2" d="M306.62,246.74a18.36,18.36,0,0,1-10.74,3.44H152.72a18.46,18.46,0,0,1-18.46-18.46V179.63"/><line class="cls-2" x1="314.35" y1="179.46" x2="314.35" y2="208.97"/><path class="cls-2" d="M134.26,155.38V140.89a18.47,18.47,0,0,1,18.46-18.46H295.88a18.47,18.47,0,0,1,18.47,18.46v17.52"/><path class="cls-2" d="M151.9,153.37l61.5,53.8a14,14,0,0,0,18.74-.1l60.17-53.7"/><path class="cls-2" d="M86.91,196s12.47-28.4,47.35-16.34c1.05.36,2.12.76,3.2,1.2"/><path class="cls-2" d="M140.22,158.25a48.67,48.67,0,0,0-6-2.8c-23.07-9-45.92,2.61-55,8.22"/><path class="cls-2" d="M310.84,160a36.79,36.79,0,0,1,3.51-1.62c35.2-14.14,76.16,33.22,26,68.19"/><path class="cls-2" d="M326.16,209.19c27.08-20.76,6.13-38.92-12-30.18a25.69,25.69,0,0,0-3.29,1.91"/><path class="cls-2" d="M319.22,211.41c-.92-2.21,3.28-5.35,6.38-2.71.18.15.37.31.56.49,3.87,3.42,11.25,11.1,14.21,17.41q.35.74.6,1.44c1.52,4.12-2.68,7-4.55,5.32l-.15-.15a60,60,0,0,0-7.83-9.85"/><path class="cls-2" d="M319.27,211.52a.54.54,0,0,0,0-.11c-.61-1.27-2.59-2.25-4.87-2.44-4.33-.37-9.74,2-8.92,10.45"/><path class="cls-2" d="M336.31,233.57c-12,20-25.5,15.28-28.46,13.91a7.29,7.29,0,0,1-1.23-.74c-3.07-2.31-2.3-6.28.07-6.81"/><path class="cls-3" d="M313.58,220.21c-4.72.57-3.77-.11-8-.29h-.16c-4.12-.12-5.82,2.23-4.73,6.28a5.46,5.46,0,0,0,4.12,3.56c-4.36-.37-5.85,3.92-3.67,6.87,1.33,1.8,3.52,2.62,5.59,3.18h0"/><path class="cls-3" d="M303.74,229.39a29.83,29.83,0,0,0,9.84,1.52"/><path class="cls-2" d="M304.76,239.12a19.82,19.82,0,0,0,2,.68,30.45,30.45,0,0,0,5.19,1c1.56.16,2.59.16,2.59.16"/><path class="cls-2" d="M48.1,322.81,57,337.09,60.65,343a1.53,1.53,0,0,0,2.61,0l3.51-5.75,9.06-14.8"/><polyline class="cls-2" points="48.01 317.86 48.01 245.63 48.01 223.57"/><polyline class="cls-2" points="75.81 214.42 75.81 245.63 75.81 317.86"/><polyline class="cls-2" points="75.81 177.57 75.81 183.41 75.81 196.32"/><line class="cls-2" x1="48.01" y1="119.77" x2="70.52" y2="119.77"/><polyline class="cls-2" points="48.01 196.73 48.01 192.28 48.01 120.22"/><path class="cls-2" d="M74.91,111.47a13.49,13.49,0,0,0-13-9.59A13.86,13.86,0,0,0,48,115.74H70.52"/><path class="cls-2" d="M75.78,177.47a4.14,4.14,0,0,1-.87.09,4.19,4.19,0,0,1-4.19-4.19V115.66a4.2,4.2,0,0,1,8.39,0v57.71A4.19,4.19,0,0,1,75.78,177.47Z"/><polygon class="cls-3" points="75.83 322.4 48.1 322.4 48.01 322.4 48.01 317.86 75.81 317.86 75.83 317.86 75.83 322.4"/><line class="cls-2" x1="56.99" y1="337.09" x2="66.58" y2="337.09"/><polyline class="cls-2" points="48.01 245.63 75.81 245.63 75.83 245.63"/><path class="cls-2" d="M48,192.28c-3.64.24-5.06,4.13-4.9,6.4a5.23,5.23,0,0,0,.07.68c.62,4.54,4.14,8.19,8.26,10a8.23,8.23,0,0,0,2.3.61c2.79.31,5.6-.88,5.62-4.37,0-3.8-6.51-7.91-11.35-8.83"/><path class="cls-2" d="M42.84,199.38c-2.06.57-2.74,3.54-2.56,5.37a13.75,13.75,0,0,0,1,3.83,22.28,22.28,0,0,0,2.69,4.7c1.45,2,3.52,4,6,4.57A5.53,5.53,0,0,0,51,218a3.67,3.67,0,0,0,3.52-1.68c1.26-1.93.31-4.18-.84-6"/><path class="cls-2" d="M40.94,208.71c-1.74-.28-2.85,1.89-2.87,3.27,0,2.69,1.55,5.54,3.19,7.57,1.34,1.67,3.5,3.53,5.67,4a3.05,3.05,0,0,0,.6.06c2.41,0,3.71-3.06,2.38-5.25"/><path class="cls-2" d="M75.8,196.32s-1.16,7.25-7.17,10.58c-5.57,3.07-1.21,13.33,5.65,8.59a12.43,12.43,0,0,0,1.34-1.09c5.26-4.92,3-12.39,3-12.39a3.62,3.62,0,0,0,2.62-3.34"/><path class="cls-2" d="M75.8,183.41s9.92,3.22,11.11,12.56c.69,5.41-4.87,5.52-5.67,2.7,0,0-.58-3.14-1.52-4.28"/><path class="cls-3" d="M122,317.09s1.5-8.95,13.73-8.36"/><path class="cls-3" d="M305.84,310.43s10.46-4.05,16.08,4.93"/><polyline class="cls-2" points="48.01 115.74 48.01 119.77 48.01 120.22"/><ellipse class="cls-4" cx="205.48" cy="115.9" rx="16.62" ry="19.8"/><ellipse class="cls-4" cx="234.32" cy="115.9" rx="16.11" ry="19.8"/><ellipse cx="229.89" cy="120.79" rx="4.6" ry="8.47"/><ellipse class="cls-1" cx="233.71" cy="118.77" rx="2.49" ry="2.6"/><ellipse cx="203.36" cy="120.79" rx="4.6" ry="8.47"/><ellipse class="cls-1" cx="207.18" cy="118.77" rx="2.49" ry="2.6"/><path class="cls-3" d="M208.79,87.64c4.08-.06,7.74,3.13,10.2,6.08,1.32-2.83,4.88-6,8-6.48"/><polygon points="156.79 249.91 154.25 258.56 182.83 263.76 186.25 250.3 156.79 249.91"/><polygon points="289.19 249.91 291.73 258.56 263.15 263.76 259.73 250.3 289.19 249.91"/><path class="cls-1" d="M298.67,120.86a1,1,0,0,1,0,.17h0a24.24,24.24,0,0,1-8.32,17.5c-5.06,4.35-11.84,6.54-20.19,6.54a56.75,56.75,0,0,1-8.82-.73,7.44,7.44,0,1,1,2.27-14.71c7.79,1.21,13.38.05,16.93-2.29a7.71,7.71,0,0,0,3.22-6.48,7.46,7.46,0,1,1,14.91,0Z"/><path class="cls-2" d="M298.67,120.86a7.46,7.46,0,1,0-14.91,0,7.71,7.71,0,0,1-3.22,6.48c-3.55,2.34-9.14,3.5-16.93,2.29a7.44,7.44,0,1,0-2.27,14.71,56.75,56.75,0,0,0,8.82.73c8.35,0,15.13-2.19,20.19-6.54a24.24,24.24,0,0,0,8.32-17.5h0A1,1,0,0,0,298.67,120.86Z"/><path class="cls-2" d="M291.25,121s0,20.4-29.28,16"/><line class="cls-2" x1="288.91" y1="121.03" x2="293.55" y2="121.03"/></svg>