<svg width="37" height="14" viewBox="0 0 45 22" fill="none" xmlns="http://www.w3.org/2000/svg">
<path d="M6 6.21C6 6.93 6.21 7.46 6.63 7.8C7.05 8.14 7.58 8.37 8.22 8.49C8.86 8.61 9.56 8.66 10.32 8.64C11.08 8.62 11.8 8.61 12.48 8.61C13.24 8.61 13.87 8.68 14.37 8.82C14.89 8.96 15.15 9.27 15.15 9.75C15.15 10.07 15.03 10.31 14.79 10.47C14.57 10.61 14.27 10.71 13.89 10.77C13.51 10.83 13.07 10.86 12.57 10.86C12.09 10.84 11.58 10.83 11.04 10.83C10.44 10.83 9.84 10.86 9.24 10.92C8.64 10.98 8.1 11.12 7.62 11.34C7.14 11.56 6.75 11.89 6.45 12.33C6.15 12.77 6 13.37 6 14.13V21H0.6V14.58C0.6 13.62 0.82 12.85 1.26 12.27C1.72 11.69 2.31 11.24 3.03 10.92C3.77 10.6 4.6 10.39 5.52 10.29C6.44 10.19 7.36 10.14 8.28 10.14C9.12 10.14 9.93 10.16 10.71 10.2C11.49 10.24 12.18 10.26 12.78 10.26C13.32 10.26 13.75 10.23 14.07 10.17C14.39 10.09 14.55 9.95 14.55 9.75C14.55 9.53 14.38 9.39 14.04 9.33C13.7 9.25 13.24 9.21 12.66 9.21C11.96 9.21 11.14 9.24 10.2 9.3C9.26 9.36 8.3 9.39 7.32 9.39C6.48 9.39 5.65 9.35 4.83 9.27C4.03 9.19 3.31 9.03 2.67 8.79C2.05 8.55 1.55 8.22 1.17 7.8C0.79 7.36 0.6 6.8 0.6 6.12V-1.43051e-06H6V6.21ZM15.84 21V-1.43051e-06H21.24V21H15.84ZM22.4262 -1.43051e-06H28.7562L35.7762 12C36.1162 12.58 36.3562 13.12 36.4962 13.62C36.6562 14.1 36.7362 14.63 36.7362 15.21C36.7362 15.69 36.7062 16.1 36.6462 16.44C36.6062 16.76 36.5562 17.07 36.4962 17.37C36.4562 17.67 36.4062 17.98 36.3462 18.3C36.3062 18.62 36.2862 19.01 36.2862 19.47C36.2862 19.91 36.3362 20.22 36.4362 20.4C36.5362 20.56 36.6662 20.64 36.8262 20.64C37.3462 20.64 37.6062 20.18 37.6062 19.26V-1.43051e-06H38.2062V19.14C38.2062 19.78 38.0462 20.28 37.7262 20.64C37.4262 20.98 36.9962 21.15 36.4362 21.15C35.8162 21.15 35.2662 20.94 34.7862 20.52C34.3262 20.1 33.8062 19.4 33.2262 18.42L23.0262 1.02V21H22.4262V-1.43051e-06Z" fill="#EBEBEB"/>
<path d="M40.9784 19.38C40.9784 18.64 41.1584 18.12 41.5184 17.82C41.8784 17.52 42.3084 17.37 42.8084 17.37C43.3284 17.37 43.7684 17.52 44.1284 17.82C44.5084 18.12 44.6984 18.64 44.6984 19.38C44.6984 20.1 44.5084 20.62 44.1284 20.94C43.7684 21.26 43.3284 21.42 42.8084 21.42C42.3084 21.42 41.8784 21.26 41.5184 20.94C41.1584 20.62 40.9784 20.1 40.9784 19.38Z" fill="#53B7FF"/>
</svg>
